      <svg
        class="bed-animation"
        width="100%"
        height="100%"
        viewBox="0 0 6781 5494"
        style="
          fill-rule: evenodd;
          clip-rule: evenodd;
          stroke-linecap: round;
          stroke-linejoin: round;
          stroke-miterlimit: 1.5;
        "
      >
        <g id="Beet-hinten">
          <g id="Beetumrandung">
            <rect
              x="940.562"
              y="2964.82"
              width="2668.37"
              height="464.826"
              style="fill: #8d806d; stroke: #000; stroke-width: 6.25px"
            />
            <path
              d="M2671.49,3780.68l-0,464.827l937.437,-815.869l-0,-464.826l-937.437,815.868Z"
              style="fill: #8d806d; stroke: #000; stroke-width: 6.25px"
            />
            <path
              d="M3.125,3780.68l937.437,-815.868l0,464.826l-937.437,815.869l0,-464.827Z"
              style="fill: #8d806d; stroke: #000; stroke-width: 6.25px"
            />
            <rect
              x="3.125"
              y="3780.68"
              width="2668.37"
              height="464.826"
              style="fill: #8d806d; stroke: #000; stroke-width: 6.25px"
            />
          </g>
          <path
            id="Erde-hinten"
            d="M940.562,3122.42l2528.2,-36.613l-797.272,694.881l-2482.45,0l751.524,-658.268Z"
            style="fill: #684827; stroke: #000; stroke-width: 6.25px"
          />
          <g id="Pflanzen">
            <g id="Pflanze-vorne-links">
              <path
                d="M581.691,3060.44c-0,0 153.511,212.969 -14.243,548.826c0,-0 -99.387,-311.992 14.243,-548.826Z"
                style="fill: #87af35; stroke: #000; stroke-width: 3.13px"
              />
              <path
                d="M326.855,3292.87c0,-0 313.561,-100.614 293.151,364.673c-0,0 -16.199,24.485 -55.344,-7.377c0,0 -45.2,-289.403 -237.807,-357.296Z"
                style="fill: #87af35; stroke: #000; stroke-width: 3.13px"
              />
              <path
                d="M842.731,3295.24c0,0 -264.902,-51.188 -241.188,365.84c0,0 10.907,18.167 25.002,-22.558c-0,-0 99.993,-323.732 216.186,-343.282Z"
                style="fill: #87af35; stroke: #000; stroke-width: 3.13px"
              />
            </g>
            <g id="Pflanze-vorne-rechts">
              <path
                d="M2661.51,3065.99c-0,0 153.511,212.969 -14.243,548.826c0,-0 -99.387,-311.992 14.243,-548.826Z"
                style="fill: #87af35; stroke: #000; stroke-width: 3.13px"
              />
              <path
                d="M2406.67,3298.41c-0,-0 313.561,-100.613 293.15,364.674c0,-0 -16.199,24.485 -55.343,-7.377c0,-0 -45.2,-289.404 -237.807,-357.297Z"
                style="fill: #87af35; stroke: #000; stroke-width: 3.13px"
              />
              <path
                d="M2922.55,3300.78c0,0 -264.902,-51.187 -241.188,365.841c-0,-0 10.907,18.166 25.002,-22.559c-0,0 99.993,-323.732 216.186,-343.282Z"
                style="fill: #87af35; stroke: #000; stroke-width: 3.13px"
              />
            </g>
            <g id="Pflanze-vorne-mitte-links">
              <path
                d="M1322.04,3108.89c-0,0 153.511,212.969 -14.243,548.826c0,-0 -99.387,-311.992 14.243,-548.826Z"
                style="fill: #658947; stroke: #000; stroke-width: 3.13px"
              />
              <path
                d="M1067.2,3341.32c-0,-0 313.561,-100.613 293.151,364.674c-0,-0 -16.2,24.485 -55.344,-7.377c0,-0 -45.2,-289.404 -237.807,-357.297Z"
                style="fill: #658947; stroke: #000; stroke-width: 3.13px"
              />
              <path
                d="M1583.08,3343.69c0,0 -264.902,-51.187 -241.188,365.841c-0,-0 10.907,18.166 25.002,-22.559c-0,0 99.993,-323.732 216.186,-343.282Z"
                style="fill: #658947; stroke: #000; stroke-width: 3.13px"
              />
            </g>
            <g id="Pflanze-vorne-mitte-rechts">
              <path
                d="M2030.55,3116.08c0,0 153.511,212.969 -14.242,548.826c-0,-0 -99.388,-311.992 14.242,-548.826Z"
                style="fill: #87af35; stroke: #000; stroke-width: 3.13px"
              />
              <path
                d="M1775.71,3348.51c0,-0 313.562,-100.614 293.151,364.673c-0,0 -16.199,24.485 -55.343,-7.377c-0,0 -45.201,-289.403 -237.808,-357.296Z"
                style="fill: #87af35; stroke: #000; stroke-width: 3.13px"
              />
              <path
                d="M2291.59,3350.88c-0,0 -264.902,-51.188 -241.189,365.84c0,0 10.908,18.167 25.002,-22.558c0,-0 99.993,-323.732 216.187,-343.282Z"
                style="fill: #87af35; stroke: #000; stroke-width: 3.13px"
              />
            </g>
            <g id="Pflanze-hinten-links">
              <path
                d="M1063.17,2630.95c0,0 153.511,212.969 -14.242,548.826c-0,-0 -99.388,-311.992 14.242,-548.826Z"
                style="fill: #87af35; stroke: #000; stroke-width: 3.13px"
              />
              <path
                d="M808.33,2863.38c0,-0 313.562,-100.613 293.151,364.674c0,-0 -16.199,24.485 -55.343,-7.377c-0,-0 -45.201,-289.404 -237.808,-357.297Z"
                style="fill: #87af35; stroke: #000; stroke-width: 3.13px"
              />
              <path
                d="M1324.21,2865.75c-0,0 -264.902,-51.187 -241.189,365.841c0,-0 10.908,18.166 25.002,-22.559c0,0 99.993,-323.732 216.187,-343.282Z"
                style="fill: #87af35; stroke: #000; stroke-width: 3.13px"
              />
            </g>
            <g id="Pflanze-hinten-rechts">
              <path
                d="M2962.74,2674.77c-0,0 153.511,212.97 -14.243,548.826c0,0 -99.387,-311.991 14.243,-548.826Z"
                style="fill: #658947; stroke: #000; stroke-width: 3.13px"
              />
              <path
                d="M2707.91,2907.19c0,-0 313.561,-100.613 293.151,364.674c-0,-0 -16.199,24.485 -55.344,-7.377c0,-0 -45.2,-289.404 -237.807,-357.297Z"
                style="fill: #658947; stroke: #000; stroke-width: 3.13px"
              />
              <path
                d="M3223.78,2909.57c-0,-0 -264.902,-51.188 -241.189,365.84c0,-0 10.908,18.166 25.002,-22.559c-0,0 99.993,-323.732 216.187,-343.281Z"
                style="fill: #658947; stroke: #000; stroke-width: 3.13px"
              />
            </g>
            <g id="Pflanze-hinten-mitte-links">
              <path
                d="M1714.92,2679.4c-0,0 153.511,212.97 -14.243,548.826c0,-0 -99.387,-311.992 14.243,-548.826Z"
                style="fill: #658947; stroke: #000; stroke-width: 3.13px"
              />
              <path
                d="M1460.09,2911.83c-0,-0 313.561,-100.613 293.151,364.674c-0,-0 -16.199,24.485 -55.344,-7.377c0,-0 -45.2,-289.404 -237.807,-357.297Z"
                style="fill: #658947; stroke: #000; stroke-width: 3.13px"
              />
              <path
                d="M1975.97,2914.2c0,0 -264.902,-51.187 -241.188,365.841c-0,-0 10.907,18.166 25.002,-22.559c-0,0 99.993,-323.732 216.186,-343.282Z"
                style="fill: #658947; stroke: #000; stroke-width: 3.13px"
              />
            </g>
            <g id="Pflanze-hinten-mitte-rechts">
              <path
                d="M2331.78,2679.4c-0,0 153.511,212.97 -14.243,548.826c0,-0 -99.387,-311.992 14.243,-548.826Z"
                style="fill: #658947; stroke: #000; stroke-width: 3.13px"
              />
              <path
                d="M2076.95,2911.83c0,-0 313.562,-100.613 293.151,364.674c-0,-0 -16.199,24.485 -55.344,-7.377c0,-0 -45.2,-289.404 -237.807,-357.297Z"
                style="fill: #658947; stroke: #000; stroke-width: 3.13px"
              />
              <path
                d="M2592.82,2914.2c-0,0 -264.902,-51.187 -241.189,365.841c0,-0 10.908,18.166 25.002,-22.559c0,0 99.993,-323.732 216.187,-343.282Z"
                style="fill: #658947; stroke: #000; stroke-width: 3.13px"
              />
            </g>
          </g>
        </g>
        <g id="Beet-vorne">
          <g id="Beetumrandung-hinten">
            <rect
              x="1949.76"
              y="4217.42"
              width="2681.55"
              height="462"
              style="fill: #8d806d; stroke: #000; stroke-width: 6.25px"
            />
            <path
              d="M3689.24,5028.32l0,462l942.068,-810.907l0,-462l-942.068,810.907Z"
              style="fill: #8d806d; stroke: #000; stroke-width: 6.25px"
            />
            <path
              d="M1007.69,5028.32l942.067,-810.907l0,462l-942.067,810.907l-0,-462Z"
              style="fill: #8d806d; stroke: #000; stroke-width: 6.25px"
            />
            <rect
              x="1007.69"
              y="5028.32"
              width="2681.55"
              height="462"
              style="fill: #8d806d; stroke: #000; stroke-width: 6.25px"
            />
          </g>
          <path
            id="Erde-vorne"
            serif:id="Erde"
            d="M1949.76,4374.06l2540.69,-36.391l-801.21,690.656l-2494.72,0l755.236,-654.265Z"
            style="fill: #684827; stroke: #000; stroke-width: 6.25px"
          />
          <g id="Pflanzen-Beet-vorne">
            <g id="Pflanze-vorne-links1" serif:id="Pflanze-vorne-links">
              <path
                d="M1601.9,4997.64c0,-0 56.304,35.485 97.881,-78.793c41.577,-114.277 13.321,-2.875 89.449,-36.255c76.127,-33.379 -6.117,-21.369 -0.48,-86.108c5.638,-64.74 12.555,-79.44 56.676,-64.053c44.121,15.386 118.418,-78.414 21.123,-138.988c-97.296,-60.573 -116.184,34.415 -120.573,76.361c-4.39,41.946 40.558,88.902 -0,92.136c-40.558,3.234 -87.968,-9.917 -101.242,46.251c-13.274,56.168 60.607,82.859 -0,110.656c-60.607,27.798 -117.444,-29.616 -80.39,78.793l37.556,-0Z"
                style="fill: #87af35; stroke: #000; stroke-width: 6.25px"
              />
              <path
                d="M1595.76,4918.84c0,0 12.682,-170.915 93.873,-191.996c81.192,-21.081 18.183,-61.351 25.764,-129.583c7.581,-68.231 60.774,-62.125 70.77,-101.232c9.996,-39.106 -79.119,-82.438 -70.479,-158.365c0,0 -9.821,-100.696 16.844,-196.983c26.666,-96.287 -243.111,-281.99 -268.271,-225.991c-0,0 -194.099,83.015 40.379,464.101c0,0 99.508,85.801 103.334,158.653c3.826,72.852 -56.043,267.669 -12.214,381.396Z"
                style="fill: #87af35; stroke: #000; stroke-width: 6.25px"
              />
              <path
                d="M1566.96,4899.03c0,-0 -100.402,1.129 -119.845,-45.16c-0,-0 9.945,-77.273 -13.487,-111.797c-23.432,-34.524 -95.166,21.074 -132.245,-45.793c-37.078,-66.867 22.783,-128.145 -14.38,-158.529c-37.164,-30.383 -155.248,10.045 -211.074,-51.283c-55.826,-61.328 14.228,-111.106 50.546,-104.376c36.318,6.73 128.463,-5.981 161.753,-43.301c33.291,-37.32 128.703,44.945 120.361,92.794c-8.342,47.849 100.912,95.556 155.653,110.493c54.742,14.936 10.417,71.475 -1.489,174.284c-11.907,102.808 -16.165,131.586 4.207,182.668Z"
                style="fill: #87af35; stroke: #000; stroke-width: 6.25px"
              />
            </g>
            <g id="Pflanze-hinten-rechts1" serif:id="Pflanze-hinten-rechts">
              <path
                d="M4126.32,4475.95c0,0 56.304,35.485 97.881,-78.792c41.577,-114.278 13.321,-2.876 89.449,-36.255c76.127,-33.38 -6.117,-21.37 -0.48,-86.109c5.638,-64.739 12.555,-79.44 56.676,-64.053c44.121,15.386 118.418,-78.414 21.123,-138.988c-97.296,-60.573 -116.184,34.415 -120.573,76.361c-4.389,41.946 40.558,88.903 -0,92.136c-40.558,3.234 -87.968,-9.917 -101.242,46.251c-13.274,56.168 60.607,82.86 -0,110.657c-60.607,27.797 -117.443,-29.617 -80.39,78.792l37.556,0Z"
                style="fill: #87af35; stroke: #000; stroke-width: 6.25px"
              />
              <path
                d="M4120.18,4397.16c-0,-0 12.681,-170.915 93.872,-191.997c81.192,-21.081 18.183,-61.351 25.764,-129.582c7.581,-68.232 60.774,-62.125 70.77,-101.232c9.996,-39.107 -79.119,-82.439 -70.479,-158.366c0,0 -9.821,-100.696 16.844,-196.983c26.666,-96.287 -243.111,-281.99 -268.271,-225.991c-0,0 -194.099,83.015 40.38,464.102c-0,-0 99.507,85.8 103.333,158.652c3.826,72.852 -56.043,267.67 -12.213,381.397Z"
                style="fill: #87af35; stroke: #000; stroke-width: 6.25px"
              />
              <path
                d="M4091.38,4377.34c0,-0 -100.402,1.129 -119.845,-45.16c-0,-0 9.945,-77.272 -13.487,-111.796c-23.432,-34.525 -95.166,21.073 -132.244,-45.794c-37.079,-66.867 22.782,-128.145 -14.381,-158.528c-37.164,-30.384 -155.248,10.044 -211.074,-51.284c-55.826,-61.328 14.228,-111.105 50.546,-104.376c36.318,6.73 128.463,-5.98 161.754,-43.3c33.29,-37.32 128.702,44.944 120.36,92.794c-8.342,47.849 100.912,95.556 155.654,110.492c54.741,14.937 10.416,71.476 -1.49,174.284c-11.906,102.809 -16.165,131.586 4.207,182.668Z"
                style="fill: #87af35; stroke: #000; stroke-width: 6.25px"
              />
            </g>
            <g id="Pflanze-hinten-mitte">
              <path
                d="M3105.66,4509.4c0,0 56.304,35.486 97.881,-78.792c41.577,-114.278 13.321,-2.876 89.449,-36.255c76.127,-33.379 -6.118,-21.37 -0.48,-86.109c5.637,-64.739 12.555,-79.439 56.676,-64.053c44.121,15.387 118.418,-78.414 21.122,-138.987c-97.295,-60.574 -116.183,34.415 -120.572,76.361c-4.39,41.945 40.557,88.902 -0,92.136c-40.558,3.234 -87.968,-9.918 -101.242,46.25c-13.274,56.168 60.607,82.86 -0,110.657c-60.608,27.797 -117.444,-29.617 -80.39,78.792l37.556,0Z"
                style="fill: #658947; stroke: #000; stroke-width: 6.25px"
              />
              <path
                d="M3099.52,4430.61c0,0 12.681,-170.915 93.873,-191.996c81.192,-21.082 18.183,-61.351 25.764,-129.583c7.581,-68.232 60.774,-62.125 70.769,-101.232c9.996,-39.107 -79.118,-82.439 -70.478,-158.365c0,-0 -9.822,-100.696 16.844,-196.983c26.665,-96.287 -243.111,-281.991 -268.272,-225.991c0,-0 -194.098,83.015 40.38,464.101c0,-0 99.508,85.8 103.334,158.653c3.826,72.852 -56.043,267.669 -12.214,381.396Z"
                style="fill: #658947; stroke: #000; stroke-width: 6.25px"
              />
              <path
                d="M3070.72,4410.8c-0,0 -100.403,1.129 -119.845,-45.16c-0,0 9.945,-77.272 -13.487,-111.796c-23.432,-34.524 -95.167,21.074 -132.245,-45.793c-37.078,-66.867 22.783,-128.146 -14.38,-158.529c-37.164,-30.383 -155.248,10.044 -211.074,-51.284c-55.826,-61.327 14.228,-111.105 50.546,-104.375c36.318,6.729 128.463,-5.981 161.753,-43.301c33.291,-37.32 128.703,44.945 120.361,92.794c-8.342,47.849 100.912,95.556 155.653,110.493c54.742,14.936 10.417,71.475 -1.489,174.283c-11.907,102.809 -16.165,131.587 4.207,182.668Z"
                style="fill: #658947; stroke: #000; stroke-width: 6.25px"
              />
            </g>
            <g id="Pflanze-hinten-links1" serif:id="Pflanze-hinten-links">
              <path
                d="M2158.78,4509.07c0,0 53.95,37.77 93.789,-83.865c39.838,-121.634 12.764,-3.06 85.709,-38.589c72.944,-35.528 -5.862,-22.745 -0.46,-91.652c5.402,-68.907 12.03,-84.554 54.306,-68.177c42.277,16.377 113.467,-83.462 20.24,-147.935c-93.228,-64.473 -111.326,36.631 -115.532,81.277c-4.206,44.646 38.862,94.626 0,98.068c-38.862,3.442 -84.29,-10.556 -97.009,49.228c-12.719,59.784 58.073,88.194 -0,117.78c-58.073,29.587 -112.533,-31.523 -77.029,83.865l35.986,0Z"
                style="fill: #658947; stroke: #000; stroke-width: 6.25px"
              />
              <path
                d="M2152.9,4425.2c-0,0 12.151,-181.918 89.948,-204.356c77.797,-22.439 17.422,-65.301 24.687,-137.925c7.264,-72.624 58.232,-66.125 67.81,-107.749c9.578,-41.625 -75.81,-87.746 -67.531,-168.561c-0,0 -9.411,-107.178 16.139,-209.664c25.551,-102.485 -232.946,-300.144 -257.055,-240.539c-0,-0 -185.984,88.359 38.692,493.978c-0,0 95.347,91.324 99.013,168.867c3.666,77.542 -53.7,284.901 -11.703,405.949Z"
                style="fill: #658947; stroke: #000; stroke-width: 6.25px"
              />
              <path
                d="M2125.3,4404.11c-0,-0 -96.205,1.202 -114.835,-48.067c0,-0 9.53,-82.247 -12.923,-118.994c-22.452,-36.747 -91.187,22.431 -126.715,-48.741c-35.528,-71.172 21.83,-136.395 -13.78,-168.734c-35.609,-32.34 -148.757,10.69 -202.249,-54.586c-53.492,-65.275 13.634,-118.258 48.433,-111.095c34.799,7.163 123.092,-6.365 154.991,-46.088c31.899,-39.723 123.321,47.838 115.328,98.768c-7.993,50.929 96.693,101.708 149.146,117.606c52.453,15.898 9.981,76.077 -1.427,185.504c-11.409,109.427 -15.489,140.057 4.031,194.427Z"
                style="fill: #658947; stroke: #000; stroke-width: 6.25px"
              />
            </g>
            <g id="Pflanze-vorne-mitte">
              <path
                d="M2732.24,4971.41c0,0 56.304,35.485 97.881,-78.792c41.577,-114.278 13.321,-2.876 89.448,-36.255c76.128,-33.38 -6.117,-21.37 -0.479,-86.109c5.637,-64.739 12.555,-79.44 56.676,-64.053c44.121,15.386 118.417,-78.414 21.122,-138.988c-97.295,-60.573 -116.183,34.415 -120.573,76.361c-4.389,41.946 40.558,88.903 0,92.136c-40.557,3.234 -87.967,-9.917 -101.241,46.251c-13.275,56.168 60.607,82.86 -0,110.657c-60.608,27.797 -117.444,-29.617 -80.39,78.792l37.556,0Z"
                style="fill: #87af35; stroke: #000; stroke-width: 6.25px"
              />
              <path
                d="M2726.1,4892.61c0,-0 12.681,-170.915 93.873,-191.997c81.192,-21.081 18.183,-61.351 25.764,-129.582c7.581,-68.232 60.773,-62.126 70.769,-101.232c9.996,-39.107 -79.118,-82.439 -70.478,-158.366c-0,0 -9.822,-100.696 16.844,-196.983c26.665,-96.287 -243.111,-281.99 -268.272,-225.991c0,0 -194.099,83.015 40.38,464.102c0,-0 99.508,85.8 103.334,158.652c3.826,72.852 -56.043,267.67 -12.214,381.397Z"
                style="fill: #87af35; stroke: #000; stroke-width: 6.25px"
              />
              <path
                d="M2697.29,4872.8c-0,-0 -100.403,1.129 -119.845,-45.16c-0,-0 9.945,-77.272 -13.487,-111.797c-23.433,-34.524 -95.167,21.074 -132.245,-45.793c-37.078,-66.867 22.783,-128.145 -14.381,-158.528c-37.163,-30.384 -155.247,10.044 -211.073,-51.284c-55.826,-61.328 14.228,-111.105 50.546,-104.376c36.317,6.73 128.463,-5.98 161.753,-43.3c33.291,-37.321 128.703,44.944 120.361,92.794c-8.342,47.849 100.912,95.556 155.653,110.492c54.742,14.937 10.417,71.476 -1.49,174.284c-11.906,102.809 -16.164,131.586 4.208,182.668Z"
                style="fill: #87af35; stroke: #000; stroke-width: 6.25px"
              />
            </g>
            <g id="Pflanze-vorne-rechts1" serif:id="Pflanze-vorne-rechts">
              <path
                d="M3648.54,4986.73c-0,-0 56.304,35.485 97.881,-78.792c41.577,-114.278 13.321,-2.876 89.448,-36.255c76.128,-33.38 -6.117,-21.37 -0.479,-86.109c5.637,-64.74 12.554,-79.44 56.676,-64.053c44.121,15.386 118.417,-78.414 21.122,-138.988c-97.295,-60.573 -116.183,34.415 -120.573,76.361c-4.389,41.946 40.558,88.902 0,92.136c-40.557,3.234 -87.967,-9.917 -101.242,46.251c-13.274,56.168 60.608,82.859 0,110.657c-60.607,27.797 -117.443,-29.617 -80.389,78.792l37.556,-0Z"
                style="fill: #658947; stroke: #000; stroke-width: 6.25px"
              />
              <path
                d="M3642.41,4907.93c0,-0 12.681,-170.916 93.873,-191.997c81.192,-21.081 18.183,-61.351 25.764,-129.583c7.581,-68.231 60.773,-62.125 70.769,-101.232c9.996,-39.106 -79.118,-82.438 -70.478,-158.365c-0,0 -9.822,-100.696 16.844,-196.983c26.665,-96.287 -243.111,-281.99 -268.272,-225.991c0,0 -194.099,83.015 40.38,464.101c0,0 99.508,85.801 103.334,158.653c3.826,72.852 -56.043,267.669 -12.214,381.397Z"
                style="fill: #658947; stroke: #000; stroke-width: 6.25px"
              />
              <path
                d="M3613.6,4888.12c-0,-0 -100.403,1.129 -119.845,-45.16c-0,-0 9.945,-77.273 -13.488,-111.797c-23.432,-34.524 -95.166,21.074 -132.244,-45.793c-37.078,-66.867 22.783,-128.145 -14.381,-158.529c-37.163,-30.383 -155.247,10.045 -211.073,-51.283c-55.826,-61.328 14.228,-111.106 50.545,-104.376c36.318,6.73 128.464,-5.981 161.754,-43.301c33.291,-37.32 128.703,44.945 120.361,92.794c-8.342,47.85 100.912,95.556 155.653,110.493c54.742,14.936 10.417,71.475 -1.49,174.284c-11.906,102.808 -16.164,131.586 4.208,182.668Z"
                style="fill: #658947; stroke: #000; stroke-width: 6.25px"
              />
            </g>
          </g>
        </g>
        <g id="water" class="water">
          <path
            class="path path28"
            d="M3237.83,2170.98c0,-0 -839.394,-118.583 -1283.22,902.814"
            style="
              fill: none;
              stroke: #0433ff;
              stroke-width: 9.38px;
              stroke-dasharray: 37.5, 56.25, 0, 0, 0, 0;
            "
          />
          <path
            class="path path29"
            d="M3279.3,2368.03c-0,0 -390.149,234.667 -391.707,750.267"
            style="
              fill: none;
              stroke: #0433ff;
              stroke-width: 9.38px;
              stroke-dasharray: 37.5, 56.25, 0, 0, 0, 0;
            "
          />
          <path
            class="path path30"
            d="M3279.3,2314.08c-0,0 -404.892,196.064 -515.467,759.716"
            style="
              fill: none;
              stroke: #0433ff;
              stroke-width: 9.38px;
              stroke-dasharray: 37.5, 56.25, 0, 0, 0, 0;
            "
          />
          <path
            class="path path31"
            d="M3279.3,2268.35c-0,0 -468.619,192.222 -657.379,849.947"
            style="
              fill: none;
              stroke: #0433ff;
              stroke-width: 9.38px;
              stroke-dasharray: 37.5, 56.25, 0, 0, 0, 0;
            "
          />
          <path
            class="path path32"
            d="M3279.3,2231.83c-0,0 -776.381,-222.55 -1262.26,1009.4"
            style="
              fill: none;
              stroke: #0433ff;
              stroke-width: 9.38px;
              stroke-dasharray: 37.5, 56.25, 0, 0, 0, 0;
            "
          />
          <path
            class="path path33"
            d="M3222.21,2268.35c0,0 -525.409,-155.627 -948.598,849.947"
            style="
              fill: none;
              stroke: #0433ff;
              stroke-width: 9.38px;
              stroke-dasharray: 37.5, 56.25, 0, 0, 0, 0;
            "
          />
          <path
            class="path path34"
            d="M3226.8,2274.29c-0,0 -513.812,65.348 -864.098,943.812"
            style="
              fill: none;
              stroke: #0433ff;
              stroke-width: 9.38px;
              stroke-dasharray: 37.5, 56.25, 0, 0, 0, 0;
            "
          />
        </g>
        <g id="watercan-aside">
          <g id="Ausgiesser">
            <path
              d="M4836.8,592.61c30.177,-44.145 64.299,-109.116 113.144,-141.275c18.432,-12.136 47.837,-23.184 66.731,-3.875c36.419,32.384 -12.152,90.739 -29.151,117.337c-11.422,17.87 -23.406,35.406 -34.01,53.774c-2.235,3.871 -14.388,23.619 -15.435,27.965c-34.576,68.171 -62.984,94.2 -62.984,94.2c-33.39,30.708 -62.582,10.563 -62.582,10.563c-34.057,-33.117 -15.189,-73.905 -15.189,-73.905c24.197,-73.637 40.596,-83.136 39.476,-84.784Z"
              style="fill: #aa7942; stroke: #000; stroke-width: 3.13px"
            />
            <path
              d="M4987.84,500.246c5.18,2.99 7.032,9.492 4.135,14.51c-2.897,5.018 -9.454,6.664 -14.633,3.674c-5.179,-2.99 -7.032,-9.492 -4.134,-14.51c2.897,-5.018 9.453,-6.664 14.632,-3.674Z"
              style="fill: none; stroke: #000; stroke-width: 3.13px"
            />
            <path
              d="M4986.75,450.967c5.179,2.99 7.032,9.492 4.135,14.509c-2.897,5.018 -9.454,6.665 -14.633,3.674c-5.179,-2.99 -7.032,-9.491 -4.135,-14.509c2.897,-5.018 9.454,-6.664 14.633,-3.674Z"
              style="fill: none; stroke: #000; stroke-width: 3.13px"
            />
            <path
              d="M4948.66,479.923c5.179,2.99 7.032,9.492 4.135,14.51c-2.897,5.018 -9.454,6.664 -14.633,3.674c-5.179,-2.99 -7.032,-9.492 -4.135,-14.51c2.897,-5.018 9.454,-6.664 14.633,-3.674Z"
              style="fill: none; stroke: #000; stroke-width: 3.13px"
            />
            <path
              d="M4943.45,517.126c5.179,2.99 7.032,9.491 4.135,14.509c-2.897,5.018 -9.454,6.664 -14.633,3.674c-5.179,-2.99 -7.032,-9.491 -4.135,-14.509c2.897,-5.018 9.454,-6.664 14.633,-3.674Z"
              style="fill: none; stroke: #000; stroke-width: 3.13px"
            />
            <path
              d="M4971.47,545.422c5.179,2.99 7.031,9.492 4.134,14.51c-2.897,5.018 -9.454,6.664 -14.633,3.674c-5.179,-2.99 -7.031,-9.492 -4.134,-14.51c2.897,-5.018 9.454,-6.664 14.633,-3.674Z"
              style="fill: none; stroke: #000; stroke-width: 3.13px"
            />
            <path
              d="M4947.88,582.562c5.179,2.991 7.032,9.492 4.135,14.51c-2.897,5.018 -9.454,6.664 -14.633,3.674c-5.179,-2.99 -7.032,-9.492 -4.135,-14.51c2.897,-5.017 9.454,-6.664 14.633,-3.674Z"
              style="fill: none; stroke: #000; stroke-width: 3.13px"
            />
            <path
              d="M4923.19,559.607c5.179,2.99 7.032,9.491 4.135,14.509c-2.897,5.018 -9.454,6.665 -14.633,3.674c-5.179,-2.99 -7.032,-9.491 -4.135,-14.509c2.897,-5.018 9.454,-6.664 14.633,-3.674Z"
              style="fill: none; stroke: #000; stroke-width: 3.13px"
            />
            <path
              d="M4899.27,525.212c5.179,2.99 7.032,9.492 4.135,14.51c-2.897,5.018 -9.454,6.664 -14.633,3.674c-5.179,-2.99 -7.032,-9.492 -4.135,-14.51c2.897,-5.018 9.454,-6.664 14.633,-3.674Z"
              style="fill: none; stroke: #000; stroke-width: 3.13px"
            />
            <path
              d="M4873.89,573.117c5.179,2.99 7.032,9.491 4.135,14.509c-2.897,5.018 -9.454,6.664 -14.633,3.674c-5.179,-2.99 -7.032,-9.491 -4.135,-14.509c2.897,-5.018 9.454,-6.664 14.633,-3.674Z"
              style="fill: none; stroke: #000; stroke-width: 3.13px"
            />
            <path
              d="M4898.44,599.413c5.179,2.99 7.032,9.491 4.135,14.509c-2.897,5.018 -9.454,6.664 -14.633,3.674c-5.179,-2.99 -7.032,-9.492 -4.135,-14.509c2.897,-5.018 9.454,-6.665 14.633,-3.674Z"
              style="fill: none; stroke: #000; stroke-width: 3.13px"
            />
            <path
              d="M4926.86,622.252c5.179,2.991 7.032,9.492 4.135,14.51c-2.897,5.018 -9.454,6.664 -14.633,3.674c-5.179,-2.99 -7.032,-9.492 -4.135,-14.51c2.897,-5.017 9.454,-6.664 14.633,-3.674Z"
              style="fill: none; stroke: #000; stroke-width: 3.13px"
            />
            <path
              d="M4904.56,656.547c5.18,2.991 7.032,9.492 4.135,14.51c-2.897,5.018 -9.454,6.664 -14.633,3.674c-5.179,-2.99 -7.032,-9.492 -4.134,-14.51c2.897,-5.017 9.453,-6.664 14.632,-3.674Z"
              style="fill: none; stroke: #000; stroke-width: 3.13px"
            />
            <path
              d="M4873.1,643.299c5.179,2.99 7.031,9.491 4.134,14.509c-2.897,5.018 -9.454,6.664 -14.633,3.674c-5.179,-2.99 -7.031,-9.491 -4.134,-14.509c2.897,-5.018 9.453,-6.664 14.633,-3.674Z"
              style="fill: none; stroke: #000; stroke-width: 3.13px"
            />
            <path
              d="M4845.98,618.372c5.179,2.99 7.031,9.491 4.134,14.509c-2.897,5.018 -9.454,6.664 -14.633,3.674c-5.179,-2.99 -7.031,-9.491 -4.134,-14.509c2.897,-5.018 9.454,-6.665 14.633,-3.674Z"
              style="fill: none; stroke: #000; stroke-width: 3.13px"
            />
            <path
              d="M4825.45,675.596c5.179,2.99 7.032,9.492 4.134,14.51c-2.897,5.017 -9.453,6.664 -14.632,3.674c-5.18,-2.991 -7.032,-9.492 -4.135,-14.51c2.897,-5.018 9.454,-6.664 14.633,-3.674Z"
              style="fill: none; stroke: #000; stroke-width: 3.13px"
            />
            <path
              d="M4875.84,684.615c5.179,2.99 7.032,9.491 4.135,14.509c-2.897,5.018 -9.454,6.664 -14.633,3.674c-5.179,-2.99 -7.032,-9.492 -4.135,-14.509c2.897,-5.018 9.454,-6.665 14.633,-3.674Z"
              style="fill: none; stroke: #000; stroke-width: 3.13px"
            />
            <path
              d="M4844.28,707.782c5.179,2.99 7.032,9.492 4.135,14.51c-2.898,5.018 -9.454,6.664 -14.633,3.674c-5.179,-2.99 -7.032,-9.492 -4.135,-14.51c2.897,-5.018 9.454,-6.664 14.633,-3.674Z"
              style="fill: none; stroke: #000; stroke-width: 3.13px"
            />
          </g>
          <g id="Ausgiesser-hinten" serif:id="Ausgiesser hinten">
            <path
              d="M5046.61,504.328c-0,-0 -34.031,113.299 -151.884,244.705c-0,0 37.755,-1.65 77.221,-61.431c39.466,-59.78 9.885,-15.614 50.916,-75.173c0,-0 44.886,-63.99 23.747,-108.101Z"
              style="fill: #91aba6; stroke: #000; stroke-width: 3.13px"
            />
            <path
              d="M5048.55,594.284c0,-0 19.495,22.555 -4.742,66.574c-24.237,44.02 -55.891,36.392 -61.05,34.066l65.792,-100.64Z"
              style="fill: #91aba6; stroke: #000; stroke-width: 3.13px"
            />
            <path
              d="M5086.06,656.059c-0,-0 -2.134,31.919 -30.631,59.893"
              style="fill: none; stroke: #000; stroke-width: 3.13px"
            />
            <path
              d="M5065.75,639.728c0,-0 -11.993,37.677 -45.5,61.97c0,0 3.18,18.294 17.597,13.067c14.417,-5.227 34.132,-41.432 37.229,-55.334m-0,-0c-0,-0 3.96,-10.636 1.093,-16.596c-0,0 -4.728,-10.286 -10.311,-3.045"
              style="fill: #91aba6; stroke: #000; stroke-width: 3.13px"
            />
          </g>
          <g id="Steg">
            <path
              d="M5055.43,715.952l363.186,239.431c0,-0 88.702,1.642 68.287,-94.248l-400.842,-205.076"
              style="fill: #a5bbb3; stroke: #000; stroke-width: 3.13px"
            />
            <path
              d="M5517.98,850.39c0,0 -7.78,6.67 -16.975,4.497c-0,0 2.892,-9.171 10.11,-11.346c0,0 5.556,1.696 6.865,6.849Z"
              style="fill: #91aba6; stroke: #000; stroke-width: 3.13px"
            />
            <path
              d="M5520.64,863.123c0,-0 21.6,44.57 -12.314,84.752c-33.915,40.181 -89.286,31.273 -87.186,24.166c-0,-0 99.095,9.847 86.713,-104.115l12.787,-4.803Z"
              style="fill: #91aba6; stroke: #000; stroke-width: 3.13px"
            />
            <path
              d="M5538,882.831c-0,0 298.748,166.276 323.104,167.856c0,0 40.694,49.609 27.606,191.304c0,0 -179.126,-89.695 -418.569,-252.528c0,-0 79.147,-26.158 67.859,-106.632Z"
              style="fill: #a5bbb3; stroke: #000; stroke-width: 3.13px"
            />
            <path
              d="M6073.03,905.643c-0,0 110.807,-11.045 95.188,25.754c-15.62,36.799 -53.27,-4.082 -92.02,-7.917c-0,-0 -93.629,-12.867 -125.347,-16.176l-416.072,-51.752l-3.203,-8.492l541.454,58.583Z"
              style="fill: #91aba6; stroke: #000; stroke-width: 3.13px"
            />
            <path
              d="M5819.79,718.357l1.724,14.525c0,-0 -24.225,10.764 -58.533,25.352c-67.664,28.771 -174.55,72.412 -212.159,77.668l-11.929,-1.472c-0,0 255.075,-94.912 280.897,-116.073Z"
              style="fill: #91aba6; stroke: #000; stroke-width: 3.13px"
            />
          </g>
          <g id="Kanne">
            <path
              d="M6557.14,1254.62c0,-0 -46.254,149.053 -214.888,176.199c-168.634,27.146 -198.14,16.78 -262.882,6.264c-64.741,-10.517 -185.475,-59.064 -210.79,-118.328c0,-0 34.054,126.752 270.449,154.75m-0,-0c-0,-0 142.626,17.647 209.408,-1.607c66.783,-19.254 119.661,-44.935 159.615,-83.94c39.953,-39.005 59.267,-94.307 49.774,-132.943"
              style="fill: #99aba1; stroke: #000; stroke-width: 3.13px"
            />
            <path
              d="M6280.22,1410.79c0,-0 -156.339,20.98 -263.522,-28.262c-107.182,-49.241 -124.378,-71.886 -149.157,-121.937c-0,0 17.953,11.03 32.772,-6.294c14.818,-17.325 16.737,-43.471 18.464,-64.387c1.726,-20.916 -6.135,-80.666 -12.001,-102.776c-5.867,-22.11 -20.937,-55.208 -55.32,-51.91c-0,0 -11.237,-111.348 -7.471,-133.557c0,0 165.539,14.711 208.446,33.141c42.908,18.431 92.035,26.808 109.236,19.873c17.2,-6.936 30.715,-8.633 31.217,-33.247c0.503,-24.614 -21.484,-33.059 -41.026,-36.704c-19.543,-3.646 -33.974,0.255 -59.069,3.782c-25.096,3.528 -78.068,-7.443 -90.977,-5.583c-12.909,1.86 -149.22,-14.809 -157.681,-15.762c0,-0 -12.205,-223.473 -17.072,-249.752c0,0 44.442,53.748 160.5,79.362c116.057,25.614 176.38,18.819 205.646,17.809c29.267,-1.01 118.586,-8.386 130.712,-12.362c0,-0 -10.413,64.004 2.803,81.308c13.216,17.305 13.908,21.145 45.901,20.151c31.993,-0.994 44.466,-25.679 52.917,-43.562c8.452,-17.882 14.042,-63.602 10.226,-76.291c0,0 21.314,7.991 24.378,-12.504c0,0 106.415,-54.614 114.279,-75.972l-46.77,642.245c0,-0 -76.165,158.815 -247.431,173.191Z"
              style="fill: #91aba6; stroke: #000; stroke-width: 3.13px"
            />
            <path
              d="M6387.71,424.587c0,0 2.561,73.302 -10.211,120.124c0,-0 -80.326,-96.387 -191.92,-140.854c0,-0 195.488,13.719 202.131,20.73Z"
              style="fill: #617a69; stroke: #000; stroke-width: 3.13px"
            />
            <path
              d="M6502.54,456.327l-28.301,169.557c-0,0 67.289,-28.397 86.218,-66.605c18.93,-38.207 11.266,-73.857 -57.917,-102.952"
              style="fill: #617a69; stroke: #000; stroke-width: 3.13px"
            />
            <path
              d="M6117.06,402.983l35.02,-2.112c-0,0 212.7,131.273 225.542,159.9l-6.239,38.065c-0,0 -69.423,-76.718 -254.323,-195.853Z"
              style="fill: #a5bbb3; stroke: #000; stroke-width: 3.13px"
            />
            <path
              d="M6100.53,410.602c0,-0 204.622,123.381 268.471,205.736l-11.504,33.539c-0,0 -200.672,11.774 -218.573,6.84c-0,0 -237.481,-3.364 -277.481,-74.16c-39.999,-70.797 51.954,-117.787 79.344,-125.757c-0,-0 95.735,-37.313 159.743,-46.198Z"
              style="fill: #a5bbb3; stroke: #000; stroke-width: 3.13px"
            />
            <path
              d="M5995.15,424.496c-0,0 -115.935,20.48 -153.881,91.569m0,-0c0,-0 -21.327,37.919 5.025,68.029c26.352,30.111 24.392,45.477 121.757,68.792c97.364,23.314 143.689,9.953 215.564,19.645c71.876,9.692 101.961,-5.362 169.076,-8.057l-8.99,15.572c-0,0 -12.709,-4.061 -16.001,9.654c0,-0 -74.575,5.681 -115.974,6.746c0,0 -117.382,-0.471 -153.665,-6.564c-0,0 -99.415,-12.447 -156.101,-40.74c-56.685,-28.293 -62.38,-43.131 -74.125,-58.153c-0,0 -33.841,-43.527 -4.691,-85.389c-0,-0 27.741,-55.278 172.006,-81.104"
              style="fill: #99aba1; stroke: #000; stroke-width: 3.13px"
            />
            <path
              d="M6580.9,518.051c0,0 16.253,20.764 -23.685,74.442m-0,0c-0,0 -12,16.336 -37.789,32.034c0,0 -37.481,21.754 -50.173,31.016l1.793,-14.937c0,0 111.699,-39.471 109.854,-122.555"
              style="fill: #99aba1; stroke: #000; stroke-width: 3.13px"
            />
          </g>
          <path
            d="M6340.86,696.046c0,0 5.783,5.951 19.003,4.454c0,-0 51.09,-16.482 61.862,-16.694c0,0 0.594,58.102 -15.558,81.012c-16.151,22.911 -19.571,21.982 -30.69,26.459c-11.118,4.476 -24.306,3.823 -34.558,-5.898m0,0c0,0 -18.083,-20.533 -0.059,-89.333"
            style="fill: #a5bbb3; stroke: #000; stroke-width: 3.13px"
          />
          <g id="Griff_hinten">
            <path
              d="M6680.36,367.531c0,-0 -89.612,-53.798 -173.089,80.002c-0,-0 23.079,2.58 50.044,23.219c0,0 17.772,-101.546 123.045,-103.221Z"
              style="fill: #a5bbb3; stroke: #000; stroke-width: 3.13px"
            />
            <path
              d="M6658.56,383.547c0,0 77.625,-23.782 108.32,47.827c-0,0 25.644,44.919 2.945,121.148m0,-0c0,-0 -19.516,89.35 -170.767,234.457l-0.709,-76.776c-0,-0 101.61,-104.186 129.282,-168.421c-0,-0 74.339,-143.441 -69.322,-157.799"
              style="fill: #99aba1; stroke: #000; stroke-width: 3.13px"
            />
          </g>
          <g id="Griff-oben" serif:id="Griff oben">
            <path
              d="M6027.27,21.073l37.104,19.364c-0,0 -45.546,25.563 -45.506,122.492c0.041,96.929 8.206,187.534 24.578,236.485l-63.546,14.528c0,-0 3.581,-47.42 -5.971,-96.991c-9.551,-49.571 -9.49,-122.668 -10.426,-138.088c-0.936,-15.421 -0.664,-47.432 2.958,-68.8c3.621,-21.368 15.22,-75.492 60.809,-88.99Z"
              style="fill: #99aba1; stroke: #000; stroke-width: 3.13px"
            />
            <path
              d="M6049.9,15.48c9.573,2.796 20.95,-9.645 86.54,27.154c-0,-0 21.64,8.585 35.445,16.856c0,-0 97.75,40.538 114.172,69.525c-0,-0 -81.008,-59.414 -171.108,-81.503c0,-0 -19.287,-7.48 -65.049,-32.032Z"
              style="fill: #99aba1; stroke: #000; stroke-width: 3.13px"
            />
            <path
              d="M6104.28,11.295c0,0 14.735,-16.554 49.155,-6.483c0,-0 110.813,62.303 171.421,77.885c0,-0 140.903,123.539 153.329,272.071c0,-0 6.775,238.913 -32.618,314.471c-0,0 -30.134,-3.63 -86.874,14.865c-0,0 60.15,-162.975 43.563,-285.674c0,-0 -22.92,-212.602 -91.243,-265.154c-0,0 -53.851,-56.762 -206.733,-121.981Z"
              style="fill: #a5bbb3; stroke: #000; stroke-width: 3.13px"
            />
          </g>
        </g>
        <g id="watercan-watering">
          <g id="Ausgiesser">
            <path
              d="M4836.8,592.61c30.177,-44.145 64.299,-109.116 113.144,-141.275c18.432,-12.136 47.837,-23.184 66.731,-3.875c36.419,32.384 -12.152,90.739 -29.151,117.337c-11.422,17.87 -23.406,35.406 -34.01,53.774c-2.235,3.871 -14.388,23.619 -15.435,27.965c-34.576,68.171 -62.984,94.2 -62.984,94.2c-33.39,30.708 -62.582,10.563 -62.582,10.563c-34.057,-33.117 -15.189,-73.905 -15.189,-73.905c24.197,-73.637 40.596,-83.136 39.476,-84.784Z"
              style="fill: #aa7942; stroke: #000; stroke-width: 3.13px"
            />
            <path
              d="M4987.84,500.246c5.18,2.99 7.032,9.492 4.135,14.51c-2.897,5.018 -9.454,6.664 -14.633,3.674c-5.179,-2.99 -7.032,-9.492 -4.134,-14.51c2.897,-5.018 9.453,-6.664 14.632,-3.674Z"
              style="fill: none; stroke: #000; stroke-width: 3.13px"
            />
            <path
              d="M4986.75,450.967c5.179,2.99 7.032,9.492 4.135,14.509c-2.897,5.018 -9.454,6.665 -14.633,3.674c-5.179,-2.99 -7.032,-9.491 -4.135,-14.509c2.897,-5.018 9.454,-6.664 14.633,-3.674Z"
              style="fill: none; stroke: #000; stroke-width: 3.13px"
            />
            <path
              d="M4948.66,479.923c5.179,2.99 7.032,9.492 4.135,14.51c-2.897,5.018 -9.454,6.664 -14.633,3.674c-5.179,-2.99 -7.032,-9.492 -4.135,-14.51c2.897,-5.018 9.454,-6.664 14.633,-3.674Z"
              style="fill: none; stroke: #000; stroke-width: 3.13px"
            />
            <path
              d="M4943.45,517.126c5.179,2.99 7.032,9.491 4.135,14.509c-2.897,5.018 -9.454,6.664 -14.633,3.674c-5.179,-2.99 -7.032,-9.491 -4.135,-14.509c2.897,-5.018 9.454,-6.664 14.633,-3.674Z"
              style="fill: none; stroke: #000; stroke-width: 3.13px"
            />
            <path
              d="M4971.47,545.422c5.179,2.99 7.031,9.492 4.134,14.51c-2.897,5.018 -9.454,6.664 -14.633,3.674c-5.179,-2.99 -7.031,-9.492 -4.134,-14.51c2.897,-5.018 9.454,-6.664 14.633,-3.674Z"
              style="fill: none; stroke: #000; stroke-width: 3.13px"
            />
            <path
              d="M4947.88,582.562c5.179,2.991 7.032,9.492 4.135,14.51c-2.897,5.018 -9.454,6.664 -14.633,3.674c-5.179,-2.99 -7.032,-9.492 -4.135,-14.51c2.897,-5.017 9.454,-6.664 14.633,-3.674Z"
              style="fill: none; stroke: #000; stroke-width: 3.13px"
            />
            <path
              d="M4923.19,559.607c5.179,2.99 7.032,9.491 4.135,14.509c-2.897,5.018 -9.454,6.665 -14.633,3.674c-5.179,-2.99 -7.032,-9.491 -4.135,-14.509c2.897,-5.018 9.454,-6.664 14.633,-3.674Z"
              style="fill: none; stroke: #000; stroke-width: 3.13px"
            />
            <path
              d="M4899.27,525.212c5.179,2.99 7.032,9.492 4.135,14.51c-2.897,5.018 -9.454,6.664 -14.633,3.674c-5.179,-2.99 -7.032,-9.492 -4.135,-14.51c2.897,-5.018 9.454,-6.664 14.633,-3.674Z"
              style="fill: none; stroke: #000; stroke-width: 3.13px"
            />
            <path
              d="M4873.89,573.117c5.179,2.99 7.032,9.491 4.135,14.509c-2.897,5.018 -9.454,6.664 -14.633,3.674c-5.179,-2.99 -7.032,-9.491 -4.135,-14.509c2.897,-5.018 9.454,-6.664 14.633,-3.674Z"
              style="fill: none; stroke: #000; stroke-width: 3.13px"
            />
            <path
              d="M4898.44,599.413c5.179,2.99 7.032,9.491 4.135,14.509c-2.897,5.018 -9.454,6.664 -14.633,3.674c-5.179,-2.99 -7.032,-9.492 -4.135,-14.509c2.897,-5.018 9.454,-6.665 14.633,-3.674Z"
              style="fill: none; stroke: #000; stroke-width: 3.13px"
            />
            <path
              d="M4926.86,622.252c5.179,2.991 7.032,9.492 4.135,14.51c-2.897,5.018 -9.454,6.664 -14.633,3.674c-5.179,-2.99 -7.032,-9.492 -4.135,-14.51c2.897,-5.017 9.454,-6.664 14.633,-3.674Z"
              style="fill: none; stroke: #000; stroke-width: 3.13px"
            />
            <path
              d="M4904.56,656.547c5.18,2.991 7.032,9.492 4.135,14.51c-2.897,5.018 -9.454,6.664 -14.633,3.674c-5.179,-2.99 -7.032,-9.492 -4.134,-14.51c2.897,-5.017 9.453,-6.664 14.632,-3.674Z"
              style="fill: none; stroke: #000; stroke-width: 3.13px"
            />
            <path
              d="M4873.1,643.299c5.179,2.99 7.031,9.491 4.134,14.509c-2.897,5.018 -9.454,6.664 -14.633,3.674c-5.179,-2.99 -7.031,-9.491 -4.134,-14.509c2.897,-5.018 9.453,-6.664 14.633,-3.674Z"
              style="fill: none; stroke: #000; stroke-width: 3.13px"
            />
            <path
              d="M4845.98,618.372c5.179,2.99 7.031,9.491 4.134,14.509c-2.897,5.018 -9.454,6.664 -14.633,3.674c-5.179,-2.99 -7.031,-9.491 -4.134,-14.509c2.897,-5.018 9.454,-6.665 14.633,-3.674Z"
              style="fill: none; stroke: #000; stroke-width: 3.13px"
            />
            <path
              d="M4825.45,675.596c5.179,2.99 7.032,9.492 4.134,14.51c-2.897,5.017 -9.453,6.664 -14.632,3.674c-5.18,-2.991 -7.032,-9.492 -4.135,-14.51c2.897,-5.018 9.454,-6.664 14.633,-3.674Z"
              style="fill: none; stroke: #000; stroke-width: 3.13px"
            />
            <path
              d="M4875.84,684.615c5.179,2.99 7.032,9.491 4.135,14.509c-2.897,5.018 -9.454,6.664 -14.633,3.674c-5.179,-2.99 -7.032,-9.492 -4.135,-14.509c2.897,-5.018 9.454,-6.665 14.633,-3.674Z"
              style="fill: none; stroke: #000; stroke-width: 3.13px"
            />
            <path
              d="M4844.28,707.782c5.179,2.99 7.032,9.492 4.135,14.51c-2.898,5.018 -9.454,6.664 -14.633,3.674c-5.179,-2.99 -7.032,-9.492 -4.135,-14.51c2.897,-5.018 9.454,-6.664 14.633,-3.674Z"
              style="fill: none; stroke: #000; stroke-width: 3.13px"
            />
          </g>
          <g id="Ausgiesser-hinten" serif:id="Ausgiesser hinten">
            <path
              d="M5046.61,504.328c-0,-0 -34.031,113.299 -151.884,244.705c-0,0 37.755,-1.65 77.221,-61.431c39.466,-59.78 9.885,-15.614 50.916,-75.173c0,-0 44.886,-63.99 23.747,-108.101Z"
              style="fill: #91aba6; stroke: #000; stroke-width: 3.13px"
            />
            <path
              d="M5048.55,594.284c0,-0 19.495,22.555 -4.742,66.574c-24.237,44.02 -55.891,36.392 -61.05,34.066l65.792,-100.64Z"
              style="fill: #91aba6; stroke: #000; stroke-width: 3.13px"
            />
            <path
              d="M5086.06,656.059c-0,-0 -2.134,31.919 -30.631,59.893"
              style="fill: none; stroke: #000; stroke-width: 3.13px"
            />
            <path
              d="M5065.75,639.728c0,-0 -11.993,37.677 -45.5,61.97c0,0 3.18,18.294 17.597,13.067c14.417,-5.227 34.132,-41.432 37.229,-55.334m-0,-0c-0,-0 3.96,-10.636 1.093,-16.596c-0,0 -4.728,-10.286 -10.311,-3.045"
              style="fill: #91aba6; stroke: #000; stroke-width: 3.13px"
            />
          </g>
          <g id="Steg">
            <path
              d="M5055.43,715.952l363.186,239.431c0,-0 88.702,1.642 68.287,-94.248l-400.842,-205.076"
              style="fill: #a5bbb3; stroke: #000; stroke-width: 3.13px"
            />
            <path
              d="M5517.98,850.39c0,0 -7.78,6.67 -16.975,4.497c-0,0 2.892,-9.171 10.11,-11.346c0,0 5.556,1.696 6.865,6.849Z"
              style="fill: #91aba6; stroke: #000; stroke-width: 3.13px"
            />
            <path
              d="M5520.64,863.123c0,-0 21.6,44.57 -12.314,84.752c-33.915,40.181 -89.286,31.273 -87.186,24.166c-0,-0 99.095,9.847 86.713,-104.115l12.787,-4.803Z"
              style="fill: #91aba6; stroke: #000; stroke-width: 3.13px"
            />
            <path
              d="M5538,882.831c-0,0 298.748,166.276 323.104,167.856c0,0 40.694,49.609 27.606,191.304c0,0 -179.126,-89.695 -418.569,-252.528c0,-0 79.147,-26.158 67.859,-106.632Z"
              style="fill: #a5bbb3; stroke: #000; stroke-width: 3.13px"
            />
            <path
              d="M6073.03,905.643c-0,0 110.807,-11.045 95.188,25.754c-15.62,36.799 -53.27,-4.082 -92.02,-7.917c-0,-0 -93.629,-12.867 -125.347,-16.176l-416.072,-51.752l-3.203,-8.492l541.454,58.583Z"
              style="fill: #91aba6; stroke: #000; stroke-width: 3.13px"
            />
            <path
              d="M5819.79,718.357l1.724,14.525c0,-0 -24.225,10.764 -58.533,25.352c-67.664,28.771 -174.55,72.412 -212.159,77.668l-11.929,-1.472c-0,0 255.075,-94.912 280.897,-116.073Z"
              style="fill: #91aba6; stroke: #000; stroke-width: 3.13px"
            />
          </g>
          <g id="Kanne">
            <path
              d="M6557.14,1254.62c0,-0 -46.254,149.053 -214.888,176.199c-168.634,27.146 -198.14,16.78 -262.882,6.264c-64.741,-10.517 -185.475,-59.064 -210.79,-118.328c0,-0 34.054,126.752 270.449,154.75m-0,-0c-0,-0 142.626,17.647 209.408,-1.607c66.783,-19.254 119.661,-44.935 159.615,-83.94c39.953,-39.005 59.267,-94.307 49.774,-132.943"
              style="fill: #99aba1; stroke: #000; stroke-width: 3.13px"
            />
            <path
              d="M6280.22,1410.79c0,-0 -156.339,20.98 -263.522,-28.262c-107.182,-49.241 -124.378,-71.886 -149.157,-121.937c-0,0 17.953,11.03 32.772,-6.294c14.818,-17.325 16.737,-43.471 18.464,-64.387c1.726,-20.916 -6.135,-80.666 -12.001,-102.776c-5.867,-22.11 -20.937,-55.208 -55.32,-51.91c-0,0 -11.237,-111.348 -7.471,-133.557c0,0 165.539,14.711 208.446,33.141c42.908,18.431 92.035,26.808 109.236,19.873c17.2,-6.936 30.715,-8.633 31.217,-33.247c0.503,-24.614 -21.484,-33.059 -41.026,-36.704c-19.543,-3.646 -33.974,0.255 -59.069,3.782c-25.096,3.528 -78.068,-7.443 -90.977,-5.583c-12.909,1.86 -149.22,-14.809 -157.681,-15.762c0,-0 -12.205,-223.473 -17.072,-249.752c0,0 44.442,53.748 160.5,79.362c116.057,25.614 176.38,18.819 205.646,17.809c29.267,-1.01 118.586,-8.386 130.712,-12.362c0,-0 -10.413,64.004 2.803,81.308c13.216,17.305 13.908,21.145 45.901,20.151c31.993,-0.994 44.466,-25.679 52.917,-43.562c8.452,-17.882 14.042,-63.602 10.226,-76.291c0,0 21.314,7.991 24.378,-12.504c0,0 106.415,-54.614 114.279,-75.972l-46.77,642.245c0,-0 -76.165,158.815 -247.431,173.191Z"
              style="fill: #91aba6; stroke: #000; stroke-width: 3.13px"
            />
            <path
              d="M6387.71,424.587c0,0 2.561,73.302 -10.211,120.124c0,-0 -80.326,-96.387 -191.92,-140.854c0,-0 195.488,13.719 202.131,20.73Z"
              style="fill: #617a69; stroke: #000; stroke-width: 3.13px"
            />
            <path
              d="M6502.54,456.327l-28.301,169.557c-0,0 67.289,-28.397 86.218,-66.605c18.93,-38.207 11.266,-73.857 -57.917,-102.952"
              style="fill: #617a69; stroke: #000; stroke-width: 3.13px"
            />
            <path
              d="M6117.06,402.983l35.02,-2.112c-0,0 212.7,131.273 225.542,159.9l-6.239,38.065c-0,0 -69.423,-76.718 -254.323,-195.853Z"
              style="fill: #a5bbb3; stroke: #000; stroke-width: 3.13px"
            />
            <path
              d="M6100.53,410.602c0,-0 204.622,123.381 268.471,205.736l-11.504,33.539c-0,0 -200.672,11.774 -218.573,6.84c-0,0 -237.481,-3.364 -277.481,-74.16c-39.999,-70.797 51.954,-117.787 79.344,-125.757c-0,-0 95.735,-37.313 159.743,-46.198Z"
              style="fill: #a5bbb3; stroke: #000; stroke-width: 3.13px"
            />
            <path
              d="M5995.15,424.496c-0,0 -115.935,20.48 -153.881,91.569m0,-0c0,-0 -21.327,37.919 5.025,68.029c26.352,30.111 24.392,45.477 121.757,68.792c97.364,23.314 143.689,9.953 215.564,19.645c71.876,9.692 101.961,-5.362 169.076,-8.057l-8.99,15.572c-0,0 -12.709,-4.061 -16.001,9.654c0,-0 -74.575,5.681 -115.974,6.746c0,0 -117.382,-0.471 -153.665,-6.564c-0,0 -99.415,-12.447 -156.101,-40.74c-56.685,-28.293 -62.38,-43.131 -74.125,-58.153c-0,0 -33.841,-43.527 -4.691,-85.389c-0,-0 27.741,-55.278 172.006,-81.104"
              style="fill: #99aba1; stroke: #000; stroke-width: 3.13px"
            />
            <path
              d="M6580.9,518.051c0,0 16.253,20.764 -23.685,74.442m-0,0c-0,0 -12,16.336 -37.789,32.034c0,0 -37.481,21.754 -50.173,31.016l1.793,-14.937c0,0 111.699,-39.471 109.854,-122.555"
              style="fill: #99aba1; stroke: #000; stroke-width: 3.13px"
            />
          </g>
          <path
            d="M6340.86,696.046c0,0 5.783,5.951 19.003,4.454c0,-0 51.09,-16.482 61.862,-16.694c0,0 0.594,58.102 -15.558,81.012c-16.151,22.911 -19.571,21.982 -30.69,26.459c-11.118,4.476 -24.306,3.823 -34.558,-5.898m0,0c0,0 -18.083,-20.533 -0.059,-89.333"
            style="fill: #a5bbb3; stroke: #000; stroke-width: 3.13px"
          />
          <g id="Griff_hinten">
            <path
              d="M6680.36,367.531c0,-0 -89.612,-53.798 -173.089,80.002c-0,-0 23.079,2.58 50.044,23.219c0,0 17.772,-101.546 123.045,-103.221Z"
              style="fill: #a5bbb3; stroke: #000; stroke-width: 3.13px"
            />
            <path
              d="M6658.56,383.547c0,0 77.625,-23.782 108.32,47.827c-0,0 25.644,44.919 2.945,121.148m0,-0c0,-0 -19.516,89.35 -170.767,234.457l-0.709,-76.776c-0,-0 101.61,-104.186 129.282,-168.421c-0,-0 74.339,-143.441 -69.322,-157.799"
              style="fill: #99aba1; stroke: #000; stroke-width: 3.13px"
            />
          </g>
          <g id="Griff-oben" serif:id="Griff oben">
            <path
              d="M6027.27,21.073l37.104,19.364c-0,0 -45.546,25.563 -45.506,122.492c0.041,96.929 8.206,187.534 24.578,236.485l-63.546,14.528c0,-0 3.581,-47.42 -5.971,-96.991c-9.551,-49.571 -9.49,-122.668 -10.426,-138.088c-0.936,-15.421 -0.664,-47.432 2.958,-68.8c3.621,-21.368 15.22,-75.492 60.809,-88.99Z"
              style="fill: #99aba1; stroke: #000; stroke-width: 3.13px"
            />
            <path
              d="M6049.9,15.48c9.573,2.796 20.95,-9.645 86.54,27.154c-0,-0 21.64,8.585 35.445,16.856c0,-0 97.75,40.538 114.172,69.525c-0,-0 -81.008,-59.414 -171.108,-81.503c0,-0 -19.287,-7.48 -65.049,-32.032Z"
              style="fill: #99aba1; stroke: #000; stroke-width: 3.13px"
            />
            <path
              d="M6104.28,11.295c0,0 14.735,-16.554 49.155,-6.483c0,-0 110.813,62.303 171.421,77.885c0,-0 140.903,123.539 153.329,272.071c0,-0 6.775,238.913 -32.618,314.471c-0,0 -30.134,-3.63 -86.874,14.865c-0,0 60.15,-162.975 43.563,-285.674c0,-0 -22.92,-212.602 -91.243,-265.154c-0,0 -53.851,-56.762 -206.733,-121.981Z"
              style="fill: #a5bbb3; stroke: #000; stroke-width: 3.13px"
            />
          </g>
        </g>
      </svg>