<?xml version="1.0" encoding="UTF-8" standalone="no"?><!DOCTYPE svg PUBLIC "-//W3C//DTD SVG 1.1//EN" "http://www.w3.org/Graphics/SVG/1.1/DTD/svg11.dtd"><svg width="100%" height="100%" viewBox="0 0 5610 4780" version="1.1" xmlns="http://www.w3.org/2000/svg" xmlns:xlink="http://www.w3.org/1999/xlink" xml:space="preserve" xmlns:serif="http://www.serif.com/" style="fill-rule:evenodd;clip-rule:evenodd;stroke-linecap:round;stroke-linejoin:round;stroke-miterlimit:1.5;"><g id="before"><g id="Beet-hinten"><g id="Beetumrandung"><rect x="940.793" y="2247.44" width="2668.37" height="464.826" style="fill:#8d806d;stroke:#000;stroke-width:6.25px;"/><path d="M2671.72,3063.31l0,464.827l937.437,-815.869l0,-464.826l-937.437,815.868Z" style="fill:#8d806d;stroke:#000;stroke-width:6.25px;"/><path d="M3.355,3063.31l937.438,-815.868l-0,464.826l-937.438,815.869l0,-464.827Z" style="fill:#8d806d;stroke:#000;stroke-width:6.25px;"/><rect x="3.355" y="3063.31" width="2668.37" height="464.826" style="fill:#8d806d;stroke:#000;stroke-width:6.25px;"/></g><path id="Erde" d="M940.793,2405.04l2528.2,-36.613l-797.272,694.881l-2482.45,0l751.524,-658.268Z" style="fill:#684827;stroke:#000;stroke-width:6.25px;"/><g id="Pflanzen"><g id="Pflanze-vorne-links"><path d="M581.921,2633.15c0,0 153.511,113.041 -14.242,291.309c-0,-0 -99.387,-165.601 14.242,-291.309Z" style="fill:#87af35;stroke:#000;stroke-width:3.13px;"/><path d="M327.086,2756.52c-0,-0 313.561,-53.404 293.15,193.564c0,-0 -16.199,12.996 -55.343,-3.916c-0,-0 -45.2,-153.611 -237.807,-189.648Z" style="fill:#87af35;stroke:#000;stroke-width:3.13px;"/><path d="M842.962,2757.78c-0,0 -264.902,-27.169 -241.188,194.183c-0,0 10.907,9.643 25.001,-11.974c0,0 99.993,-171.832 216.187,-182.209Z" style="fill:#87af35;stroke:#000;stroke-width:3.13px;"/></g><g id="Pflanze-vorne-rechts"><path d="M2661.74,2715.87c0,0 153.511,86.46 -14.243,222.807c0,0 -99.387,-126.659 14.243,-222.807Z" style="fill:#87af35;stroke:#000;stroke-width:3.12px;"/><path d="M2406.9,2810.23c0,-0 313.562,-40.846 293.151,148.046c-0,0 -16.199,9.94 -55.344,-2.995c0,0 -45.2,-117.489 -237.807,-145.051Z" style="fill:#87af35;stroke:#000;stroke-width:3.12px;"/><path d="M2922.78,2811.19c-0,-0 -264.902,-20.781 -241.189,148.52c0,-0 10.908,7.375 25.002,-9.158c0,-0 99.993,-131.426 216.187,-139.362Z" style="fill:#87af35;stroke:#000;stroke-width:3.13px;"/></g><g id="Pflanze-vorne-mitte-links"><path d="M1322.27,2688.67c0,0 153.511,110.609 -14.242,285.04c-0,0 -99.388,-162.037 14.242,-285.04Z" style="fill:#658947;stroke:#000;stroke-width:3.12px;"/><path d="M1067.43,2809.39c0,0 313.562,-52.255 293.151,189.398c-0,0 -16.199,12.717 -55.343,-3.831c-0,-0 -45.201,-150.306 -237.808,-185.567Z" style="fill:#658947;stroke:#000;stroke-width:3.12px;"/><path d="M1583.31,2810.62c-0,0 -264.902,-26.585 -241.189,190.004c0,0 10.908,9.435 25.002,-11.716c0,0 99.993,-168.134 216.187,-178.288Z" style="fill:#658947;stroke:#000;stroke-width:3.13px;"/></g><g id="Pflanze-vorne-mitte-rechts"><path d="M2030.78,2715.87c-0,0 153.511,103.716 -14.243,267.276c-0,-0 -99.387,-151.938 14.243,-267.276Z" style="fill:#87af35;stroke:#000;stroke-width:3.13px;"/><path d="M1775.94,2829.06c-0,0 313.561,-48.998 293.15,177.595c0,-0 -16.199,11.924 -55.343,-3.593c-0,0 -45.2,-140.938 -237.807,-174.002Z" style="fill:#87af35;stroke:#000;stroke-width:3.13px;"/><path d="M2291.82,2830.22c0,-0 -264.902,-24.929 -241.188,178.162c-0,0 10.907,8.847 25.002,-10.986c-0,0 99.992,-157.656 216.186,-167.176Z" style="fill:#87af35;stroke:#000;stroke-width:3.13px;"/></g><g id="Pflanze-hinten-links"><path d="M1063.4,2247.44c-0,-0 153.511,97.961 -14.243,252.447c0,-0 -99.387,-143.509 14.243,-252.447Z" style="fill:#87af35;stroke:#000;stroke-width:3.12px;"/><path d="M808.561,2354.35c-0,-0 313.561,-46.28 293.15,167.741c0,0 -16.199,11.263 -55.343,-3.393c0,-0 -45.2,-133.119 -237.807,-164.348Z" style="fill:#87af35;stroke:#000;stroke-width:3.12px;"/><path d="M1324.44,2355.44c0,0 -264.902,-23.545 -241.188,168.278c-0,0 10.907,8.356 25.002,-10.376c-0,-0 99.993,-148.909 216.186,-157.902Z" style="fill:#87af35;stroke:#000;stroke-width:3.13px;"/></g><g id="Pflanze-hinten-rechts"><path d="M2962.97,2247.44c0,-0 153.511,113.055 -14.242,291.346c-0,-0 -99.387,-165.622 14.242,-291.346Z" style="fill:#658947;stroke:#000;stroke-width:3.13px;"/><path d="M2708.14,2370.83c-0,0 313.561,-53.411 293.15,193.589c0,-0 -16.199,12.998 -55.343,-3.917c-0,0 -45.2,-153.63 -237.807,-189.672Z" style="fill:#658947;stroke:#000;stroke-width:3.13px;"/><path d="M3224.01,2372.09c-0,-0 -264.902,-27.173 -241.188,194.207c-0,0 10.907,9.644 25.001,-11.975c0,0 99.993,-171.854 216.187,-182.232Z" style="fill:#658947;stroke:#000;stroke-width:3.13px;"/></g><g id="Pflanze-hinten-mitte-links"><path d="M1715.15,2247.44c0,-0 153.511,114.653 -14.242,295.462c-0,0 -99.388,-167.962 14.242,-295.462Z" style="fill:#658947;stroke:#000;stroke-width:3.13px;"/><path d="M1460.32,2372.57c0,-0 313.562,-54.166 293.151,196.323c-0,-0 -16.199,13.181 -55.343,-3.972c-0,0 -45.201,-155.801 -237.808,-192.351Z" style="fill:#658947;stroke:#000;stroke-width:3.13px;"/><path d="M1976.2,2373.85c-0,-0 -264.902,-27.557 -241.189,196.951c0,0 10.908,9.78 25.002,-12.144c0,-0 99.993,-174.282 216.187,-184.807Z" style="fill:#658947;stroke:#000;stroke-width:3.13px;"/></g><g id="Pflanze-hinten-mitte-rechts"><path d="M2332.01,2247.44c0,-0 153.511,114.653 -14.242,295.462c-0,0 -99.387,-167.962 14.242,-295.462Z" style="fill:#658947;stroke:#000;stroke-width:3.13px;"/><path d="M2077.18,2372.57c-0,-0 313.561,-54.166 293.15,196.323c0,-0 -16.199,13.181 -55.343,-3.972c-0,0 -45.2,-155.801 -237.807,-192.351Z" style="fill:#658947;stroke:#000;stroke-width:3.13px;"/><path d="M2593.05,2373.85c0,-0 -264.902,-27.557 -241.188,196.951c-0,0 10.907,9.78 25.001,-12.144c0,-0 99.993,-174.282 216.187,-184.807Z" style="fill:#658947;stroke:#000;stroke-width:3.13px;"/></g></g></g><g id="Beet-vorne"><g id="Beetumrandung1" serif:id="Beetumrandung"><rect x="1949.99" y="3500.04" width="2681.55" height="462" style="fill:#8d806d;stroke:#000;stroke-width:6.25px;"/><path d="M3689.47,4310.95l-0,462l942.067,-810.907l0,-462l-942.067,810.907Z" style="fill:#8d806d;stroke:#000;stroke-width:6.25px;"/><path d="M1007.92,4310.95l942.067,-810.907l0,462l-942.067,810.907l-0,-462Z" style="fill:#8d806d;stroke:#000;stroke-width:6.25px;"/><rect x="1007.92" y="4310.95" width="2681.55" height="462" style="fill:#8d806d;stroke:#000;stroke-width:6.25px;"/></g><path id="Erde1" serif:id="Erde" d="M1949.99,3656.68l2540.69,-36.39l-801.21,690.656l-2494.72,0l755.235,-654.266Z" style="fill:#684827;stroke:#000;stroke-width:6.25px;"/><g id="Pflanzen1" serif:id="Pflanzen"><g id="Pflanze-vorne-links1" serif:id="Pflanze-vorne-links"><path d="M1602.13,4282.85c-0,0 56.303,17.834 97.88,-39.597c41.577,-57.432 13.322,-1.446 89.449,-18.221c76.128,-16.775 -6.117,-10.739 -0.48,-43.275c5.638,-32.535 12.555,-39.923 56.676,-32.19c44.122,7.733 118.418,-39.408 21.123,-69.849c-97.295,-30.442 -116.183,17.295 -120.573,38.375c-4.389,21.081 40.558,44.679 0,46.304c-40.558,1.626 -87.968,-4.984 -101.242,23.244c-13.274,28.228 60.607,41.642 0,55.612c-60.607,13.969 -117.443,-14.885 -80.39,39.597l37.557,0Z" style="fill:#87af35;stroke:#000;stroke-width:6.25px;"/><path d="M1595.99,4243.25c-0,-0 12.681,-85.895 93.873,-96.49c81.191,-10.595 18.182,-30.832 25.763,-65.123c7.582,-34.29 60.774,-31.222 70.77,-50.875c9.996,-19.654 -79.119,-41.43 -70.478,-79.588c-0,-0 -9.822,-50.606 16.843,-98.996c26.666,-48.39 -243.11,-141.717 -268.271,-113.574c0,0 -194.099,41.72 40.38,233.239c-0,-0 99.507,43.12 103.334,79.732c3.826,36.613 -56.044,134.52 -12.214,191.675Z" style="fill:#87af35;stroke:#000;stroke-width:6.25px;"/><path d="M1567.19,4233.3c-0,-0 -100.403,0.567 -119.846,-22.696c0,0 9.945,-38.834 -13.487,-56.184c-23.432,-17.35 -95.166,10.591 -132.244,-23.014c-37.078,-33.604 22.783,-64.4 -14.381,-79.67c-37.163,-15.269 -155.248,5.048 -211.074,-25.773c-55.826,-30.821 14.228,-55.837 50.546,-52.455c36.318,3.382 128.463,-3.006 161.754,-21.761c33.29,-18.756 128.702,22.587 120.361,46.634c-8.342,24.047 100.911,48.023 155.653,55.53c54.741,7.506 10.417,35.92 -1.49,87.588c-11.906,51.667 -16.165,66.129 4.208,91.801Z" style="fill:#87af35;stroke:#000;stroke-width:6.25px;"/></g><g id="Pflanze-hinten-rechts1" serif:id="Pflanze-hinten-rechts"><path d="M4126.55,3761.32c-0,-0 56.303,16.804 97.881,-37.312c41.577,-54.115 13.321,-1.362 89.448,-17.168c76.128,-15.807 -6.117,-10.12 -0.479,-40.777c5.637,-30.657 12.554,-37.618 56.675,-30.332c44.122,7.287 118.418,-37.132 21.123,-65.816c-97.295,-28.685 -116.183,16.297 -120.573,36.16c-4.389,19.863 40.558,42.099 0,43.63c-40.557,1.532 -87.968,-4.696 -101.242,21.902c-13.274,26.598 60.608,39.238 0,52.401c-60.607,13.163 -117.443,-14.025 -80.39,37.312l37.557,-0Z" style="fill:#87af35;stroke:#000;stroke-width:6.25px;"/><path d="M4120.41,3724c-0,0 12.681,-80.936 93.873,-90.919c81.191,-9.983 18.182,-29.052 25.764,-61.363c7.581,-32.311 60.773,-29.419 70.769,-47.938c9.996,-18.519 -79.118,-39.038 -70.478,-74.993c-0,0 -9.822,-47.684 16.844,-93.28c26.665,-45.596 -243.111,-133.535 -268.272,-107.017c0,-0 -194.099,39.311 40.38,219.773c-0,-0 99.507,40.63 103.334,75.129c3.826,34.499 -56.044,126.753 -12.214,180.608Z" style="fill:#87af35;stroke:#000;stroke-width:6.25px;"/><path d="M4091.61,3714.62c-0,0 -100.403,0.535 -119.846,-21.385c0,0 9.945,-36.592 -13.487,-52.94c-23.432,-16.349 -95.166,9.979 -132.244,-21.686c-37.078,-31.664 22.783,-60.682 -14.381,-75.07c-37.163,-14.388 -155.248,4.756 -211.074,-24.285c-55.825,-29.042 14.229,-52.614 50.546,-49.427c36.318,3.187 128.463,-2.832 161.754,-20.505c33.291,-17.672 128.702,21.284 120.361,43.943c-8.342,22.658 100.912,45.25 155.653,52.323c54.741,7.073 10.417,33.847 -1.49,82.531c-11.906,48.684 -16.165,62.312 4.208,86.501Z" style="fill:#87af35;stroke:#000;stroke-width:6.25px;"/></g><g id="Pflanze-hinten-mitte"><path d="M3105.89,3795.48c-0,-0 56.303,11.969 97.88,-26.578c41.577,-38.546 13.321,-0.97 89.449,-12.229c76.128,-11.259 -6.117,-7.208 -0.48,-29.045c5.638,-21.837 12.555,-26.795 56.676,-21.605c44.121,5.19 118.418,-26.45 21.123,-46.882c-97.295,-20.432 -116.184,11.608 -120.573,25.757c-4.389,14.149 40.558,29.988 0,31.078c-40.558,1.091 -87.968,-3.345 -101.242,15.601c-13.274,18.946 60.607,27.949 0,37.325c-60.607,9.377 -117.443,-9.989 -80.39,26.578l37.557,-0Z" style="fill:#658947;stroke:#000;stroke-width:6.25px;"/><path d="M3099.75,3768.9c-0,0 12.681,-57.651 93.873,-64.761c81.191,-7.111 18.182,-20.695 25.763,-43.71c7.581,-23.015 60.774,-20.955 70.77,-34.146c9.996,-13.191 -79.119,-27.807 -70.479,-53.418c0,0 -9.821,-33.966 16.844,-66.444c26.666,-32.478 -243.11,-95.117 -268.271,-76.228c-0,-0 -194.099,28.001 40.38,156.545c-0,-0 99.507,28.941 103.333,53.514c3.827,24.574 -56.043,90.287 -12.213,128.648Z" style="fill:#658947;stroke:#000;stroke-width:6.25px;"/><path d="M3070.95,3762.22c0,0 -100.402,0.381 -119.845,-15.233c0,0 9.945,-26.064 -13.487,-37.71c-23.432,-11.645 -95.166,7.109 -132.244,-15.446c-37.078,-22.555 22.782,-43.224 -14.381,-53.473c-37.164,-10.249 -155.248,3.388 -211.074,-17.298c-55.826,-20.687 14.228,-37.477 50.546,-35.207c36.318,2.27 128.463,-2.017 161.754,-14.606c33.29,-12.588 128.702,15.161 120.36,31.3c-8.341,16.14 100.912,32.232 155.654,37.27c54.741,5.039 10.416,24.11 -1.49,58.788c-11.906,34.678 -16.165,44.385 4.207,61.615Z" style="fill:#658947;stroke:#000;stroke-width:6.25px;"/></g><g id="Pflanze-hinten-links1" serif:id="Pflanze-hinten-links"><path d="M2159.01,3795.07c-0,0 53.949,14.788 93.788,-32.835c39.839,-47.622 12.764,-1.198 85.709,-15.108c72.945,-13.91 -5.861,-8.905 -0.46,-35.884c5.402,-26.978 12.03,-33.104 54.307,-26.692c42.276,6.412 113.467,-32.677 20.239,-57.919c-93.227,-25.243 -111.326,14.341 -115.531,31.821c-4.206,17.48 38.862,37.048 -0,38.395c-38.863,1.348 -84.29,-4.133 -97.01,19.274c-12.719,23.407 58.074,34.53 0,46.113c-58.073,11.584 -112.533,-12.342 -77.028,32.835l35.986,0Z" style="fill:#658947;stroke:#000;stroke-width:6.25px;"/><path d="M2153.13,3762.23c0,0 12.151,-71.224 89.948,-80.009c77.798,-8.785 17.423,-25.567 24.687,-54c7.264,-28.434 58.233,-25.889 67.811,-42.186c9.578,-16.297 -75.811,-34.354 -67.532,-65.995c0,0 -9.411,-41.962 16.14,-82.087c25.55,-40.126 -232.947,-117.513 -257.056,-94.176c0,-0 -185.983,34.594 38.692,193.402c0,-0 95.347,35.755 99.013,66.114c3.667,30.36 -53.7,111.545 -11.703,158.937Z" style="fill:#658947;stroke:#000;stroke-width:6.25px;"/><path d="M2125.53,3753.98c0,-0 -96.204,0.47 -114.834,-18.82c-0,0 9.529,-32.201 -12.923,-46.588c-22.453,-14.387 -91.188,8.782 -126.716,-19.083c-35.528,-27.865 21.83,-53.401 -13.779,-66.063c-35.61,-12.661 -148.757,4.186 -202.249,-21.371c-53.492,-25.557 13.633,-46.3 48.432,-43.496c34.8,2.805 123.093,-2.492 154.991,-18.044c31.899,-15.553 123.322,18.729 115.329,38.669c-7.993,19.94 96.693,39.821 149.145,46.045c52.453,6.224 9.982,29.786 -1.427,72.628c-11.409,42.843 -15.489,54.836 4.031,76.123Z" style="fill:#658947;stroke:#000;stroke-width:6.25px;"/></g><g id="Pflanze-vorne-mitte"><path d="M2732.47,4256.56c0,0 56.304,18.252 97.881,-40.526c41.577,-58.777 13.321,-1.479 89.449,-18.647c76.127,-17.168 -6.117,-10.991 -0.48,-44.289c5.638,-33.298 12.555,-40.859 56.676,-32.945c44.121,7.913 118.418,-40.332 21.123,-71.487c-97.296,-31.156 -116.184,17.701 -120.573,39.275c-4.389,21.575 40.558,45.726 -0,47.39c-40.558,1.663 -87.968,-5.101 -101.242,23.788c-13.274,28.889 60.607,42.618 -0,56.915c-60.607,14.297 -117.443,-15.233 -80.39,40.526l37.556,0Z" style="fill:#87af35;stroke:#000;stroke-width:6.25px;"/><path d="M2726.33,4216.03c-0,0 12.681,-87.908 93.872,-98.751c81.192,-10.843 18.183,-31.555 25.764,-66.65c7.581,-35.094 60.774,-31.953 70.77,-52.067c9.996,-20.115 -79.119,-42.402 -70.479,-81.454c0,-0 -9.821,-51.792 16.844,-101.316c26.666,-49.525 -243.111,-145.039 -268.271,-116.237c-0,0 -194.099,42.698 40.38,238.706c-0,0 99.507,44.131 103.333,81.602c3.826,37.471 -56.043,137.673 -12.213,196.167Z" style="fill:#87af35;stroke:#000;stroke-width:6.25px;"/><path d="M2697.52,4205.84c0,0 -100.402,0.581 -119.845,-23.227c0,-0 9.945,-39.745 -13.487,-57.502c-23.432,-17.757 -95.166,10.839 -132.244,-23.553c-37.079,-34.393 22.782,-65.91 -14.381,-81.538c-37.164,-15.627 -155.248,5.166 -211.074,-26.377c-55.826,-31.543 14.228,-57.146 50.546,-53.685c36.318,3.462 128.463,-3.076 161.754,-22.271c33.29,-19.195 128.702,23.117 120.36,47.728c-8.342,24.611 100.912,49.148 155.654,56.831c54.741,7.682 10.416,36.762 -1.49,89.641c-11.906,52.878 -16.165,67.68 4.207,93.953Z" style="fill:#87af35;stroke:#000;stroke-width:6.25px;"/></g><g id="Pflanze-vorne-rechts1" serif:id="Pflanze-vorne-rechts"><path d="M3648.77,4271.81c0,-0 56.304,18.746 97.881,-41.625c41.577,-60.372 13.321,-1.519 89.449,-19.153c76.127,-17.634 -6.117,-11.29 -0.48,-45.49c5.638,-34.201 12.555,-41.967 56.676,-33.839c44.121,8.129 118.418,-41.425 21.123,-73.425c-97.296,-32 -116.184,18.181 -120.573,40.34c-4.389,22.16 40.558,46.966 -0,48.675c-40.558,1.708 -87.968,-5.24 -101.242,24.433c-13.274,29.673 60.607,43.774 -0,58.459c-60.607,14.684 -117.443,-15.646 -80.39,41.625l37.556,-0Z" style="fill:#658947;stroke:#000;stroke-width:6.25px;"/><path d="M3642.64,4230.18c-0,-0 12.681,-90.292 93.872,-101.429c81.192,-11.137 18.183,-32.411 25.764,-68.457c7.581,-36.046 60.774,-32.82 70.77,-53.479c9.996,-20.66 -79.119,-43.552 -70.479,-83.663c0,0 -9.821,-53.196 16.844,-104.063c26.666,-50.867 -243.111,-148.971 -268.271,-119.388c-0,0 -194.099,43.856 40.38,245.178c-0,0 99.507,45.328 103.333,83.814c3.826,38.487 -56.043,141.406 -12.213,201.487Z" style="fill:#658947;stroke:#000;stroke-width:6.25px;"/><path d="M3613.83,4219.71c0,0 -100.402,0.597 -119.845,-23.857c-0,-0 9.945,-40.822 -13.487,-59.061c-23.432,-18.238 -95.166,11.133 -132.244,-24.192c-37.079,-35.324 22.782,-67.697 -14.381,-83.748c-37.164,-16.051 -155.248,5.306 -211.074,-27.092c-55.826,-32.399 14.228,-58.696 50.546,-55.14c36.318,3.555 128.463,-3.16 161.754,-22.876c33.29,-19.715 128.702,23.744 120.36,49.022c-8.342,25.278 100.912,50.481 155.654,58.372c54.741,7.89 10.416,37.759 -1.49,92.071c-11.906,54.313 -16.165,69.516 4.207,96.501Z" style="fill:#658947;stroke:#000;stroke-width:6.25px;"/></g></g></g><g id="watercan"><g id="Ausgiesser"><path d="M3664.68,596.196c30.217,-44.117 64.399,-109.057 113.272,-141.172c18.444,-12.119 47.859,-23.14 66.735,-3.814c36.39,32.417 -12.234,90.728 -29.257,117.31c-11.438,17.86 -23.438,35.385 -34.059,53.743c-2.239,3.87 -14.409,23.607 -15.461,27.952c-34.637,68.139 -63.069,94.142 -63.069,94.142c-33.418,30.678 -62.591,10.507 -62.591,10.507c-34.028,-33.149 -15.123,-73.92 -15.123,-73.92c24.265,-73.615 40.673,-83.099 39.553,-84.748Z" style="fill:#aa7942;stroke:#000;stroke-width:3.13px;"/><path d="M3815.81,503.97c5.176,2.995 7.023,9.498 4.121,14.513c-2.901,5.015 -9.459,6.656 -14.636,3.661c-5.176,-2.995 -7.023,-9.498 -4.121,-14.513c2.901,-5.016 9.46,-6.656 14.636,-3.661Z" style="fill:none;stroke:#000;stroke-width:3.13px;"/><path d="M3814.76,454.69c5.176,2.994 7.023,9.498 4.121,14.513c-2.902,5.015 -9.46,6.655 -14.636,3.661c-5.177,-2.995 -7.023,-9.498 -4.122,-14.514c2.902,-5.015 9.46,-6.655 14.637,-3.66Z" style="fill:none;stroke:#000;stroke-width:3.13px;"/><path d="M3776.64,483.611c5.177,2.995 7.023,9.498 4.122,14.513c-2.902,5.016 -9.46,6.656 -14.637,3.661c-5.176,-2.995 -7.023,-9.498 -4.121,-14.513c2.902,-5.015 9.46,-6.656 14.636,-3.661Z" style="fill:none;stroke:#000;stroke-width:3.13px;"/><path d="M3771.4,520.809c5.177,2.995 7.023,9.498 4.122,14.513c-2.902,5.016 -9.46,6.656 -14.636,3.661c-5.177,-2.995 -7.024,-9.498 -4.122,-14.513c2.902,-5.016 9.46,-6.656 14.636,-3.661Z" style="fill:none;stroke:#000;stroke-width:3.13px;"/><path d="M3799.39,549.131c5.176,2.995 7.023,9.498 4.122,14.513c-2.902,5.015 -9.46,6.656 -14.637,3.661c-5.176,-2.995 -7.023,-9.498 -4.121,-14.513c2.901,-5.016 9.46,-6.656 14.636,-3.661Z" style="fill:none;stroke:#000;stroke-width:3.13px;"/><path d="M3775.76,586.25c5.176,2.995 7.023,9.498 4.121,14.513c-2.901,5.015 -9.46,6.656 -14.636,3.661c-5.176,-2.995 -7.023,-9.498 -4.122,-14.514c2.902,-5.015 9.46,-6.655 14.637,-3.66Z" style="fill:none;stroke:#000;stroke-width:3.13px;"/><path d="M3751.1,563.272c5.176,2.995 7.023,9.498 4.121,14.513c-2.902,5.015 -9.46,6.656 -14.636,3.661c-5.176,-2.995 -7.023,-9.498 -4.122,-14.514c2.902,-5.015 9.46,-6.655 14.637,-3.66Z" style="fill:none;stroke:#000;stroke-width:3.13px;"/><path d="M3727.21,528.855c5.176,2.995 7.023,9.498 4.122,14.514c-2.902,5.015 -9.46,6.655 -14.637,3.66c-5.176,-2.994 -7.023,-9.498 -4.121,-14.513c2.901,-5.015 9.46,-6.655 14.636,-3.661Z" style="fill:none;stroke:#000;stroke-width:3.13px;"/><path d="M3701.78,576.737c5.177,2.995 7.023,9.498 4.122,14.513c-2.902,5.015 -9.46,6.656 -14.637,3.661c-5.176,-2.995 -7.023,-9.498 -4.121,-14.514c2.902,-5.015 9.46,-6.655 14.636,-3.66Z" style="fill:none;stroke:#000;stroke-width:3.13px;"/><path d="M3726.31,603.055c5.176,2.995 7.023,9.498 4.121,14.513c-2.902,5.015 -9.46,6.656 -14.636,3.661c-5.177,-2.995 -7.023,-9.498 -4.122,-14.513c2.902,-5.016 9.46,-6.656 14.637,-3.661Z" style="fill:none;stroke:#000;stroke-width:3.13px;"/><path d="M3754.72,625.921c5.176,2.994 7.023,9.498 4.121,14.513c-2.901,5.015 -9.46,6.655 -14.636,3.661c-5.176,-2.995 -7.023,-9.498 -4.121,-14.514c2.901,-5.015 9.459,-6.655 14.636,-3.66Z" style="fill:none;stroke:#000;stroke-width:3.13px;"/><path d="M3732.38,660.195c5.176,2.995 7.023,9.498 4.121,14.514c-2.901,5.015 -9.46,6.655 -14.636,3.66c-5.176,-2.995 -7.023,-9.498 -4.121,-14.513c2.901,-5.015 9.46,-6.656 14.636,-3.661Z" style="fill:none;stroke:#000;stroke-width:3.13px;"/><path d="M3700.93,646.918c5.176,2.995 7.023,9.498 4.122,14.513c-2.902,5.016 -9.46,6.656 -14.637,3.661c-5.176,-2.995 -7.023,-9.498 -4.121,-14.513c2.901,-5.015 9.46,-6.656 14.636,-3.661Z" style="fill:none;stroke:#000;stroke-width:3.13px;"/><path d="M3673.83,621.966c5.176,2.995 7.023,9.498 4.121,14.514c-2.901,5.015 -9.46,6.655 -14.636,3.66c-5.176,-2.995 -7.023,-9.498 -4.122,-14.513c2.902,-5.015 9.46,-6.656 14.637,-3.661Z" style="fill:none;stroke:#000;stroke-width:3.13px;"/><path d="M3653.25,679.172c5.176,2.995 7.023,9.498 4.121,14.513c-2.901,5.016 -9.46,6.656 -14.636,3.661c-5.176,-2.995 -7.023,-9.498 -4.121,-14.513c2.901,-5.016 9.46,-6.656 14.636,-3.661Z" style="fill:none;stroke:#000;stroke-width:3.13px;"/><path d="M3703.64,688.236c5.176,2.995 7.023,9.498 4.122,14.514c-2.902,5.015 -9.46,6.655 -14.637,3.66c-5.176,-2.995 -7.023,-9.498 -4.121,-14.513c2.901,-5.015 9.46,-6.656 14.636,-3.661Z" style="fill:none;stroke:#000;stroke-width:3.13px;"/><path d="M3672.05,711.375c5.176,2.995 7.023,9.498 4.121,14.514c-2.901,5.015 -9.46,6.655 -14.636,3.66c-5.176,-2.994 -7.023,-9.498 -4.122,-14.513c2.902,-5.015 9.46,-6.655 14.637,-3.661Z" style="fill:none;stroke:#000;stroke-width:3.13px;"/></g><g id="Ausgiesser-hinten" serif:id="Ausgiesser hinten"><path d="M3874.57,508.105c-0,-0 -34.134,113.268 -152.107,244.567c0,-0 37.757,-1.616 77.278,-61.361c39.52,-59.744 9.899,-15.605 50.984,-75.127c-0,0 44.944,-63.949 23.845,-108.079Z" style="fill:#91aba6;stroke:#000;stroke-width:3.13px;"/><path d="M3876.42,598.063c0,-0 19.474,22.572 -4.803,66.57c-24.277,43.997 -55.924,36.341 -61.081,34.01l65.884,-100.58Z" style="fill:#91aba6;stroke:#000;stroke-width:3.13px;"/><path d="M3913.88,659.872c-0,-0 -2.163,31.917 -30.686,59.865" style="fill:none;stroke:#000;stroke-width:3.13px;"/><path d="M3893.59,643.522c0,-0 -12.028,37.667 -45.557,61.929c0,0 3.164,18.297 17.586,13.083c14.421,-5.214 34.169,-41.401 37.278,-55.3m0,-0c0,-0 3.971,-10.633 1.109,-16.595c-0,0 -4.719,-10.29 -10.308,-3.055" style="fill:#91aba6;stroke:#000;stroke-width:3.13px;"/></g><g id="Steg"><path d="M3883.2,719.737l362.969,239.761c-0,-0 88.7,1.723 68.372,-94.186l-400.655,-205.44" style="fill:#a5bbb3;stroke:#000;stroke-width:3.13px;"/><path d="M4345.62,854.596c0,-0 -7.786,6.662 -16.979,4.481c-0,0 2.9,-9.168 10.121,-11.337c-0,0 5.554,1.701 6.858,6.856Z" style="fill:#91aba6;stroke:#000;stroke-width:3.13px;"/><path d="M4348.27,867.331c-0,-0 21.559,44.589 -12.392,84.74c-33.951,40.151 -89.314,31.193 -87.208,24.087c0,0 99.086,9.938 86.808,-104.035l12.792,-4.792Z" style="fill:#91aba6;stroke:#000;stroke-width:3.13px;"/><path d="M4365.61,887.055c-0,-0 298.598,166.547 322.952,168.15c0,-0 40.649,49.645 27.432,191.328c-0,0 -179.045,-89.858 -418.339,-252.908c-0,-0 79.17,-26.086 67.955,-106.57Z" style="fill:#a5bbb3;stroke:#000;stroke-width:3.13px;"/><path d="M4900.62,910.353c0,0 110.817,-10.944 95.165,25.841c-15.653,36.785 -53.267,-4.131 -92.013,-8.002c-0,0 -93.617,-12.951 -125.332,-16.29l-416.024,-52.129l-3.196,-8.496l541.4,59.076Z" style="fill:#91aba6;stroke:#000;stroke-width:3.13px;"/><path d="M4647.55,722.837l1.711,14.526c0,0 -24.235,10.743 -58.556,25.299c-67.691,28.71 -174.616,72.254 -212.23,77.475l-11.928,-1.482c0,-0 255.162,-94.681 281.003,-115.818Z" style="fill:#91aba6;stroke:#000;stroke-width:3.13px;"/></g><g id="Kanne"><path d="M5384.41,1259.78c0,-0 -46.389,149.011 -215.048,176.004c-168.658,26.992 -198.156,16.6 -262.887,6.024c-64.732,-10.576 -185.422,-59.232 -210.683,-118.519c0,-0 33.939,126.783 270.308,154.996m-0,-0c-0,-0 142.61,17.777 209.41,-1.417c66.8,-19.193 119.702,-44.826 159.691,-83.795c39.989,-38.969 59.352,-94.253 49.894,-132.897" style="fill:#99aba1;stroke:#000;stroke-width:3.13px;"/><path d="M5107.35,1415.69c0,-0 -156.358,20.838 -263.496,-28.501c-107.137,-49.339 -124.313,-72 -149.046,-122.072c-0,-0 17.943,11.046 32.777,-6.266c14.835,-17.311 16.777,-43.455 18.523,-64.369c1.745,-20.915 -6.061,-80.672 -11.908,-102.787c-5.846,-22.115 -20.886,-55.227 -55.272,-51.96c-0,-0 -11.136,-111.358 -7.35,-133.564c0,0 165.525,14.861 208.416,33.331c42.891,18.469 92.01,26.891 109.217,19.971c17.208,-6.919 30.723,-8.605 31.248,-33.218c0.526,-24.613 -21.453,-33.078 -40.993,-36.741c-19.54,-3.664 -33.974,0.224 -59.072,3.728c-25.099,3.505 -78.061,-7.514 -90.972,-5.665c-12.911,1.848 -149.206,-14.946 -157.666,-15.906c-0,-0 -12.002,-223.484 -16.845,-249.767c-0,-0 44.393,53.788 160.427,79.507c116.034,25.72 176.363,18.979 205.63,17.996c29.268,-0.983 118.594,-8.278 130.723,-12.243c0,0 -10.47,63.995 2.73,81.311c13.2,17.316 13.888,21.157 45.882,20.192c31.994,-0.965 44.49,-25.638 52.957,-43.513c8.468,-17.875 14.099,-63.59 10.295,-76.282c0,0 21.307,8.01 24.39,-12.482c-0,0 106.464,-54.517 114.348,-75.868l-47.354,642.202c-0,-0 -76.31,158.746 -247.589,172.966Z" style="fill:#91aba6;stroke:#000;stroke-width:3.13px;"/><path d="M5215.74,429.584c-0,-0 2.494,73.304 -10.32,120.114c-0,-0 -80.239,-96.461 -191.792,-141.029c0,0 195.475,13.897 202.112,20.915Z" style="fill:#617a69;stroke:#000;stroke-width:3.13px;"/><path d="M5330.54,461.427l-28.456,169.532c0,0 67.315,-28.336 86.279,-66.526c18.965,-38.19 11.333,-73.847 -57.823,-103.006" style="fill:#617a69;stroke:#000;stroke-width:3.13px;"/><path d="M4945.11,407.734l35.021,-2.081c0,0 212.581,131.467 225.396,160.105l-6.273,38.059c-0,0 -69.353,-76.781 -254.144,-196.083Z" style="fill:#a5bbb3;stroke:#000;stroke-width:3.13px;"/><path d="M4928.57,415.337c-0,-0 204.509,123.567 268.284,205.98l-11.536,33.529c0,0 -200.682,11.592 -218.579,6.641c0,0 -237.477,-3.58 -277.412,-74.412c-39.935,-70.833 52.06,-117.74 79.458,-125.685c-0,-0 95.768,-37.226 159.785,-46.053Z" style="fill:#a5bbb3;stroke:#000;stroke-width:3.13px;"/><path d="M4823.18,429.135c0,0 -115.953,20.375 -153.963,91.429m0,0c0,0 -21.362,37.9 4.963,68.034c26.325,30.135 24.351,45.499 121.694,68.902c97.343,23.403 143.68,10.084 215.547,19.842c71.866,9.757 101.965,-5.27 169.083,-7.903l-9.005,15.564c0,-0 -12.705,-4.073 -16.009,9.639c0,-0 -74.581,5.613 -115.98,6.641c-0,-0 -117.381,-0.579 -153.66,-6.704c0,-0 -99.403,-12.538 -156.063,-40.882c-56.66,-28.345 -62.341,-43.188 -74.072,-58.221c-0,0 -33.802,-43.557 -4.614,-85.393c0,0 27.791,-55.253 172.079,-80.948" style="fill:#99aba1;stroke:#000;stroke-width:3.13px;"/><path d="M5408.85,523.223c-0,-0 16.233,20.779 -23.753,74.421m-0,-0c-0,-0 -12.015,16.325 -37.818,31.999c0,0 -37.501,21.72 -50.201,30.971l1.806,-14.936c0,0 111.735,-39.369 109.966,-122.455" style="fill:#99aba1;stroke:#000;stroke-width:3.13px;"/></g><path d="M5168.64,701c0,-0 5.778,5.956 18.999,4.471c0,-0 51.105,-16.436 61.877,-16.637c0,-0 0.541,58.102 -15.631,80.997c-16.173,22.896 -19.592,21.964 -30.714,26.431c-11.122,4.466 -24.31,3.801 -34.553,-5.929m-0,-0c-0,-0 -18.064,-20.55 0.022,-89.333" style="fill:#a5bbb3;stroke:#000;stroke-width:3.13px;"/><g id="Griff_hinten"><path d="M5508.44,372.793c-0,0 -89.564,-53.879 -173.163,79.845c0,-0 23.078,2.601 50.024,23.265c-0,-0 17.864,-101.531 123.139,-103.11Z" style="fill:#a5bbb3;stroke:#000;stroke-width:3.13px;"/><path d="M5486.63,388.79c-0,-0 77.646,-23.712 108.276,47.925c-0,0 25.603,44.943 2.835,121.151m0,-0c0,-0 -19.597,89.332 -170.98,234.301l-0.639,-76.776c-0,-0 101.705,-104.094 129.435,-168.304c-0,0 74.469,-143.373 -69.179,-157.862" style="fill:#99aba1;stroke:#000;stroke-width:3.13px;"/></g><g id="Griff-oben" serif:id="Griff oben"><path d="M4855.67,25.742l37.086,19.398c-0,-0 -45.569,25.521 -45.617,122.45c-0.048,96.93 8.035,187.541 24.363,236.508l-63.559,14.469c-0,0 3.623,-47.416 -5.883,-96.996c-9.506,-49.58 -9.379,-122.676 -10.301,-138.097c-0.922,-15.422 -0.621,-47.433 3.02,-68.798c3.641,-21.364 15.29,-75.477 60.891,-88.934Z" style="fill:#99aba1;stroke:#000;stroke-width:3.13px;"/><path d="M4878.31,20.169c9.57,2.805 20.959,-9.626 86.515,27.233c-0,-0 21.632,8.605 35.43,16.888c0,-0 97.713,40.627 114.108,69.629c-0,-0 -80.953,-59.488 -171.033,-81.659c-0,0 -19.28,-7.497 -65.02,-32.091Z" style="fill:#99aba1;stroke:#000;stroke-width:3.13px;"/><path d="M4932.69,16.034c-0,0 14.749,-16.541 49.161,-6.439c-0,0 110.756,62.404 171.35,78.041c-0,0 140.79,123.667 153.081,272.21c0,0 6.558,238.92 -32.904,314.442c-0,-0 -30.131,-3.658 -86.888,14.786c0,0 60.299,-162.92 43.824,-285.635c-0,0 -22.727,-212.622 -91.003,-265.236c0,-0 -53.798,-56.811 -206.621,-122.169Z" style="fill:#a5bbb3;stroke:#000;stroke-width:3.13px;"/></g></g><g id="water"><path d="M3278.29,1462.01c0,-0 -25.121,-3.27 -38.404,24.896" style="fill:none;stroke:#0433ff;stroke-width:9.38px;stroke-dasharray:37.5,56.25,0,0,0,0;"/><path d="M3279.53,1467.44c0,-0 -11.676,6.471 -11.723,20.689" style="fill:none;stroke:#0433ff;stroke-width:9.38px;stroke-dasharray:37.5,56.25,0,0,0,0;"/><path d="M3279.53,1465.96c0,-0 -12.117,5.407 -15.427,20.95" style="fill:none;stroke:#0433ff;stroke-width:9.38px;stroke-dasharray:37.5,56.25,0,0,0,0;"/><path d="M3279.53,1464.69c0,-0 -14.025,5.301 -19.674,23.438" style="fill:none;stroke:#0433ff;stroke-width:9.38px;stroke-dasharray:37.5,56.25,0,0,0,0;"/><path d="M3279.53,1463.69c0,-0 -23.235,-6.137 -37.777,27.835" style="fill:none;stroke:#0433ff;stroke-width:9.38px;stroke-dasharray:37.5,56.25,0,0,0,0;"/><path d="M3277.82,1464.69c-0,-0 -15.725,-4.292 -28.39,23.438" style="fill:none;stroke:#0433ff;stroke-width:9.38px;stroke-dasharray:37.5,56.25,0,0,0,0;"/><path d="M3277.96,1464.86c-0,-0 -15.378,1.802 -25.861,26.026" style="fill:none;stroke:#0433ff;stroke-width:9.38px;stroke-dasharray:37.5,56.25,0,0,0,0;"/></g></g><g id="after"><g id="Beet-hinten1" serif:id="Beet-hinten"><g id="Beetumrandung2" serif:id="Beetumrandung"><rect x="940.562" y="2250.78" width="2668.37" height="464.826" style="fill:#8d806d;stroke:#000;stroke-width:6.25px;"/><path d="M2671.49,3066.65l-0,464.826l937.437,-815.868l-0,-464.827l-937.437,815.869Z" style="fill:#8d806d;stroke:#000;stroke-width:6.25px;"/><path d="M3.125,3066.65l937.437,-815.869l0,464.827l-937.437,815.868l0,-464.826Z" style="fill:#8d806d;stroke:#000;stroke-width:6.25px;"/><rect x="3.125" y="3066.65" width="2668.37" height="464.826" style="fill:#8d806d;stroke:#000;stroke-width:6.25px;"/></g><path id="Erde2" serif:id="Erde" d="M940.562,2408.38l2528.2,-36.613l-797.272,694.882l-2482.45,-0l751.524,-658.269Z" style="fill:#684827;stroke:#000;stroke-width:6.25px;"/><g id="Pflanzen2" serif:id="Pflanzen"><g id="Pflanze-vorne-links2" serif:id="Pflanze-vorne-links"><path d="M581.691,2346.41c-0,0 153.511,212.97 -14.243,548.826c0,-0 -99.387,-311.992 14.243,-548.826Z" style="fill:#87af35;stroke:#000;stroke-width:3.13px;"/><path d="M326.855,2578.83c0,-0 313.561,-100.613 293.151,364.674c-0,-0 -16.199,24.485 -55.344,-7.377c0,-0 -45.2,-289.404 -237.807,-357.297Z" style="fill:#87af35;stroke:#000;stroke-width:3.13px;"/><path d="M842.731,2581.2c0,0 -264.902,-51.187 -241.188,365.841c0,-0 10.907,18.166 25.002,-22.559c-0,0 99.993,-323.732 216.186,-343.282Z" style="fill:#87af35;stroke:#000;stroke-width:3.13px;"/></g><g id="Pflanze-vorne-rechts2" serif:id="Pflanze-vorne-rechts"><path d="M2661.51,2351.95c-0,-0 153.511,212.969 -14.243,548.825c0,0 -99.387,-311.991 14.243,-548.825Z" style="fill:#87af35;stroke:#000;stroke-width:3.13px;"/><path d="M2406.67,2584.38c-0,0 313.561,-100.613 293.15,364.674c0,-0 -16.199,24.485 -55.343,-7.377c0,-0 -45.2,-289.404 -237.807,-357.297Z" style="fill:#87af35;stroke:#000;stroke-width:3.13px;"/><path d="M2922.55,2586.75c0,-0 -264.902,-51.188 -241.188,365.84c-0,-0 10.907,18.166 25.002,-22.559c-0,0 99.993,-323.732 216.186,-343.281Z" style="fill:#87af35;stroke:#000;stroke-width:3.13px;"/></g><g id="Pflanze-vorne-mitte-links1" serif:id="Pflanze-vorne-mitte-links"><path d="M1322.04,2394.86c-0,0 153.511,212.97 -14.243,548.826c0,0 -99.387,-311.991 14.243,-548.826Z" style="fill:#658947;stroke:#000;stroke-width:3.13px;"/><path d="M1067.2,2627.29c-0,0 313.561,-100.613 293.151,364.674c-0,-0 -16.2,24.485 -55.344,-7.377c0,-0 -45.2,-289.404 -237.807,-357.297Z" style="fill:#658947;stroke:#000;stroke-width:3.13px;"/><path d="M1583.08,2629.66c0,-0 -264.902,-51.188 -241.188,365.84c-0,-0 10.907,18.166 25.002,-22.559c-0,0 99.993,-323.732 216.186,-343.281Z" style="fill:#658947;stroke:#000;stroke-width:3.13px;"/></g><g id="Pflanze-vorne-mitte-rechts1" serif:id="Pflanze-vorne-mitte-rechts"><path d="M2030.55,2402.05c0,0 153.511,212.97 -14.242,548.826c-0,-0 -99.388,-311.992 14.242,-548.826Z" style="fill:#87af35;stroke:#000;stroke-width:3.13px;"/><path d="M1775.71,2634.47c0,-0 313.562,-100.613 293.151,364.674c-0,-0 -16.199,24.485 -55.343,-7.377c-0,-0 -45.201,-289.404 -237.808,-357.297Z" style="fill:#87af35;stroke:#000;stroke-width:3.13px;"/><path d="M2291.59,2636.85c-0,0 -264.902,-51.187 -241.189,365.841c0,-0 10.908,18.166 25.002,-22.559c0,0 99.993,-323.732 216.187,-343.282Z" style="fill:#87af35;stroke:#000;stroke-width:3.13px;"/></g><g id="Pflanze-hinten-links2" serif:id="Pflanze-hinten-links"><path d="M1063.17,1916.92c0,-0 153.511,212.969 -14.242,548.825c-0,0 -99.388,-311.991 14.242,-548.825Z" style="fill:#87af35;stroke:#000;stroke-width:3.13px;"/><path d="M808.33,2149.34c0,0 313.562,-100.613 293.151,364.674c0,-0 -16.199,24.485 -55.343,-7.377c-0,-0 -45.201,-289.404 -237.808,-357.297Z" style="fill:#87af35;stroke:#000;stroke-width:3.13px;"/><path d="M1324.21,2151.72c-0,-0 -264.902,-51.188 -241.189,365.84c0,-0 10.908,18.167 25.002,-22.559c0,0 99.993,-323.731 216.187,-343.281Z" style="fill:#87af35;stroke:#000;stroke-width:3.13px;"/></g><g id="Pflanze-hinten-rechts2" serif:id="Pflanze-hinten-rechts"><path d="M2962.74,1960.74c-0,-0 153.511,212.969 -14.243,548.825c0,0 -99.387,-311.991 14.243,-548.825Z" style="fill:#658947;stroke:#000;stroke-width:3.13px;"/><path d="M2707.91,2193.16c0,0 313.561,-100.613 293.151,364.674c-0,0 -16.199,24.485 -55.344,-7.377c0,0 -45.2,-289.403 -237.807,-357.297Z" style="fill:#658947;stroke:#000;stroke-width:3.13px;"/><path d="M3223.78,2195.53c-0,-0 -264.902,-51.188 -241.189,365.84c0,0 10.908,18.167 25.002,-22.558c-0,-0 99.993,-323.732 216.187,-343.282Z" style="fill:#658947;stroke:#000;stroke-width:3.13px;"/></g><g id="Pflanze-hinten-mitte-links1" serif:id="Pflanze-hinten-mitte-links"><path d="M1714.92,1965.37c-0,-0 153.511,212.969 -14.243,548.825c0,0 -99.387,-311.991 14.243,-548.825Z" style="fill:#658947;stroke:#000;stroke-width:3.13px;"/><path d="M1460.09,2197.8c-0,0 313.561,-100.613 293.151,364.674c-0,0 -16.199,24.485 -55.344,-7.377c0,0 -45.2,-289.403 -237.807,-357.297Z" style="fill:#658947;stroke:#000;stroke-width:3.13px;"/><path d="M1975.97,2200.17c0,-0 -264.902,-51.188 -241.188,365.84c-0,0 10.907,18.167 25.002,-22.558c-0,-0 99.993,-323.732 216.186,-343.282Z" style="fill:#658947;stroke:#000;stroke-width:3.13px;"/></g><g id="Pflanze-hinten-mitte-rechts1" serif:id="Pflanze-hinten-mitte-rechts"><path d="M2331.78,1965.37c-0,-0 153.511,212.969 -14.243,548.825c0,0 -99.387,-311.991 14.243,-548.825Z" style="fill:#658947;stroke:#000;stroke-width:3.13px;"/><path d="M2076.95,2197.8c0,0 313.562,-100.613 293.151,364.674c-0,0 -16.199,24.485 -55.344,-7.377c0,0 -45.2,-289.403 -237.807,-357.297Z" style="fill:#658947;stroke:#000;stroke-width:3.13px;"/><path d="M2592.82,2200.17c-0,-0 -264.902,-51.188 -241.189,365.84c0,0 10.908,18.167 25.002,-22.558c0,-0 99.993,-323.732 216.187,-343.282Z" style="fill:#658947;stroke:#000;stroke-width:3.13px;"/></g></g></g><g id="Beet-vorne1" serif:id="Beet-vorne"><g id="Beetumrandung3" serif:id="Beetumrandung"><rect x="1949.76" y="3503.38" width="2681.55" height="462" style="fill:#8d806d;stroke:#000;stroke-width:6.25px;"/><path d="M3689.24,4314.29l0,462l942.068,-810.908l0,-462l-942.068,810.908Z" style="fill:#8d806d;stroke:#000;stroke-width:6.25px;"/><path d="M1007.69,4314.29l942.067,-810.908l0,462l-942.067,810.908l-0,-462Z" style="fill:#8d806d;stroke:#000;stroke-width:6.25px;"/><rect x="1007.69" y="4314.29" width="2681.55" height="462" style="fill:#8d806d;stroke:#000;stroke-width:6.25px;"/></g><path id="Erde3" serif:id="Erde" d="M1949.76,3660.03l2540.69,-36.391l-801.21,690.657l-2494.72,-0l755.236,-654.266Z" style="fill:#684827;stroke:#000;stroke-width:6.25px;"/><g id="Pflanzen3" serif:id="Pflanzen"><g id="Pflanze-vorne-links3" serif:id="Pflanze-vorne-links"><path d="M1601.9,4283.6c0,0 56.304,35.485 97.881,-78.792c41.577,-114.278 13.321,-2.876 89.449,-36.255c76.127,-33.38 -6.117,-21.37 -0.48,-86.109c5.638,-64.739 12.555,-79.44 56.676,-64.053c44.121,15.386 118.418,-78.414 21.123,-138.988c-97.296,-60.573 -116.184,34.415 -120.573,76.361c-4.39,41.946 40.558,88.903 -0,92.136c-40.558,3.234 -87.968,-9.917 -101.242,46.251c-13.274,56.168 60.607,82.86 -0,110.657c-60.607,27.797 -117.444,-29.617 -80.39,78.792l37.556,0Z" style="fill:#87af35;stroke:#000;stroke-width:6.25px;"/><path d="M1595.76,4204.81c0,-0 12.682,-170.915 93.873,-191.997c81.192,-21.081 18.183,-61.351 25.764,-129.582c7.581,-68.232 60.774,-62.125 70.77,-101.232c9.996,-39.107 -79.119,-82.439 -70.479,-158.366c0,0 -9.821,-100.696 16.844,-196.983c26.666,-96.287 -243.111,-281.99 -268.271,-225.991c-0,0 -194.099,83.015 40.379,464.102c0,-0 99.508,85.8 103.334,158.652c3.826,72.852 -56.043,267.67 -12.214,381.397Z" style="fill:#87af35;stroke:#000;stroke-width:6.25px;"/><path d="M1566.96,4185c0,-0 -100.402,1.129 -119.845,-45.16c-0,-0 9.945,-77.272 -13.487,-111.796c-23.432,-34.525 -95.166,21.073 -132.245,-45.794c-37.078,-66.867 22.783,-128.145 -14.38,-158.528c-37.164,-30.384 -155.248,10.044 -211.074,-51.284c-55.826,-61.328 14.228,-111.105 50.546,-104.376c36.318,6.73 128.463,-5.98 161.753,-43.3c33.291,-37.32 128.703,44.944 120.361,92.794c-8.342,47.849 100.912,95.556 155.653,110.492c54.742,14.937 10.417,71.476 -1.489,174.284c-11.907,102.809 -16.165,131.586 4.207,182.668Z" style="fill:#87af35;stroke:#000;stroke-width:6.25px;"/></g><g id="Pflanze-hinten-rechts3" serif:id="Pflanze-hinten-rechts"><path d="M4126.32,3761.92c0,0 56.304,35.486 97.881,-78.792c41.577,-114.278 13.321,-2.876 89.449,-36.255c76.127,-33.379 -6.117,-21.37 -0.48,-86.109c5.638,-64.739 12.555,-79.439 56.676,-64.053c44.121,15.387 118.418,-78.414 21.123,-138.987c-97.296,-60.574 -116.184,34.415 -120.573,76.361c-4.389,41.945 40.558,88.902 -0,92.136c-40.558,3.234 -87.968,-9.918 -101.242,46.25c-13.274,56.168 60.607,82.86 -0,110.657c-60.607,27.797 -117.443,-29.617 -80.39,78.792l37.556,0Z" style="fill:#87af35;stroke:#000;stroke-width:6.25px;"/><path d="M4120.18,3683.12c-0,0 12.681,-170.915 93.872,-191.996c81.192,-21.082 18.183,-61.351 25.764,-129.583c7.581,-68.232 60.774,-62.125 70.77,-101.232c9.996,-39.107 -79.119,-82.439 -70.479,-158.365c0,-0 -9.821,-100.696 16.844,-196.983c26.666,-96.287 -243.111,-281.991 -268.271,-225.991c-0,-0 -194.099,83.015 40.38,464.101c-0,-0 99.507,85.8 103.333,158.653c3.826,72.852 -56.043,267.669 -12.213,381.396Z" style="fill:#87af35;stroke:#000;stroke-width:6.25px;"/><path d="M4091.38,3663.31c0,0 -100.402,1.129 -119.845,-45.16c-0,0 9.945,-77.272 -13.487,-111.796c-23.432,-34.524 -95.166,21.074 -132.244,-45.793c-37.079,-66.868 22.782,-128.146 -14.381,-158.529c-37.164,-30.383 -155.248,10.044 -211.074,-51.284c-55.826,-61.328 14.228,-111.105 50.546,-104.375c36.318,6.729 128.463,-5.981 161.754,-43.301c33.29,-37.32 128.702,44.945 120.36,92.794c-8.342,47.849 100.912,95.556 155.654,110.492c54.741,14.937 10.416,71.476 -1.49,174.284c-11.906,102.809 -16.165,131.587 4.207,182.668Z" style="fill:#87af35;stroke:#000;stroke-width:6.25px;"/></g><g id="Pflanze-hinten-mitte1" serif:id="Pflanze-hinten-mitte"><path d="M3105.66,3795.37c0,-0 56.304,35.485 97.881,-78.793c41.577,-114.277 13.321,-2.875 89.449,-36.255c76.127,-33.379 -6.118,-21.369 -0.48,-86.109c5.637,-64.739 12.555,-79.439 56.676,-64.053c44.121,15.387 118.418,-78.414 21.122,-138.987c-97.295,-60.574 -116.183,34.415 -120.572,76.361c-4.39,41.946 40.557,88.902 -0,92.136c-40.558,3.234 -87.968,-9.917 -101.242,46.251c-13.274,56.167 60.607,82.859 -0,110.656c-60.608,27.797 -117.444,-29.616 -80.39,78.793l37.556,-0Z" style="fill:#658947;stroke:#000;stroke-width:6.25px;"/><path d="M3099.52,3716.58c0,0 12.681,-170.915 93.873,-191.996c81.192,-21.081 18.183,-61.351 25.764,-129.583c7.581,-68.231 60.774,-62.125 70.769,-101.232c9.996,-39.106 -79.118,-82.438 -70.478,-158.365c0,0 -9.822,-100.696 16.844,-196.983c26.665,-96.287 -243.111,-281.99 -268.272,-225.991c0,-0 -194.098,83.015 40.38,464.101c0,0 99.508,85.801 103.334,158.653c3.826,72.852 -56.043,267.669 -12.214,381.396Z" style="fill:#658947;stroke:#000;stroke-width:6.25px;"/><path d="M3070.72,3696.77c-0,-0 -100.403,1.128 -119.845,-45.16c-0,-0 9.945,-77.273 -13.487,-111.797c-23.432,-34.524 -95.167,21.074 -132.245,-45.793c-37.078,-66.867 22.783,-128.145 -14.38,-158.529c-37.164,-30.383 -155.248,10.044 -211.074,-51.283c-55.826,-61.328 14.228,-111.106 50.546,-104.376c36.318,6.73 128.463,-5.981 161.753,-43.301c33.291,-37.32 128.703,44.945 120.361,92.794c-8.342,47.849 100.912,95.556 155.653,110.493c54.742,14.936 10.417,71.475 -1.489,174.284c-11.907,102.808 -16.165,131.586 4.207,182.668Z" style="fill:#658947;stroke:#000;stroke-width:6.25px;"/></g><g id="Pflanze-hinten-links3" serif:id="Pflanze-hinten-links"><path d="M2158.78,3795.04c0,0 53.95,37.77 93.789,-83.864c39.838,-121.635 12.764,-3.061 85.709,-38.589c72.944,-35.529 -5.862,-22.746 -0.46,-91.653c5.402,-68.907 12.03,-84.553 54.306,-68.176c42.277,16.377 113.467,-83.462 20.24,-147.935c-93.228,-64.473 -111.326,36.63 -115.532,81.276c-4.206,44.647 38.862,94.626 0,98.068c-38.862,3.442 -84.29,-10.556 -97.009,49.228c-12.719,59.784 58.073,88.194 -0,117.781c-58.073,29.586 -112.533,-31.524 -77.029,83.864l35.986,0Z" style="fill:#658947;stroke:#000;stroke-width:6.25px;"/><path d="M2152.9,3711.17c-0,-0 12.151,-181.918 89.948,-204.357c77.797,-22.438 17.422,-65.3 24.687,-137.925c7.264,-72.624 58.232,-66.124 67.81,-107.749c9.578,-41.624 -75.81,-87.746 -67.531,-168.56c-0,-0 -9.411,-107.179 16.139,-209.665c25.551,-102.485 -232.946,-300.143 -257.055,-240.539c-0,-0 -185.984,88.359 38.692,493.979c-0,-0 95.347,91.324 99.013,168.866c3.666,77.542 -53.7,284.901 -11.703,405.95Z" style="fill:#658947;stroke:#000;stroke-width:6.25px;"/><path d="M2125.3,3690.08c-0,0 -96.205,1.202 -114.835,-48.067c0,-0 9.53,-82.247 -12.923,-118.994c-22.452,-36.746 -91.187,22.431 -126.715,-48.741c-35.528,-71.172 21.83,-136.395 -13.78,-168.734c-35.609,-32.34 -148.757,10.691 -202.249,-54.585c-53.492,-65.276 13.634,-118.258 48.433,-111.095c34.799,7.163 123.092,-6.366 154.991,-46.089c31.899,-39.722 123.321,47.839 115.328,98.768c-7.993,50.93 96.693,101.708 149.146,117.606c52.453,15.898 9.981,76.077 -1.427,185.504c-11.409,109.427 -15.489,140.057 4.031,194.427Z" style="fill:#658947;stroke:#000;stroke-width:6.25px;"/></g><g id="Pflanze-vorne-mitte1" serif:id="Pflanze-vorne-mitte"><path d="M2732.24,4257.37c0,0 56.304,35.486 97.881,-78.792c41.577,-114.278 13.321,-2.876 89.448,-36.255c76.128,-33.379 -6.117,-21.37 -0.479,-86.109c5.637,-64.739 12.555,-79.439 56.676,-64.053c44.121,15.387 118.417,-78.414 21.122,-138.987c-97.295,-60.574 -116.183,34.415 -120.573,76.36c-4.389,41.946 40.558,88.903 0,92.137c-40.557,3.234 -87.967,-9.918 -101.241,46.25c-13.275,56.168 60.607,82.86 -0,110.657c-60.608,27.797 -117.444,-29.617 -80.39,78.792l37.556,0Z" style="fill:#87af35;stroke:#000;stroke-width:6.25px;"/><path d="M2726.1,4178.58c0,0 12.681,-170.915 93.873,-191.996c81.192,-21.082 18.183,-61.351 25.764,-129.583c7.581,-68.232 60.773,-62.125 70.769,-101.232c9.996,-39.107 -79.118,-82.439 -70.478,-158.365c-0,-0 -9.822,-100.697 16.844,-196.983c26.665,-96.287 -243.111,-281.991 -268.272,-225.991c0,-0 -194.099,83.014 40.38,464.101c0,-0 99.508,85.8 103.334,158.653c3.826,72.852 -56.043,267.669 -12.214,381.396Z" style="fill:#87af35;stroke:#000;stroke-width:6.25px;"/><path d="M2697.29,4158.77c-0,0 -100.403,1.129 -119.845,-45.16c-0,0 9.945,-77.272 -13.487,-111.796c-23.433,-34.524 -95.167,21.073 -132.245,-45.794c-37.078,-66.867 22.783,-128.145 -14.381,-158.528c-37.163,-30.383 -155.247,10.044 -211.073,-51.284c-55.826,-61.328 14.228,-111.105 50.546,-104.375c36.317,6.729 128.463,-5.981 161.753,-43.301c33.291,-37.32 128.703,44.945 120.361,92.794c-8.342,47.849 100.912,95.556 155.653,110.492c54.742,14.937 10.417,71.476 -1.49,174.284c-11.906,102.809 -16.164,131.587 4.208,182.668Z" style="fill:#87af35;stroke:#000;stroke-width:6.25px;"/></g><g id="Pflanze-vorne-rechts3" serif:id="Pflanze-vorne-rechts"><path d="M3648.54,4272.69c-0,0 56.304,35.485 97.881,-78.792c41.577,-114.278 13.321,-2.876 89.448,-36.255c76.128,-33.38 -6.117,-21.37 -0.479,-86.109c5.637,-64.739 12.554,-79.44 56.676,-64.053c44.121,15.386 118.417,-78.414 21.122,-138.988c-97.295,-60.573 -116.183,34.415 -120.573,76.361c-4.389,41.946 40.558,88.903 0,92.137c-40.557,3.233 -87.967,-9.918 -101.242,46.25c-13.274,56.168 60.608,82.86 0,110.657c-60.607,27.797 -117.443,-29.617 -80.389,78.792l37.556,0Z" style="fill:#658947;stroke:#000;stroke-width:6.25px;"/><path d="M3642.41,4193.9c0,-0 12.681,-170.915 93.873,-191.997c81.192,-21.081 18.183,-61.351 25.764,-129.582c7.581,-68.232 60.773,-62.125 70.769,-101.232c9.996,-39.107 -79.118,-82.439 -70.478,-158.366c-0,0 -9.822,-100.696 16.844,-196.983c26.665,-96.286 -243.111,-281.99 -268.272,-225.991c0,0 -194.099,83.015 40.38,464.102c0,-0 99.508,85.8 103.334,158.652c3.826,72.853 -56.043,267.67 -12.214,381.397Z" style="fill:#658947;stroke:#000;stroke-width:6.25px;"/><path d="M3613.6,4174.09c-0,0 -100.403,1.129 -119.845,-45.16c-0,-0 9.945,-77.272 -13.488,-111.796c-23.432,-34.525 -95.166,21.073 -132.244,-45.794c-37.078,-66.867 22.783,-128.145 -14.381,-158.528c-37.163,-30.384 -155.247,10.044 -211.073,-51.284c-55.826,-61.328 14.228,-111.105 50.545,-104.376c36.318,6.73 128.464,-5.98 161.754,-43.3c33.291,-37.32 128.703,44.945 120.361,92.794c-8.342,47.849 100.912,95.556 155.653,110.492c54.742,14.937 10.417,71.476 -1.49,174.284c-11.906,102.809 -16.164,131.586 4.208,182.668Z" style="fill:#658947;stroke:#000;stroke-width:6.25px;"/></g></g></g><g id="water1" serif:id="water"><path d="M3237.83,1456.95c0,-0 -839.394,-118.583 -1283.22,902.814" style="fill:none;stroke:#0433ff;stroke-width:9.38px;stroke-dasharray:37.5,56.25,0,0,0,0;"/><path d="M3279.3,1654c-0,-0 -390.149,234.666 -391.707,750.266" style="fill:none;stroke:#0433ff;stroke-width:9.38px;stroke-dasharray:37.5,56.25,0,0,0,0;"/><path d="M3279.3,1600.05c-0,0 -404.892,196.064 -515.467,759.716" style="fill:none;stroke:#0433ff;stroke-width:9.38px;stroke-dasharray:37.5,56.25,0,0,0,0;"/><path d="M3279.3,1554.32c-0,-0 -468.619,192.222 -657.379,849.946" style="fill:none;stroke:#0433ff;stroke-width:9.38px;stroke-dasharray:37.5,56.25,0,0,0,0;"/><path d="M3279.3,1517.8c-0,-0 -776.381,-222.551 -1262.26,1009.4" style="fill:none;stroke:#0433ff;stroke-width:9.38px;stroke-dasharray:37.5,56.25,0,0,0,0;"/><path d="M3222.21,1554.32c0,-0 -525.409,-155.627 -948.598,849.946" style="fill:none;stroke:#0433ff;stroke-width:9.38px;stroke-dasharray:37.5,56.25,0,0,0,0;"/><path d="M3226.8,1560.26c-0,0 -513.812,65.348 -864.098,943.812" style="fill:none;stroke:#0433ff;stroke-width:9.38px;stroke-dasharray:37.5,56.25,0,0,0,0;"/></g><g id="watercan1" serif:id="watercan"><g id="Ausgiesser1" serif:id="Ausgiesser"><path d="M3305.22,1495.34c4.062,-53.319 1.127,-126.647 27.348,-178.92c9.895,-19.726 29.836,-43.996 55.853,-36.721c47.732,9.836 34.846,84.658 33.423,116.192c-0.956,21.187 -2.566,42.366 -2.566,63.574c-0,4.471 -0.65,27.649 0.615,31.937c4.142,76.325 -7.445,113.071 -7.445,113.071c-13.563,43.289 -48.916,40.439 -48.916,40.439c-46.053,-11.651 -50.107,-56.409 -50.107,-56.409c-15.863,-75.871 -6.411,-92.297 -8.205,-93.163Z" style="fill:#aa7942;stroke:#000;stroke-width:3.13px;"/><ellipse cx="3389.85" cy="1350.32" rx="10.835" ry="10.498" style="fill:none;stroke:#000;stroke-width:3.13px;"/><ellipse cx="3364.26" cy="1308.19" rx="10.835" ry="10.498" style="fill:none;stroke:#000;stroke-width:3.13px;"/><ellipse cx="3345.75" cy="1352.31" rx="10.835" ry="10.498" style="fill:none;stroke:#000;stroke-width:3.13px;"/><ellipse cx="3359.85" cy="1387.13" rx="10.835" ry="10.498" style="fill:none;stroke:#000;stroke-width:3.13px;"/><ellipse cx="3398.26" cy="1397.63" rx="10.835" ry="10.498" style="fill:none;stroke:#000;stroke-width:3.13px;"/><ellipse cx="3396.4" cy="1441.59" rx="10.835" ry="10.498" style="fill:none;stroke:#000;stroke-width:3.13px;"/><ellipse cx="3363.54" cy="1434.06" rx="10.835" ry="10.498" style="fill:none;stroke:#000;stroke-width:3.13px;"/><ellipse cx="3325.62" cy="1416.23" rx="10.835" ry="10.498" style="fill:none;stroke:#000;stroke-width:3.13px;"/><ellipse cx="3327.6" cy="1470.41" rx="10.835" ry="10.498" style="fill:none;stroke:#000;stroke-width:3.13px;"/><ellipse cx="3362.01" cy="1480.9" rx="10.835" ry="10.498" style="fill:none;stroke:#000;stroke-width:3.13px;"/><ellipse cx="3398.04" cy="1486.47" rx="10.835" ry="10.498" style="fill:none;stroke:#000;stroke-width:3.13px;"/><ellipse cx="3395.87" cy="1527.33" rx="10.835" ry="10.498" style="fill:none;stroke:#000;stroke-width:3.13px;"/><ellipse cx="3362.01" cy="1531.58" rx="10.835" ry="10.498" style="fill:none;stroke:#000;stroke-width:3.13px;"/><ellipse cx="3326.05" cy="1523.56" rx="10.835" ry="10.498" style="fill:none;stroke:#000;stroke-width:3.13px;"/><ellipse cx="3336.89" cy="1583.38" rx="10.835" ry="10.498" style="fill:none;stroke:#000;stroke-width:3.13px;"/><ellipse cx="3385.04" cy="1565.99" rx="10.835" ry="10.498" style="fill:none;stroke:#000;stroke-width:3.13px;"/><ellipse cx="3369.29" cy="1601.84" rx="10.835" ry="10.498" style="fill:none;stroke:#000;stroke-width:3.13px;"/></g><g id="Ausgiesser-hinten1" serif:id="Ausgiesser hinten"><path d="M3442.79,1313.97c0,-0 27.178,115.135 -9.183,287.863c0,-0 31.873,-20.308 36.161,-91.812c4.288,-71.504 0.753,-18.465 6.507,-90.56c0,0 6.878,-77.86 -33.485,-105.491Z" style="fill:#91aba6;stroke:#000;stroke-width:3.13px;"/><path d="M3489.44,1390.91c0,0 28.16,9.786 29.18,60.027c1.02,50.24 -30.207,59.461 -35.838,60.026l6.658,-120.053Z" style="fill:#91aba6;stroke:#000;stroke-width:3.13px;"/><path d="M3552.82,1425.65c-0,0 14.111,28.71 3.419,67.184" style="fill:none;stroke:#000;stroke-width:3.13px;"/><path d="M3527.06,1421.66c-0,-0 8.452,38.627 -8.42,76.418c0,0 11.901,14.253 21.773,2.518c9.872,-11.735 8.843,-52.947 4.574,-66.535m0,-0c0,-0 -1.888,-11.191 -7.351,-14.919c0,0 -9.238,-6.544 -10.452,2.518" style="fill:#91aba6;stroke:#000;stroke-width:3.13px;"/></g><g id="Steg1" serif:id="Steg"><path d="M3556.24,1492.84l434.244,25.76c0,0 77.639,-42.928 12.014,-115.764l-449.677,22.82" style="fill:#a5bbb3;stroke:#000;stroke-width:3.13px;"/><path d="M4024.03,1377.99c0,0 -3.403,9.666 -12.452,12.383c-0,-0 -2.082,-9.389 3.083,-14.882c-0,0 5.659,-1.309 9.369,2.499Z" style="fill:#91aba6;stroke:#000;stroke-width:3.13px;"/><path d="M4032.7,1387.68c-0,0 40.99,27.799 31.711,79.555c-9.28,51.756 -61.687,71.727 -63.422,64.522c-0,-0 90.742,-41.02 23.038,-133.523l8.673,-10.554Z" style="fill:#91aba6;stroke:#000;stroke-width:3.13px;"/><path d="M4057.59,1396.08c-0,0 341.862,-5.375 363.745,-16.184c0,-0 60.046,22.615 119.559,151.871c0,-0 -199.976,11.884 -488.755,-9.412c-0,0 55.464,-62.226 5.451,-126.275Z" style="fill:#a5bbb3;stroke:#000;stroke-width:3.13px;"/><path d="M4532.35,1148.32c0,-0 90.439,-64.97 95.312,-25.291c4.873,39.679 -48.174,23.1 -83.65,39.153c-0,0 -87.518,35.672 -116.641,48.665l-386.205,163.217l-7.02,-5.753l498.204,-219.991Z" style="fill:#91aba6;stroke:#000;stroke-width:3.13px;"/><path d="M4219.39,1112.74l8.755,11.717c0,-0 -15.597,21.435 -38.015,51.222c-44.214,58.749 -114.959,149.986 -144.902,173.342l-11.066,4.69c-0,0 173.445,-209.734 185.228,-240.971Z" style="fill:#91aba6;stroke:#000;stroke-width:3.13px;"/></g><g id="Kanne1" serif:id="Kanne"><path d="M5126.09,1208.49c-0,0 34.469,152.211 -98,260.037c-132.468,107.826 -163.204,113.603 -224.53,136.866c-61.326,23.262 -190.158,41.586 -241.714,2.919c0,0 92.868,92.745 311.591,-1.206m-0,-0c-0,-0 132.342,-56.03 180.55,-106.096c48.208,-50.065 81.161,-98.745 96.26,-152.502c15.098,-53.756 4.173,-111.305 -23.366,-140.018" style="fill:#99aba1;stroke:#000;stroke-width:3.13px;"/><path d="M4964.35,1482.19c0,0 -124.904,96.339 -242.347,107.286c-117.443,10.947 -143.658,-0.066 -190.143,-31.021c0,-0 21.063,0.575 25.234,-21.838c4.171,-22.413 -7.24,-46.015 -16.203,-64.992c-8.963,-18.978 -45.645,-66.792 -61.781,-83.006c-16.136,-16.214 -45.735,-37.344 -73.863,-17.296c-0,0 -65.405,-90.811 -73.248,-111.928c-0,0 150.715,-70.029 197.09,-75.522c46.374,-5.493 93.108,-22.801 104.536,-37.408c11.429,-14.606 22.284,-22.834 10.412,-44.401c-11.871,-21.568 -35.134,-17.888 -53.882,-11.273c-18.747,6.614 -29.295,17.207 -49.264,32.81c-19.969,15.602 -71.329,32.587 -81.579,40.653c-10.25,8.065 -136.633,61.784 -144.437,65.189c-0,0 -122.306,-187.43 -139.661,-207.755c0,0 65.362,24.326 178.678,-11.52c113.315,-35.847 162.159,-71.893 186.999,-87.4c24.841,-15.508 98.506,-66.555 107.019,-76.062c0,-0 22.984,60.635 43.082,69.013c20.097,8.378 22.617,11.358 49.826,-5.499c27.21,-16.858 25.67,-44.472 24.047,-64.184c-1.622,-19.713 -19.641,-62.102 -29.289,-71.183c-0,0 22.453,-3.737 14.86,-23.018c-0,0 64.85,-100.504 60.982,-122.933l280.618,579.585c0,0 13.447,175.621 -127.686,273.703Z" style="fill:#91aba6;stroke:#000;stroke-width:3.13px;"/><path d="M4564.34,574.367c0,-0 38.869,62.2 51.219,109.135c0,-0 -117.758,-43.311 -236.634,-26.023c-0,-0 176.156,-85.863 185.415,-83.112Z" style="fill:#617a69;stroke:#000;stroke-width:3.13px;"/><path d="M4679.65,544.44l60.269,160.992c0,0 44.076,-58.237 41.365,-100.791c-2.71,-42.553 -27.172,-69.594 -101.634,-60.201" style="fill:#617a69;stroke:#000;stroke-width:3.13px;"/><path d="M4319.15,690.983l29.272,-19.339c-0,0 249.84,7.336 275.275,25.707l13.629,36.084c-0,0 -98.481,-31.728 -318.176,-42.452Z" style="fill:#a5bbb3;stroke:#000;stroke-width:3.13px;"/><path d="M4308.64,705.845c-0,0 238.898,4.54 335.37,43.937l6.807,34.799c-0,-0 -167.9,110.532 -185.87,115.21c0,-0 -207.346,115.827 -277.385,74.515c-70.039,-41.311 -13.901,-127.983 5.835,-148.58c-0,-0 64.252,-80.182 115.243,-119.881Z" style="fill:#a5bbb3;stroke:#000;stroke-width:3.13px;"/><path d="M4224.33,770.567c0,0 -90.162,75.704 -87.48,156.241m0,0c0,0 0.489,43.503 38.366,56.403c37.877,12.901 43.863,27.188 139.841,-1.303c95.977,-28.491 129.415,-63.225 196.507,-90.769c67.092,-27.544 85.619,-55.624 142.395,-91.515l0,17.981c0,-0 -13.036,2.837 -9.03,16.36c0,0 -61.743,42.209 -97.063,63.83c0,0 -101.891,58.282 -136.36,71.148c-0,0 -92.319,38.928 -155.557,42.768c-63.238,3.84 -75.588,-6.162 -93.271,-13.299c-0,0 -51.07,-20.775 -46.757,-71.604c-0,0 -3.615,-61.742 108.409,-156.241" style="fill:#99aba1;stroke:#000;stroke-width:3.13px;"/><path d="M4778.38,558.714c-0,-0 24.457,9.856 16.709,76.311m-0,0c-0,0 -2.225,20.148 -16.709,46.637c-0,-0 -21.583,37.58 -27.943,51.947l-5.916,-13.832c-0,-0 76.998,-90.032 33.859,-161.063" style="fill:#99aba1;stroke:#000;stroke-width:3.13px;"/></g><path d="M4659.49,832.884c0,0 7.984,2.263 18.684,-5.644c0,0 36.004,-39.819 45.227,-45.388c0,-0 29.566,50.02 27.033,77.937c-2.533,27.917 -5.959,28.823 -13.349,38.259c-7.39,9.436 -19.139,15.464 -32.877,12.172m-0,-0c-0,-0 -25.927,-8.741 -44.718,-77.336" style="fill:#a5bbb3;stroke:#000;stroke-width:3.13px;"/><g id="Griff_hinten1" serif:id="Griff_hinten"><path d="M4789.25,378.632c0,0 -104.506,-1.784 -109.899,155.829c0,-0 21.278,-9.306 54.95,-4.914c-0,0 -35.383,-96.827 54.949,-150.915Z" style="fill:#a5bbb3;stroke:#000;stroke-width:3.13px;"/><path d="M4778.38,403.402c-0,0 55.334,-59.408 117.721,-12.74c-0,-0 44.668,26.079 63.124,103.444m0,-0c0,-0 27.774,87.137 -30.66,288.429l-39.002,-66.135c-0,-0 35.904,-141.033 27.751,-210.498c-0,-0 -7.341,-161.394 -138.934,-101.997" style="fill:#99aba1;stroke:#000;stroke-width:3.13px;"/></g><g id="Griff-oben1" serif:id="Griff oben"><path d="M4050.44,405.132l41.814,-1.782c0,0 -26.662,44.911 21.837,128.834c48.5,83.923 100.873,158.306 139.528,192.513l-47.768,44.354c-0,0 -20.609,-42.857 -53.667,-81.011c-33.057,-38.154 -69.553,-101.488 -78.074,-114.374c-8.52,-12.887 -24.291,-40.746 -31.838,-61.062c-7.548,-20.316 -24.564,-72.988 8.168,-107.472Z" style="fill:#99aba1;stroke:#000;stroke-width:3.13px;"/><path d="M4067.24,388.973c9.689,-2.365 13.321,-18.828 88.523,-19.754c-0,-0 23.033,-3.385 39.124,-3.125c0,-0 104.923,-13.768 133.638,3.125c0,-0 -99.861,-10.951 -188.935,14.97c0,-0 -20.443,3.165 -72.35,4.784Z" style="fill:#99aba1;stroke:#000;stroke-width:3.13px;"/><path d="M4112.24,358.16c-0,0 4.483,-21.703 39.328,-30.192c-0,-0 127.118,-1.451 187.397,-18.26c-0,-0 183.795,36.537 268.822,158.956c0,-0 125.324,203.517 128.987,288.649c0,0 -27.911,11.923 -67.802,56.311c-0,-0 -29.396,-171.216 -105.11,-269.184c-0,0 -126.15,-172.658 -211.596,-184.007c-0,-0 -75.017,-22.233 -240.026,-2.273Z" style="fill:#a5bbb3;stroke:#000;stroke-width:3.13px;"/></g></g></g></svg>