<?xml version="1.0" encoding="UTF-8" standalone="no"?><!DOCTYPE svg PUBLIC "-//W3C//DTD SVG 1.1//EN" "http://www.w3.org/Graphics/SVG/1.1/DTD/svg11.dtd"><svg width="100%" height="100%" viewBox="0 0 1133 803" version="1.1" xmlns="http://www.w3.org/2000/svg" xmlns:xlink="http://www.w3.org/1999/xlink" xml:space="preserve" xmlns:serif="http://www.serif.com/" style="fill-rule:evenodd;clip-rule:evenodd;stroke-linejoin:round;stroke-miterlimit:2;"><path d="M856.074,298.475l-631.642,0l0,-101.452l640.259,-0l0,92.835c0,4.755 -3.862,8.617 -8.617,8.617Z" style="fill:#fff;fill-rule:nonzero;"/><path d="M226.088,296.818l629.986,-0c3.84,-0 6.96,-3.12 6.96,-6.96l0,-91.178l-636.946,0l0,98.138Zm629.986,3.315l-631.642,-0c-0.914,-0 -1.656,-0.743 -1.656,-1.658l0,-101.452c0,-0.915 0.742,-1.658 1.656,-1.658l640.259,0c0.915,0 1.658,0.743 1.658,1.658l-0,92.835c-0,5.662 -4.612,10.275 -10.275,10.275Z" style="fill-rule:nonzero;"/><path d="M5.622,394.55l222.776,-197.527l-1.422,98.04l-221.842,206.692l0.488,-107.205Z" style="fill:#fff;fill-rule:nonzero;"/><path d="M7.274,395.3l-0.466,102.63l218.522,-203.602l1.358,-93.578l-219.414,194.55Zm-2.14,108.113c-0.225,-0 -0.45,-0.045 -0.664,-0.143c-0.606,-0.262 -0.995,-0.862 -0.992,-1.522l0.487,-107.205c0.003,-0.473 0.205,-0.923 0.557,-1.23l222.778,-197.528c0.492,-0.442 1.19,-0.54 1.789,-0.27c0.596,0.278 0.976,0.87 0.965,1.53l-1.422,98.04c-0.007,0.45 -0.198,0.878 -0.528,1.185l-221.842,206.693c-0.312,0.292 -0.717,0.45 -1.128,0.45Z" style="fill-rule:nonzero;"/><path d="M12.439,416.27l215.106,-184.372l616.297,-5.123l-199.741,220.223l-631.662,-30.728Z" style="fill-rule:nonzero;"/><path d="M642.399,394.55l222.78,-197.527l-1.38,94.867c-0.03,2.025 -0.878,3.953 -2.362,5.333l-219.526,204.532l0.488,-107.205Z" style="fill:#fff;fill-rule:nonzero;"/><path d="M644.057,395.3l-0.465,102.63l216.712,-201.922c1.148,-1.065 1.823,-2.573 1.845,-4.14l1.32,-91.118l-219.412,194.55Zm-2.146,108.113c-0.224,-0 -0.45,-0.045 -0.659,-0.143c-0.608,-0.262 -0.998,-0.862 -0.991,-1.522l0.488,-107.205c0,-0.473 0.203,-0.923 0.555,-1.23l222.78,-197.528c0.487,-0.442 1.185,-0.54 1.785,-0.27c0.6,0.278 0.975,0.87 0.967,1.53l-1.38,94.868c-0.037,2.467 -1.087,4.845 -2.894,6.525l-219.518,204.525c-0.315,0.292 -0.72,0.45 -1.133,0.45Z" style="fill-rule:nonzero;"/><path d="M641.911,501.755l-631.653,0c-4.751,0 -8.602,-3.855 -8.602,-8.602l-0,-92.13c-0,-3.773 3.058,-6.833 6.832,-6.833l633.423,0l0,107.565Z" style="fill:#fff;fill-rule:nonzero;"/><path d="M8.488,395.848c-2.855,-0 -5.176,2.317 -5.176,5.175l-0,92.13c-0,3.825 3.115,6.945 6.946,6.945l630.003,-0l0,-104.25l-631.773,-0Zm633.423,107.565l-631.653,-0c-5.656,-0 -10.258,-4.605 -10.258,-10.26l-0,-92.13c-0,-4.68 3.807,-8.49 8.488,-8.49l633.423,-0c0.916,-0 1.658,0.742 1.658,1.657l0,107.565c0,0.915 -0.742,1.658 -1.658,1.658Z" style="fill-rule:nonzero;"/><path d="M254.166,248.473c24.062,-45.338 28.042,-89.453 3.724,-131.835c-16.98,43.155 -17.624,87.127 -3.724,131.835Z" style="fill:#fff;fill-rule:nonzero;"/><path d="M258.169,120.545c-14.775,39.563 -15.983,81.09 -3.594,123.548c22.927,-45.128 24.106,-85.62 3.594,-123.548Zm-4.002,129.585c-0.052,0 -0.104,-0.007 -0.156,-0.007c-0.665,-0.06 -1.227,-0.518 -1.427,-1.155c-14.217,-45.735 -12.95,-90.458 3.765,-132.938c0.234,-0.592 0.785,-0.997 1.421,-1.042c0.638,-0.045 1.242,0.277 1.557,0.825c23.462,40.89 22.252,84.54 -3.699,133.432c-0.287,0.548 -0.853,0.885 -1.461,0.885Z" style="fill-rule:nonzero;"/><path d="M265.103,261.77c4.5,-80.362 -27.7,-96.982 -68.287,-90.015c23.225,6.308 41.042,35.123 53.898,84.578c0.741,2.85 3.226,4.897 6.167,5.04l8.222,0.397Z" style="fill:#fff;fill-rule:nonzero;"/><path d="M203.566,172.475c20.437,9.51 36.816,37.523 48.751,83.438c0.564,2.167 2.43,3.697 4.643,3.802l6.576,0.323c1.914,-38.138 -4.613,-64.155 -19.406,-77.355c-9.811,-8.745 -23.12,-12.113 -40.564,-10.208Zm61.538,90.953l-0.082,-0l-8.221,-0.398c-3.669,-0.18 -6.759,-2.707 -7.689,-6.285c-12.822,-49.32 -30.562,-77.377 -52.73,-83.392c-0.75,-0.203 -1.258,-0.9 -1.222,-1.673c0.038,-0.78 0.609,-1.425 1.374,-1.552c21.417,-3.683 38.17,-0.285 49.801,10.087c15.795,14.085 22.666,41.558 20.421,81.645c-0.049,0.885 -0.779,1.568 -1.652,1.568Z" style="fill-rule:nonzero;"/><path d="M261.924,257.96c-3.436,-77.122 23.535,-94.552 63.474,-87.69c-23.345,6.33 -41.414,37.29 -54.296,87.315c-0.613,2.378 -2.724,4.073 -5.181,4.118c-2.121,0.037 -3.902,-1.62 -3.997,-3.743Z" style="fill:#fff;fill-rule:nonzero;"/><path d="M310.636,170.563c-11.832,-0 -21.183,3.135 -28.364,9.465c-14.349,12.652 -20.464,38.122 -18.694,77.865c0.054,1.207 1.128,2.22 2.313,2.152c1.696,-0.03 3.179,-1.207 3.607,-2.872c12.257,-47.595 28.775,-76.53 49.171,-86.175c-2.795,-0.293 -5.473,-0.435 -8.033,-0.435Zm-44.785,92.797c-2.957,0 -5.45,-2.37 -5.582,-5.325c-1.817,-40.807 4.664,-67.132 19.812,-80.49c10.692,-9.427 25.608,-12.345 45.598,-8.91c0.766,0.128 1.337,0.78 1.373,1.553c0.037,0.772 -0.47,1.477 -1.221,1.68c-22.076,5.992 -39.951,34.972 -53.126,86.13c-0.798,3.097 -3.577,5.302 -6.756,5.362l-0.098,0Z" style="fill-rule:nonzero;"/><path d="M404.398,262.13c24.061,-45.337 28.042,-89.452 3.725,-131.835c-16.981,43.155 -17.624,87.128 -3.725,131.835Z" style="fill:#fff;fill-rule:nonzero;"/><path d="M408.401,134.195c-14.774,39.57 -15.982,81.09 -3.594,123.555c22.927,-45.127 24.105,-85.62 3.594,-123.555Zm-4.002,129.593c-0.052,-0 -0.103,-0.008 -0.155,-0.008c-0.665,-0.06 -1.229,-0.517 -1.427,-1.155c-14.217,-45.735 -12.951,-90.457 3.765,-132.937c0.234,-0.593 0.785,-0.998 1.421,-1.043c0.635,-0.037 1.24,0.278 1.556,0.825c23.461,40.89 22.252,84.54 -3.697,133.44c-0.29,0.54 -0.855,0.878 -1.463,0.878Z" style="fill-rule:nonzero;"/><path d="M415.335,275.428c4.499,-80.363 -27.699,-96.983 -68.287,-90.015c23.225,6.307 41.042,35.122 53.899,84.577c0.741,2.85 3.226,4.898 6.166,5.04l8.222,0.398Z" style="fill:#fff;fill-rule:nonzero;"/><path d="M353.8,186.133c20.436,9.51 36.813,37.522 48.75,83.437c0.564,2.168 2.43,3.698 4.643,3.81l6.576,0.315c1.913,-38.137 -4.613,-64.155 -19.407,-77.355c-9.811,-8.745 -23.125,-12.112 -40.562,-10.207Zm61.537,90.952l-0.082,0l-8.222,-0.397c-3.668,-0.18 -6.758,-2.708 -7.688,-6.285c-12.822,-49.32 -30.563,-77.378 -52.731,-83.393c-0.75,-0.202 -1.257,-0.9 -1.22,-1.672c0.037,-0.78 0.607,-1.425 1.373,-1.553c21.417,-3.682 38.17,-0.285 49.8,10.088c15.796,14.085 22.666,41.557 20.422,81.645c-0.05,0.885 -0.78,1.567 -1.652,1.567Z" style="fill-rule:nonzero;"/><path d="M412.156,271.618c-3.434,-77.123 23.535,-94.553 63.474,-87.69c-23.345,6.33 -41.414,37.29 -54.296,87.315c-0.612,2.377 -2.725,4.072 -5.181,4.117c-2.121,0.038 -3.903,-1.62 -3.997,-3.742Z" style="fill:#fff;fill-rule:nonzero;"/><path d="M460.868,184.22c-11.831,0 -21.183,3.135 -28.363,9.465c-14.349,12.653 -20.464,38.123 -18.694,77.865c0.053,1.208 1.085,2.235 2.311,2.153c1.697,-0.03 3.18,-1.208 3.609,-2.873c12.255,-47.595 28.776,-76.522 49.17,-86.175c-2.795,-0.292 -5.472,-0.435 -8.033,-0.435Zm-44.785,92.798c-2.957,-0 -5.451,-2.37 -5.581,-5.325c-1.818,-40.808 4.663,-67.133 19.812,-80.49c10.692,-9.428 25.606,-12.345 45.597,-8.91c0.768,0.127 1.338,0.78 1.375,1.552c0.038,0.78 -0.472,1.478 -1.222,1.68c-22.076,5.985 -39.951,34.965 -53.126,86.13c-0.798,3.098 -3.576,5.303 -6.756,5.363l-0.099,-0Z" style="fill-rule:nonzero;"/><path d="M558.046,258.718c24.06,-45.338 28.043,-89.453 3.72,-131.835c-16.98,43.147 -17.617,87.127 -3.72,131.835Z" style="fill:#fff;fill-rule:nonzero;"/><path d="M562.044,130.783c-14.768,39.57 -15.975,81.09 -3.592,123.555c22.927,-45.135 24.105,-85.62 3.592,-123.555Zm-3.998,129.585c-0.052,-0 -0.105,-0 -0.157,-0.008c-0.66,-0.06 -1.23,-0.517 -1.425,-1.155c-14.22,-45.727 -12.953,-90.45 3.765,-132.93c0.232,-0.592 0.787,-0.997 1.418,-1.042c0.637,-0.045 1.244,0.27 1.559,0.825c23.461,40.89 22.253,84.54 -3.697,133.432c-0.292,0.548 -0.855,0.878 -1.463,0.878Z" style="fill-rule:nonzero;"/><path d="M568.981,272.015c4.5,-80.362 -27.697,-96.99 -68.287,-90.015c23.227,6.3 41.04,35.115 53.903,84.57c0.734,2.85 3.224,4.905 6.164,5.048l8.22,0.397Z" style="fill:#fff;fill-rule:nonzero;"/><path d="M507.444,182.72c20.438,9.51 36.817,37.523 48.75,83.438c0.563,2.167 2.43,3.697 4.642,3.802l6.578,0.323c1.913,-38.138 -4.613,-64.163 -19.403,-77.355c-9.809,-8.753 -23.122,-12.113 -40.567,-10.208Zm61.537,90.945l-0.082,0l-8.22,-0.397c-3.668,-0.173 -6.758,-2.7 -7.688,-6.278c-12.824,-49.32 -30.562,-77.377 -52.733,-83.392c-0.75,-0.203 -1.251,-0.9 -1.215,-1.68c0.031,-0.773 0.608,-1.418 1.374,-1.553c21.412,-3.682 38.167,-0.285 49.8,10.088c15.794,14.092 22.665,41.565 20.422,81.652c-0.053,0.885 -0.78,1.56 -1.658,1.56Z" style="fill-rule:nonzero;"/><path d="M565.801,268.205c-3.435,-77.122 23.535,-94.552 63.473,-87.697c-23.34,6.337 -41.415,37.297 -54.293,87.322c-0.615,2.378 -2.722,4.073 -5.182,4.118c-2.123,0.037 -3.9,-1.62 -3.998,-3.743Z" style="fill:#fff;fill-rule:nonzero;"/><path d="M567.459,268.13c0.052,1.215 1.133,2.22 2.31,2.16c1.695,-0.03 3.18,-1.215 3.608,-2.872c12.255,-47.595 28.777,-76.53 49.169,-86.175c-15.712,-1.65 -27.66,1.327 -36.397,9.03c-14.348,12.652 -20.46,38.115 -18.69,77.857Zm2.272,5.475c-2.955,0 -5.452,-2.37 -5.58,-5.325c-1.822,-40.807 4.658,-67.14 19.808,-80.497c10.695,-9.428 25.612,-12.338 45.6,-8.903c0.765,0.128 1.335,0.773 1.373,1.553c0.037,0.772 -0.473,1.47 -1.223,1.672c-22.073,5.993 -39.945,34.973 -53.123,86.138c-0.802,3.097 -3.577,5.302 -6.757,5.355c-0.03,-0 -0.068,0.007 -0.098,0.007Z" style="fill-rule:nonzero;"/><path d="M706.569,257.008c24.06,-45.338 28.043,-89.453 3.727,-131.835c-16.98,43.155 -17.625,87.127 -3.727,131.835Z" style="fill:#fff;fill-rule:nonzero;"/><path d="M710.574,129.08c-14.775,39.563 -15.982,81.09 -3.593,123.548c22.928,-45.128 24.105,-85.62 3.593,-123.548Zm-4.005,129.585c-0.053,0 -0.105,0 -0.15,-0.007c-0.667,-0.06 -1.23,-0.518 -1.432,-1.155c-14.213,-45.735 -12.945,-90.458 3.765,-132.93c0.232,-0.593 0.787,-1.005 1.424,-1.05c0.638,-0.045 1.238,0.277 1.553,0.832c23.467,40.89 22.252,84.533 -3.698,133.433c-0.285,0.54 -0.855,0.877 -1.462,0.877Z" style="fill-rule:nonzero;"/><path d="M717.504,270.305c4.5,-80.362 -27.697,-96.982 -68.287,-90.015c23.227,6.308 41.047,35.123 53.902,84.578c0.743,2.85 3.225,4.897 6.165,5.04l8.22,0.397Z" style="fill:#fff;fill-rule:nonzero;"/><path d="M655.974,181.01c20.43,9.51 36.81,37.523 48.75,83.438c0.562,2.175 2.43,3.697 4.642,3.81l6.578,0.315c1.912,-38.138 -4.62,-64.155 -19.41,-77.355c-9.81,-8.745 -23.123,-12.113 -40.56,-10.208Zm61.537,90.953l-0.082,-0l-8.22,-0.398c-3.675,-0.18 -6.765,-2.7 -7.695,-6.285c-12.818,-49.312 -30.562,-77.37 -52.725,-83.392c-0.75,-0.203 -1.26,-0.9 -1.223,-1.673c0.038,-0.78 0.608,-1.425 1.373,-1.552c21.412,-3.683 38.167,-0.285 49.8,10.087c15.795,14.085 22.665,41.558 20.422,81.653c-0.052,0.877 -0.779,1.56 -1.65,1.56Z" style="fill-rule:nonzero;"/><path d="M714.331,266.503c-3.434,-77.13 23.535,-94.56 63.473,-87.698c-23.348,6.33 -41.415,37.298 -54.3,87.315c-0.607,2.378 -2.723,4.073 -5.183,4.118c-2.115,0.037 -3.9,-1.62 -3.99,-3.735Z" style="fill:#fff;fill-rule:nonzero;"/><path d="M715.981,266.428c0.053,1.207 1.155,2.205 2.318,2.152c1.695,-0.03 3.173,-1.207 3.6,-2.872c12.262,-47.595 28.777,-76.523 49.178,-86.175c-15.713,-1.643 -27.668,1.327 -36.398,9.03c-14.355,12.652 -20.468,38.122 -18.698,77.865Zm2.273,5.467c-2.955,0 -5.453,-2.37 -5.58,-5.325c-1.815,-40.807 4.665,-67.132 19.815,-80.49c10.687,-9.427 25.605,-12.345 45.592,-8.91c0.766,0.128 1.336,0.78 1.373,1.553c0.037,0.78 -0.465,1.477 -1.215,1.68c-22.08,5.992 -39.953,34.972 -53.13,86.13c-0.795,3.097 -3.578,5.302 -6.758,5.362l-0.097,0Z" style="fill-rule:nonzero;"/><path d="M136.37,350.9c24.061,-45.337 28.042,-89.445 3.725,-131.827c-16.982,43.147 -17.625,87.12 -3.725,131.827Z" style="fill:#fff;fill-rule:nonzero;"/><path d="M140.373,222.973c-14.775,39.562 -15.983,81.09 -3.594,123.547c22.927,-45.127 24.105,-85.612 3.594,-123.547Zm-4.002,129.585c-0.052,-0 -0.104,-0 -0.155,-0.008c-0.666,-0.06 -1.229,-0.517 -1.428,-1.155c-14.217,-45.735 -12.95,-90.457 3.766,-132.93c0.233,-0.592 0.785,-0.997 1.42,-1.05c0.64,-0.037 1.241,0.278 1.557,0.833c23.461,40.89 22.252,84.532 -3.698,133.432c-0.289,0.548 -0.854,0.878 -1.462,0.878Z" style="fill-rule:nonzero;"/><path d="M147.307,364.198c4.5,-80.355 -27.7,-96.983 -68.288,-90.008c23.226,6.3 41.043,35.115 53.9,84.57c0.741,2.85 3.225,4.905 6.166,5.048l8.222,0.39Z" style="fill:#fff;fill-rule:nonzero;"/><path d="M85.771,274.903c20.436,9.51 36.814,37.53 48.75,83.445c0.564,2.167 2.43,3.697 4.644,3.802l6.575,0.315c1.914,-38.13 -4.612,-64.155 -19.405,-77.347c-9.812,-8.753 -23.126,-12.113 -40.564,-10.215Zm61.537,90.952l-0.082,0l-8.222,-0.397c-3.667,-0.18 -6.757,-2.7 -7.688,-6.278c-12.821,-49.32 -30.563,-77.377 -52.73,-83.392c-0.75,-0.203 -1.257,-0.9 -1.221,-1.68c0.037,-0.773 0.608,-1.418 1.374,-1.553c21.419,-3.675 38.171,-0.285 49.8,10.088c15.795,14.092 22.666,41.557 20.421,81.652c-0.049,0.878 -0.779,1.56 -1.652,1.56Z" style="fill-rule:nonzero;"/><path d="M144.128,360.395c-3.436,-77.13 23.535,-94.56 63.474,-87.697c-23.345,6.337 -41.414,37.297 -54.296,87.315c-0.613,2.385 -2.725,4.08 -5.181,4.117c-2.121,0.038 -3.903,-1.62 -3.997,-3.735Z" style="fill:#fff;fill-rule:nonzero;"/><path d="M145.783,360.32c0.053,1.2 1.068,2.16 2.271,2.16l0.041,0c1.696,-0.03 3.178,-1.215 3.607,-2.88c12.256,-47.587 28.776,-76.522 49.171,-86.167c-15.714,-1.65 -27.661,1.32 -36.396,9.022c-14.349,12.653 -20.464,38.123 -18.694,77.865Zm2.272,5.468c-2.956,-0 -5.449,-2.363 -5.581,-5.318c-1.818,-40.807 4.663,-67.14 19.812,-80.497c10.692,-9.428 25.608,-12.345 45.597,-8.91c0.765,0.135 1.337,0.78 1.374,1.56c0.037,0.772 -0.471,1.47 -1.221,1.672c-22.077,5.993 -39.952,34.973 -53.127,86.138c-0.798,3.097 -3.576,5.295 -6.754,5.355l-0.1,-0Z" style="fill-rule:nonzero;"/><path d="M315.625,362.855c24.061,-45.337 28.042,-89.452 3.724,-131.835c-16.981,43.148 -17.624,87.128 -3.724,131.835Z" style="fill:#fff;fill-rule:nonzero;"/><path d="M319.628,234.92c-14.775,39.57 -15.983,81.09 -3.594,123.555c22.926,-45.127 24.105,-85.62 3.594,-123.555Zm-4.002,129.593c-0.052,-0 -0.104,-0.008 -0.156,-0.008c-0.665,-0.067 -1.228,-0.525 -1.427,-1.162c-14.217,-45.728 -12.95,-90.45 3.765,-132.93c0.233,-0.593 0.785,-0.998 1.42,-1.043c0.642,-0.037 1.241,0.278 1.557,0.825c23.462,40.89 22.251,84.54 -3.698,133.433c-0.288,0.547 -0.853,0.885 -1.461,0.885Z" style="fill-rule:nonzero;"/><path d="M326.562,376.153c4.499,-80.363 -27.7,-96.983 -68.288,-90.015c23.226,6.3 41.042,35.115 53.899,84.577c0.74,2.843 3.226,4.898 6.167,5.04l8.222,0.398Z" style="fill:#fff;fill-rule:nonzero;"/><path d="M265.025,286.858c20.437,9.51 36.814,37.522 48.751,83.437c0.564,2.168 2.43,3.698 4.643,3.803l6.576,0.322c1.913,-38.137 -4.613,-64.162 -19.406,-77.355c-9.811,-8.752 -23.119,-12.105 -40.564,-10.207Zm61.538,90.952c-0.028,0 -0.054,0 -0.082,-0.007l-8.222,-0.39c-3.668,-0.18 -6.757,-2.708 -7.689,-6.285c-12.821,-49.32 -30.562,-77.378 -52.73,-83.393c-0.75,-0.202 -1.257,-0.9 -1.221,-1.672c0.038,-0.78 0.609,-1.425 1.374,-1.553c21.413,-3.682 38.17,-0.292 49.8,10.088c15.796,14.085 22.667,41.557 20.422,81.645c-0.05,0.885 -0.779,1.567 -1.652,1.567Z" style="fill-rule:nonzero;"/><path d="M323.382,372.343c-3.434,-77.123 23.536,-94.553 63.475,-87.698c-23.346,6.338 -41.415,37.298 -54.297,87.323c-0.612,2.377 -2.724,4.072 -5.181,4.117c-2.12,0.038 -3.903,-1.62 -3.997,-3.742Z" style="fill:#fff;fill-rule:nonzero;"/><path d="M372.094,284.945c-11.831,0 -21.182,3.135 -28.362,9.465c-14.35,12.653 -20.465,38.123 -18.695,77.865c0.054,1.208 1.091,2.235 2.312,2.153c1.696,-0.03 3.18,-1.215 3.608,-2.873c12.256,-47.595 28.777,-76.53 49.171,-86.175c-2.796,-0.292 -5.473,-0.435 -8.034,-0.435Zm-44.784,92.798c-2.957,-0 -5.451,-2.37 -5.582,-5.325c-1.818,-40.808 4.664,-67.133 19.813,-80.498c10.693,-9.42 25.607,-12.337 45.597,-8.902c0.766,0.127 1.336,0.772 1.373,1.552c0.037,0.78 -0.47,1.47 -1.221,1.68c-22.077,5.985 -39.951,34.965 -53.126,86.13c-0.798,3.098 -3.576,5.303 -6.755,5.363l-0.099,-0Z" style="fill-rule:nonzero;"/><path d="M636.579,354.32c24.06,-45.337 28.035,-89.452 3.72,-131.835c-16.98,43.148 -17.625,87.128 -3.72,131.835Z" style="fill:#fff;fill-rule:nonzero;"/><path d="M640.577,226.385c-14.776,39.57 -15.983,81.09 -3.593,123.555c22.927,-45.127 24.105,-85.62 3.593,-123.555Zm-3.998,129.593c-0.053,-0 -0.105,-0.008 -0.158,-0.008c-0.667,-0.067 -1.23,-0.525 -1.425,-1.162c-14.22,-45.728 -12.952,-90.45 3.765,-132.93c0.233,-0.593 0.781,-0.998 1.418,-1.043c0.637,-0.037 1.245,0.278 1.56,0.825c23.46,40.89 22.252,84.54 -3.697,133.433c-0.293,0.547 -0.855,0.885 -1.463,0.885Z" style="fill-rule:nonzero;"/><path d="M647.514,367.618c4.5,-80.363 -27.698,-96.983 -68.288,-90.015c23.228,6.3 41.04,35.115 53.895,84.57c0.743,2.85 3.226,4.905 6.173,5.047l8.22,0.398Z" style="fill:#fff;fill-rule:nonzero;"/><path d="M585.976,278.323c20.438,9.51 36.818,37.522 48.75,83.437c0.563,2.168 2.43,3.698 4.643,3.803l6.577,0.322c1.913,-38.137 -4.612,-64.162 -19.41,-77.355c-9.81,-8.752 -23.115,-12.112 -40.56,-10.207Zm61.538,90.952c-0.03,0 -0.053,-0.007 -0.082,-0.007l-8.221,-0.398c-3.667,-0.172 -6.757,-2.7 -7.687,-6.277c-12.825,-49.32 -30.563,-77.378 -52.732,-83.393c-0.75,-0.202 -1.261,-0.9 -1.223,-1.68c0.037,-0.772 0.607,-1.417 1.372,-1.552c21.413,-3.675 38.175,-0.285 49.8,10.087c15.795,14.093 22.673,41.565 20.423,81.653c-0.045,0.885 -0.78,1.567 -1.65,1.567Z" style="fill-rule:nonzero;"/><path d="M644.334,363.808c-3.435,-77.123 23.535,-94.553 63.473,-87.698c-23.348,6.338 -41.416,37.298 -54.293,87.323c-0.615,2.377 -2.73,4.072 -5.183,4.117c-2.122,0.038 -3.907,-1.62 -3.997,-3.742Z" style="fill:#fff;fill-rule:nonzero;"/><path d="M693.046,276.403c-11.835,-0 -21.18,3.135 -28.364,9.472c-14.348,12.653 -20.46,38.115 -18.691,77.858c0.053,1.215 1.058,2.19 2.31,2.16c1.695,-0.03 3.18,-1.215 3.608,-2.873c12.255,-47.602 28.77,-76.53 49.17,-86.175c-2.798,-0.292 -5.475,-0.442 -8.033,-0.442Zm-44.782,92.805c-2.963,-0 -5.452,-2.37 -5.588,-5.325c-1.814,-40.808 4.666,-67.14 19.815,-80.498c10.688,-9.427 25.606,-12.337 45.601,-8.902c0.764,0.127 1.334,0.772 1.372,1.552c0.038,0.773 -0.473,1.47 -1.223,1.673c-22.08,5.992 -39.952,34.972 -53.129,86.137c-0.796,3.098 -3.57,5.303 -6.75,5.355c-0.038,0 -0.068,0.008 -0.098,0.008Z" style="fill-rule:nonzero;"/><path d="M482.927,366.268c24.06,-45.338 28.042,-89.445 3.727,-131.835c-16.981,43.155 -17.625,87.127 -3.727,131.835Z" style="fill:#fff;fill-rule:nonzero;"/><path d="M486.931,238.333c-14.774,39.57 -15.981,81.097 -3.592,123.555c22.927,-45.128 24.105,-85.62 3.592,-123.555Zm-4.004,129.592c-0.045,0 -0.098,0 -0.151,-0.007c-0.667,-0.06 -1.23,-0.518 -1.432,-1.155c-14.215,-45.735 -12.947,-90.458 3.765,-132.938c0.24,-0.592 0.787,-0.997 1.425,-1.042c0.637,-0.045 1.237,0.277 1.553,0.825c23.467,40.89 22.252,84.54 -3.698,133.44c-0.285,0.54 -0.847,0.877 -1.462,0.877Z" style="fill-rule:nonzero;"/><path d="M493.869,379.565c4.493,-80.362 -27.703,-96.982 -68.291,-90.015c23.226,6.308 41.043,35.123 53.898,84.578c0.743,2.85 3.225,4.897 6.166,5.04l8.227,0.397Z" style="fill:#fff;fill-rule:nonzero;"/><path d="M432.33,290.27c20.436,9.51 36.814,37.523 48.751,83.438c0.563,2.175 2.43,3.697 4.643,3.81l6.578,0.315c1.912,-38.138 -4.613,-64.155 -19.409,-77.355c-9.811,-8.745 -23.119,-12.113 -40.563,-10.208Zm61.539,90.953l-0.083,-0l-8.22,-0.398c-3.674,-0.18 -6.757,-2.7 -7.695,-6.285c-12.818,-49.32 -30.558,-77.37 -52.726,-83.392c-0.75,-0.203 -1.257,-0.9 -1.22,-1.673c0.037,-0.78 0.607,-1.425 1.373,-1.552c21.417,-3.683 38.17,-0.285 49.8,10.087c15.794,14.085 22.663,41.558 20.421,81.645c-0.046,0.885 -0.781,1.568 -1.65,1.568Z" style="fill-rule:nonzero;"/><path d="M490.689,375.763c-3.435,-77.13 23.535,-94.56 63.472,-87.698c-23.347,6.33 -41.415,37.29 -54.299,87.315c-0.608,2.378 -2.723,4.073 -5.175,4.118c-2.123,0.037 -3.908,-1.62 -3.998,-3.735Z" style="fill:#fff;fill-rule:nonzero;"/><path d="M492.339,375.688c0.053,1.207 1.162,2.19 2.317,2.152c1.695,-0.03 3.18,-1.207 3.608,-2.872c12.255,-47.595 28.778,-76.523 49.17,-86.175c-15.712,-1.643 -27.668,1.327 -36.398,9.03c-14.347,12.652 -20.467,38.122 -18.697,77.865Zm2.273,5.467c-2.956,0 -5.445,-2.37 -5.581,-5.325c-1.815,-40.807 4.665,-67.132 19.816,-80.49c10.687,-9.427 25.605,-12.345 45.592,-8.91c0.765,0.135 1.342,0.78 1.38,1.553c0.03,0.78 -0.472,1.477 -1.222,1.68c-22.081,5.992 -39.953,34.972 -53.13,86.13c-0.796,3.097 -3.57,5.302 -6.75,5.362l-0.105,0Z" style="fill-rule:nonzero;"/><path d="M732.399,9.05c-0.877,0 -1.613,-0.697 -1.65,-1.582c-0.038,-0.915 0.668,-1.688 1.582,-1.725c3.406,-0.15 6.878,-0.21 10.32,-0.218c1.553,0 3.113,0.015 4.68,0.038c0.915,0.022 1.643,0.772 1.628,1.687c-0.015,0.915 -0.772,1.658 -1.687,1.628c-1.568,-0.03 -3.151,-0.045 -4.68,-0.045c-3.368,-0 -6.773,0.075 -10.118,0.217l-0.075,0Zm44.603,2.138c-0.076,-0 -0.143,-0.008 -0.218,-0.015c-4.913,-0.668 -9.87,-1.193 -14.73,-1.575c-0.907,-0.068 -1.59,-0.87 -1.523,-1.778c0.075,-0.915 0.87,-1.582 1.785,-1.522c4.921,0.382 9.938,0.922 14.91,1.59c0.901,0.12 1.538,0.952 1.418,1.86c-0.113,0.832 -0.825,1.44 -1.642,1.44Zm-74.183,1.005c-0.795,-0 -1.492,-0.57 -1.635,-1.38c-0.15,-0.9 0.45,-1.755 1.358,-1.913c4.89,-0.84 9.884,-1.53 14.842,-2.055c0.908,-0.082 1.725,0.563 1.822,1.478c0.098,0.907 -0.562,1.717 -1.477,1.815c-4.882,0.517 -9.81,1.2 -14.632,2.032c-0.09,0.015 -0.188,0.023 -0.278,0.023Zm-28.935,6.907c-0.705,0 -1.358,-0.457 -1.583,-1.17c-0.27,-0.87 0.225,-1.8 1.096,-2.07c4.754,-1.462 9.622,-2.797 14.459,-3.952c0.893,-0.21 1.785,0.337 1.995,1.23c0.218,0.885 -0.337,1.777 -1.222,1.995c-4.77,1.14 -9.563,2.452 -14.258,3.892c-0.157,0.053 -0.322,0.075 -0.487,0.075Zm-27.825,10.545c-0.63,0 -1.23,-0.36 -1.508,-0.975c-0.375,-0.832 -0.007,-1.815 0.826,-2.19c4.56,-2.062 9.224,-3.997 13.845,-5.752c0.855,-0.323 1.814,0.112 2.137,0.967c0.323,0.855 -0.105,1.808 -0.96,2.13c-4.56,1.733 -9.158,3.638 -13.658,5.67c-0.225,0.105 -0.457,0.15 -0.682,0.15Zm137.378,9.315c-0.796,0 -1.5,-0.577 -1.628,-1.387l-2.423,-14.708c-0.149,-0.907 0.465,-1.755 1.366,-1.905c0.892,-0.142 1.755,0.465 1.904,1.365l2.423,14.708c0.143,0.9 -0.465,1.755 -1.373,1.905c-0.09,0.015 -0.18,0.022 -0.269,0.022Zm-163.733,4.53c-0.563,0 -1.11,-0.285 -1.425,-0.802c-0.472,-0.788 -0.217,-1.8 0.57,-2.273c4.29,-2.58 8.685,-5.055 13.057,-7.357c0.811,-0.428 1.816,-0.113 2.235,0.697c0.428,0.81 0.12,1.808 -0.689,2.235c-4.32,2.273 -8.656,4.71 -12.901,7.26c-0.262,0.165 -0.562,0.24 -0.847,0.24Zm-24.668,16.71c-0.494,0 -0.997,-0.232 -1.319,-0.66c-0.556,-0.727 -0.405,-1.77 0.322,-2.317c4.005,-3.03 8.1,-5.97 12.18,-8.738c0.757,-0.51 1.785,-0.315 2.303,0.443c0.509,0.757 0.314,1.785 -0.443,2.302c-4.035,2.738 -8.085,5.64 -12.045,8.633c-0.293,0.225 -0.645,0.337 -0.998,0.337Zm179.64,2.985c-0.457,0 -0.915,-0.195 -1.244,-0.57c-0.601,-0.682 -0.533,-1.732 0.157,-2.332c5.265,-4.62 9.067,-7.433 10.642,-8.558c0.113,-0.675 0.646,-1.23 1.358,-1.35c0.907,-0.15 1.755,0.465 1.905,1.365l0.09,0.533c0.105,0.637 -0.173,1.282 -0.713,1.642c-0.037,0.03 -4.402,2.985 -11.099,8.858c-0.316,0.277 -0.706,0.412 -1.096,0.412Zm-202.515,16.118c-0.45,-0 -0.892,-0.18 -1.222,-0.54c-0.615,-0.668 -0.57,-1.718 0.105,-2.34c3.697,-3.39 7.492,-6.713 11.265,-9.87c0.705,-0.585 1.748,-0.495 2.332,0.21c0.593,0.697 0.495,1.74 -0.202,2.332c-3.743,3.12 -7.493,6.413 -11.16,9.773c-0.315,0.292 -0.72,0.435 -1.118,0.435Zm181.553,5.092c-0.383,0 -0.773,-0.135 -1.087,-0.405c-0.69,-0.6 -0.765,-1.65 -0.166,-2.34c3.3,-3.81 6.728,-7.522 10.193,-11.04c0.638,-0.645 1.688,-0.652 2.34,-0.015c0.653,0.645 0.66,1.695 0.015,2.348c-3.412,3.457 -6.795,7.117 -10.042,10.875c-0.331,0.382 -0.788,0.577 -1.253,0.577Zm-202.65,15.975c-0.397,0 -0.803,-0.142 -1.118,-0.435c-0.674,-0.622 -0.72,-1.665 -0.097,-2.34c3.405,-3.697 6.9,-7.327 10.373,-10.807c0.652,-0.645 1.695,-0.645 2.347,-0c0.645,0.645 0.645,1.695 0,2.34c-3.45,3.45 -6.908,7.05 -10.283,10.71c-0.33,0.352 -0.772,0.532 -1.222,0.532Zm184.583,7.733c-0.316,-0 -0.638,-0.09 -0.923,-0.285c-0.757,-0.503 -0.96,-1.538 -0.45,-2.295c2.768,-4.14 5.707,-8.25 8.722,-12.218c0.555,-0.727 1.59,-0.87 2.318,-0.315c0.728,0.555 0.87,1.598 0.315,2.325c-2.978,3.908 -5.872,7.965 -8.603,12.053c-0.322,0.472 -0.847,0.735 -1.379,0.735Zm-203.963,14.94c-0.36,-0 -0.728,-0.113 -1.028,-0.353c-0.719,-0.57 -0.84,-1.612 -0.27,-2.332c3.121,-3.923 6.323,-7.815 9.518,-11.558c0.592,-0.697 1.642,-0.78 2.34,-0.187c0.69,0.592 0.772,1.642 0.18,2.332c-3.172,3.72 -6.353,7.583 -9.443,11.475c-0.322,0.413 -0.81,0.623 -1.297,0.623Zm188.932,10.785c-0.247,-0 -0.502,-0.053 -0.742,-0.173c-0.817,-0.412 -1.148,-1.41 -0.735,-2.227c2.25,-4.448 4.665,-8.888 7.17,-13.178c0.465,-0.795 1.477,-1.057 2.265,-0.6c0.795,0.465 1.058,1.478 0.6,2.265c-2.475,4.245 -4.86,8.618 -7.08,13.005c-0.293,0.578 -0.87,0.908 -1.478,0.908Zm-206.684,13.2c-0.323,-0 -0.653,-0.098 -0.938,-0.293c-0.757,-0.517 -0.945,-1.552 -0.428,-2.302c2.851,-4.118 5.783,-8.22 8.715,-12.18c0.54,-0.735 1.583,-0.893 2.318,-0.353c0.735,0.548 0.885,1.583 0.345,2.318c-2.918,3.937 -5.828,8.01 -8.648,12.097c-0.322,0.465 -0.84,0.713 -1.364,0.713Zm194.887,14.152c-0.187,0 -0.382,-0.03 -0.562,-0.097c-0.863,-0.308 -1.305,-1.26 -0.998,-2.123c1.695,-4.687 3.555,-9.382 5.527,-13.942c0.361,-0.84 1.335,-1.23 2.175,-0.863c0.84,0.36 1.23,1.335 0.863,2.175c-1.942,4.5 -3.773,9.128 -5.453,13.763c-0.239,0.667 -0.877,1.087 -1.552,1.087Zm-211.096,10.913c-0.291,-0 -0.584,-0.075 -0.854,-0.24c-0.78,-0.473 -1.035,-1.493 -0.562,-2.273c2.579,-4.26 5.25,-8.535 7.942,-12.697c0.503,-0.765 1.523,-0.99 2.294,-0.495c0.766,0.502 0.983,1.522 0.488,2.295c-2.669,4.132 -5.325,8.377 -7.89,12.615c-0.307,0.51 -0.855,0.795 -1.418,0.795Zm202.636,17.64c-0.12,-0 -0.247,-0.008 -0.375,-0.038c-0.892,-0.21 -1.448,-1.102 -1.238,-1.987c1.133,-4.868 2.423,-9.743 3.833,-14.498c0.263,-0.877 1.185,-1.372 2.055,-1.117c0.877,0.255 1.38,1.177 1.118,2.055c-1.388,4.695 -2.663,9.51 -3.78,14.31c-0.18,0.765 -0.856,1.275 -1.613,1.275Zm-217.365,8.34c-0.255,-0 -0.525,-0.068 -0.772,-0.195c-0.811,-0.428 -1.118,-1.433 -0.683,-2.243c2.325,-4.395 4.747,-8.812 7.2,-13.132c0.45,-0.795 1.462,-1.08 2.257,-0.623c0.796,0.45 1.073,1.463 0.623,2.258c-2.43,4.29 -4.838,8.685 -7.155,13.05c-0.3,0.562 -0.87,0.885 -1.47,0.885Zm212.258,21c-0.061,-0 -0.128,-0.008 -0.195,-0.015c-0.908,-0.105 -1.553,-0.923 -1.448,-1.838c0.578,-4.95 1.305,-9.945 2.152,-14.827c0.158,-0.9 1.005,-1.5 1.913,-1.35c0.9,0.157 1.508,1.02 1.35,1.92c-0.84,4.822 -1.552,9.75 -2.13,14.647c-0.098,0.84 -0.81,1.463 -1.642,1.463Zm-225.501,5.775c-0.232,-0 -0.467,-0.045 -0.691,-0.15c-0.831,-0.375 -1.195,-1.365 -0.813,-2.19c2.065,-4.5 4.237,-9.053 6.456,-13.53c0.405,-0.825 1.395,-1.163 2.216,-0.75c0.825,0.405 1.155,1.395 0.75,2.212c-2.202,4.455 -4.361,8.978 -6.413,13.448c-0.278,0.607 -0.878,0.96 -1.505,0.96Zm223.618,23.947l-0.022,0c-0.915,-0.015 -1.643,-0.765 -1.636,-1.68c0.061,-5.002 0.248,-10.042 0.555,-14.97c0.061,-0.915 0.84,-1.605 1.756,-1.552c0.915,0.06 1.605,0.847 1.552,1.762c-0.308,4.868 -0.495,9.848 -0.548,14.798c-0.015,0.915 -0.75,1.642 -1.657,1.642Zm-235.198,3.653c-0.193,-0 -0.386,-0.03 -0.576,-0.105c-0.858,-0.315 -1.295,-1.268 -0.977,-2.13c1.063,-2.865 2.893,-7.62 5.577,-13.98c0.355,-0.848 1.326,-1.245 2.169,-0.885c0.843,0.352 1.238,1.327 0.883,2.167c-2.659,6.308 -4.473,11.018 -5.525,13.853c-0.246,0.667 -0.879,1.08 -1.551,1.08Z" style="fill-rule:nonzero;"/><path d="M727.921,20.563c-0.855,-0 -1.574,-0.653 -1.649,-1.515c-0.076,-0.908 0.599,-1.71 1.507,-1.793c4.642,-0.397 9.353,-0.6 14.01,-0.6l1.02,0.008c0.915,0.007 1.65,0.75 1.65,1.665c-0.007,0.907 -0.75,1.642 -1.658,1.642l-1.012,0c-4.56,0 -9.18,0.195 -13.725,0.585c-0.053,0.008 -0.097,0.008 -0.143,0.008Zm43.343,3.337c-0.84,0 -1.56,-0.645 -1.643,-1.5l-0.007,-0.045c-4.028,-0.69 -8.092,-1.23 -12.098,-1.62c-0.907,-0.09 -1.575,-0.9 -1.485,-1.807c0.083,-0.915 0.893,-1.59 1.808,-1.493c4.5,0.435 9.075,1.065 13.598,1.875c0.727,0.128 1.282,0.735 1.357,1.47l0.12,1.305c0.09,0.908 -0.578,1.718 -1.493,1.808c-0.052,-0 -0.105,0.007 -0.157,0.007Zm-72.593,1.868c-0.727,-0 -1.395,-0.488 -1.597,-1.223c-0.24,-0.885 0.285,-1.792 1.163,-2.032c4.844,-1.313 9.779,-2.415 14.654,-3.293c0.908,-0.157 1.763,0.443 1.921,1.343c0.164,0.9 -0.435,1.762 -1.336,1.92c-4.785,0.855 -9.614,1.942 -14.37,3.232c-0.142,0.038 -0.292,0.053 -0.435,0.053Zm-27.952,10.132c-0.622,0 -1.23,-0.367 -1.508,-0.975c-0.375,-0.832 -0.007,-1.815 0.825,-2.19c4.598,-2.092 9.271,-4.005 13.89,-5.677c0.855,-0.315 1.808,0.127 2.123,0.99c0.315,0.855 -0.135,1.807 -0.99,2.122c-4.545,1.65 -9.135,3.525 -13.65,5.58c-0.225,0.098 -0.457,0.15 -0.69,0.15Zm-26.175,14.235c-0.555,0 -1.088,-0.27 -1.403,-0.765c-0.487,-0.772 -0.262,-1.792 0.51,-2.287c4.283,-2.715 8.641,-5.28 12.946,-7.635c0.802,-0.435 1.814,-0.143 2.25,0.667c0.434,0.803 0.142,1.808 -0.66,2.243c-4.246,2.317 -8.543,4.845 -12.758,7.522c-0.278,0.173 -0.585,0.255 -0.885,0.255Zm122.678,0.593c-0.473,-0 -0.938,-0.195 -1.268,-0.585c-0.585,-0.698 -0.495,-1.74 0.202,-2.333c2.618,-2.212 4.493,-3.697 5.46,-4.44l-0.585,-6.135c-0.09,-0.907 0.585,-1.717 1.493,-1.807c0.9,-0.09 1.717,0.585 1.807,1.492l0.668,7.05c0.052,0.57 -0.195,1.133 -0.66,1.485c-0.023,0.015 -2.265,1.695 -6.045,4.883c-0.315,0.262 -0.69,0.39 -1.072,0.39Zm-146.895,16.867c-0.48,0 -0.961,-0.21 -1.291,-0.615c-0.569,-0.705 -0.465,-1.747 0.248,-2.325c3.938,-3.187 7.95,-6.262 11.925,-9.135c0.75,-0.532 1.778,-0.367 2.317,0.375c0.533,0.743 0.368,1.778 -0.375,2.31c-3.929,2.843 -7.897,5.88 -11.782,9.023c-0.307,0.247 -0.675,0.367 -1.042,0.367Zm125.137,3.593c-0.413,-0 -0.825,-0.158 -1.148,-0.465c-0.66,-0.638 -0.675,-1.688 -0.037,-2.348c3.51,-3.63 7.103,-7.177 10.673,-10.545c0.667,-0.622 1.709,-0.592 2.34,0.075c0.629,0.66 0.599,1.71 -0.068,2.34c-3.533,3.33 -7.088,6.84 -10.568,10.433c-0.322,0.337 -0.757,0.51 -1.192,0.51Zm-147.39,16.297c-0.427,0 -0.855,-0.165 -1.177,-0.495c-0.645,-0.652 -0.631,-1.702 0.022,-2.347c3.607,-3.54 7.29,-6.99 10.943,-10.253c0.682,-0.615 1.724,-0.555 2.332,0.128c0.615,0.682 0.555,1.732 -0.128,2.34c-3.614,3.232 -7.252,6.652 -10.829,10.155c-0.323,0.315 -0.743,0.472 -1.163,0.472Zm127.613,6.038c-0.368,-0 -0.735,-0.12 -1.043,-0.368c-0.712,-0.577 -0.817,-1.62 -0.247,-2.332c3.134,-3.863 6.389,-7.71 9.697,-11.438c0.608,-0.682 1.65,-0.75 2.332,-0.142c0.69,0.607 0.75,1.65 0.143,2.34c-3.27,3.69 -6.495,7.5 -9.593,11.325c-0.329,0.405 -0.809,0.615 -1.289,0.615Zm-148.02,15.66c-0.391,-0 -0.773,-0.135 -1.088,-0.405c-0.69,-0.6 -0.765,-1.65 -0.165,-2.34c3.3,-3.788 6.675,-7.515 10.027,-11.085c0.63,-0.668 1.68,-0.698 2.34,-0.075c0.668,0.622 0.706,1.672 0.075,2.34c-3.322,3.54 -6.667,7.245 -9.945,11.002c-0.322,0.375 -0.787,0.563 -1.244,0.563Zm130.297,8.332c-0.315,0 -0.637,-0.09 -0.922,-0.285c-0.758,-0.51 -0.961,-1.537 -0.45,-2.295c2.759,-4.117 5.662,-8.235 8.632,-12.255c0.54,-0.735 1.575,-0.892 2.318,-0.352c0.734,0.547 0.884,1.582 0.344,2.317c-2.94,3.983 -5.812,8.063 -8.542,12.135c-0.322,0.48 -0.848,0.735 -1.38,0.735Zm-149.108,14.835c-0.345,0 -0.697,-0.112 -0.997,-0.337c-0.727,-0.555 -0.87,-1.59 -0.323,-2.318c3.045,-4.005 6.151,-7.972 9.248,-11.782c0.578,-0.713 1.62,-0.825 2.325,-0.248c0.712,0.578 0.825,1.62 0.247,2.333c-3.075,3.78 -6.157,7.717 -9.18,11.7c-0.322,0.427 -0.817,0.652 -1.32,0.652Zm133.703,10.695c-0.263,0 -0.533,-0.06 -0.78,-0.195c-0.81,-0.435 -1.11,-1.44 -0.675,-2.242c2.348,-4.365 4.845,-8.745 7.432,-13.028c0.473,-0.78 1.486,-1.035 2.273,-0.562c0.788,0.472 1.035,1.492 0.562,2.28c-2.557,4.23 -5.032,8.565 -7.349,12.877c-0.3,0.555 -0.871,0.87 -1.463,0.87Zm-151.028,13.613c-0.314,-0 -0.637,-0.09 -0.922,-0.285c-0.758,-0.51 -0.96,-1.538 -0.45,-2.295c2.797,-4.178 5.662,-8.318 8.512,-12.323c0.525,-0.742 1.56,-0.915 2.31,-0.382c0.743,0.525 0.916,1.56 0.383,2.31c-2.828,3.975 -5.677,8.092 -8.453,12.24c-0.322,0.472 -0.847,0.735 -1.38,0.735Zm138.285,13.327c-0.21,0 -0.419,-0.037 -0.622,-0.127c-0.847,-0.345 -1.253,-1.313 -0.908,-2.16c1.875,-4.568 3.908,-9.188 6.053,-13.718c0.39,-0.825 1.38,-1.177 2.205,-0.787c0.825,0.397 1.178,1.38 0.787,2.205c-2.114,4.477 -4.132,9.037 -5.977,13.56c-0.262,0.637 -0.885,1.027 -1.538,1.027Zm-154.237,11.903c-0.293,-0 -0.585,-0.075 -0.848,-0.233c-0.787,-0.465 -1.042,-1.485 -0.577,-2.265c2.557,-4.29 5.197,-8.587 7.837,-12.765c0.488,-0.772 1.516,-1.005 2.281,-0.517c0.772,0.495 1.004,1.515 0.517,2.287c-2.625,4.155 -5.243,8.423 -7.785,12.69c-0.315,0.518 -0.863,0.803 -1.425,0.803Zm144.51,16.252c-0.15,0 -0.3,-0.015 -0.45,-0.06c-0.885,-0.247 -1.395,-1.162 -1.148,-2.047c1.351,-4.763 2.865,-9.578 4.5,-14.303c0.301,-0.862 1.238,-1.327 2.108,-1.02c0.862,0.293 1.32,1.238 1.02,2.1c-1.612,4.673 -3.105,9.42 -4.44,14.13c-0.203,0.728 -0.87,1.2 -1.59,1.2Zm-159.157,9.78c-0.264,0 -0.526,-0.06 -0.773,-0.187c-0.811,-0.428 -1.117,-1.433 -0.69,-2.243c2.324,-4.372 4.74,-8.797 7.185,-13.147c0.443,-0.795 1.455,-1.08 2.25,-0.63c0.802,0.45 1.08,1.462 0.63,2.257c-2.43,4.32 -4.83,8.723 -7.133,13.073c-0.3,0.562 -0.878,0.877 -1.469,0.877Zm152.767,19.313c-0.083,-0 -0.173,-0.008 -0.262,-0.023c-0.901,-0.142 -1.516,-0.99 -1.373,-1.897c0.772,-4.905 1.702,-9.863 2.775,-14.73c0.195,-0.893 1.087,-1.463 1.973,-1.26c0.892,0.195 1.462,1.072 1.259,1.972c-1.049,4.8 -1.972,9.69 -2.737,14.535c-0.128,0.818 -0.832,1.403 -1.635,1.403Zm-166.051,7.455c-0.231,-0 -0.472,-0.045 -0.696,-0.15c-0.833,-0.383 -1.194,-1.365 -0.811,-2.198c2.048,-4.425 4.23,-8.97 6.488,-13.522c0.405,-0.818 1.402,-1.148 2.219,-0.743c0.819,0.405 1.156,1.403 0.744,2.22c-2.244,4.523 -4.41,9.038 -6.444,13.433c-0.277,0.607 -0.876,0.96 -1.5,0.96Zm163.231,22.177l-0.06,0c-0.915,-0.03 -1.628,-0.795 -1.597,-1.71c0.164,-4.972 0.487,-10.005 0.96,-14.962c0.09,-0.908 0.899,-1.575 1.807,-1.493c0.915,0.09 1.582,0.893 1.492,1.808c-0.465,4.89 -0.787,9.855 -0.952,14.76c-0.03,0.892 -0.765,1.597 -1.65,1.597Zm-174.555,5.52c-0.157,0 -0.315,-0.022 -0.473,-0.067c-0.877,-0.263 -1.379,-1.185 -1.117,-2.063c0.892,-3.015 2.842,-8.19 5.347,-14.182c0.353,-0.84 1.328,-1.245 2.168,-0.885c0.848,0.352 1.245,1.32 0.893,2.16c-2.468,5.895 -4.373,10.935 -5.228,13.852c-0.218,0.72 -0.878,1.185 -1.59,1.185Z" style="fill-rule:nonzero;"/><path d="M759.639,44.023c-0.472,-0 -0.945,-0.203 -1.275,-0.6c-0.585,-0.705 -0.48,-1.748 0.225,-2.333c2.64,-2.182 4.927,-4.035 6.795,-5.542c2.235,-1.815 3.855,-3.128 4.732,-3.908c0.683,-0.6 1.733,-0.54 2.34,0.143c0.608,0.69 0.54,1.732 -0.142,2.34c-0.93,0.825 -2.573,2.152 -4.845,3.997c-1.86,1.508 -4.14,3.353 -6.773,5.528c-0.307,0.255 -0.682,0.375 -1.057,0.375Zm-22.553,19.582c-0.45,0 -0.892,-0.18 -1.222,-0.54c-0.615,-0.675 -0.57,-1.717 0.105,-2.34c3.645,-3.337 7.402,-6.69 11.182,-9.96c0.691,-0.6 1.733,-0.532 2.333,0.165c0.6,0.69 0.525,1.733 -0.165,2.333c-3.757,3.255 -7.492,6.592 -11.115,9.907c-0.315,0.293 -0.713,0.435 -1.118,0.435Zm-21.427,20.783c-0.42,-0 -0.832,-0.158 -1.155,-0.473c-0.66,-0.637 -0.675,-1.687 -0.037,-2.34c3.442,-3.54 7.005,-7.095 10.604,-10.582c0.653,-0.638 1.703,-0.623 2.34,0.037c0.638,0.66 0.623,1.703 -0.037,2.34c-3.57,3.465 -7.117,6.998 -10.53,10.515c-0.322,0.33 -0.758,0.503 -1.185,0.503Zm-20.13,22.035c-0.375,-0 -0.757,-0.128 -1.073,-0.398c-0.697,-0.592 -0.78,-1.642 -0.18,-2.332c3.188,-3.735 6.525,-7.508 9.915,-11.22c0.623,-0.675 1.665,-0.728 2.34,-0.105c0.675,0.615 0.728,1.665 0.105,2.34c-3.367,3.682 -6.682,7.432 -9.847,11.137c-0.322,0.383 -0.787,0.578 -1.26,0.578Zm-18.562,23.355c-0.346,-0 -0.691,-0.105 -0.983,-0.323c-0.735,-0.54 -0.892,-1.582 -0.352,-2.317c2.91,-3.953 5.977,-7.958 9.105,-11.895c0.57,-0.713 1.612,-0.833 2.332,-0.263c0.712,0.57 0.832,1.613 0.262,2.325c-3.105,3.908 -6.142,7.875 -9.03,11.798c-0.329,0.442 -0.832,0.675 -1.334,0.675Zm-16.666,24.735c-0.292,-0 -0.592,-0.083 -0.862,-0.248c-0.78,-0.472 -1.02,-1.492 -0.548,-2.272c2.565,-4.193 5.296,-8.43 8.108,-12.608c0.51,-0.757 1.545,-0.96 2.302,-0.442c0.758,0.51 0.953,1.537 0.443,2.295c-2.783,4.132 -5.49,8.332 -8.025,12.48c-0.315,0.51 -0.855,0.795 -1.418,0.795Zm-14.294,26.152c-0.248,0 -0.488,-0.052 -0.721,-0.157c-0.825,-0.398 -1.17,-1.388 -0.772,-2.213c2.13,-4.425 4.44,-8.91 6.863,-13.335c0.435,-0.802 1.439,-1.095 2.25,-0.652c0.802,0.435 1.095,1.44 0.652,2.242c-2.393,4.38 -4.68,8.813 -6.78,13.178c-0.285,0.592 -0.878,0.937 -1.492,0.937Zm-11.356,27.495c-0.179,0 -0.359,-0.03 -0.539,-0.09c-0.871,-0.3 -1.328,-1.237 -1.028,-2.107c1.59,-4.635 3.383,-9.345 5.31,-14.003c0.345,-0.847 1.312,-1.245 2.16,-0.9c0.847,0.353 1.245,1.32 0.9,2.168c-1.905,4.597 -3.668,9.24 -5.243,13.815c-0.232,0.682 -0.877,1.117 -1.56,1.117Zm-7.785,28.74c-0.105,0 -0.217,-0.015 -0.322,-0.03c-0.9,-0.18 -1.485,-1.05 -1.305,-1.95c0.952,-4.837 2.108,-9.757 3.428,-14.61c0.239,-0.885 1.147,-1.41 2.032,-1.162c0.885,0.232 1.402,1.147 1.163,2.025c-1.298,4.785 -2.438,9.63 -3.375,14.392c-0.158,0.788 -0.848,1.335 -1.621,1.335Zm-3.547,29.543l-0.075,-0c-0.915,-0.038 -1.62,-0.81 -1.583,-1.718c0.203,-4.95 0.615,-9.99 1.216,-14.977c0.112,-0.908 0.937,-1.553 1.845,-1.44c0.907,0.105 1.552,0.93 1.447,1.837c-0.592,4.905 -0.998,9.855 -1.2,14.715c-0.037,0.893 -0.773,1.583 -1.65,1.583Z" style="fill-rule:nonzero;"/><path d="M759.024,29.72c-0.045,0 -0.098,-0.007 -0.15,-0.007c-3.375,-0.315 -6.727,-0.42 -10.163,-0.48c-1.507,-0 -3.007,0.037 -4.5,0.097c-0.922,0.038 -1.687,-0.667 -1.724,-1.582c-0.038,-0.915 0.667,-1.688 1.582,-1.725c1.56,-0.068 3.12,-0.09 4.703,-0.098c3.45,0 6.952,0.165 10.41,0.488c0.907,0.09 1.582,0.892 1.492,1.807c-0.082,0.855 -0.803,1.5 -1.65,1.5Zm-44.078,4.755c-0.705,0 -1.365,-0.45 -1.582,-1.162c-0.27,-0.878 0.217,-1.8 1.088,-2.07c4.852,-1.508 9.772,-2.708 14.632,-3.57c0.9,-0.158 1.763,0.442 1.92,1.342c0.157,0.9 -0.442,1.755 -1.343,1.92c-4.724,0.84 -9.51,2.003 -14.227,3.465c-0.165,0.053 -0.33,0.075 -0.488,0.075Zm56.273,0.068c-0.458,-0 -0.915,-0.195 -1.245,-0.563c-0.608,-0.682 -0.54,-1.732 0.142,-2.34c0.691,-0.607 1.058,-0.922 1.058,-0.922c0.157,-0.135 0.345,-0.24 0.548,-0.308l0.352,-0.12c0.007,-0.075 0.023,-0.15 0.038,-0.217c0.202,-0.893 1.102,-1.448 1.987,-1.245c0.615,0.142 1.237,0.285 1.86,0.442c0.712,0.173 1.223,0.803 1.252,1.538c0.03,0.742 -0.427,1.41 -1.132,1.642l-3,0.998c-0.165,0.15 -0.428,0.375 -0.765,0.675c-0.315,0.277 -0.705,0.42 -1.095,0.42Zm-83.505,11.805c-0.585,-0 -1.148,-0.3 -1.448,-0.84c-0.45,-0.803 -0.165,-1.808 0.631,-2.258c4.454,-2.505 8.977,-4.77 13.454,-6.735c0.84,-0.367 1.816,0.015 2.183,0.848c0.367,0.84 -0.015,1.815 -0.847,2.182c-4.38,1.928 -8.813,4.14 -13.163,6.593c-0.263,0.142 -0.54,0.21 -0.81,0.21Zm-24.63,16.725c-0.487,-0 -0.975,-0.21 -1.298,-0.623c-0.569,-0.712 -0.457,-1.755 0.263,-2.325c3.99,-3.18 8.055,-6.187 12.083,-8.932c0.757,-0.518 1.785,-0.323 2.302,0.435c0.51,0.757 0.315,1.785 -0.435,2.302c-3.96,2.7 -7.957,5.655 -11.887,8.783c-0.308,0.247 -0.668,0.36 -1.028,0.36Zm-22.095,20.017c-0.42,0 -0.84,-0.157 -1.162,-0.472c-0.653,-0.645 -0.66,-1.695 -0.015,-2.34c3.57,-3.638 7.207,-7.133 10.807,-10.41c0.682,-0.615 1.725,-0.563 2.34,0.112c0.615,0.675 0.57,1.725 -0.112,2.34c-3.555,3.233 -7.148,6.69 -10.68,10.275c-0.323,0.33 -0.75,0.495 -1.178,0.495Zm-19.86,22.26c-0.368,0 -0.735,-0.12 -1.043,-0.375c-0.704,-0.577 -0.817,-1.62 -0.239,-2.325c3.202,-3.93 6.472,-7.77 9.719,-11.422c0.608,-0.683 1.651,-0.743 2.34,-0.135c0.683,0.607 0.743,1.657 0.136,2.34c-3.218,3.615 -6.458,7.417 -9.623,11.31c-0.33,0.397 -0.81,0.607 -1.29,0.607Zm-17.918,23.843c-0.329,-0 -0.66,-0.098 -0.945,-0.293c-0.75,-0.525 -0.937,-1.56 -0.412,-2.31c2.88,-4.14 5.828,-8.22 8.76,-12.127c0.547,-0.728 1.59,-0.878 2.318,-0.33c0.735,0.547 0.884,1.59 0.329,2.317c-2.91,3.878 -5.835,7.928 -8.692,12.038c-0.323,0.457 -0.832,0.705 -1.358,0.705Zm-16.244,25.042c-0.293,0 -0.585,-0.075 -0.855,-0.232c-0.781,-0.48 -1.035,-1.493 -0.563,-2.28c2.61,-4.305 5.28,-8.58 7.95,-12.69c0.495,-0.773 1.523,-0.99 2.295,-0.495c0.765,0.502 0.982,1.522 0.487,2.295c-2.647,4.087 -5.309,8.325 -7.897,12.607c-0.307,0.518 -0.855,0.795 -1.417,0.795Zm-14.701,25.995c-0.262,0 -0.525,-0.06 -0.772,-0.195c-0.81,-0.427 -1.117,-1.432 -0.69,-2.235c2.325,-4.402 4.74,-8.827 7.185,-13.14c0.45,-0.802 1.463,-1.08 2.257,-0.63c0.796,0.45 1.073,1.463 0.623,2.258c-2.423,4.29 -4.823,8.685 -7.14,13.057c-0.3,0.563 -0.87,0.885 -1.463,0.885Zm-13.2,26.79c-0.232,0 -0.465,-0.045 -0.689,-0.15c-0.833,-0.382 -1.193,-1.365 -0.818,-2.19c2.047,-4.485 4.207,-9.037 6.428,-13.537c0.404,-0.825 1.402,-1.155 2.219,-0.758c0.818,0.405 1.156,1.403 0.75,2.22c-2.204,4.47 -4.35,9 -6.382,13.448c-0.278,0.607 -0.878,0.967 -1.508,0.967Zm-11.504,27.578c-0.196,-0 -0.391,-0.038 -0.578,-0.105c-0.855,-0.323 -1.29,-1.275 -0.975,-2.138c1.665,-4.455 3.525,-9.15 5.535,-13.95c0.353,-0.84 1.327,-1.237 2.167,-0.885c0.848,0.353 1.245,1.328 0.893,2.168c-1.995,4.755 -3.84,9.412 -5.49,13.83c-0.248,0.667 -0.877,1.08 -1.552,1.08Zm-8.266,28.68c-0.052,-0 -0.105,-0.008 -0.157,-0.008c-0.915,-0.09 -1.582,-0.9 -1.492,-1.807c0.329,-3.398 1.529,-8.535 3.48,-14.873c0.27,-0.877 1.192,-1.365 2.069,-1.102c0.87,0.27 1.366,1.2 1.096,2.07c-1.883,6.135 -3.038,11.047 -3.346,14.22c-0.082,0.855 -0.802,1.5 -1.65,1.5Z" style="fill-rule:nonzero;"/><path d="M758.199,38.585c-0.668,0 -1.298,-0.405 -1.545,-1.065c-0.33,-0.855 0.098,-1.815 0.952,-2.145c4.62,-1.762 9.375,-3.435 14.131,-4.972c0.877,-0.285 1.807,0.195 2.084,1.065c0.285,0.877 -0.194,1.807 -1.064,2.085c-4.703,1.522 -9.398,3.172 -13.965,4.92c-0.195,0.075 -0.398,0.112 -0.593,0.112Zm-27.188,12.143c-0.6,-0 -1.177,-0.323 -1.469,-0.893c-0.421,-0.817 -0.105,-1.815 0.712,-2.235c4.41,-2.272 8.955,-4.455 13.507,-6.487c0.833,-0.375 1.816,-0 2.191,0.832c0.367,0.84 -0.008,1.815 -0.84,2.19c-4.5,2.01 -8.985,4.163 -13.343,6.413c-0.24,0.12 -0.503,0.18 -0.758,0.18Zm-25.664,15.12c-0.54,-0 -1.066,-0.255 -1.38,-0.735c-0.511,-0.758 -0.308,-1.785 0.457,-2.295c4.147,-2.775 8.423,-5.453 12.705,-7.98c0.788,-0.458 1.808,-0.195 2.265,0.592c0.465,0.788 0.203,1.8 -0.585,2.265c-4.23,2.49 -8.445,5.138 -12.548,7.875c-0.285,0.188 -0.6,0.278 -0.914,0.278Zm-23.821,17.895c-0.472,-0 -0.945,-0.203 -1.267,-0.593c-0.592,-0.705 -0.495,-1.747 0.202,-2.332c3.833,-3.218 7.778,-6.36 11.73,-9.33c0.728,-0.548 1.77,-0.398 2.318,0.33c0.548,0.735 0.405,1.77 -0.33,2.317c-3.9,2.933 -7.8,6.038 -11.587,9.218c-0.308,0.262 -0.691,0.39 -1.066,0.39Zm-21.757,20.31c-0.413,-0 -0.832,-0.15 -1.155,-0.465c-0.653,-0.63 -0.675,-1.68 -0.037,-2.34c3.48,-3.593 7.072,-7.125 10.68,-10.493c0.667,-0.63 1.71,-0.592 2.34,0.075c0.622,0.668 0.585,1.718 -0.083,2.34c-3.562,3.33 -7.117,6.825 -10.553,10.38c-0.329,0.338 -0.757,0.503 -1.192,0.503Zm-19.657,22.365c-0.36,-0 -0.728,-0.12 -1.035,-0.36c-0.713,-0.578 -0.825,-1.62 -0.256,-2.333c3.135,-3.915 6.375,-7.777 9.616,-11.475c0.607,-0.682 1.657,-0.75 2.339,-0.15c0.691,0.6 0.758,1.65 0.15,2.34c-3.209,3.653 -6.412,7.478 -9.517,11.355c-0.33,0.413 -0.81,0.623 -1.297,0.623Zm-17.618,24.03c-0.323,-0 -0.645,-0.098 -0.923,-0.285c-0.764,-0.51 -0.959,-1.538 -0.45,-2.303c2.805,-4.17 5.7,-8.295 8.596,-12.247c0.54,-0.735 1.582,-0.9 2.317,-0.353c0.735,0.533 0.9,1.575 0.352,2.31c-2.864,3.923 -5.737,8.003 -8.52,12.143c-0.322,0.472 -0.84,0.735 -1.372,0.735Zm-15.713,25.32c-0.277,-0 -0.562,-0.075 -0.817,-0.218c-0.795,-0.457 -1.073,-1.47 -0.615,-2.265c2.498,-4.357 5.07,-8.685 7.658,-12.847c0.48,-0.78 1.5,-1.02 2.279,-0.54c0.773,0.48 1.013,1.507 0.533,2.28c-2.565,4.14 -5.123,8.43 -7.597,12.757c-0.308,0.533 -0.863,0.833 -1.441,0.833Zm-13.98,26.317c-0.239,0 -0.494,-0.052 -0.727,-0.172c-0.817,-0.405 -1.155,-1.395 -0.75,-2.213c2.22,-4.507 4.507,-8.992 6.803,-13.312c0.427,-0.81 1.432,-1.118 2.242,-0.69c0.81,0.427 1.11,1.432 0.682,2.242c-2.279,4.298 -4.552,8.745 -6.757,13.223c-0.292,0.585 -0.877,0.922 -1.493,0.922Zm-12.435,27.083c-0.217,-0 -0.434,-0.038 -0.652,-0.128c-0.84,-0.367 -1.23,-1.335 -0.87,-2.175c1.98,-4.62 4.02,-9.217 6.06,-13.665c0.382,-0.832 1.365,-1.192 2.19,-0.817c0.832,0.382 1.2,1.365 0.817,2.197c-2.025,4.418 -4.057,8.993 -6.022,13.583c-0.27,0.63 -0.878,1.005 -1.523,1.005Zm-11.092,27.667c-0.188,0 -0.39,-0.03 -0.578,-0.105c-0.854,-0.322 -1.29,-1.275 -0.967,-2.13c1.762,-4.71 3.585,-9.397 5.4,-13.935c0.338,-0.847 1.305,-1.26 2.152,-0.915c0.848,0.338 1.261,1.298 0.923,2.153c-1.807,4.515 -3.615,9.18 -5.377,13.86c-0.248,0.667 -0.878,1.072 -1.553,1.072Z" style="fill-rule:nonzero;"/><path d="M1085.24,506.443l-41.4,-0c-0.915,-0 -1.657,-0.743 -1.657,-1.658c-0,-0.915 0.742,-1.657 1.657,-1.657l41.4,-0c0.915,-0 1.657,0.742 1.657,1.657c0,0.915 -0.742,1.658 -1.657,1.658Z" style="fill-rule:nonzero;"/><path d="M1099.49,597.23l-632.641,0l-0,-101.452l640.261,-0l-0,93.84c-0,4.207 -3.412,7.612 -7.62,7.612Z" style="fill:#fff;fill-rule:nonzero;"/><path d="M468.509,595.573l630.985,-0c3.285,-0 5.962,-2.67 5.962,-5.955l0,-92.183l-636.947,0l0,98.138Zm630.985,3.315l-632.641,-0c-0.914,-0 -1.656,-0.743 -1.656,-1.658l0,-101.452c0,-0.915 0.742,-1.658 1.656,-1.658l640.261,0c0.915,0 1.658,0.743 1.658,1.658l-0,93.84c-0,5.115 -4.163,9.27 -9.278,9.27Z" style="fill-rule:nonzero;"/><path d="M248.042,693.305l222.776,-197.527l-1.422,98.04l-221.841,206.692l0.487,-107.205Z" style="fill:#fff;fill-rule:nonzero;"/><path d="M249.695,694.055l-0.466,102.638l218.522,-203.603l1.357,-93.585l-219.413,194.55Zm-2.14,108.113c-0.225,-0 -0.45,-0.045 -0.664,-0.143c-0.606,-0.262 -0.996,-0.862 -0.992,-1.522l0.487,-107.205c0.002,-0.473 0.205,-0.915 0.557,-1.23l222.777,-197.528c0.49,-0.435 1.19,-0.54 1.789,-0.27c0.596,0.278 0.975,0.878 0.965,1.53l-1.422,98.04c-0.006,0.45 -0.197,0.885 -0.527,1.193l-221.842,206.692c-0.312,0.293 -0.717,0.443 -1.128,0.443Z" style="fill-rule:nonzero;"/><path d="M254.86,715.025l215.105,-184.372l616.292,-5.123l-199.741,220.23l-631.656,-30.735Z" style="fill-rule:nonzero;"/><path d="M884.821,693.305l222.78,-197.527l-1.372,94.492c-0.038,2.265 -0.99,4.425 -2.648,5.97l-219.247,204.27l0.487,-107.205Z" style="fill:#fff;fill-rule:nonzero;"/><path d="M886.479,694.055l-0.472,102.638l216.442,-201.668c1.32,-1.23 2.1,-2.97 2.122,-4.777l1.32,-90.743l-219.412,194.55Zm-2.145,108.113c-0.225,-0 -0.45,-0.045 -0.66,-0.143c-0.608,-0.262 -0.998,-0.862 -0.998,-1.522l0.488,-107.205c0.007,-0.473 0.21,-0.915 0.562,-1.23l222.773,-197.528c0.495,-0.435 1.192,-0.54 1.793,-0.27c0.592,0.278 0.974,0.878 0.96,1.53l-1.366,94.493c-0.044,2.707 -1.199,5.31 -3.18,7.155l-219.239,204.277c-0.316,0.293 -0.721,0.443 -1.133,0.443Z" style="fill-rule:nonzero;"/><path d="M884.334,800.51l-631.655,0c-4.752,0 -8.603,-3.847 -8.603,-8.602l0,-92.13c0,-3.773 3.059,-6.833 6.832,-6.833l633.426,0l0,107.565Z" style="fill:#fff;fill-rule:nonzero;"/><path d="M250.907,694.603c-2.853,-0 -5.175,2.325 -5.175,5.175l0,92.13c0,3.832 3.117,6.945 6.947,6.945l629.997,-0l0,-104.25l-631.769,-0Zm633.427,107.565l-631.655,-0c-5.658,-0 -10.259,-4.605 -10.259,-10.26l0,-92.13c0,-4.68 3.807,-8.49 8.487,-8.49l633.427,-0c0.915,-0 1.657,0.742 1.657,1.657l0,107.565c0,0.915 -0.742,1.658 -1.657,1.658Z" style="fill-rule:nonzero;"/><path d="M522.489,538.408c-0.098,-15.008 4.2,-24.15 8.145,-29.723c7.2,-10.162 15.173,-11.212 17.917,-21.03c2.596,-9.277 -3.472,-12.082 -1.439,-22.53c2.422,-12.442 11.969,-13.297 14.43,-23.542c2.992,-12.465 -9.331,-18.773 -15.518,-36.278c-8.002,-22.642 5.265,-32.895 2.235,-54.037c-4.928,-34.32 -48.292,-65.955 -66.84,-57.33c-17.487,8.13 -18.759,54.772 -4.627,88.657c15.067,36.12 38.399,35.603 41.797,65.79c2.34,20.865 -7.456,33.098 -2.415,65.16c1.703,10.86 4.41,19.493 6.315,24.863Z" style="fill:#fff;fill-rule:nonzero;"/><path d="M488.574,294.163c-2.438,-0 -4.612,0.42 -6.458,1.275c-15.92,7.402 -17.908,52.68 -3.795,86.52c6.953,16.68 15.713,25.41 23.437,33.112c8.918,8.88 16.613,16.56 18.473,33.135c1.028,9.158 -0.224,16.725 -1.56,24.743c-1.732,10.44 -3.704,22.267 -0.862,40.342c0.847,5.408 2.033,10.793 3.533,16.08c1.049,-8.407 3.712,-15.66 7.942,-21.637c3.195,-4.515 6.525,-7.29 9.457,-9.735c3.788,-3.158 6.781,-5.648 8.22,-10.785c1.178,-4.23 0.383,-6.908 -0.532,-10.013c-0.953,-3.195 -2.025,-6.825 -0.945,-12.39c1.387,-7.11 5.018,-10.777 8.22,-14.025c2.783,-2.812 5.182,-5.242 6.225,-9.592c1.59,-6.608 -1.582,-11.288 -5.977,-17.775c-3.218,-4.748 -6.855,-10.133 -9.488,-17.565c-4.657,-13.185 -2.317,-22.493 -0.053,-31.5c1.718,-6.833 3.495,-13.905 2.205,-22.853c-3.232,-22.537 -22.785,-42.6 -39.585,-51.705c-6.855,-3.712 -13.252,-5.632 -18.457,-5.632Zm33.915,245.902c-0.69,0 -1.32,-0.435 -1.56,-1.102c-2.903,-8.168 -5.047,-16.628 -6.39,-25.155c-2.926,-18.608 -0.915,-30.72 0.862,-41.408c1.298,-7.777 2.52,-15.12 1.538,-23.827c-1.733,-15.42 -8.701,-22.365 -17.513,-31.155c-7.95,-7.92 -16.95,-16.898 -24.161,-34.185c-13.592,-32.588 -13.747,-81.87 5.457,-90.803c6.832,-3.172 16.731,-1.59 27.884,4.455c17.506,9.488 37.898,30.48 41.295,54.15c1.373,9.593 -0.487,16.98 -2.28,24.128c-2.242,8.917 -4.357,17.347 -0.029,29.587c2.482,7.035 6,12.225 9.104,16.808c4.5,6.645 8.385,12.382 6.458,20.407c-1.26,5.25 -4.23,8.25 -7.095,11.153c-3.15,3.187 -6.135,6.202 -7.32,12.322c-0.93,4.77 -0.06,7.71 0.862,10.823c0.976,3.292 1.988,6.697 0.548,11.842c-1.717,6.128 -5.392,9.195 -9.285,12.435c-2.783,2.318 -5.932,4.943 -8.873,9.105c-5.28,7.455 -7.92,17.13 -7.844,28.755c0.007,0.81 -0.578,1.5 -1.373,1.643c-0.098,0.015 -0.188,0.022 -0.285,0.022Z" style="fill-rule:nonzero;"/><path d="M527.086,552.853c-0.63,-0 -1.23,-0.36 -1.507,-0.968c-9.083,-19.822 -5.408,-41.452 -0.765,-68.842c2.43,-14.34 5.19,-30.585 6.255,-48.458c2.962,-49.725 -38.618,-109.942 -39.038,-110.542c-0.524,-0.75 -0.344,-1.785 0.406,-2.31c0.757,-0.518 1.785,-0.338 2.309,0.412c0.428,0.615 42.66,61.778 39.623,112.635c-1.073,18.053 -3.847,34.395 -6.292,48.818c-4.546,26.827 -8.138,48.015 0.509,66.907c0.383,0.833 0.015,1.815 -0.81,2.198c-0.225,0.105 -0.457,0.15 -0.69,0.15Z" style="fill-rule:nonzero;"/><path d="M518.252,542.068c-2.018,-9.548 -4.14,-23.618 -3.436,-40.583c1.156,-27.667 8.835,-39.435 1.118,-49.77c-8.505,-11.4 -22.83,-3.772 -32.97,-17.325c-6.917,-9.24 -3.45,-17.055 -12.949,-25.747c-1.81,-1.658 -7.7,-6.915 -16.013,-7.553c-7.713,-0.6 -10.439,3.315 -20.278,6.75c-17.829,6.218 -25.777,-0.75 -32.333,5.798c-5.803,5.79 -6.96,18.622 -1.425,25.695c10.426,13.335 38,-2.19 48.346,10.455c8.838,10.792 -6.394,28.08 3.276,40.11c8.712,10.837 26.156,3.135 33.304,14.482c5.467,8.67 -2.191,17.22 2.879,26.265c5.281,9.435 19.823,11.235 30.481,11.423Z" style="fill:#fff;fill-rule:nonzero;"/><path d="M432.852,442.76c6.634,0 12.754,1.103 16.742,5.978c4.816,5.88 3.268,13.297 1.77,20.475c-1.514,7.252 -2.943,14.1 1.514,19.65c3.864,4.807 9.675,5.58 15.828,6.397c6.654,0.885 13.538,1.808 17.588,8.235c3.09,4.905 2.437,9.668 1.8,14.28c-0.57,4.155 -1.11,8.085 1.118,12.06c3.614,6.443 12.689,9.983 26.999,10.523c-2.564,-12.908 -3.584,-25.995 -3.044,-38.948c0.434,-10.53 1.814,-18.825 2.932,-25.492c1.8,-10.815 2.888,-17.34 -1.493,-23.213c-3.689,-4.95 -8.52,-5.925 -14.107,-7.065c-6.187,-1.26 -13.193,-2.677 -18.863,-10.26c-3.232,-4.312 -4.312,-8.28 -5.358,-12.12c-1.242,-4.552 -2.415,-8.85 -7.381,-13.395c-4.719,-4.327 -9.773,-6.72 -15.023,-7.125c-4.439,-0.345 -7.002,0.93 -10.885,2.865c-2.356,1.178 -5.024,2.513 -8.719,3.795c-9.204,3.218 -16.016,3.015 -20.992,2.873c-4.952,-0.143 -7.945,-0.233 -10.716,2.535c-5.475,5.46 -6.126,17.325 -1.293,23.505c4.74,6.06 13.684,5.46 23.151,4.83c2.821,-0.188 5.672,-0.383 8.432,-0.383Zm85.4,100.965l-0.03,0c-16.77,-0.292 -27.496,-4.417 -31.898,-12.27c-2.768,-4.95 -2.13,-9.615 -1.508,-14.13c0.578,-4.207 1.125,-8.182 -1.327,-12.067c-3.225,-5.115 -9.05,-5.895 -15.22,-6.713c-6.528,-0.87 -13.279,-1.77 -17.971,-7.612c-5.439,-6.765 -3.705,-15.068 -2.176,-22.395c1.4,-6.713 2.723,-13.043 -1.091,-17.708c-4.568,-5.58 -13.227,-4.995 -22.39,-4.387c-9.909,0.667 -20.161,1.35 -25.98,-6.09c-5.838,-7.463 -5.065,-21.278 1.56,-27.893c3.783,-3.772 7.919,-3.645 13.154,-3.502c4.979,0.15 11.177,0.33 19.804,-2.685c3.496,-1.215 6.064,-2.498 8.332,-3.63c4.06,-2.025 7.263,-3.615 12.619,-3.21c4.128,0.322 10.429,1.965 17.004,7.987c5.672,5.198 7.03,10.163 8.342,14.97c1.005,3.705 1.958,7.193 4.816,11.01c4.912,6.563 10.716,7.748 16.867,8.993c5.73,1.17 11.655,2.37 16.102,8.332c5.228,6.998 3.983,14.453 2.101,25.74c-1.096,6.57 -2.461,14.753 -2.888,25.088c-0.555,13.357 0.585,26.872 3.397,40.17c0.105,0.495 -0.022,1.012 -0.345,1.402c-0.315,0.383 -0.78,0.6 -1.274,0.6Z" style="fill-rule:nonzero;"/><path d="M524.882,552.44c-0.353,0 -0.706,-0.112 -1.013,-0.345c-9.202,-7.117 -12.353,-18.832 -17.123,-36.562c-3.578,-13.29 -8.024,-29.835 -16.62,-50.085c-19.166,-45.15 -71.446,-39.96 -71.972,-39.9c-0.892,0.09 -1.728,-0.555 -1.827,-1.47c-0.099,-0.908 0.557,-1.725 1.467,-1.823c0.546,-0.06 55.264,-5.497 75.377,41.895c8.685,20.468 13.171,37.133 16.77,50.52c4.598,17.085 7.636,28.365 15.96,34.808c0.72,0.555 0.856,1.597 0.293,2.317c-0.323,0.428 -0.817,0.645 -1.312,0.645Z" style="fill-rule:nonzero;"/><path d="M535.426,567.583l-33.959,0.255l-3.886,-10.455c-1.358,-3.668 3.15,-7.305 10.906,-8.61c10.454,-1.755 20.594,-1.403 30.457,0.99c4.62,1.117 7.29,3.375 6.967,5.73l-1.102,4.41c-1.118,4.5 -4.965,7.642 -9.383,7.68Z" style="fill:#fff;fill-rule:nonzero;"/><path d="M1005.91,543.958c-8.985,-16.073 -7.875,-23.61 -5.31,-27.51c4.568,-6.968 14.783,-4.028 19.305,-11.588c4.658,-7.777 -3.78,-14.835 -0.638,-24.802c3.706,-11.783 22.125,-22.905 33.945,-16.223c10.11,5.708 12.773,22.95 6.758,31.853c-6.675,9.885 -21.375,5.565 -25.515,14.775c-3.81,8.475 6.667,16.5 3.315,24.322c-1.927,4.493 -8.64,9.465 -31.86,9.173Z" style="fill:#fff;fill-rule:nonzero;"/><path d="M1006.89,542.308c16.905,0.142 27.008,-2.715 29.355,-8.175c1.351,-3.158 -0.127,-6.623 -1.695,-10.298c-1.807,-4.237 -3.862,-9.037 -1.612,-14.047c2.4,-5.325 7.74,-6.713 12.9,-8.055c4.8,-1.253 9.773,-2.543 12.758,-6.968c2.827,-4.185 3.66,-10.695 2.182,-16.98c-1.35,-5.7 -4.402,-10.26 -8.385,-12.51c-4.192,-2.37 -9.727,-2.4 -15.593,-0.082c-7.477,2.947 -14.04,9.27 -15.959,15.367c-1.366,4.335 -0.271,8.153 0.787,11.85c1.215,4.26 2.475,8.663 -0.3,13.298c-2.655,4.44 -7.028,5.715 -10.883,6.84c-3.375,0.99 -6.569,1.927 -8.459,4.807c-3.173,4.83 -1.523,13.223 4.904,24.953Zm0.953,3.315c-0.638,-0 -1.29,-0 -1.958,-0.008c-0.592,-0.007 -1.132,-0.33 -1.425,-0.847c-7.56,-13.523 -9.277,-23.085 -5.242,-29.235c2.557,-3.9 6.495,-5.048 10.297,-6.165c3.593,-1.05 6.983,-2.04 8.971,-5.355c2.039,-3.413 1.117,-6.623 -0.046,-10.695c-1.132,-3.968 -2.422,-8.468 -0.757,-13.755c2.235,-7.095 9.428,-14.108 17.902,-17.453c6.811,-2.685 13.358,-2.587 18.436,0.285c4.785,2.7 8.422,8.033 9.974,14.625c1.688,7.163 0.675,14.67 -2.654,19.598c-3.691,5.46 -9.526,6.975 -14.671,8.317c-4.807,1.253 -8.962,2.333 -10.71,6.21c-1.657,3.683 -0.06,7.425 1.636,11.393c1.769,4.147 3.607,8.437 1.687,12.9c-2.933,6.847 -13.222,10.185 -31.44,10.185Z" style="fill-rule:nonzero;"/><path d="M1004.22,552.17c-0.18,0 -0.368,-0.03 -0.548,-0.097c-0.862,-0.293 -1.32,-1.238 -1.02,-2.1c16.545,-47.805 38.257,-63.3 39.173,-63.938c0.75,-0.517 1.777,-0.337 2.302,0.413c0.525,0.75 0.338,1.785 -0.405,2.31c-0.217,0.15 -21.787,15.645 -37.943,62.295c-0.232,0.682 -0.877,1.117 -1.559,1.117Z" style="fill-rule:nonzero;"/><path d="M991.967,538.408c-0.098,-15.008 4.2,-24.15 8.145,-29.723c7.2,-10.162 15.172,-11.212 17.917,-21.03c2.595,-9.277 -3.472,-12.082 -1.44,-22.53c2.415,-12.442 11.97,-13.297 14.43,-23.542c2.992,-12.465 -9.33,-18.773 -15.517,-36.278c-8.003,-22.642 5.264,-32.895 2.235,-54.037c-4.928,-34.32 -48.293,-65.955 -66.84,-57.33c-17.491,8.13 -18.758,54.772 -4.628,88.657c15.067,36.12 38.4,35.603 41.79,65.79c2.347,20.865 -7.447,33.098 -2.408,65.16c1.703,10.86 4.403,19.493 6.316,24.863Z" style="fill:#fff;fill-rule:nonzero;"/><path d="M958.051,294.163c-2.437,-0 -4.619,0.42 -6.457,1.275c-15.923,7.402 -17.91,52.68 -3.795,86.52c6.953,16.68 15.712,25.41 23.438,33.112c8.91,8.88 16.612,16.56 18.472,33.135c1.028,9.158 -0.233,16.725 -1.56,24.743c-1.74,10.44 -3.705,22.267 -0.863,40.342c0.848,5.408 2.033,10.785 3.533,16.08c1.05,-8.407 3.705,-15.66 7.942,-21.637c3.195,-4.515 6.525,-7.29 9.458,-9.735c3.788,-3.158 6.78,-5.648 8.213,-10.785c1.184,-4.23 0.389,-6.908 -0.533,-10.013c-0.945,-3.195 -2.025,-6.825 -0.938,-12.39c1.381,-7.11 5.011,-10.785 8.221,-14.025c2.774,-2.812 5.182,-5.242 6.224,-9.592c1.59,-6.608 -1.582,-11.288 -5.977,-17.775c-3.218,-4.748 -6.863,-10.133 -9.488,-17.565c-4.657,-13.185 -2.317,-22.493 -0.059,-31.5c1.717,-6.833 3.495,-13.905 2.212,-22.853c-3.232,-22.537 -22.785,-42.6 -39.585,-51.705c-6.855,-3.712 -13.252,-5.632 -18.458,-5.632Zm33.916,245.902c-0.691,0 -1.328,-0.435 -1.561,-1.102c-2.902,-8.168 -5.055,-16.628 -6.39,-25.155c-2.924,-18.608 -0.915,-30.72 0.863,-41.408c1.297,-7.777 2.512,-15.12 1.538,-23.827c-1.733,-15.42 -8.7,-22.365 -17.52,-31.155c-7.943,-7.92 -16.951,-16.898 -24.158,-34.185c-13.59,-32.588 -13.748,-81.87 5.46,-90.803c6.825,-3.172 16.733,-1.59 27.885,4.455c17.505,9.488 37.897,30.48 41.287,54.15c1.381,9.593 -0.48,16.98 -2.272,24.128c-2.243,8.917 -4.365,17.347 -0.037,29.587c2.489,7.035 6.007,12.225 9.112,16.808c4.493,6.645 8.385,12.382 6.45,20.407c-1.26,5.25 -4.223,8.25 -7.088,11.153c-3.157,3.187 -6.135,6.202 -7.327,12.322c-0.923,4.77 -0.053,7.71 0.87,10.823c0.975,3.292 1.987,6.697 0.548,11.842c-1.718,6.128 -5.393,9.195 -9.285,12.435c-2.783,2.318 -5.933,4.943 -8.881,9.105c-5.272,7.455 -7.912,17.13 -7.837,28.755c0,0.81 -0.578,1.5 -1.372,1.643c-0.098,0.015 -0.195,0.022 -0.285,0.022Z" style="fill-rule:nonzero;"/><path d="M996.564,552.853c-0.63,-0 -1.23,-0.36 -1.507,-0.968c-9.083,-19.822 -5.416,-41.452 -0.765,-68.842c2.43,-14.34 5.182,-30.585 6.254,-48.458c2.963,-49.725 -38.617,-109.942 -39.044,-110.542c-0.518,-0.75 -0.338,-1.785 0.412,-2.31c0.75,-0.518 1.785,-0.338 2.31,0.412c0.427,0.615 42.653,61.778 39.623,112.635c-1.073,18.053 -3.848,34.395 -6.293,48.818c-4.545,26.827 -8.145,48.015 0.51,66.907c0.382,0.833 0.015,1.815 -0.818,2.198c-0.217,0.105 -0.457,0.15 -0.682,0.15Z" style="fill-rule:nonzero;"/><path d="M992.851,540.365c-2.017,-9.555 -4.14,-23.625 -3.434,-40.59c1.147,-27.66 8.835,-39.435 1.117,-49.77c-8.512,-11.392 -22.83,-3.765 -32.977,-17.325c-6.916,-9.24 -3.443,-17.047 -12.945,-25.747c-1.808,-1.658 -7.703,-6.908 -16.013,-7.553c-7.71,-0.6 -10.44,3.323 -20.28,6.75c-17.828,6.225 -25.777,-0.742 -32.332,5.798c-5.798,5.79 -6.961,18.622 -1.425,25.702c10.425,13.328 38.002,-2.197 48.352,10.448c8.835,10.792 -6.398,28.08 3.27,40.11c8.715,10.845 26.16,3.135 33.307,14.482c5.468,8.678 -2.19,17.22 2.873,26.265c5.287,9.435 19.83,11.243 30.487,11.43Z" style="fill:#fff;fill-rule:nonzero;"/><path d="M907.449,441.058c6.637,-0 12.757,1.095 16.74,5.97c4.822,5.887 3.27,13.305 1.77,20.475c-1.507,7.252 -2.94,14.1 1.515,19.65c3.862,4.807 9.675,5.58 15.833,6.397c6.652,0.893 13.529,1.808 17.587,8.235c3.09,4.913 2.437,9.675 1.8,14.28c-0.57,4.155 -1.11,8.085 1.118,12.06c3.607,6.443 12.69,9.983 26.992,10.523c-2.558,-12.9 -3.585,-25.995 -3.045,-38.94c0.443,-10.538 1.822,-18.833 2.932,-25.5c1.808,-10.815 2.895,-17.34 -1.485,-23.213c-3.697,-4.942 -8.519,-5.925 -14.114,-7.065c-6.181,-1.252 -13.193,-2.677 -18.855,-10.252c-3.233,-4.32 -4.313,-8.288 -5.363,-12.12c-1.238,-4.553 -2.415,-8.858 -7.38,-13.403c-4.718,-4.32 -9.772,-6.72 -15.022,-7.125c-4.441,-0.345 -7.005,0.938 -10.883,2.873c-2.355,1.17 -5.025,2.505 -8.723,3.795c-9.202,3.21 -16.012,3.007 -20.992,2.865c-4.95,-0.143 -7.942,-0.233 -10.718,2.535c-5.474,5.467 -6.12,17.332 -1.29,23.512c4.74,6.06 13.688,5.46 23.153,4.823c2.82,-0.188 5.67,-0.375 8.43,-0.375Zm85.402,100.957l-0.03,0c-16.77,-0.292 -27.502,-4.417 -31.897,-12.27c-2.775,-4.942 -2.13,-9.615 -1.507,-14.13c0.577,-4.2 1.117,-8.175 -1.328,-12.06c-3.225,-5.122 -9.053,-5.895 -15.225,-6.72c-6.525,-0.87 -13.275,-1.77 -17.97,-7.605c-5.438,-6.772 -3.705,-15.075 -2.175,-22.402c1.402,-6.705 2.722,-13.043 -1.087,-17.7c-4.568,-5.58 -13.231,-5.003 -22.395,-4.388c-9.908,0.66 -20.16,1.35 -25.98,-6.09c-5.836,-7.462 -5.063,-21.277 1.559,-27.892c3.788,-3.773 7.921,-3.653 13.156,-3.503c4.987,0.143 11.175,0.323 19.807,-2.685c3.495,-1.222 6.06,-2.505 8.333,-3.63c4.057,-2.025 7.259,-3.622 12.614,-3.21c4.133,0.315 10.433,1.965 17.003,7.98c5.677,5.198 7.028,10.17 8.34,14.978c1.012,3.697 1.965,7.192 4.815,11.002c4.912,6.57 10.725,7.748 16.868,9c5.729,1.163 11.654,2.37 16.11,8.325c5.227,7.005 3.982,14.46 2.099,25.74c-1.095,6.578 -2.459,14.76 -2.895,25.088c-0.555,13.357 0.593,26.88 3.406,40.177c0.105,0.495 -0.023,1.005 -0.345,1.395c-0.315,0.383 -0.78,0.6 -1.276,0.6Z" style="fill-rule:nonzero;"/><path d="M999.481,550.738c-0.352,-0 -0.712,-0.113 -1.012,-0.353c-9.203,-7.117 -12.36,-18.832 -17.122,-36.562c-3.578,-13.29 -8.026,-29.835 -16.621,-50.085c-19.147,-45.098 -71.452,-39.953 -71.977,-39.9c-0.922,0.097 -1.725,-0.555 -1.823,-1.463c-0.097,-0.915 0.555,-1.725 1.463,-1.83c0.555,-0.06 55.267,-5.49 75.383,41.903c8.684,20.46 13.169,37.125 16.77,50.512c4.597,17.085 7.627,28.373 15.952,34.808c0.728,0.562 0.855,1.597 0.3,2.325c-0.33,0.42 -0.818,0.645 -1.313,0.645Z" style="fill-rule:nonzero;"/><path d="M1011.74,567.583l-33.968,0.255l-3.878,-10.455c-1.365,-3.668 3.151,-7.305 10.905,-8.61c10.448,-1.755 20.595,-1.403 30.45,0.99c4.62,1.117 7.29,3.375 6.976,5.73l-1.103,4.41c-1.125,4.5 -4.972,7.642 -9.382,7.68Z" style="fill:#fff;fill-rule:nonzero;"/><path d="M740.409,553.31c-16.785,-5.835 -21.345,-11.842 -22.47,-16.17c-2.018,-7.717 6.375,-11.91 3.923,-20.025c-2.52,-8.347 -12.691,-8.16 -17.678,-17.122c-5.91,-10.598 -2.212,-29.745 9.788,-32.28c10.267,-2.16 23.932,8.385 26.399,18.36c2.745,11.07 -9.404,17.04 -5.557,26.085c3.533,8.317 15.638,7.56 19.005,15.142c1.927,4.35 1.223,11.978 -13.41,26.01Z" style="fill:#fff;fill-rule:nonzero;"/><path d="M716.829,469.078c-0.855,-0 -1.695,0.082 -2.513,0.255c-4.86,1.027 -7.59,4.995 -9.022,8.145c-3.068,6.735 -2.925,15.862 0.33,21.712c2.205,3.945 5.565,5.985 8.82,7.958c3.697,2.242 7.515,4.56 9.008,9.487c1.447,4.8 -0.398,8.43 -2.033,11.625c-1.447,2.85 -2.7,5.31 -1.883,8.46c1.41,5.393 8.288,10.335 20.46,14.693c7.395,-7.23 15.21,-16.913 12.308,-23.438c-1.387,-3.127 -4.755,-4.68 -8.317,-6.33c-4.05,-1.867 -8.633,-3.982 -10.703,-8.842c-2.235,-5.265 0.142,-9.563 2.438,-13.725c2.189,-3.96 4.259,-7.703 3.044,-12.608c-2.009,-8.1 -12.817,-17.392 -21.937,-17.392Zm23.58,85.89c-0.18,-0 -0.367,-0.03 -0.547,-0.09c-14.07,-4.898 -21.765,-10.56 -23.528,-17.325c-1.14,-4.365 0.6,-7.785 2.138,-10.793c1.544,-3.03 2.872,-5.64 1.807,-9.165c-1.125,-3.712 -4.103,-5.52 -7.553,-7.612c-3.457,-2.1 -7.364,-4.478 -9.989,-9.18c-3.796,-6.803 -3.983,-16.958 -0.458,-24.698c2.475,-5.43 6.502,-8.985 11.348,-10.012c11.505,-2.423 25.724,8.97 28.349,19.582c1.531,6.165 -1.065,10.86 -3.352,15.008c-2.175,3.937 -3.893,7.042 -2.288,10.822c1.561,3.683 5.19,5.363 9.038,7.133c3.968,1.837 8.063,3.727 9.96,7.987c3.067,6.923 -1.433,16.043 -13.777,27.885c-0.316,0.3 -0.728,0.458 -1.148,0.458Z" style="fill-rule:nonzero;"/><path d="M746.132,541.82c-0.098,-15.007 4.199,-24.142 8.144,-29.715c7.2,-10.17 15.173,-11.212 17.918,-21.037c2.595,-9.278 -3.472,-12.083 -1.44,-22.53c2.422,-12.443 11.97,-13.298 14.43,-23.543c2.992,-12.465 -9.33,-18.772 -15.517,-36.277c-8.003,-22.643 5.265,-32.888 2.234,-54.038c-4.927,-34.32 -48.292,-65.955 -66.839,-57.33c-17.491,8.13 -18.758,54.773 -4.628,88.658c15.068,36.127 38.4,35.602 41.797,65.797c2.34,20.865 -7.455,33.09 -2.415,65.16c1.703,10.853 4.403,19.485 6.316,24.855Z" style="fill:#fff;fill-rule:nonzero;"/><path d="M712.209,297.575c-2.43,0 -4.605,0.42 -6.45,1.275c-15.923,7.403 -17.91,52.688 -3.795,86.52c6.953,16.68 15.712,25.41 23.437,33.113c8.911,8.887 16.613,16.56 18.473,33.135c1.027,9.165 -0.233,16.732 -1.56,24.742c-1.733,10.44 -3.705,22.275 -0.862,40.343c0.847,5.415 2.032,10.792 3.532,16.08c1.05,-8.4 3.705,-15.653 7.942,-21.638c3.195,-4.515 6.526,-7.282 9.458,-9.735c3.787,-3.157 6.78,-5.647 8.22,-10.785c1.177,-4.222 0.383,-6.907 -0.54,-10.005c-0.945,-3.202 -2.025,-6.832 -0.937,-12.397c1.38,-7.11 5.009,-10.778 8.22,-14.018c2.774,-2.82 5.182,-5.25 6.224,-9.6c1.59,-6.6 -1.582,-11.287 -5.977,-17.775c-3.217,-4.747 -6.863,-10.132 -9.488,-17.557c-4.657,-13.193 -2.317,-22.5 -0.06,-31.508c1.726,-6.832 3.496,-13.897 2.213,-22.852c-3.233,-22.538 -22.785,-42.6 -39.592,-51.705c-6.848,-3.713 -13.246,-5.633 -18.458,-5.633Zm33.923,245.903c-0.691,-0 -1.32,-0.428 -1.561,-1.103c-2.902,-8.16 -5.047,-16.62 -6.389,-25.155c-2.925,-18.6 -0.916,-30.72 0.862,-41.407c1.298,-7.778 2.513,-15.12 1.537,-23.828c-1.732,-15.42 -8.699,-22.365 -17.519,-31.155c-7.943,-7.92 -16.95,-16.897 -24.158,-34.185c-13.59,-32.587 -13.748,-81.87 5.46,-90.795c6.832,-3.172 16.733,-1.597 27.885,4.448c17.505,9.487 37.898,30.48 41.287,54.15c1.381,9.592 -0.479,16.98 -2.272,24.127c-2.242,8.918 -4.365,17.348 -0.03,29.588c2.483,7.035 6,12.225 9.105,16.807c4.492,6.645 8.385,12.383 6.457,20.415c-1.26,5.243 -4.23,8.243 -7.094,11.145c-3.158,3.188 -6.136,6.203 -7.328,12.323c-0.922,4.77 -0.053,7.71 0.87,10.822c0.975,3.293 1.987,6.698 0.548,11.843c-1.718,6.127 -5.393,9.195 -9.285,12.442c-2.783,2.318 -5.933,4.943 -8.88,9.098c-5.273,7.455 -7.913,17.13 -7.838,28.755c-0,0.81 -0.578,1.5 -1.372,1.642c-0.098,0.015 -0.195,0.023 -0.285,0.023Z" style="fill-rule:nonzero;"/><path d="M750.729,556.265c-0.63,0 -1.23,-0.36 -1.507,-0.967c-9.083,-19.823 -5.408,-41.453 -0.766,-68.843c2.43,-14.332 5.191,-30.585 6.255,-48.457c2.963,-49.725 -38.625,-109.943 -39.044,-110.543c-0.518,-0.75 -0.338,-1.785 0.412,-2.302c0.757,-0.525 1.785,-0.345 2.31,0.405c0.427,0.615 42.653,61.777 39.622,112.635c-1.072,18.052 -3.847,34.395 -6.292,48.817c-4.545,26.828 -8.145,48.015 0.51,66.908c0.383,0.832 0.015,1.815 -0.818,2.197c-0.217,0.105 -0.457,0.15 -0.682,0.15Z" style="fill-rule:nonzero;"/><path d="M765.901,570.995l-33.967,0.255l-3.877,-10.455c-1.366,-3.66 3.149,-7.305 10.904,-8.602c10.448,-1.755 20.596,-1.403 30.45,0.982c4.62,1.118 7.298,3.375 6.975,5.73l-1.102,4.41c-1.125,4.5 -4.972,7.65 -9.383,7.68Z" style="fill:#fff;fill-rule:nonzero;"/><path d="M403.273,661.528c-8.989,-15.075 -7.873,-22.14 -5.309,-25.808c4.567,-6.532 14.78,-3.78 19.307,-10.867c4.655,-7.29 -3.783,-13.913 -0.645,-23.265c3.712,-11.055 22.128,-21.48 33.948,-15.218c10.11,5.355 12.77,21.533 6.758,29.88c-6.673,9.27 -21.375,5.22 -25.516,13.86c-3.809,7.95 6.667,15.473 3.313,22.815c-1.925,4.208 -8.639,8.873 -31.856,8.603Z" style="fill:#fff;fill-rule:nonzero;"/><path d="M404.224,659.878c16.889,0.135 27.063,-2.535 29.399,-7.643c1.319,-2.887 -0.077,-5.955 -1.694,-9.51c-1.825,-4.005 -3.894,-8.557 -1.606,-13.327c2.409,-5.025 7.743,-6.33 12.902,-7.583c4.81,-1.177 9.782,-2.392 12.763,-6.532c2.724,-3.78 3.584,-9.69 2.247,-15.413c-1.285,-5.49 -4.359,-9.877 -8.435,-12.037c-4.406,-2.333 -10.22,-2.265 -16.372,0.187c-7.252,2.895 -13.373,8.565 -15.231,14.1c-1.347,4.005 -0.262,7.56 0.786,11.003c1.231,4.035 2.503,8.205 -0.316,12.622c-2.664,4.17 -7.029,5.37 -10.882,6.428c-3.384,0.93 -6.582,1.807 -8.464,4.492c-3.128,4.478 -1.478,12.278 4.903,23.213Zm0.98,3.315c-0.641,-0 -1.291,-0 -1.951,-0.008c-0.576,-0.007 -1.107,-0.315 -1.402,-0.81c-7.603,-12.75 -9.318,-21.78 -5.244,-27.607c2.567,-3.668 6.499,-4.748 10.302,-5.79c3.594,-0.983 6.987,-1.92 8.966,-5.018c1.997,-3.127 1.09,-6.105 -0.059,-9.87c-1.145,-3.757 -2.444,-8.01 -0.76,-13.027c2.184,-6.503 8.914,-12.833 17.143,-16.118c7.072,-2.82 13.873,-2.835 19.151,-0.037c4.922,2.61 8.607,7.785 10.109,14.212c1.55,6.623 0.483,13.56 -2.784,18.098c-3.694,5.137 -9.523,6.555 -14.664,7.815c-4.813,1.17 -8.971,2.182 -10.701,5.797c-1.62,3.375 -0.039,6.848 1.633,10.523c1.79,3.93 3.64,7.995 1.693,12.262c-2.945,6.435 -13.235,9.578 -31.432,9.578Z" style="fill-rule:nonzero;"/><path d="M401.583,669.328c-0.191,-0 -0.384,-0.03 -0.574,-0.098c-0.858,-0.315 -1.297,-1.275 -0.979,-2.13c16.558,-44.872 38.286,-59.415 39.202,-60.015c0.766,-0.502 1.789,-0.285 2.289,0.48c0.5,0.765 0.285,1.793 -0.478,2.295c-0.216,0.143 -21.77,14.663 -37.907,58.388c-0.246,0.667 -0.879,1.08 -1.553,1.08Z" style="fill:#fff;fill-rule:nonzero;"/><path d="M389.329,656.323c-0.096,-14.078 4.202,-22.65 8.148,-27.878c7.198,-9.532 15.17,-10.515 17.917,-19.725c2.594,-8.707 -3.477,-11.34 -1.444,-21.142c2.421,-11.67 11.971,-12.473 14.431,-22.08c2.994,-11.693 -9.327,-17.61 -15.514,-34.028c-8.004,-21.24 5.265,-30.855 2.231,-50.685c-4.924,-32.197 -48.289,-61.867 -66.837,-53.775c-17.49,7.62 -18.762,51.375 -4.629,83.16c15.066,33.885 38.402,33.39 41.794,61.71c2.344,19.575 -7.454,31.043 -2.413,61.125c1.707,10.185 4.407,18.278 6.316,23.318Z" style="fill:#fff;fill-rule:nonzero;"/><path d="M355.46,427.303c-2.457,-0 -4.66,0.405 -6.537,1.222c-4.006,1.748 -7.217,5.67 -9.547,11.663c-6.659,17.137 -4.179,46.935 5.769,69.307c6.946,15.623 15.697,23.805 23.418,31.028c8.928,8.347 16.638,15.555 18.507,31.162c1.033,8.625 -0.227,15.735 -1.562,23.265c-1.733,9.78 -3.696,20.858 -0.862,37.778c0.851,5.077 2.035,10.125 3.539,15.09c1.052,-7.913 3.719,-14.745 7.969,-20.37c3.201,-4.238 6.531,-6.848 9.468,-9.143c3.777,-2.955 6.76,-5.287 8.184,-10.065c1.165,-3.907 0.379,-6.39 -0.532,-9.27c-0.956,-3.022 -2.039,-6.45 -0.945,-11.73c1.392,-6.705 5.035,-10.162 8.25,-13.215c2.771,-2.632 5.164,-4.897 6.198,-8.94c1.564,-6.112 -1.59,-10.477 -5.957,-16.53c-3.219,-4.455 -6.869,-9.51 -9.502,-16.5c-4.683,-12.427 -2.335,-21.187 -0.065,-29.662c1.714,-6.398 3.486,-13.005 2.209,-21.36c-3.061,-20.003 -21.56,-38.543 -37.453,-47.303c-7.668,-4.23 -14.807,-6.427 -20.549,-6.427Zm33.868,230.677c-0.677,0 -1.301,-0.42 -1.547,-1.072c-2.905,-7.665 -5.059,-15.623 -6.401,-23.633c-2.93,-17.482 -0.912,-28.86 0.867,-38.902c1.346,-7.598 2.509,-14.16 1.535,-22.29c-1.726,-14.408 -8.679,-20.91 -17.482,-29.145c-7.95,-7.433 -16.962,-15.863 -24.181,-32.1c-10.436,-23.468 -12.888,-53.685 -5.83,-71.85c2.661,-6.848 6.466,-11.385 11.309,-13.5c7.214,-3.143 18.153,-1.2 30.009,5.34c17.137,9.45 35.881,28.485 39.128,49.702c1.382,9.045 -0.48,15.998 -2.281,22.718c-2.234,8.332 -4.344,16.207 -0.038,27.637c2.479,6.578 5.992,11.445 9.09,15.735c4.523,6.263 8.429,11.678 6.479,19.29c-1.271,4.965 -4.248,7.785 -7.125,10.515c-3.141,2.985 -6.107,5.798 -7.289,11.49c-0.918,4.425 -0.054,7.163 0.861,10.058c0.985,3.112 2.004,6.337 0.548,11.22c-1.726,5.782 -5.413,8.67 -9.317,11.722c-2.778,2.175 -5.926,4.635 -8.864,8.528c-5.259,6.967 -7.888,16.005 -7.814,26.872c0.006,0.795 -0.564,1.493 -1.353,1.635c-0.102,0.023 -0.203,0.03 -0.304,0.03Z" style="fill-rule:nonzero;"/><path d="M393.925,669.973c-0.615,-0 -1.203,-0.338 -1.49,-0.93c-9.104,-18.645 -5.43,-38.97 -0.778,-64.695c2.43,-13.44 5.185,-28.673 6.25,-45.428c2.958,-46.567 -38.59,-103.012 -39.01,-103.575c-0.546,-0.735 -0.393,-1.77 0.341,-2.317c0.734,-0.548 1.771,-0.39 2.316,0.345c1.745,2.34 42.693,57.982 39.658,105.757c-1.076,16.95 -3.849,32.28 -6.296,45.81c-4.544,25.133 -8.132,44.978 0.494,62.648c0.402,0.825 0.061,1.815 -0.76,2.22c-0.235,0.112 -0.482,0.165 -0.725,0.165Z" style="fill-rule:nonzero;"/><path d="M378.262,659.758c-2.019,-8.963 -4.14,-22.155 -3.434,-38.07c1.151,-25.95 8.833,-36.99 1.115,-46.688c-8.507,-10.687 -22.829,-3.532 -32.971,-16.245c-6.914,-8.67 -3.449,-15.997 -12.946,-24.157c-1.81,-1.553 -7.701,-6.48 -16.014,-7.08c-7.712,-0.563 -10.438,3.112 -20.277,6.33c-17.829,5.835 -25.778,-0.698 -32.333,5.437c-5.803,5.438 -6.961,17.468 -1.426,24.105c10.427,12.503 38,-2.055 48.347,9.803c8.837,10.125 -6.394,26.34 3.276,37.627c8.712,10.17 26.155,2.94 33.304,13.583c5.465,8.137 -2.188,16.155 2.878,24.637c5.284,8.85 19.827,10.545 30.481,10.718Z" style="fill:#fff;fill-rule:nonzero;"/><path d="M292.849,566.503c6.623,-0 12.736,1.035 16.722,5.602c4.866,5.573 3.307,12.578 1.8,19.35c-1.504,6.758 -2.925,13.14 1.485,18.285c3.862,4.508 9.684,5.235 15.847,6.008c6.645,0.825 13.517,1.687 17.574,7.732c3.126,4.65 2.466,9.158 1.829,13.515c-0.566,3.863 -1.1,7.515 1.097,11.198c3.603,6.03 12.679,9.345 26.992,9.855c-2.543,-12.075 -3.558,-24.323 -3.021,-36.435c0.438,-9.9 1.824,-17.685 2.937,-23.94c1.794,-10.095 2.878,-16.185 -1.463,-21.638c-3.688,-4.635 -8.522,-5.557 -14.121,-6.622c-6.176,-1.178 -13.176,-2.513 -18.85,-9.623c-3.246,-4.072 -4.331,-7.807 -5.381,-11.422c-1.235,-4.245 -2.403,-8.265 -7.348,-12.51c-5.881,-5.055 -11.433,-6.428 -15.055,-6.69c-4.47,-0.323 -7.038,0.877 -10.931,2.7c-2.353,1.102 -5.022,2.347 -8.711,3.555c-9.189,3.007 -15.992,2.82 -20.958,2.685c-4.806,-0.128 -7.979,-0.218 -10.759,2.385c-5.423,5.077 -6.072,16.102 -1.285,21.84c4.741,5.685 13.702,5.122 23.188,4.53c2.814,-0.18 5.658,-0.36 8.412,-0.36Zm85.414,94.912l-0.028,0c-16.749,-0.277 -27.473,-4.155 -31.875,-11.527c-2.802,-4.688 -2.127,-9.3 -1.531,-13.373c0.596,-4.08 1.112,-7.597 -1.301,-11.19c-3.217,-4.792 -9.054,-5.52 -15.234,-6.292c-6.519,-0.818 -13.258,-1.658 -17.953,-7.14c-5.487,-6.398 -3.743,-14.243 -2.203,-21.158c1.389,-6.24 2.702,-12.142 -1.062,-16.455c-4.573,-5.235 -13.248,-4.695 -22.432,-4.117c-9.894,0.622 -20.123,1.267 -25.939,-5.708c-5.887,-7.065 -5.112,-20.13 1.564,-26.377c3.775,-3.533 7.899,-3.42 13.114,-3.278c4.991,0.135 11.195,0.3 19.837,-2.527c3.5,-1.14 6.07,-2.348 8.338,-3.405c4.05,-1.898 7.252,-3.39 12.574,-3.008c4.12,0.3 10.409,1.845 16.973,7.485c5.694,4.89 7.055,9.57 8.371,14.1c1.005,3.458 1.953,6.72 4.791,10.275c4.908,6.158 10.724,7.26 16.88,8.438c5.722,1.087 11.64,2.22 16.092,7.807c5.272,6.63 4.024,13.65 2.133,24.285c-1.096,6.165 -2.46,13.83 -2.889,23.505c-0.555,12.518 0.586,25.178 3.395,37.635c0.111,0.495 -0.011,1.02 -0.331,1.41c-0.315,0.39 -0.786,0.615 -1.284,0.615Z" style="fill-rule:nonzero;"/><path d="M384.894,669.59c-0.337,0 -0.676,-0.105 -0.97,-0.315c-9.229,-6.697 -12.384,-17.7 -17.161,-34.357c-3.573,-12.465 -8.02,-27.975 -16.612,-46.958c-19.133,-42.277 -71.473,-37.447 -71.997,-37.402c-0.904,0.112 -1.723,-0.563 -1.817,-1.478c-0.093,-0.907 0.569,-1.717 1.478,-1.815c0.549,-0.06 55.226,-5.145 75.354,39.33c8.691,19.2 13.175,34.845 16.778,47.408c4.587,15.997 7.617,26.565 15.921,32.587c0.741,0.54 0.905,1.575 0.369,2.31c-0.325,0.45 -0.83,0.69 -1.343,0.69Z" style="fill-rule:nonzero;"/><path d="M409.097,683.69l-33.963,0.233l-3.881,-9.803c-1.361,-3.435 3.149,-6.855 10.906,-8.077c10.447,-1.643 20.595,-1.313 30.45,0.93c4.622,1.05 7.294,3.165 6.973,5.37l-1.102,4.14c-1.124,4.222 -4.969,7.17 -9.383,7.207Z" style="fill:#fff;fill-rule:nonzero;"/><path d="M673.007,663.463c-8.985,-16.073 -7.868,-23.61 -5.311,-27.518c4.568,-6.96 14.783,-4.02 19.313,-11.58c4.65,-7.777 -3.787,-14.835 -0.645,-24.802c3.713,-11.79 22.125,-22.905 33.945,-16.223c10.11,5.708 12.772,22.95 6.757,31.853c-6.675,9.885 -21.375,5.565 -25.515,14.775c-3.81,8.475 6.668,16.5 3.315,24.322c-1.927,4.485 -8.64,9.458 -31.859,9.173Z" style="fill:#fff;fill-rule:nonzero;"/><path d="M673.989,661.813c16.823,0.12 27.015,-2.715 29.355,-8.175c1.35,-3.158 -0.127,-6.63 -1.695,-10.298c-1.807,-4.237 -3.863,-9.045 -1.605,-14.047c2.393,-5.333 7.732,-6.72 12.893,-8.063c4.8,-1.245 9.772,-2.535 12.757,-6.967c2.828,-4.185 3.66,-10.688 2.183,-16.973c-1.343,-5.7 -4.403,-10.26 -8.378,-12.51c-4.2,-2.37 -9.735,-2.4 -15.6,-0.09c-7.47,2.955 -14.04,9.27 -15.96,15.368c-1.365,4.335 -0.27,8.16 0.787,11.857c1.215,4.26 2.476,8.663 -0.3,13.298c-2.654,4.432 -7.027,5.715 -10.875,6.84c-3.382,0.99 -6.577,1.92 -8.467,4.8c-3.173,4.83 -1.515,13.23 4.905,24.96Zm0.96,3.315c-0.645,-0 -1.298,-0.008 -1.965,-0.015c-0.593,-0.008 -1.133,-0.33 -1.418,-0.848c-7.567,-13.522 -9.285,-23.077 -5.25,-29.227c2.558,-3.9 6.496,-5.048 10.298,-6.165c3.592,-1.05 6.983,-2.04 8.97,-5.363c2.04,-3.405 1.125,-6.615 -0.045,-10.687c-1.133,-3.968 -2.423,-8.475 -0.758,-13.755c2.235,-7.095 9.428,-14.115 17.903,-17.453c6.818,-2.692 13.365,-2.587 18.443,0.278c4.784,2.707 8.415,8.04 9.974,14.632c1.68,7.163 0.668,14.67 -2.662,19.598c-3.69,5.46 -9.518,6.975 -14.67,8.317c-4.808,1.253 -8.962,2.333 -10.71,6.21c-1.65,3.683 -0.052,7.425 1.635,11.385c1.77,4.155 3.607,8.445 1.695,12.908c-2.94,6.847 -13.23,10.185 -31.44,10.185Z" style="fill-rule:nonzero;"/><path d="M671.319,671.668c-0.18,-0 -0.36,-0.03 -0.54,-0.09c-0.87,-0.3 -1.327,-1.238 -1.027,-2.108c16.544,-47.797 38.257,-63.292 39.172,-63.93c0.75,-0.525 1.785,-0.337 2.302,0.413c0.526,0.75 0.338,1.777 -0.405,2.302c-0.217,0.15 -21.787,15.645 -37.935,62.303c-0.239,0.682 -0.884,1.11 -1.567,1.11Z" style="fill-rule:nonzero;"/><path d="M659.064,657.913c-0.097,-15.008 4.2,-24.15 8.145,-29.723c7.2,-10.162 15.173,-11.212 17.918,-21.03c2.595,-9.277 -3.473,-12.09 -1.44,-22.537c2.422,-12.435 11.969,-13.298 14.429,-23.535c2.993,-12.473 -9.33,-18.78 -15.517,-36.278c-8.002,-22.65 5.265,-32.895 2.235,-54.037c-4.928,-34.328 -48.292,-65.955 -66.84,-57.338c-17.49,8.13 -18.757,54.78 -4.628,88.665c15.068,36.12 38.4,35.595 41.798,65.79c2.34,20.865 -7.455,33.098 -2.415,65.16c1.71,10.86 4.402,19.485 6.315,24.863Z" style="fill:#fff;fill-rule:nonzero;"/><path d="M625.149,413.66c-2.438,0 -4.613,0.428 -6.458,1.283c-15.922,7.402 -17.91,52.68 -3.794,86.52c6.952,16.672 15.712,25.41 23.437,33.112c8.918,8.88 16.612,16.553 18.473,33.128c1.027,9.165 -0.226,16.732 -1.561,24.742c-1.732,10.44 -3.704,22.275 -0.862,40.35c0.847,5.408 2.033,10.785 3.533,16.08c1.05,-8.407 3.712,-15.66 7.942,-21.637c3.195,-4.515 6.525,-7.29 9.457,-9.735c3.788,-3.158 6.781,-5.655 8.22,-10.793c1.178,-4.222 0.383,-6.9 -0.532,-10.005c-0.953,-3.202 -2.025,-6.825 -0.945,-12.397c1.38,-7.103 5.018,-10.778 8.22,-14.018c2.783,-2.812 5.182,-5.242 6.225,-9.592c1.59,-6.608 -1.583,-11.295 -5.978,-17.775c-3.217,-4.748 -6.862,-10.133 -9.487,-17.565c-4.657,-13.185 -2.317,-22.493 -0.052,-31.5c1.717,-6.833 3.494,-13.905 2.204,-22.853c-3.232,-22.537 -22.785,-42.6 -39.585,-51.705c-6.854,-3.712 -13.252,-5.64 -18.457,-5.64Zm33.915,245.91c-0.69,0 -1.32,-0.435 -1.56,-1.102c-2.903,-8.168 -5.048,-16.628 -6.39,-25.163c-2.925,-18.6 -0.915,-30.712 0.862,-41.4c1.298,-7.777 2.52,-15.127 1.538,-23.827c-1.733,-15.42 -8.7,-22.365 -17.52,-31.163c-7.943,-7.92 -16.943,-16.897 -24.158,-34.177c-13.59,-32.588 -13.747,-81.87 5.46,-90.803c6.825,-3.172 16.733,-1.59 27.886,4.455c17.505,9.48 37.897,30.473 41.287,54.143c1.38,9.6 -0.48,16.987 -2.273,24.135c-2.242,8.917 -4.357,17.34 -0.029,29.587c2.482,7.028 6,12.225 9.105,16.808c4.5,6.645 8.384,12.382 6.457,20.407c-1.26,5.25 -4.23,8.25 -7.095,11.153c-3.158,3.187 -6.135,6.195 -7.32,12.322c-0.93,4.77 -0.06,7.71 0.862,10.815c0.975,3.293 1.988,6.698 0.548,11.843c-1.717,6.127 -5.393,9.195 -9.285,12.442c-2.783,2.318 -5.932,4.943 -8.873,9.105c-5.28,7.455 -7.919,17.13 -7.844,28.755c-0,0.803 -0.578,1.5 -1.373,1.635c-0.097,0.023 -0.188,0.03 -0.285,0.03Z" style="fill-rule:nonzero;"/><path d="M663.661,672.358c-0.63,-0 -1.229,-0.36 -1.507,-0.968c-9.083,-19.822 -5.408,-41.46 -0.765,-68.85c2.43,-14.332 5.19,-30.577 6.255,-48.457c2.962,-49.718 -38.618,-109.935 -39.045,-110.535c-0.518,-0.758 -0.338,-1.785 0.412,-2.31c0.75,-0.525 1.785,-0.338 2.31,0.412c0.428,0.608 42.66,61.778 39.631,112.635c-1.081,18.053 -3.848,34.395 -6.301,48.81c-4.545,26.828 -8.137,48.023 0.51,66.915c0.383,0.833 0.015,1.815 -0.817,2.198c-0.217,0.097 -0.458,0.15 -0.683,0.15Z" style="fill-rule:nonzero;"/><path d="M647.994,661.573c-2.018,-9.548 -4.14,-23.618 -3.428,-40.59c1.148,-27.66 8.828,-39.428 1.11,-49.77c-8.505,-11.393 -22.829,-3.765 -32.97,-17.318c-6.914,-9.24 -3.449,-17.055 -12.945,-25.755c-1.807,-1.657 -7.702,-6.907 -16.012,-7.552c-7.718,-0.593 -10.44,3.322 -20.28,6.757c-17.828,6.218 -25.778,-0.75 -32.333,5.798c-5.805,5.79 -6.96,18.622 -1.425,25.695c10.425,13.327 38.003,-2.19 48.346,10.447c8.842,10.8 -6.39,28.08 3.277,40.118c8.715,10.837 26.153,3.127 33.307,14.475c5.46,8.677 -2.189,17.227 2.873,26.272c5.287,9.428 19.83,11.235 30.48,11.423Z" style="fill:#fff;fill-rule:nonzero;"/><path d="M562.599,562.265c6.63,0 12.75,1.103 16.74,5.97c4.815,5.888 3.27,13.305 1.77,20.483c-1.515,7.245 -2.94,14.1 1.515,19.642c3.863,4.808 9.675,5.588 15.825,6.405c6.66,0.885 13.538,1.8 17.587,8.235c3.091,4.905 2.438,9.668 1.808,14.28c-0.57,4.155 -1.11,8.078 1.117,12.06c3.608,6.443 12.69,9.975 26.993,10.523c-2.557,-12.908 -3.585,-26.003 -3.045,-38.948c0.435,-10.537 1.822,-18.832 2.933,-25.5c1.807,-10.807 2.895,-17.34 -1.493,-23.212c-3.69,-4.943 -8.52,-5.925 -14.108,-7.058c-6.179,-1.26 -13.192,-2.685 -18.862,-10.26c-3.225,-4.312 -4.313,-8.28 -5.355,-12.12c-1.245,-4.552 -2.415,-8.85 -7.38,-13.402c-4.718,-4.32 -9.773,-6.713 -15.023,-7.125c-4.439,-0.338 -7.005,0.937 -10.89,2.872c-2.354,1.178 -5.025,2.505 -8.715,3.795c-9.202,3.21 -16.02,3.015 -20.992,2.873c-4.958,-0.143 -7.943,-0.233 -10.717,2.535c-5.476,5.46 -6.128,17.325 -1.291,23.505c4.741,6.06 13.688,5.46 23.153,4.83c2.82,-0.195 5.67,-0.383 8.43,-0.383Zm85.395,100.965l-0.022,0c-16.77,-0.292 -27.503,-4.425 -31.898,-12.277c-2.775,-4.943 -2.13,-9.608 -1.515,-14.13c0.577,-4.2 1.125,-8.175 -1.32,-12.06c-3.225,-5.115 -9.052,-5.895 -15.225,-6.713c-6.525,-0.87 -13.275,-1.77 -17.97,-7.612c-5.438,-6.765 -3.705,-15.075 -2.175,-22.403c1.403,-6.705 2.723,-13.042 -1.095,-17.7c-4.568,-5.58 -13.223,-5.002 -22.388,-4.387c-9.907,0.667 -20.16,1.35 -25.98,-6.09c-5.835,-7.463 -5.062,-21.278 1.561,-27.893c3.779,-3.772 7.919,-3.652 13.154,-3.502c4.98,0.142 11.175,0.33 19.8,-2.685c3.503,-1.223 6.068,-2.498 8.333,-3.63c4.065,-2.025 7.275,-3.623 12.623,-3.21c4.132,0.322 10.432,1.965 17.002,7.987c5.678,5.19 7.027,10.163 8.34,14.97c1.012,3.698 1.965,7.193 4.815,11.01c4.912,6.563 10.718,7.74 16.867,8.993c5.731,1.162 11.656,2.37 16.103,8.325c5.235,7.005 3.99,14.46 2.108,25.74c-1.096,6.577 -2.461,14.76 -2.895,25.087c-0.556,13.365 0.592,26.88 3.404,40.178c0.098,0.495 -0.022,1.012 -0.345,1.395c-0.315,0.382 -0.787,0.607 -1.282,0.607Z" style="fill-rule:nonzero;"/><path d="M654.632,671.945c-0.353,0 -0.713,-0.112 -1.013,-0.345c-9.21,-7.117 -12.36,-18.832 -17.13,-36.57c-3.57,-13.29 -8.017,-29.827 -16.62,-50.085c-19.14,-45.097 -71.445,-39.952 -71.97,-39.892c-0.923,0.09 -1.725,-0.563 -1.822,-1.47c-0.105,-0.908 0.555,-1.725 1.462,-1.823c0.547,-0.067 55.268,-5.497 75.382,41.895c8.685,20.46 13.171,37.125 16.77,50.52c4.59,17.078 7.628,28.365 15.953,34.8c0.727,0.563 0.855,1.605 0.3,2.325c-0.33,0.428 -0.817,0.645 -1.312,0.645Z" style="fill-rule:nonzero;"/><path d="M678.834,687.088l-33.968,0.247l-3.877,-10.447c-1.365,-3.668 3.15,-7.305 10.905,-8.61c10.448,-1.755 20.595,-1.403 30.45,0.982c4.62,1.125 7.297,3.383 6.975,5.73l-1.102,4.418c-1.125,4.5 -4.973,7.642 -9.383,7.68Z" style="fill:#fff;fill-rule:nonzero;"/><path d="M887.034,661.753c-8.355,-16.073 -7.32,-23.603 -4.935,-27.51c4.245,-6.96 13.74,-4.028 17.947,-11.588c4.32,-7.77 -3.517,-14.835 -0.6,-24.802c3.451,-11.783 20.565,-22.898 31.545,-16.223c9.398,5.708 11.873,22.95 6.285,31.853c-6.202,9.885 -19.867,5.572 -23.714,14.782c-3.54,8.468 6.195,16.493 3.082,24.315c-1.793,4.493 -8.032,9.465 -29.61,9.173Z" style="fill:#fff;fill-rule:nonzero;"/><path d="M888.046,660.103c15.555,0.09 24.893,-2.715 27.053,-8.138c1.275,-3.195 -0.105,-6.682 -1.568,-10.372c-1.68,-4.223 -3.577,-9 -1.5,-13.973c2.235,-5.34 7.223,-6.735 12.053,-8.085c4.642,-1.297 9.03,-2.527 11.79,-6.93c2.677,-4.267 3.435,-11.137 1.927,-17.505c-1.297,-5.49 -4.095,-9.885 -7.665,-12.052c-3.652,-2.22 -8.475,-2.355 -13.59,-0.368c-7.26,2.813 -13.642,9.248 -15.51,15.638c-1.282,4.372 -0.262,8.205 0.728,11.917c1.125,4.238 2.287,8.618 -0.277,13.223c-2.476,4.455 -6.563,5.745 -10.171,6.877c-3.247,1.02 -6.059,1.905 -7.8,4.77c-2.962,4.853 -1.432,13.26 4.53,24.998Zm0.796,3.315c-0.601,-0 -1.208,-0 -1.831,-0.008c-0.607,-0.007 -1.162,-0.352 -1.447,-0.892c-7.013,-13.493 -8.61,-23.025 -4.882,-29.138c2.392,-3.922 6.247,-5.137 9.645,-6.202c3.449,-1.088 6.434,-2.025 8.265,-5.325c1.919,-3.443 1.012,-6.833 -0.03,-10.763c-1.051,-3.96 -2.243,-8.445 -0.706,-13.702c2.138,-7.313 9.331,-14.633 17.491,-17.798c6.097,-2.362 11.954,-2.145 16.507,0.623c4.395,2.67 7.65,7.687 9.172,14.122c1.726,7.298 0.825,14.97 -2.347,20.033c-3.442,5.482 -8.895,7.012 -13.703,8.355c-4.44,1.245 -8.272,2.317 -9.884,6.18c-1.561,3.72 -0.068,7.485 1.514,11.467c1.643,4.133 3.338,8.4 1.576,12.825c-2.738,6.878 -12.346,10.223 -29.34,10.223Z" style="fill-rule:nonzero;"/><path d="M885.467,669.965c-0.173,0 -0.346,-0.03 -0.511,-0.082c-0.87,-0.278 -1.35,-1.215 -1.072,-2.085c15.375,-47.79 35.565,-63.293 36.42,-63.93c0.727,-0.548 1.762,-0.398 2.31,0.33c0.555,0.735 0.405,1.77 -0.322,2.317c-0.203,0.15 -20.243,15.645 -35.25,62.303c-0.226,0.697 -0.878,1.147 -1.575,1.147Z" style="fill-rule:nonzero;"/><path d="M874.074,656.203c-0.09,-15.008 3.907,-24.15 7.575,-29.723c6.69,-10.162 14.1,-11.205 16.65,-21.03c2.407,-9.277 -3.233,-12.082 -1.343,-22.53c2.25,-12.442 11.123,-13.297 13.41,-23.542c2.783,-12.465 -8.662,-18.773 -14.414,-36.278c-7.441,-22.642 4.89,-32.895 2.07,-54.037c-4.576,-34.32 -44.881,-65.955 -62.116,-57.33c-16.252,8.13 -17.437,54.772 -4.305,88.657c14.003,36.12 35.693,35.603 38.843,65.798c2.183,20.857 -6.922,33.09 -2.242,65.16c1.59,10.852 4.094,19.485 5.872,24.855Z" style="fill:#fff;fill-rule:nonzero;"/><path d="M842.581,411.943c-2.234,-0 -4.237,0.42 -5.932,1.267c-14.798,7.403 -16.627,52.718 -3.502,86.58c6.465,16.688 14.61,25.418 21.787,33.12c8.28,8.88 15.435,16.553 17.16,33.105c0.952,9.143 -0.21,16.703 -1.447,24.705c-1.613,10.448 -3.451,22.29 -0.803,40.388c0.757,5.197 1.8,10.372 3.12,15.457c1.02,-8.13 3.465,-15.165 7.297,-20.992c2.97,-4.515 6.068,-7.29 8.798,-9.743c3.518,-3.15 6.3,-5.647 7.635,-10.792c1.11,-4.26 0.368,-6.953 -0.495,-10.073c-0.878,-3.187 -1.875,-6.802 -0.87,-12.345c1.283,-7.08 4.65,-10.755 7.627,-13.995c2.588,-2.812 4.823,-5.242 5.798,-9.607c1.485,-6.653 -1.47,-11.348 -5.565,-17.85c-2.985,-4.748 -6.375,-10.125 -8.812,-17.55c-4.32,-13.155 -2.153,-22.455 -0.053,-31.44c1.597,-6.848 3.255,-13.928 2.055,-22.898c-3.008,-22.56 -22.252,-44.077 -38.835,-52.86c-5.595,-2.97 -10.71,-4.477 -14.963,-4.477Zm31.493,245.917c-0.705,0 -1.343,-0.45 -1.575,-1.132c-2.692,-8.16 -4.687,-16.62 -5.933,-25.148c-2.715,-18.577 -0.847,-30.682 0.803,-41.362c1.208,-7.785 2.34,-15.143 1.432,-23.865c-1.612,-15.443 -8.092,-22.388 -16.29,-31.185c-7.387,-7.92 -15.757,-16.898 -22.454,-34.178c-12.886,-33.247 -13.058,-81.652 5.107,-90.742c5.91,-2.948 14.407,-1.8 23.933,3.247c17.745,9.398 37.379,31.433 40.567,55.35c1.275,9.57 -0.442,16.95 -2.115,24.09c-2.085,8.933 -4.058,17.37 -0.023,29.648c2.31,7.035 5.58,12.232 8.468,16.822c4.17,6.623 7.77,12.353 5.993,20.333c-1.171,5.235 -3.923,8.227 -6.593,11.13c-2.933,3.187 -5.7,6.202 -6.81,12.345c-0.862,4.8 -0.053,7.747 0.81,10.875c0.9,3.277 1.837,6.667 0.51,11.782c-1.59,6.113 -5.01,9.18 -8.632,12.428c-2.708,2.43 -5.506,4.942 -8.243,9.097c-4.913,7.463 -7.365,17.153 -7.298,28.8c0.008,0.818 -0.584,1.515 -1.387,1.643c-0.09,0.015 -0.18,0.022 -0.27,0.022Z" style="fill-rule:nonzero;"/><path d="M878.342,670.648c-0.638,-0 -1.253,-0.375 -1.523,-1.005c-8.422,-19.8 -5.018,-41.415 -0.705,-68.79c2.265,-14.34 4.823,-30.585 5.812,-48.465c2.753,-49.74 -35.902,-109.995 -36.292,-110.595c-0.495,-0.773 -0.278,-1.793 0.495,-2.295c0.765,-0.495 1.792,-0.278 2.288,0.487c0.397,0.615 39.637,61.763 36.817,112.583c-0.997,18.045 -3.57,34.387 -5.843,48.802c-4.237,26.85 -7.575,48.053 0.473,66.975c0.36,0.84 -0.03,1.815 -0.87,2.168c-0.21,0.09 -0.435,0.135 -0.652,0.135Z" style="fill-rule:nonzero;"/><path d="M863.926,659.863c-1.612,-9.548 -3.314,-23.618 -2.744,-40.583c0.922,-27.66 7.064,-39.435 0.892,-49.77c-6.81,-11.4 -18.27,-3.765 -26.392,-17.325c-5.535,-9.24 -2.761,-17.047 -10.358,-25.747c-1.447,-1.658 -6.165,-6.908 -12.817,-7.553c-6.173,-0.6 -8.356,3.315 -16.231,6.75c-14.272,6.218 -20.632,-0.75 -25.875,5.798c-4.649,5.79 -5.572,18.622 -1.14,25.702c8.34,13.328 30.413,-2.197 38.693,10.448c7.072,10.792 -5.123,28.08 2.617,40.11c6.975,10.845 20.94,3.135 26.655,14.482c4.38,8.678 -1.747,17.22 2.303,26.265c4.23,9.435 15.87,11.243 24.397,11.423Z" style="fill:#fff;fill-rule:nonzero;"/><path d="M795.647,560.555c5.415,0 10.417,1.125 13.687,6.12c3.81,5.813 2.587,13.155 1.395,20.265c-1.17,6.998 -2.378,14.235 1.238,19.86c3.029,4.703 7.582,5.46 12.404,6.263c5.175,0.862 11.048,1.837 14.333,8.362c2.445,4.838 1.928,9.548 1.425,14.1c-0.465,4.208 -0.9,8.19 0.915,12.24c2.82,6.293 9.855,9.78 20.925,10.373c-2.055,-12.9 -2.872,-25.98 -2.445,-38.918c0.353,-10.515 1.455,-18.795 2.347,-25.455c1.456,-10.89 2.333,-17.467 -1.222,-23.407c-2.903,-4.868 -6.69,-5.828 -11.078,-6.938c-5.025,-1.275 -10.724,-2.722 -15.307,-10.38c-2.573,-4.297 -3.435,-8.25 -4.268,-12.06c-0.997,-4.582 -1.942,-8.902 -5.917,-13.455c-3.72,-4.245 -7.665,-6.6 -11.73,-6.997c-3.368,-0.315 -5.25,0.855 -8.37,2.797c-1.898,1.185 -4.05,2.528 -7.042,3.825c-7.478,3.263 -13.013,3.06 -17.048,2.918c-3.93,-0.143 -6.097,-0.218 -8.198,2.4c-4.027,5.017 -5.287,16.98 -1.027,23.782c3.69,5.895 10.695,5.31 18.112,4.688c2.303,-0.188 4.621,-0.383 6.871,-0.383Zm68.279,100.965l-0.037,0c-13.605,-0.292 -22.312,-4.47 -25.867,-12.405c-2.183,-4.867 -1.68,-9.487 -1.186,-13.95c0.465,-4.26 0.908,-8.287 -1.087,-12.247c-2.535,-5.025 -6.885,-5.745 -11.918,-6.585c-5.077,-0.848 -10.829,-1.8 -14.647,-7.74c-4.313,-6.698 -2.993,-14.58 -1.717,-22.2c1.132,-6.773 2.197,-13.178 -0.901,-17.903c-3.547,-5.422 -10.327,-4.852 -17.512,-4.252c-7.703,0.645 -16.44,1.38 -21.203,-6.225c-4.62,-7.388 -3.997,-21.06 1.253,-27.615c3.15,-3.923 6.75,-3.788 10.905,-3.638c3.93,0.143 8.82,0.315 15.607,-2.64c2.768,-1.207 4.808,-2.482 6.608,-3.607c3.33,-2.07 5.97,-3.713 10.44,-3.278c3.398,0.33 8.565,2.003 13.905,8.115c4.537,5.19 5.618,10.14 6.66,14.918c0.817,3.72 1.583,7.237 3.877,11.07c3.885,6.48 8.445,7.642 13.283,8.872c4.673,1.185 9.495,2.408 13.102,8.445c4.148,6.938 3.158,14.34 1.665,25.545c-0.884,6.585 -1.98,14.783 -2.317,25.133c-0.45,13.387 0.465,26.925 2.723,40.26c0.082,0.48 -0.06,0.982 -0.383,1.357c-0.315,0.36 -0.773,0.57 -1.253,0.57Z" style="fill-rule:nonzero;"/><path d="M869.956,670.235c-0.375,0 -0.75,-0.12 -1.065,-0.382c-8.557,-7.125 -11.49,-18.833 -15.915,-36.555c-3.322,-13.298 -7.462,-29.843 -15.45,-50.093c-17.789,-45.097 -66.247,-39.922 -66.742,-39.862c-0.893,0.112 -1.733,-0.54 -1.838,-1.455c-0.104,-0.908 0.541,-1.733 1.448,-1.838c0.517,-0.06 51.495,-5.505 70.215,41.94c8.07,20.453 12.233,37.118 15.578,50.505c4.274,17.093 7.094,28.38 14.827,34.815c0.705,0.585 0.802,1.628 0.21,2.333c-0.323,0.39 -0.795,0.592 -1.268,0.592Z" style="fill-rule:nonzero;"/><path d="M892.449,685.378l-31.567,0.255l-3.608,-10.455c-1.267,-3.66 2.925,-7.305 10.132,-8.61c9.713,-1.748 19.148,-1.395 28.305,0.99c4.298,1.117 6.78,3.375 6.48,5.73l-1.027,4.41c-1.043,4.5 -4.613,7.65 -8.715,7.68Z" style="fill:#fff;fill-rule:nonzero;"/></svg>