<?xml version="1.0" encoding="UTF-8" standalone="no"?><!DOCTYPE svg PUBLIC "-//W3C//DTD SVG 1.1//EN" "http://www.w3.org/Graphics/SVG/1.1/DTD/svg11.dtd"><svg width="100%" height="100%" viewBox="0 0 19691 22085" version="1.1" xmlns="http://www.w3.org/2000/svg" xmlns:xlink="http://www.w3.org/1999/xlink" xml:space="preserve" xmlns:serif="http://www.serif.com/" style="fill-rule:evenodd;clip-rule:evenodd;stroke-linecap:round;stroke-linejoin:round;stroke-miterlimit:1.5;"><g id="bedwidth"><path d="M1600.61,1029.61l-234.375,117.188l234.375,117.187l0,-234.375Z" style="fill:#ba2d0b;"/><path d="M5561,1029.61l234.375,117.188l-234.375,117.187l0,-234.375Z" style="fill:#ba2d0b;"/><path d="M1553.74,1146.79l4054.13,-0" style="fill:none;stroke:#ba2d0b;stroke-width:39.06px;"/><g transform="matrix(937.5,0,0,937.5,4385.89,664.688)"></g><text x="2074.01px" y="664.688px" style="font-family:'Ubuntu', sans-serif;font-size:937.5px;fill:#ba2d0b;">1,2 m</text></g><g id="bedlength"><path d="M880.079,10510.5l117.188,234.375l117.187,-234.375l-234.375,-0Z" style="fill:#ba2d0b;"/><path d="M880.079,1751.84l117.188,-234.375l117.187,234.375l-234.375,0Z" style="fill:#ba2d0b;"/><path d="M997.267,10557.3c-0,-1188.63 -0,-7663.73 -0,-8852.36" style="fill:none;stroke:#ba2d0b;stroke-width:39.06px;"/><g transform="matrix(6.12323e-17,-1,1,6.12323e-17,-25675.6,8781.05)"><g transform="matrix(937.5,0,0,937.5,3831.14,26340.3)"></g><text x="1519.26px" y="26340.3px" style="font-family:'Ubuntu', sans-serif;font-size:937.5px;fill:#ba2d0b;">2,5 m</text></g></g><g id="Weg"><path d="M12984.8,13505.9l781.127,-672.975l770.421,356.47l410.946,391.911l-308.038,444.743l-621.309,191.895l-412.325,-232.67l-484.294,-83.37l-136.528,-396.004Z" style="fill:#aaa193;"/><path d="M12969.8,20098.7l330.554,-976.621l844.659,-84.675l553.115,128.586l-39.178,539.582l-437.487,481.096l-473.352,9.244l-459.429,174.401l-318.882,-271.613Z" style="fill:#aaa193;"/><path d="M14947.2,14823.2l-426.417,938.736l-848.892,-0.085l-537.512,-183.171l92.858,-532.974l483.337,-435.009l471.91,38.064l474.547,-127.655l290.169,302.094Z" style="fill:#aaa193;"/><path d="M14872.4,20975.6l-426.416,938.735l-848.893,-0.084l-537.512,-183.171l92.859,-532.974l483.337,-435.009l471.909,38.064l474.547,-127.656l290.169,302.095Z" style="fill:#aaa193;"/><path d="M13003.4,18074l447.578,-436.632l713.966,-31.71l499.538,270.06l-180.252,510.092l-548.984,348.516l-458.996,-116.06l-125.213,-348.306l-347.637,-195.96Z" style="fill:#aaa193;"/><path d="M14664.5,16471.4l-315.617,831.047l-660.236,-139.035l-421.184,-263.761l63.119,-496.261l368.491,-338.335l367.682,113.773l366.904,-44.826l230.841,337.398Z" style="fill:#aaa193;"/><path d="M12415.1,10745.2l976.621,330.555l84.675,844.659l-128.586,553.115l-539.582,-39.178l-481.095,-437.487l-9.245,-473.352l-174.4,-459.43l271.612,-318.882Z" style="fill:#aaa193;"/><path d="M14420.6,10778.9l436.632,447.578l31.709,713.966l-270.059,499.538l-510.092,-180.252l-348.516,-548.985l116.06,-458.996l348.305,-125.212l195.961,-347.637Z" style="fill:#aaa193;"/><path d="M14873.1,9803.54l-781.127,672.975l-770.421,-356.469l-410.946,-391.911l308.038,-444.743l621.308,-191.895l412.326,232.67l484.293,83.369l136.529,396.004Z" style="fill:#aaa193;"/><path d="M14888,3210.67l-330.555,976.621l-844.659,84.675l-553.115,-128.586l39.179,-539.582l437.487,-481.095l473.351,-9.245l459.43,-174.4l318.882,271.612Z" style="fill:#aaa193;"/><path d="M12910.6,8486.24l426.416,-938.735l848.893,0.085l537.512,183.17l-92.859,532.974l-483.337,435.01l-471.909,-38.065l-474.547,127.656l-290.169,-302.095Z" style="fill:#aaa193;"/><path d="M12985.4,2333.8l426.416,-938.736l848.892,0.085l537.513,183.171l-92.859,532.974l-483.337,435.009l-471.909,-38.065l-474.548,127.656l-290.168,-302.094Z" style="fill:#aaa193;"/><path d="M14854.4,5235.45l-447.579,436.632l-713.965,31.71l-499.538,-270.06l180.251,-510.091l548.985,-348.517l458.996,116.061l125.213,348.305l347.637,195.96Z" style="fill:#aaa193;"/><path d="M13193.3,6838l315.616,-831.046l660.237,139.034l421.184,263.761l-63.119,496.262l-368.491,338.335l-367.682,-113.774l-366.904,44.826l-230.841,-337.398Z" style="fill:#aaa193;"/><path d="M6001.71,2068.04l781.127,-672.975l770.421,356.469l410.946,391.911l-308.038,444.743l-621.308,191.895l-412.325,-232.67l-484.294,-83.369l-136.529,-396.004Z" style="fill:#aaa193;"/><path d="M5986.77,8660.91l330.555,-976.621l844.659,-84.675l553.115,128.586l-39.178,539.582l-437.487,481.095l-473.352,9.245l-459.43,174.4l-318.882,-271.612Z" style="fill:#aaa193;"/><path d="M7964.2,3385.34l-426.416,938.735l-848.893,-0.085l-537.512,-183.17l92.859,-532.974l483.337,-435.01l471.909,38.065l474.547,-127.656l290.169,302.095Z" style="fill:#aaa193;"/><path d="M7889.37,9537.78l-426.416,938.735l-848.892,-0.085l-537.512,-183.171l92.858,-532.974l483.337,-435.009l471.909,38.065l474.548,-127.656l290.168,302.095Z" style="fill:#aaa193;"/><path d="M6020.39,6636.13l447.579,-436.632l713.965,-31.71l499.538,270.06l-180.251,510.091l-548.985,348.517l-458.996,-116.061l-125.212,-348.305l-347.638,-195.96Z" style="fill:#aaa193;"/><path d="M7681.47,5033.58l-315.616,831.046l-660.237,-139.034l-421.183,-263.761l63.118,-496.262l368.491,-338.335l367.683,113.774l366.903,-44.826l230.841,337.398Z" style="fill:#aaa193;"/><path d="M7933.5,21266.8l-781.127,672.975l-770.421,-356.469l-410.946,-391.911l308.038,-444.743l621.308,-191.895l412.325,232.67l484.294,83.37l136.529,396.003Z" style="fill:#aaa193;"/><path d="M7948.44,14673.9l-330.555,976.62l-844.659,84.676l-553.115,-128.586l39.178,-539.583l437.487,-481.095l473.352,-9.245l459.43,-174.4l318.882,271.613Z" style="fill:#aaa193;"/><path d="M5971.01,19949.5l426.416,-938.736l848.892,0.085l537.512,183.171l-92.858,532.974l-483.337,435.009l-471.909,-38.065l-474.548,127.656l-290.168,-302.094Z" style="fill:#aaa193;"/><path d="M6045.85,13865.8l426.417,-938.736l848.892,0.085l537.512,183.171l-92.858,532.974l-483.337,435.009l-471.91,-38.064l-474.547,127.655l-290.169,-302.094Z" style="fill:#aaa193;"/><path d="M7914.82,16698.7l-447.578,436.632l-713.966,31.709l-499.538,-270.06l180.252,-510.091l548.985,-348.516l458.996,116.06l125.212,348.305l347.637,195.961Z" style="fill:#aaa193;"/><path d="M8363.97,12689.4l-938.735,-426.416l0.085,-848.893l183.171,-537.512l532.973,92.859l435.01,483.337l-38.065,471.909l127.656,474.548l-302.095,290.168Z" style="fill:#aaa193;"/><path d="M5151.78,10745.6l436.632,447.578l31.709,713.966l-270.06,499.538l-510.091,-180.252l-348.516,-548.985l116.06,-458.996l348.305,-125.212l195.961,-347.637Z" style="fill:#aaa193;"/><path d="M6735.03,12406.7l-831.046,-315.617l139.034,-660.236l263.761,-421.184l496.262,63.119l338.335,368.49l-113.774,367.683l44.826,366.903l-337.398,230.842Z" style="fill:#aaa193;"/><path d="M6253.74,18301.3l315.617,-831.047l660.236,139.034l421.184,263.761l-63.119,496.262l-368.49,338.335l-367.683,-113.773l-366.903,44.825l-230.842,-337.397Z" style="fill:#aaa193;"/><g><g id="Pflanze-hinten-links"><path d="M4968.34,1779.93c0,0 213.128,295.677 -19.773,761.965c-0,-0 -137.985,-433.155 19.773,-761.965Z" style="fill:#87af35;stroke:#000;stroke-width:3.13px;"/><path d="M4614.54,2102.62c-0,-0 435.334,-139.687 406.997,506.296c-0,0 -22.49,33.994 -76.836,-10.242c-0,0 -62.754,-401.794 -330.161,-496.054Z" style="fill:#87af35;stroke:#000;stroke-width:3.13px;"/><path d="M5330.76,2105.91c0,0 -367.778,-71.066 -334.855,507.916c0,0 15.143,25.222 34.712,-31.319c-0,0 138.825,-449.454 300.143,-476.597Z" style="fill:#87af35;stroke:#000;stroke-width:3.13px;"/></g><g id="Pflanze-hinten-links1" serif:id="Pflanze-hinten-links"><path d="M4968.34,4315.79c0,0 213.128,295.677 -19.773,761.965c-0,-0 -137.985,-433.155 19.773,-761.965Z" style="fill:#87af35;stroke:#000;stroke-width:3.13px;"/><path d="M4614.54,4638.48c-0,-0 435.334,-139.687 406.997,506.296c-0,0 -22.49,33.994 -76.836,-10.241c-0,-0 -62.754,-401.795 -330.161,-496.055Z" style="fill:#87af35;stroke:#000;stroke-width:3.13px;"/><path d="M5330.76,4641.78c0,-0 -367.778,-71.067 -334.855,507.916c0,-0 15.143,25.221 34.712,-31.319c-0,-0 138.825,-449.455 300.143,-476.597Z" style="fill:#87af35;stroke:#000;stroke-width:3.13px;"/></g><g id="Pflanze-hinten-links2" serif:id="Pflanze-hinten-links"><path d="M4968.34,6851.65c0,-0 213.128,295.676 -19.773,761.964c-0,0 -137.985,-433.155 19.773,-761.964Z" style="fill:#87af35;stroke:#000;stroke-width:3.13px;"/><path d="M4614.54,7174.34c-0,-0 435.334,-139.687 406.997,506.297c-0,-0 -22.49,33.993 -76.836,-10.242c-0,-0 -62.754,-401.795 -330.161,-496.055Z" style="fill:#87af35;stroke:#000;stroke-width:3.13px;"/><path d="M5330.76,7177.64c0,-0 -367.778,-71.067 -334.855,507.916c0,-0 15.143,25.222 34.712,-31.319c-0,-0 138.825,-449.455 300.143,-476.597Z" style="fill:#87af35;stroke:#000;stroke-width:3.13px;"/></g><g id="Pflanze-hinten-links3" serif:id="Pflanze-hinten-links"><path d="M4968.34,3047.86c0,-0 213.128,295.677 -19.773,761.964c-0,0 -137.985,-433.155 19.773,-761.964Z" style="fill:#87af35;stroke:#000;stroke-width:3.13px;"/><path d="M4614.54,3370.55c-0,0 435.334,-139.687 406.997,506.297c-0,-0 -22.49,33.994 -76.836,-10.242c-0,-0 -62.754,-401.795 -330.161,-496.055Z" style="fill:#87af35;stroke:#000;stroke-width:3.13px;"/><path d="M5330.76,3373.84c0,0 -367.778,-71.067 -334.855,507.916c0,0 15.143,25.222 34.712,-31.319c-0,-0 138.825,-449.455 300.143,-476.597Z" style="fill:#87af35;stroke:#000;stroke-width:3.13px;"/></g><g id="Pflanze-hinten-links4" serif:id="Pflanze-hinten-links"><path d="M4968.34,5583.72c0,-0 213.128,295.677 -19.773,761.964c-0,0 -137.985,-433.154 19.773,-761.964Z" style="fill:#87af35;stroke:#000;stroke-width:3.13px;"/><path d="M4614.54,5906.41c-0,0 435.334,-139.686 406.997,506.297c-0,0 -22.49,33.994 -76.836,-10.242c-0,0 -62.754,-401.795 -330.161,-496.055Z" style="fill:#87af35;stroke:#000;stroke-width:3.13px;"/><path d="M5330.76,5909.71c0,0 -367.778,-71.066 -334.855,507.916c0,0 15.143,25.222 34.712,-31.319c-0,0 138.825,-449.454 300.143,-476.597Z" style="fill:#87af35;stroke:#000;stroke-width:3.13px;"/></g><g id="Pflanze-hinten-links5" serif:id="Pflanze-hinten-links"><path d="M4968.34,8119.59c0,0 213.128,295.677 -19.773,761.965c-0,-0 -137.985,-433.155 19.773,-761.965Z" style="fill:#87af35;stroke:#000;stroke-width:3.13px;"/><path d="M4614.54,8442.28c-0,-0 435.334,-139.687 406.997,506.296c-0,0 -22.49,33.994 -76.836,-10.242c-0,0 -62.754,-401.794 -330.161,-496.054Z" style="fill:#87af35;stroke:#000;stroke-width:3.13px;"/><path d="M5330.76,8445.57c0,-0 -367.778,-71.067 -334.855,507.916c0,-0 15.143,25.221 34.712,-31.32c-0,0 138.825,-449.454 300.143,-476.596Z" style="fill:#87af35;stroke:#000;stroke-width:3.13px;"/></g><g id="Pflanze-hinten-links6" serif:id="Pflanze-hinten-links"><path d="M4968.34,9387.52c0,-0 213.128,295.677 -19.773,761.964c-0,0 -137.985,-433.155 19.773,-761.964Z" style="fill:#87af35;stroke:#000;stroke-width:3.13px;"/><path d="M4614.54,9710.21c-0,0 435.334,-139.687 406.997,506.297c-0,-0 -22.49,33.994 -76.836,-10.242c-0,-0 -62.754,-401.795 -330.161,-496.055Z" style="fill:#87af35;stroke:#000;stroke-width:3.13px;"/><path d="M5330.76,9713.5c0,0 -367.778,-71.066 -334.855,507.916c0,0 15.143,25.222 34.712,-31.319c-0,-0 138.825,-449.455 300.143,-476.597Z" style="fill:#87af35;stroke:#000;stroke-width:3.13px;"/></g></g><path d="M18930.8,10760.2l672.974,781.127l-356.469,770.421l-391.911,410.946l-444.743,-308.038l-191.895,-621.308l232.67,-412.325l83.37,-484.294l396.004,-136.529Z" style="fill:#aaa193;"/><path d="M17632.8,12722.7l-938.735,-426.416l0.085,-848.892l183.171,-537.512l532.974,92.858l435.009,483.337l-38.065,471.909l127.656,474.548l-302.095,290.168Z" style="fill:#aaa193;"/><path d="M11557.5,12647.8l-938.735,-426.417l0.085,-848.892l183.17,-537.512l532.974,92.858l435.01,483.337l-38.065,471.91l127.656,474.547l-302.095,290.169Z" style="fill:#aaa193;"/><path d="M16003.8,12439.9l-831.046,-315.617l139.034,-660.236l263.761,-421.184l496.262,63.119l338.335,368.49l-113.774,367.683l44.826,366.904l-337.398,230.841Z" style="fill:#aaa193;"/><path d="M9661.97,10726.9l672.975,781.127l-356.469,770.421l-391.911,410.946l-444.743,-308.038l-191.895,-621.308l232.67,-412.325l83.37,-484.294l396.003,-136.529Z" style="fill:#aaa193;"/><path d="M3146.29,10712l976.621,330.555l84.675,844.659l-128.586,553.115l-539.582,-39.178l-481.095,-437.487l-9.245,-473.352l-174.4,-459.43l271.612,-318.882Z" style="fill:#aaa193;"/><path d="M2288.72,12614.6l-938.735,-426.417l0.085,-848.892l183.17,-537.512l532.974,92.858l435.01,483.337l-38.065,471.91l127.656,474.547l-302.095,290.169Z" style="fill:#aaa193;"/></g><g id="Beet6"><rect x="1279.6" y="12732.5" width="4429.13" height="9227.36" style="fill:#8b6818;"/><g id="Pflanzen16"><g id="Pflanze-vorne-links"><path d="M2336.96,14329.8c-0,0 64.54,40.677 112.2,-90.319c47.66,-130.997 15.27,-3.297 102.535,-41.559c87.265,-38.263 -7.012,-24.497 -0.55,-98.707c6.463,-74.211 14.392,-91.062 64.968,-73.424c50.576,17.637 135.742,-89.886 24.213,-159.321c-111.53,-69.436 -133.181,39.449 -138.213,87.532c-5.031,48.083 46.492,101.909 0,105.616c-46.491,3.707 -100.837,-11.369 -116.053,53.017c-15.217,64.385 69.474,94.982 -0,126.846c-69.474,31.864 -134.626,-33.95 -92.151,90.319l43.051,0Z" style="fill:#87af35;stroke:#000;stroke-width:6.25px;"/><path d="M2329.93,14239.5c-0,-0 14.536,-195.92 107.606,-220.086c93.07,-24.165 20.843,-70.326 29.533,-148.54c8.691,-78.214 69.665,-71.215 81.124,-116.043c11.458,-44.828 -90.694,-94.499 -80.79,-181.534c0,-0 -11.258,-115.428 19.308,-225.802c30.567,-110.373 -278.678,-323.245 -307.52,-259.053c0,-0 -222.495,95.16 46.288,531.999c-0,0 114.065,98.353 118.451,181.864c4.386,83.51 -64.242,306.829 -14,437.195Z" style="fill:#87af35;stroke:#000;stroke-width:6.25px;"/><path d="M2296.91,14216.8c0,0 -115.091,1.294 -137.379,-51.767c0,0 11.4,-88.577 -15.46,-128.152c-26.86,-39.575 -109.089,24.157 -151.592,-52.493c-42.502,-76.65 26.116,-146.893 -16.484,-181.721c-42.601,-34.829 -177.961,11.513 -241.954,-58.787c-63.993,-70.3 16.309,-127.36 57.941,-119.646c41.631,7.715 147.257,-6.855 185.418,-49.635c38.161,-42.78 147.532,51.52 137.969,106.369c-9.562,54.85 115.676,109.537 178.426,126.658c62.75,17.122 11.94,81.933 -1.708,199.782c-13.648,117.849 -18.53,150.837 4.823,209.392Z" style="fill:#87af35;stroke:#000;stroke-width:6.25px;"/></g><g id="Pflanze-vorne-links1" serif:id="Pflanze-vorne-links"><path d="M2336.96,16591c-0,0 64.54,40.677 112.2,-90.319c47.66,-130.997 15.27,-3.297 102.535,-41.559c87.265,-38.263 -7.012,-24.497 -0.55,-98.707c6.463,-74.211 14.392,-91.062 64.968,-73.424c50.576,17.637 135.742,-89.886 24.213,-159.322c-111.53,-69.435 -133.181,39.45 -138.213,87.533c-5.031,48.083 46.492,101.909 0,105.616c-46.491,3.707 -100.837,-11.369 -116.053,53.017c-15.217,64.385 69.474,94.982 -0,126.846c-69.474,31.863 -134.626,-33.95 -92.151,90.319l43.051,0Z" style="fill:#87af35;stroke:#000;stroke-width:6.25px;"/><path d="M2329.93,16500.6c-0,-0 14.536,-195.92 107.606,-220.086c93.07,-24.165 20.843,-70.327 29.533,-148.541c8.691,-78.214 69.665,-71.214 81.124,-116.042c11.458,-44.828 -90.694,-94.499 -80.79,-181.534c0,-0 -11.258,-115.428 19.308,-225.802c30.567,-110.374 -278.678,-323.245 -307.52,-259.053c0,-0 -222.495,95.16 46.288,531.999c-0,-0 114.065,98.353 118.451,181.864c4.386,83.51 -64.242,306.829 -14,437.195Z" style="fill:#87af35;stroke:#000;stroke-width:6.25px;"/><path d="M2296.91,16477.9c0,0 -115.091,1.294 -137.379,-51.767c0,0 11.4,-88.577 -15.46,-128.152c-26.86,-39.575 -109.089,24.157 -151.592,-52.493c-42.502,-76.65 26.116,-146.893 -16.484,-181.721c-42.601,-34.829 -177.961,11.513 -241.954,-58.787c-63.993,-70.3 16.309,-127.36 57.941,-119.646c41.631,7.715 147.257,-6.855 185.418,-49.635c38.161,-42.78 147.532,51.52 137.969,106.369c-9.562,54.85 115.676,109.536 178.426,126.658c62.75,17.122 11.94,81.932 -1.708,199.782c-13.648,117.849 -18.53,150.837 4.823,209.392Z" style="fill:#87af35;stroke:#000;stroke-width:6.25px;"/></g><g id="Pflanze-vorne-links2" serif:id="Pflanze-vorne-links"><path d="M2336.96,18852.1c-0,0 64.54,40.677 112.2,-90.319c47.66,-130.997 15.27,-3.297 102.535,-41.56c87.265,-38.262 -7.012,-24.496 -0.55,-98.706c6.463,-74.211 14.392,-91.062 64.968,-73.424c50.576,17.637 135.742,-89.886 24.213,-159.322c-111.53,-69.435 -133.181,39.45 -138.213,87.533c-5.031,48.082 46.492,101.909 0,105.616c-46.491,3.707 -100.837,-11.369 -116.053,53.017c-15.217,64.385 69.474,94.982 -0,126.846c-69.474,31.863 -134.626,-33.95 -92.151,90.319l43.051,0Z" style="fill:#87af35;stroke:#000;stroke-width:6.25px;"/><path d="M2329.93,18761.8c-0,-0 14.536,-195.92 107.606,-220.086c93.07,-24.166 20.843,-70.327 29.533,-148.541c8.691,-78.214 69.665,-71.214 81.124,-116.042c11.458,-44.828 -90.694,-94.5 -80.79,-181.534c0,-0 -11.258,-115.428 19.308,-225.802c30.567,-110.374 -278.678,-323.245 -307.52,-259.054c0,0 -222.495,95.16 46.288,532c-0,-0 114.065,98.353 118.451,181.864c4.386,83.51 -64.242,306.829 -14,437.195Z" style="fill:#87af35;stroke:#000;stroke-width:6.25px;"/><path d="M2296.91,18739.1c0,-0 -115.091,1.294 -137.379,-51.767c0,-0 11.4,-88.577 -15.46,-128.152c-26.86,-39.575 -109.089,24.157 -151.592,-52.493c-42.502,-76.65 26.116,-146.893 -16.484,-181.721c-42.601,-34.829 -177.961,11.513 -241.954,-58.787c-63.993,-70.3 16.309,-127.36 57.941,-119.646c41.631,7.714 147.257,-6.855 185.418,-49.636c38.161,-42.78 147.532,51.521 137.969,106.37c-9.562,54.85 115.676,109.536 178.426,126.658c62.75,17.122 11.94,81.932 -1.708,199.782c-13.648,117.849 -18.53,150.837 4.823,209.392Z" style="fill:#87af35;stroke:#000;stroke-width:6.25px;"/></g><g id="Pflanze-vorne-links3" serif:id="Pflanze-vorne-links"><path d="M2510.09,21113.2c0,0 64.541,40.677 112.201,-90.32c47.66,-130.996 15.27,-3.296 102.535,-41.559c87.265,-38.262 -7.012,-24.496 -0.55,-98.706c6.463,-74.211 14.392,-91.062 64.968,-73.424c50.576,17.637 135.742,-89.886 24.213,-159.322c-111.53,-69.435 -133.181,39.45 -138.213,87.533c-5.031,48.082 46.492,101.909 0,105.616c-46.491,3.706 -100.837,-11.369 -116.054,53.016c-15.216,64.386 69.474,94.983 0,126.846c-69.474,31.864 -134.625,-33.949 -92.151,90.32l43.051,0Z" style="fill:#87af35;stroke:#000;stroke-width:6.25px;"/><path d="M2503.05,21022.9c-0,0 14.536,-195.92 107.606,-220.085c93.07,-24.166 20.843,-70.327 29.533,-148.541c8.69,-78.214 69.665,-71.214 81.123,-116.042c11.459,-44.828 -90.693,-94.5 -80.789,-181.534c-0,-0 -11.259,-115.428 19.308,-225.802c30.567,-110.374 -278.678,-323.246 -307.52,-259.054c0,0 -222.495,95.16 46.288,532c-0,-0 114.065,98.353 118.451,181.864c4.386,83.51 -64.242,306.829 -14,437.194Z" style="fill:#87af35;stroke:#000;stroke-width:6.25px;"/><path d="M2470.03,21000.2c-0,-0 -115.092,1.294 -137.379,-51.767c0,-0 11.4,-88.577 -15.46,-128.152c-26.86,-39.575 -109.089,24.156 -151.592,-52.493c-42.502,-76.65 26.116,-146.893 -16.484,-181.722c-42.601,-34.828 -177.961,11.514 -241.954,-58.786c-63.994,-70.3 16.309,-127.36 57.94,-119.646c41.632,7.714 147.258,-6.856 185.419,-49.636c38.161,-42.78 147.531,51.521 137.969,106.37c-9.562,54.85 115.676,109.536 178.426,126.658c62.75,17.122 11.94,81.932 -1.708,199.782c-13.648,117.849 -18.53,150.837 4.823,209.392Z" style="fill:#87af35;stroke:#000;stroke-width:6.25px;"/></g></g><g id="Pflanzen15"><g id="Pflanze-vorne-links4" serif:id="Pflanze-vorne-links"><path d="M4397.22,14329.8c-0,0 64.54,40.677 112.2,-90.319c47.66,-130.997 15.27,-3.297 102.535,-41.559c87.265,-38.263 -7.012,-24.497 -0.55,-98.707c6.463,-74.211 14.392,-91.062 64.968,-73.424c50.576,17.637 135.743,-89.886 24.213,-159.321c-111.53,-69.436 -133.181,39.449 -138.213,87.532c-5.031,48.083 46.492,101.909 0,105.616c-46.491,3.707 -100.837,-11.369 -116.053,53.017c-15.217,64.385 69.474,94.982 -0,126.846c-69.474,31.864 -134.626,-33.95 -92.151,90.319l43.051,0Z" style="fill:#87af35;stroke:#000;stroke-width:6.25px;"/><path d="M4390.19,14239.5c-0,-0 14.536,-195.92 107.606,-220.086c93.07,-24.165 20.843,-70.326 29.533,-148.54c8.691,-78.214 69.665,-71.215 81.124,-116.043c11.458,-44.828 -90.694,-94.499 -80.79,-181.534c0,-0 -11.258,-115.428 19.308,-225.802c30.567,-110.373 -278.678,-323.245 -307.519,-259.053c-0,-0 -222.496,95.16 46.287,531.999c-0,0 114.065,98.353 118.451,181.864c4.386,83.51 -64.242,306.829 -14,437.195Z" style="fill:#87af35;stroke:#000;stroke-width:6.25px;"/><path d="M4357.16,14216.8c0,0 -115.091,1.294 -137.378,-51.767c-0,0 11.399,-88.577 -15.461,-128.152c-26.86,-39.575 -109.089,24.157 -151.591,-52.493c-42.503,-76.65 26.115,-146.893 -16.485,-181.721c-42.601,-34.829 -177.961,11.513 -241.954,-58.787c-63.993,-70.3 16.309,-127.36 57.941,-119.646c41.631,7.715 147.257,-6.855 185.418,-49.635c38.161,-42.78 147.532,51.52 137.969,106.369c-9.562,54.85 115.676,109.537 178.426,126.658c62.75,17.122 11.94,81.933 -1.708,199.782c-13.648,117.849 -18.53,150.837 4.823,209.392Z" style="fill:#87af35;stroke:#000;stroke-width:6.25px;"/></g><g id="Pflanze-vorne-links5" serif:id="Pflanze-vorne-links"><path d="M4397.22,16591c-0,0 64.54,40.677 112.2,-90.319c47.66,-130.997 15.27,-3.297 102.535,-41.559c87.265,-38.263 -7.012,-24.497 -0.55,-98.707c6.463,-74.211 14.392,-91.062 64.968,-73.424c50.576,17.637 135.743,-89.886 24.213,-159.322c-111.53,-69.435 -133.181,39.45 -138.213,87.533c-5.031,48.083 46.492,101.909 0,105.616c-46.491,3.707 -100.837,-11.369 -116.053,53.017c-15.217,64.385 69.474,94.982 -0,126.846c-69.474,31.863 -134.626,-33.95 -92.151,90.319l43.051,0Z" style="fill:#87af35;stroke:#000;stroke-width:6.25px;"/><path d="M4390.19,16500.6c-0,-0 14.536,-195.92 107.606,-220.086c93.07,-24.165 20.843,-70.327 29.533,-148.541c8.691,-78.214 69.665,-71.214 81.124,-116.042c11.458,-44.828 -90.694,-94.499 -80.79,-181.534c0,-0 -11.258,-115.428 19.308,-225.802c30.567,-110.374 -278.678,-323.245 -307.519,-259.053c-0,-0 -222.496,95.16 46.287,531.999c-0,-0 114.065,98.353 118.451,181.864c4.386,83.51 -64.242,306.829 -14,437.195Z" style="fill:#87af35;stroke:#000;stroke-width:6.25px;"/><path d="M4357.16,16477.9c0,0 -115.091,1.294 -137.378,-51.767c-0,0 11.399,-88.577 -15.461,-128.152c-26.86,-39.575 -109.089,24.157 -151.591,-52.493c-42.503,-76.65 26.115,-146.893 -16.485,-181.721c-42.601,-34.829 -177.961,11.513 -241.954,-58.787c-63.993,-70.3 16.309,-127.36 57.941,-119.646c41.631,7.715 147.257,-6.855 185.418,-49.635c38.161,-42.78 147.532,51.52 137.969,106.369c-9.562,54.85 115.676,109.536 178.426,126.658c62.75,17.122 11.94,81.932 -1.708,199.782c-13.648,117.849 -18.53,150.837 4.823,209.392Z" style="fill:#87af35;stroke:#000;stroke-width:6.25px;"/></g><g id="Pflanze-vorne-links6" serif:id="Pflanze-vorne-links"><path d="M4397.22,18852.1c-0,0 64.54,40.677 112.2,-90.319c47.66,-130.997 15.27,-3.297 102.535,-41.56c87.265,-38.262 -7.012,-24.496 -0.55,-98.706c6.463,-74.211 14.392,-91.062 64.968,-73.424c50.576,17.637 135.743,-89.886 24.213,-159.322c-111.53,-69.435 -133.181,39.45 -138.213,87.533c-5.031,48.082 46.492,101.909 0,105.616c-46.491,3.707 -100.837,-11.369 -116.053,53.017c-15.217,64.385 69.474,94.982 -0,126.846c-69.474,31.863 -134.626,-33.95 -92.151,90.319l43.051,0Z" style="fill:#87af35;stroke:#000;stroke-width:6.25px;"/><path d="M4390.19,18761.8c-0,-0 14.536,-195.92 107.606,-220.086c93.07,-24.166 20.843,-70.327 29.533,-148.541c8.691,-78.214 69.665,-71.214 81.124,-116.042c11.458,-44.828 -90.694,-94.5 -80.79,-181.534c0,-0 -11.258,-115.428 19.308,-225.802c30.567,-110.374 -278.678,-323.245 -307.519,-259.054c-0,0 -222.496,95.16 46.287,532c-0,-0 114.065,98.353 118.451,181.864c4.386,83.51 -64.242,306.829 -14,437.195Z" style="fill:#87af35;stroke:#000;stroke-width:6.25px;"/><path d="M4357.16,18739.1c0,-0 -115.091,1.294 -137.378,-51.767c-0,-0 11.399,-88.577 -15.461,-128.152c-26.86,-39.575 -109.089,24.157 -151.591,-52.493c-42.503,-76.65 26.115,-146.893 -16.485,-181.721c-42.601,-34.829 -177.961,11.513 -241.954,-58.787c-63.993,-70.3 16.309,-127.36 57.941,-119.646c41.631,7.714 147.257,-6.855 185.418,-49.636c38.161,-42.78 147.532,51.521 137.969,106.37c-9.562,54.85 115.676,109.536 178.426,126.658c62.75,17.122 11.94,81.932 -1.708,199.782c-13.648,117.849 -18.53,150.837 4.823,209.392Z" style="fill:#87af35;stroke:#000;stroke-width:6.25px;"/></g><g id="Pflanze-vorne-links7" serif:id="Pflanze-vorne-links"><path d="M4570.35,21113.2c0,0 64.541,40.677 112.201,-90.32c47.66,-130.996 15.27,-3.296 102.535,-41.559c87.265,-38.262 -7.012,-24.496 -0.55,-98.706c6.463,-74.211 14.392,-91.062 64.968,-73.424c50.576,17.637 135.742,-89.886 24.213,-159.322c-111.53,-69.435 -133.181,39.45 -138.213,87.533c-5.031,48.082 46.492,101.909 0,105.616c-46.491,3.706 -100.837,-11.369 -116.054,53.016c-15.216,64.386 69.474,94.983 0,126.846c-69.474,31.864 -134.625,-33.949 -92.151,90.32l43.051,0Z" style="fill:#87af35;stroke:#000;stroke-width:6.25px;"/><path d="M4563.31,21022.9c-0,0 14.536,-195.92 107.606,-220.085c93.07,-24.166 20.843,-70.327 29.533,-148.541c8.69,-78.214 69.665,-71.214 81.123,-116.042c11.459,-44.828 -90.693,-94.5 -80.789,-181.534c-0,-0 -11.259,-115.428 19.308,-225.802c30.567,-110.374 -278.678,-323.246 -307.52,-259.054c0,0 -222.495,95.16 46.288,532c-0,-0 114.065,98.353 118.451,181.864c4.386,83.51 -64.242,306.829 -14,437.194Z" style="fill:#87af35;stroke:#000;stroke-width:6.25px;"/><path d="M4530.29,21000.2c-0,-0 -115.092,1.294 -137.379,-51.767c0,-0 11.4,-88.577 -15.46,-128.152c-26.86,-39.575 -109.089,24.156 -151.592,-52.493c-42.502,-76.65 26.116,-146.893 -16.484,-181.722c-42.601,-34.828 -177.961,11.514 -241.954,-58.786c-63.994,-70.3 16.309,-127.36 57.94,-119.646c41.632,7.714 147.258,-6.856 185.419,-49.636c38.161,-42.78 147.531,51.521 137.969,106.37c-9.562,54.85 115.676,109.536 178.426,126.658c62.75,17.122 11.94,81.932 -1.708,199.782c-13.648,117.849 -18.53,150.837 4.823,209.392Z" style="fill:#87af35;stroke:#000;stroke-width:6.25px;"/></g></g><g id="Schild-Beet-6"><path d="M5100.93,16658.8c-0,-15.807 -12.834,-28.641 -28.642,-28.641l-3156.24,0c-15.808,0 -28.641,12.834 -28.641,28.641l-0,1374.78c-0,15.808 12.833,28.641 28.641,28.641l3156.24,0c15.808,0 28.642,-12.833 28.642,-28.641l-0,-1374.78Z" style="fill:#f1dcaa;"/><g transform="matrix(937.5,0,0,937.5,4852.32,17618.4)"></g><text x="2079.2px" y="17618.4px" style="font-family:'Ubuntu', sans-serif;font-size:937.5px;fill:#ba2d0b;">Beet 6</text></g></g><g id="Beet5"><rect x="8216.87" y="12732.5" width="4429.13" height="9227.36" style="fill:#8b6818;"/><g id="Pflanzen12"><g id="Pflanze-hinten-links7" serif:id="Pflanze-hinten-links"><path d="M12002.4,13121.7c0,0 213.128,295.677 -19.773,761.965c-0,-0 -137.985,-433.155 19.773,-761.965Z" style="fill:#87af35;stroke:#000;stroke-width:3.13px;"/><path d="M11648.6,13444.4c-0,-0 435.334,-139.687 406.997,506.296c-0,0 -22.49,33.994 -76.836,-10.242c-0,0 -62.754,-401.794 -330.161,-496.054Z" style="fill:#87af35;stroke:#000;stroke-width:3.13px;"/><path d="M12364.8,13447.6c0,0 -367.778,-71.066 -334.855,507.917c0,-0 15.143,25.221 34.712,-31.32c-0,0 138.825,-449.454 300.143,-476.597Z" style="fill:#87af35;stroke:#000;stroke-width:3.13px;"/></g><g id="Pflanze-hinten-links8" serif:id="Pflanze-hinten-links"><path d="M12002.4,15657.5c0,0 213.128,295.677 -19.773,761.965c-0,-0 -137.985,-433.155 19.773,-761.965Z" style="fill:#87af35;stroke:#000;stroke-width:3.13px;"/><path d="M11648.6,15980.2c-0,-0 435.334,-139.687 406.997,506.296c-0,0 -22.49,33.994 -76.836,-10.241c-0,-0 -62.754,-401.795 -330.161,-496.055Z" style="fill:#87af35;stroke:#000;stroke-width:3.13px;"/><path d="M12364.8,15983.5c0,-0 -367.778,-71.067 -334.855,507.916c0,-0 15.143,25.221 34.712,-31.319c-0,-0 138.825,-449.455 300.143,-476.597Z" style="fill:#87af35;stroke:#000;stroke-width:3.13px;"/></g><g id="Pflanze-hinten-links9" serif:id="Pflanze-hinten-links"><path d="M12002.4,18193.4c0,-0 213.128,295.676 -19.773,761.964c-0,0 -137.985,-433.155 19.773,-761.964Z" style="fill:#87af35;stroke:#000;stroke-width:3.13px;"/><path d="M11648.6,18516.1c-0,0 435.334,-139.687 406.997,506.297c-0,-0 -22.49,33.994 -76.836,-10.242c-0,-0 -62.754,-401.795 -330.161,-496.055Z" style="fill:#87af35;stroke:#000;stroke-width:3.13px;"/><path d="M12364.8,18519.4c0,-0 -367.778,-71.067 -334.855,507.916c0,-0 15.143,25.222 34.712,-31.319c-0,-0 138.825,-449.455 300.143,-476.597Z" style="fill:#87af35;stroke:#000;stroke-width:3.13px;"/></g><g id="Pflanze-hinten-links10" serif:id="Pflanze-hinten-links"><path d="M12002.4,14389.6c0,-0 213.128,295.677 -19.773,761.964c-0,0 -137.985,-433.155 19.773,-761.964Z" style="fill:#87af35;stroke:#000;stroke-width:3.13px;"/><path d="M11648.6,14712.3c-0,0 435.334,-139.687 406.997,506.297c-0,-0 -22.49,33.994 -76.836,-10.242c-0,-0 -62.754,-401.795 -330.161,-496.055Z" style="fill:#87af35;stroke:#000;stroke-width:3.13px;"/><path d="M12364.8,14715.6c0,0 -367.778,-71.067 -334.855,507.916c0,0 15.143,25.222 34.712,-31.319c-0,-0 138.825,-449.455 300.143,-476.597Z" style="fill:#87af35;stroke:#000;stroke-width:3.13px;"/></g><g id="Pflanze-hinten-links11" serif:id="Pflanze-hinten-links"><path d="M12002.4,16925.5c0,-0 213.128,295.677 -19.773,761.964c-0,0 -137.985,-433.154 19.773,-761.964Z" style="fill:#87af35;stroke:#000;stroke-width:3.13px;"/><path d="M11648.6,17248.2c-0,0 435.334,-139.686 406.997,506.297c-0,0 -22.49,33.994 -76.836,-10.242c-0,0 -62.754,-401.795 -330.161,-496.055Z" style="fill:#87af35;stroke:#000;stroke-width:3.13px;"/><path d="M12364.8,17251.4c0,0 -367.778,-71.066 -334.855,507.916c0,0 15.143,25.222 34.712,-31.319c-0,0 138.825,-449.454 300.143,-476.597Z" style="fill:#87af35;stroke:#000;stroke-width:3.13px;"/></g><g id="Pflanze-hinten-links12" serif:id="Pflanze-hinten-links"><path d="M12002.4,19461.3c0,0 213.128,295.677 -19.773,761.965c-0,-0 -137.985,-433.155 19.773,-761.965Z" style="fill:#87af35;stroke:#000;stroke-width:3.13px;"/><path d="M11648.6,19784c-0,-0 435.334,-139.687 406.997,506.296c-0,0 -22.49,33.994 -76.836,-10.242c-0,0 -62.754,-401.794 -330.161,-496.054Z" style="fill:#87af35;stroke:#000;stroke-width:3.13px;"/><path d="M12364.8,19787.3c0,-0 -367.778,-71.067 -334.855,507.916c0,-0 15.143,25.221 34.712,-31.32c-0,0 138.825,-449.454 300.143,-476.596Z" style="fill:#87af35;stroke:#000;stroke-width:3.13px;"/></g><g id="Pflanze-hinten-links13" serif:id="Pflanze-hinten-links"><path d="M12002.4,20729.3c0,-0 213.128,295.677 -19.773,761.964c-0,0 -137.985,-433.155 19.773,-761.964Z" style="fill:#87af35;stroke:#000;stroke-width:3.13px;"/><path d="M11648.6,21051.9c-0,0 435.334,-139.687 406.997,506.297c-0,-0 -22.49,33.994 -76.836,-10.242c-0,-0 -62.754,-401.795 -330.161,-496.055Z" style="fill:#87af35;stroke:#000;stroke-width:3.13px;"/><path d="M12364.8,21055.2c0,0 -367.778,-71.066 -334.855,507.916c0,0 15.143,25.222 34.712,-31.319c-0,0 138.825,-449.455 300.143,-476.597Z" style="fill:#87af35;stroke:#000;stroke-width:3.13px;"/></g></g><g id="Pflanzen14"><g id="Pflanze-hinten-links14" serif:id="Pflanze-hinten-links"><path d="M8851.85,13121.7c-0,0 213.128,295.677 -19.774,761.965c0,-0 -137.985,-433.155 19.774,-761.965Z" style="fill:#87af35;stroke:#000;stroke-width:3.13px;"/><path d="M8498.05,13444.4c0,-0 435.335,-139.687 406.997,506.296c0,0 -22.49,33.994 -76.836,-10.242c0,0 -62.754,-401.794 -330.161,-496.054Z" style="fill:#87af35;stroke:#000;stroke-width:3.13px;"/><path d="M9214.26,13447.6c-0,0 -367.778,-71.066 -334.855,507.917c-0,-0 15.143,25.221 34.711,-31.32c0,0 138.826,-449.454 300.144,-476.597Z" style="fill:#87af35;stroke:#000;stroke-width:3.13px;"/></g><g id="Pflanze-hinten-links15" serif:id="Pflanze-hinten-links"><path d="M8851.85,15657.5c-0,0 213.128,295.677 -19.774,761.965c0,-0 -137.985,-433.155 19.774,-761.965Z" style="fill:#87af35;stroke:#000;stroke-width:3.13px;"/><path d="M8498.05,15980.2c0,-0 435.335,-139.687 406.997,506.296c0,0 -22.49,33.994 -76.836,-10.241c0,-0 -62.754,-401.795 -330.161,-496.055Z" style="fill:#87af35;stroke:#000;stroke-width:3.13px;"/><path d="M9214.26,15983.5c-0,-0 -367.778,-71.067 -334.855,507.916c-0,-0 15.143,25.221 34.711,-31.319c0,-0 138.826,-449.455 300.144,-476.597Z" style="fill:#87af35;stroke:#000;stroke-width:3.13px;"/></g><g id="Pflanze-hinten-links16" serif:id="Pflanze-hinten-links"><path d="M8851.85,18193.4c-0,-0 213.128,295.676 -19.774,761.964c0,0 -137.985,-433.155 19.774,-761.964Z" style="fill:#87af35;stroke:#000;stroke-width:3.13px;"/><path d="M8498.05,18516.1c0,0 435.335,-139.687 406.997,506.297c0,-0 -22.49,33.994 -76.836,-10.242c0,-0 -62.754,-401.795 -330.161,-496.055Z" style="fill:#87af35;stroke:#000;stroke-width:3.13px;"/><path d="M9214.26,18519.4c-0,-0 -367.778,-71.067 -334.855,507.916c-0,-0 15.143,25.222 34.711,-31.319c0,-0 138.826,-449.455 300.144,-476.597Z" style="fill:#87af35;stroke:#000;stroke-width:3.13px;"/></g><g id="Pflanze-hinten-links17" serif:id="Pflanze-hinten-links"><path d="M8851.85,14389.6c-0,-0 213.128,295.677 -19.774,761.964c0,0 -137.985,-433.155 19.774,-761.964Z" style="fill:#87af35;stroke:#000;stroke-width:3.13px;"/><path d="M8498.05,14712.3c0,0 435.335,-139.687 406.997,506.297c0,-0 -22.49,33.994 -76.836,-10.242c0,-0 -62.754,-401.795 -330.161,-496.055Z" style="fill:#87af35;stroke:#000;stroke-width:3.13px;"/><path d="M9214.26,14715.6c-0,0 -367.778,-71.067 -334.855,507.916c-0,0 15.143,25.222 34.711,-31.319c0,-0 138.826,-449.455 300.144,-476.597Z" style="fill:#87af35;stroke:#000;stroke-width:3.13px;"/></g><g id="Pflanze-hinten-links18" serif:id="Pflanze-hinten-links"><path d="M8851.85,16925.5c-0,-0 213.128,295.677 -19.774,761.964c0,0 -137.985,-433.154 19.774,-761.964Z" style="fill:#87af35;stroke:#000;stroke-width:3.13px;"/><path d="M8498.05,17248.2c0,0 435.335,-139.686 406.997,506.297c0,0 -22.49,33.994 -76.836,-10.242c0,0 -62.754,-401.795 -330.161,-496.055Z" style="fill:#87af35;stroke:#000;stroke-width:3.13px;"/><path d="M9214.26,17251.4c-0,0 -367.778,-71.066 -334.855,507.916c-0,0 15.143,25.222 34.711,-31.319c0,0 138.826,-449.454 300.144,-476.597Z" style="fill:#87af35;stroke:#000;stroke-width:3.13px;"/></g><g id="Pflanze-hinten-links19" serif:id="Pflanze-hinten-links"><path d="M8851.85,19461.3c-0,0 213.128,295.677 -19.774,761.965c0,-0 -137.985,-433.155 19.774,-761.965Z" style="fill:#87af35;stroke:#000;stroke-width:3.13px;"/><path d="M8498.05,19784c0,-0 435.335,-139.687 406.997,506.296c0,0 -22.49,33.994 -76.836,-10.242c0,0 -62.754,-401.794 -330.161,-496.054Z" style="fill:#87af35;stroke:#000;stroke-width:3.13px;"/><path d="M9214.26,19787.3c-0,-0 -367.778,-71.067 -334.855,507.916c-0,-0 15.143,25.221 34.711,-31.32c0,0 138.826,-449.454 300.144,-476.596Z" style="fill:#87af35;stroke:#000;stroke-width:3.13px;"/></g><g id="Pflanze-hinten-links20" serif:id="Pflanze-hinten-links"><path d="M8851.85,20729.3c-0,-0 213.128,295.677 -19.774,761.964c0,0 -137.985,-433.155 19.774,-761.964Z" style="fill:#87af35;stroke:#000;stroke-width:3.13px;"/><path d="M8498.05,21051.9c0,0 435.335,-139.687 406.997,506.297c0,-0 -22.49,33.994 -76.836,-10.242c0,-0 -62.754,-401.795 -330.161,-496.055Z" style="fill:#87af35;stroke:#000;stroke-width:3.13px;"/><path d="M9214.26,21055.2c-0,0 -367.778,-71.066 -334.855,507.916c-0,0 15.143,25.222 34.711,-31.319c0,0 138.826,-449.455 300.144,-476.597Z" style="fill:#87af35;stroke:#000;stroke-width:3.13px;"/></g></g><g id="Pflanzen13"><g id="Pflanze-vorne-links8" serif:id="Pflanze-vorne-links"><path d="M10489.4,14533c-0,-0 64.54,40.676 112.2,-90.32c47.66,-130.997 15.27,-3.296 102.535,-41.559c87.266,-38.263 -7.012,-24.496 -0.55,-98.707c6.463,-74.21 14.392,-91.061 64.968,-73.424c50.576,17.638 135.743,-89.886 24.213,-159.321c-111.53,-69.436 -133.181,39.45 -138.213,87.532c-5.031,48.083 46.492,101.909 0,105.616c-46.491,3.707 -100.837,-11.369 -116.053,53.017c-15.216,64.385 69.474,94.982 -0,126.846c-69.474,31.864 -134.626,-33.95 -92.151,90.32l43.051,-0Z" style="fill:#87af35;stroke:#000;stroke-width:6.25px;"/><path d="M10482.4,14442.7c-0,-0 14.536,-195.92 107.606,-220.086c93.07,-24.165 20.843,-70.326 29.533,-148.54c8.691,-78.214 69.665,-71.214 81.124,-116.043c11.458,-44.828 -90.694,-94.499 -80.79,-181.534c0,0 -11.258,-115.428 19.308,-225.802c30.567,-110.373 -278.678,-323.245 -307.519,-259.053c-0,-0 -222.496,95.16 46.287,531.999c0,0 114.065,98.353 118.451,181.864c4.386,83.51 -64.242,306.829 -14,437.195Z" style="fill:#87af35;stroke:#000;stroke-width:6.25px;"/><path d="M10449.4,14420c0,0 -115.091,1.294 -137.378,-51.767c-0,0 11.4,-88.577 -15.461,-128.152c-26.86,-39.575 -109.089,24.157 -151.591,-52.493c-42.503,-76.65 26.115,-146.893 -16.485,-181.721c-42.601,-34.829 -177.961,11.514 -241.954,-58.787c-63.993,-70.3 16.31,-127.36 57.941,-119.645c41.631,7.714 147.257,-6.856 185.418,-49.636c38.161,-42.78 147.532,51.52 137.969,106.37c-9.562,54.849 115.676,109.536 178.426,126.657c62.75,17.122 11.94,81.933 -1.708,199.782c-13.648,117.85 -18.529,150.837 4.823,209.392Z" style="fill:#87af35;stroke:#000;stroke-width:6.25px;"/></g><g id="Pflanze-vorne-links9" serif:id="Pflanze-vorne-links"><path d="M10489.4,16794.2c-0,0 64.54,40.677 112.2,-90.319c47.66,-130.997 15.27,-3.297 102.535,-41.559c87.266,-38.263 -7.012,-24.496 -0.55,-98.707c6.463,-74.211 14.392,-91.062 64.968,-73.424c50.576,17.637 135.743,-89.886 24.213,-159.321c-111.53,-69.436 -133.181,39.449 -138.213,87.532c-5.031,48.083 46.492,101.909 0,105.616c-46.491,3.707 -100.837,-11.369 -116.053,53.017c-15.216,64.385 69.474,94.982 -0,126.846c-69.474,31.864 -134.626,-33.95 -92.151,90.319l43.051,0Z" style="fill:#87af35;stroke:#000;stroke-width:6.25px;"/><path d="M10482.4,16703.9c-0,-0 14.536,-195.92 107.606,-220.086c93.07,-24.165 20.843,-70.326 29.533,-148.54c8.691,-78.214 69.665,-71.215 81.124,-116.043c11.458,-44.828 -90.694,-94.499 -80.79,-181.534c0,0 -11.258,-115.428 19.308,-225.802c30.567,-110.373 -278.678,-323.245 -307.519,-259.053c-0,-0 -222.496,95.16 46.287,531.999c0,0 114.065,98.353 118.451,181.864c4.386,83.51 -64.242,306.829 -14,437.195Z" style="fill:#87af35;stroke:#000;stroke-width:6.25px;"/><path d="M10449.4,16681.2c0,0 -115.091,1.294 -137.378,-51.767c-0,0 11.4,-88.577 -15.461,-128.152c-26.86,-39.575 -109.089,24.157 -151.591,-52.493c-42.503,-76.65 26.115,-146.893 -16.485,-181.721c-42.601,-34.829 -177.961,11.513 -241.954,-58.787c-63.993,-70.3 16.31,-127.36 57.941,-119.646c41.631,7.715 147.257,-6.855 185.418,-49.635c38.161,-42.78 147.532,51.52 137.969,106.37c-9.562,54.849 115.676,109.536 178.426,126.657c62.75,17.122 11.94,81.933 -1.708,199.782c-13.648,117.849 -18.529,150.837 4.823,209.392Z" style="fill:#87af35;stroke:#000;stroke-width:6.25px;"/></g><g id="Pflanze-vorne-links10" serif:id="Pflanze-vorne-links"><path d="M10489.4,19055.3c-0,0 64.54,40.677 112.2,-90.319c47.66,-130.997 15.27,-3.297 102.535,-41.559c87.266,-38.263 -7.012,-24.497 -0.55,-98.707c6.463,-74.211 14.392,-91.062 64.968,-73.424c50.576,17.637 135.743,-89.886 24.213,-159.322c-111.53,-69.435 -133.181,39.45 -138.213,87.533c-5.031,48.083 46.492,101.909 0,105.616c-46.491,3.707 -100.837,-11.369 -116.053,53.017c-15.216,64.385 69.474,94.982 -0,126.846c-69.474,31.863 -134.626,-33.95 -92.151,90.319l43.051,0Z" style="fill:#87af35;stroke:#000;stroke-width:6.25px;"/><path d="M10482.4,18965c-0,-0 14.536,-195.92 107.606,-220.086c93.07,-24.165 20.843,-70.327 29.533,-148.541c8.691,-78.214 69.665,-71.214 81.124,-116.042c11.458,-44.828 -90.694,-94.499 -80.79,-181.534c0,-0 -11.258,-115.428 19.308,-225.802c30.567,-110.374 -278.678,-323.245 -307.519,-259.053c-0,-0 -222.496,95.16 46.287,531.999c0,-0 114.065,98.353 118.451,181.864c4.386,83.51 -64.242,306.829 -14,437.195Z" style="fill:#87af35;stroke:#000;stroke-width:6.25px;"/><path d="M10449.4,18942.3c0,0 -115.091,1.294 -137.378,-51.767c-0,0 11.4,-88.577 -15.461,-128.152c-26.86,-39.575 -109.089,24.157 -151.591,-52.493c-42.503,-76.65 26.115,-146.893 -16.485,-181.721c-42.601,-34.829 -177.961,11.513 -241.954,-58.787c-63.993,-70.3 16.31,-127.36 57.941,-119.646c41.631,7.715 147.257,-6.855 185.418,-49.635c38.161,-42.78 147.532,51.52 137.969,106.369c-9.562,54.85 115.676,109.536 178.426,126.658c62.75,17.122 11.94,81.932 -1.708,199.782c-13.648,117.849 -18.529,150.837 4.823,209.392Z" style="fill:#87af35;stroke:#000;stroke-width:6.25px;"/></g><g id="Pflanze-vorne-links11" serif:id="Pflanze-vorne-links"><path d="M10662.6,21316.5c0,0 64.541,40.677 112.201,-90.319c47.66,-130.997 15.27,-3.297 102.535,-41.56c87.265,-38.262 -7.012,-24.496 -0.55,-98.706c6.463,-74.211 14.392,-91.062 64.968,-73.424c50.576,17.637 135.742,-89.886 24.213,-159.322c-111.53,-69.435 -133.181,39.45 -138.213,87.533c-5.031,48.082 46.492,101.909 0,105.616c-46.491,3.707 -100.837,-11.369 -116.054,53.017c-15.216,64.385 69.475,94.982 0,126.846c-69.474,31.863 -134.625,-33.95 -92.15,90.319l43.05,0Z" style="fill:#87af35;stroke:#000;stroke-width:6.25px;"/><path d="M10655.5,21226.2c-0,-0 14.536,-195.92 107.606,-220.086c93.07,-24.166 20.843,-70.327 29.533,-148.541c8.69,-78.214 69.665,-71.214 81.123,-116.042c11.459,-44.828 -90.693,-94.5 -80.789,-181.534c-0,-0 -11.259,-115.428 19.308,-225.802c30.567,-110.374 -278.678,-323.245 -307.52,-259.054c0,0 -222.495,95.16 46.288,532c-0,-0 114.065,98.353 118.451,181.864c4.386,83.51 -64.242,306.829 -14,437.195Z" style="fill:#87af35;stroke:#000;stroke-width:6.25px;"/><path d="M10622.5,21203.4c-0,-0 -115.091,1.294 -137.379,-51.767c0,-0 11.4,-88.577 -15.46,-128.152c-26.86,-39.575 -109.089,24.157 -151.592,-52.493c-42.502,-76.65 26.116,-146.893 -16.484,-181.721c-42.601,-34.829 -177.961,11.513 -241.954,-58.787c-63.994,-70.3 16.309,-127.36 57.941,-119.646c41.631,7.714 147.257,-6.855 185.418,-49.635c38.161,-42.781 147.531,51.52 137.969,106.369c-9.562,54.85 115.676,109.536 178.426,126.658c62.75,17.122 11.94,81.932 -1.708,199.782c-13.648,117.849 -18.53,150.837 4.823,209.392Z" style="fill:#87af35;stroke:#000;stroke-width:6.25px;"/></g></g><g id="Schild-Beet-5"><path d="M12038.2,16658.8c-0,-15.807 -12.834,-28.641 -28.642,-28.641l-3156.24,0c-15.808,0 -28.641,12.834 -28.641,28.641l-0,1374.78c-0,15.808 12.833,28.641 28.641,28.641l3156.24,0c15.808,0 28.642,-12.833 28.642,-28.641l-0,-1374.78Z" style="fill:#f1dcaa;"/><g transform="matrix(937.5,0,0,937.5,11789.6,17618.4)"></g><text x="9016.47px" y="17618.4px" style="font-family:'Ubuntu', sans-serif;font-size:937.5px;fill:#ba2d0b;">Beet 5</text></g></g><g id="Beet4"><rect x="15154.1" y="12732.5" width="4429.13" height="9227.36" style="fill:#8b6818;"/><g id="Pflanzen10"><g id="Pflanze-hinten-links21" serif:id="Pflanze-hinten-links"><path d="M17310.2,13076.6c-0,0 213.128,295.677 -19.774,761.965c-0,-0 -137.985,-433.155 19.774,-761.965Z" style="fill:#87af35;stroke:#000;stroke-width:3.13px;"/><path d="M16956.4,13399.3c0,-0 435.335,-139.687 406.997,506.296c0,0 -22.49,33.994 -76.836,-10.241c0,-0 -62.754,-401.795 -330.161,-496.055Z" style="fill:#87af35;stroke:#000;stroke-width:3.13px;"/><path d="M17672.6,13402.6c-0,-0 -367.778,-71.067 -334.855,507.916c-0,-0 15.143,25.221 34.711,-31.319c0,-0 138.826,-449.455 300.144,-476.597Z" style="fill:#87af35;stroke:#000;stroke-width:3.13px;"/></g><g id="Pflanze-hinten-links22" serif:id="Pflanze-hinten-links"><path d="M17310.2,15612.5c-0,-0 213.128,295.676 -19.774,761.964c-0,0 -137.985,-433.155 19.774,-761.964Z" style="fill:#87af35;stroke:#000;stroke-width:3.13px;"/><path d="M16956.4,15935.2c0,-0 435.335,-139.687 406.997,506.297c0,-0 -22.49,33.993 -76.836,-10.242c0,-0 -62.754,-401.795 -330.161,-496.055Z" style="fill:#87af35;stroke:#000;stroke-width:3.13px;"/><path d="M17672.6,15938.5c-0,-0 -367.778,-71.067 -334.855,507.916c-0,-0 15.143,25.222 34.711,-31.319c0,-0 138.826,-449.455 300.144,-476.597Z" style="fill:#87af35;stroke:#000;stroke-width:3.13px;"/></g><g id="Pflanze-hinten-links23" serif:id="Pflanze-hinten-links"><path d="M17310.2,18148.3c-0,-0 213.128,295.677 -19.774,761.964c-0,0 -137.985,-433.155 19.774,-761.964Z" style="fill:#87af35;stroke:#000;stroke-width:3.13px;"/><path d="M16956.4,18471c0,0 435.335,-139.687 406.997,506.297c0,-0 -22.49,33.994 -76.836,-10.242c0,-0 -62.754,-401.795 -330.161,-496.055Z" style="fill:#87af35;stroke:#000;stroke-width:3.13px;"/><path d="M17672.6,18474.3c-0,0 -367.778,-71.067 -334.855,507.916c-0,0 15.143,25.222 34.711,-31.319c0,-0 138.826,-449.455 300.144,-476.597Z" style="fill:#87af35;stroke:#000;stroke-width:3.13px;"/></g><g id="Pflanze-hinten-links24" serif:id="Pflanze-hinten-links"><path d="M17310.2,14344.5c-0,-0 213.128,295.677 -19.774,761.964c-0,0 -137.985,-433.154 19.774,-761.964Z" style="fill:#87af35;stroke:#000;stroke-width:3.13px;"/><path d="M16956.4,14667.2c0,0 435.335,-139.686 406.997,506.297c0,0 -22.49,33.994 -76.836,-10.242c0,0 -62.754,-401.795 -330.161,-496.055Z" style="fill:#87af35;stroke:#000;stroke-width:3.13px;"/><path d="M17672.6,14670.5c-0,0 -367.778,-71.066 -334.855,507.916c-0,0 15.143,25.222 34.711,-31.319c0,0 138.826,-449.454 300.144,-476.597Z" style="fill:#87af35;stroke:#000;stroke-width:3.13px;"/></g><g id="Pflanze-hinten-links25" serif:id="Pflanze-hinten-links"><path d="M17310.2,16880.4c-0,0 213.128,295.677 -19.774,761.965c-0,-0 -137.985,-433.155 19.774,-761.965Z" style="fill:#87af35;stroke:#000;stroke-width:3.13px;"/><path d="M16956.4,17203.1c0,-0 435.335,-139.687 406.997,506.296c0,0 -22.49,33.994 -76.836,-10.242c0,0 -62.754,-401.794 -330.161,-496.054Z" style="fill:#87af35;stroke:#000;stroke-width:3.13px;"/><path d="M17672.6,17206.4c-0,-0 -367.778,-71.067 -334.855,507.916c-0,-0 15.143,25.221 34.711,-31.32c0,0 138.826,-449.454 300.144,-476.596Z" style="fill:#87af35;stroke:#000;stroke-width:3.13px;"/></g><g id="Pflanze-hinten-links26" serif:id="Pflanze-hinten-links"><path d="M17310.2,19416.3c-0,0 213.128,295.677 -19.774,761.965c-0,-0 -137.985,-433.155 19.774,-761.965Z" style="fill:#87af35;stroke:#000;stroke-width:3.13px;"/><path d="M16956.4,19739c0,-0 435.335,-139.687 406.997,506.296c0,0 -22.49,33.994 -76.836,-10.241c0,-0 -62.754,-401.795 -330.161,-496.055Z" style="fill:#87af35;stroke:#000;stroke-width:3.13px;"/><path d="M17672.6,19742.3c-0,-0 -367.778,-71.067 -334.855,507.916c-0,-0 15.143,25.222 34.711,-31.319c0,-0 138.826,-449.455 300.144,-476.597Z" style="fill:#87af35;stroke:#000;stroke-width:3.13px;"/></g><g id="Pflanze-hinten-links27" serif:id="Pflanze-hinten-links"><path d="M17310.2,20684.2c-0,0 213.128,295.677 -19.774,761.964c-0,0 -137.985,-433.154 19.774,-761.964Z" style="fill:#87af35;stroke:#000;stroke-width:3.13px;"/><path d="M16956.4,21006.9c0,0 435.335,-139.686 406.997,506.297c0,0 -22.49,33.994 -76.836,-10.242c0,0 -62.754,-401.795 -330.161,-496.055Z" style="fill:#87af35;stroke:#000;stroke-width:3.13px;"/><path d="M17672.6,21010.2c-0,0 -367.778,-71.066 -334.855,507.916c-0,0 15.143,25.222 34.711,-31.319c0,0 138.826,-449.454 300.144,-476.597Z" style="fill:#87af35;stroke:#000;stroke-width:3.13px;"/></g></g><g id="Pflanzen9"><g id="Pflanze-hinten-links28" serif:id="Pflanze-hinten-links"><path d="M18648.3,13076.6c0,0 213.128,295.677 -19.773,761.965c-0,-0 -137.985,-433.155 19.773,-761.965Z" style="fill:#87af35;stroke:#000;stroke-width:3.13px;"/><path d="M18294.5,13399.3c-0,-0 435.334,-139.687 406.997,506.296c0,0 -22.49,33.994 -76.836,-10.241c-0,-0 -62.754,-401.795 -330.161,-496.055Z" style="fill:#87af35;stroke:#000;stroke-width:3.13px;"/><path d="M19010.7,13402.6c0,-0 -367.778,-71.067 -334.855,507.916c0,-0 15.144,25.221 34.712,-31.319c-0,-0 138.825,-449.455 300.143,-476.597Z" style="fill:#87af35;stroke:#000;stroke-width:3.13px;"/></g><g id="Pflanze-hinten-links29" serif:id="Pflanze-hinten-links"><path d="M18648.3,15612.5c0,-0 213.128,295.676 -19.773,761.964c-0,0 -137.985,-433.155 19.773,-761.964Z" style="fill:#87af35;stroke:#000;stroke-width:3.13px;"/><path d="M18294.5,15935.2c-0,-0 435.334,-139.687 406.997,506.297c0,-0 -22.49,33.993 -76.836,-10.242c-0,-0 -62.754,-401.795 -330.161,-496.055Z" style="fill:#87af35;stroke:#000;stroke-width:3.13px;"/><path d="M19010.7,15938.5c0,-0 -367.778,-71.067 -334.855,507.916c0,-0 15.144,25.222 34.712,-31.319c-0,-0 138.825,-449.455 300.143,-476.597Z" style="fill:#87af35;stroke:#000;stroke-width:3.13px;"/></g><g id="Pflanze-hinten-links30" serif:id="Pflanze-hinten-links"><path d="M18648.3,18148.3c0,-0 213.128,295.677 -19.773,761.964c-0,0 -137.985,-433.155 19.773,-761.964Z" style="fill:#87af35;stroke:#000;stroke-width:3.13px;"/><path d="M18294.5,18471c-0,0 435.334,-139.687 406.997,506.297c0,-0 -22.49,33.994 -76.836,-10.242c-0,-0 -62.754,-401.795 -330.161,-496.055Z" style="fill:#87af35;stroke:#000;stroke-width:3.13px;"/><path d="M19010.7,18474.3c0,0 -367.778,-71.067 -334.855,507.916c0,0 15.144,25.222 34.712,-31.319c-0,-0 138.825,-449.455 300.143,-476.597Z" style="fill:#87af35;stroke:#000;stroke-width:3.13px;"/></g><g id="Pflanze-hinten-links31" serif:id="Pflanze-hinten-links"><path d="M18648.3,14344.5c0,-0 213.128,295.677 -19.773,761.964c-0,0 -137.985,-433.154 19.773,-761.964Z" style="fill:#87af35;stroke:#000;stroke-width:3.13px;"/><path d="M18294.5,14667.2c-0,0 435.334,-139.686 406.997,506.297c0,0 -22.49,33.994 -76.836,-10.242c-0,0 -62.754,-401.795 -330.161,-496.055Z" style="fill:#87af35;stroke:#000;stroke-width:3.13px;"/><path d="M19010.7,14670.5c0,0 -367.778,-71.066 -334.855,507.916c0,0 15.144,25.222 34.712,-31.319c-0,0 138.825,-449.454 300.143,-476.597Z" style="fill:#87af35;stroke:#000;stroke-width:3.13px;"/></g><g id="Pflanze-hinten-links32" serif:id="Pflanze-hinten-links"><path d="M18648.3,16880.4c0,0 213.128,295.677 -19.773,761.965c-0,-0 -137.985,-433.155 19.773,-761.965Z" style="fill:#87af35;stroke:#000;stroke-width:3.13px;"/><path d="M18294.5,17203.1c-0,-0 435.334,-139.687 406.997,506.296c0,0 -22.49,33.994 -76.836,-10.242c-0,0 -62.754,-401.794 -330.161,-496.054Z" style="fill:#87af35;stroke:#000;stroke-width:3.13px;"/><path d="M19010.7,17206.4c0,-0 -367.778,-71.067 -334.855,507.916c0,-0 15.144,25.221 34.712,-31.32c-0,0 138.825,-449.454 300.143,-476.596Z" style="fill:#87af35;stroke:#000;stroke-width:3.13px;"/></g><g id="Pflanze-hinten-links33" serif:id="Pflanze-hinten-links"><path d="M18648.3,19416.3c0,0 213.128,295.677 -19.773,761.965c-0,-0 -137.985,-433.155 19.773,-761.965Z" style="fill:#87af35;stroke:#000;stroke-width:3.13px;"/><path d="M18294.5,19739c-0,-0 435.334,-139.687 406.997,506.296c0,0 -22.49,33.994 -76.836,-10.241c-0,-0 -62.754,-401.795 -330.161,-496.055Z" style="fill:#87af35;stroke:#000;stroke-width:3.13px;"/><path d="M19010.7,19742.3c0,-0 -367.778,-71.067 -334.855,507.916c0,-0 15.144,25.222 34.712,-31.319c-0,-0 138.825,-449.455 300.143,-476.597Z" style="fill:#87af35;stroke:#000;stroke-width:3.13px;"/></g><g id="Pflanze-hinten-links34" serif:id="Pflanze-hinten-links"><path d="M18648.3,20684.2c0,0 213.128,295.677 -19.773,761.964c-0,0 -137.985,-433.154 19.773,-761.964Z" style="fill:#87af35;stroke:#000;stroke-width:3.13px;"/><path d="M18294.5,21006.9c-0,0 435.334,-139.686 406.997,506.297c0,0 -22.49,33.994 -76.836,-10.242c-0,0 -62.754,-401.795 -330.161,-496.055Z" style="fill:#87af35;stroke:#000;stroke-width:3.13px;"/><path d="M19010.7,21010.2c0,0 -367.778,-71.066 -334.855,507.916c0,0 15.144,25.222 34.712,-31.319c-0,0 138.825,-449.454 300.143,-476.597Z" style="fill:#87af35;stroke:#000;stroke-width:3.13px;"/></g></g><g id="Pflanzen11"><g id="Pflanze-vorne-links12" serif:id="Pflanze-vorne-links"><path d="M16087.2,14533c0,-0 64.541,40.676 112.201,-90.32c47.66,-130.997 15.27,-3.296 102.535,-41.559c87.265,-38.263 -7.012,-24.496 -0.55,-98.707c6.462,-74.21 14.392,-91.061 64.968,-73.424c50.576,17.638 135.742,-89.886 24.213,-159.321c-111.53,-69.436 -133.182,39.45 -138.213,87.532c-5.031,48.083 46.491,101.909 -0,105.616c-46.491,3.707 -100.838,-11.369 -116.054,53.017c-15.216,64.385 69.474,94.982 0,126.846c-69.474,31.864 -134.625,-33.95 -92.151,90.32l43.051,-0Z" style="fill:#87af35;stroke:#000;stroke-width:6.25px;"/><path d="M16080.2,14442.7c0,-0 14.537,-195.92 107.607,-220.086c93.07,-24.165 20.843,-70.326 29.533,-148.54c8.69,-78.214 69.665,-71.214 81.123,-116.043c11.458,-44.828 -90.694,-94.499 -80.789,-181.534c-0,0 -11.259,-115.428 19.308,-225.802c30.566,-110.373 -278.678,-323.245 -307.52,-259.053c0,-0 -222.496,95.16 46.288,531.999c-0,0 114.065,98.353 118.451,181.864c4.386,83.51 -64.242,306.829 -14.001,437.195Z" style="fill:#87af35;stroke:#000;stroke-width:6.25px;"/><path d="M16047.1,14420c-0,0 -115.092,1.294 -137.379,-51.767c0,0 11.4,-88.577 -15.46,-128.152c-26.86,-39.575 -109.089,24.157 -151.592,-52.493c-42.503,-76.65 26.116,-146.893 -16.485,-181.721c-42.6,-34.829 -177.96,11.514 -241.953,-58.787c-63.994,-70.3 16.309,-127.36 57.94,-119.645c41.631,7.714 147.258,-6.856 185.419,-49.636c38.161,-42.78 147.531,51.52 137.969,106.37c-9.562,54.849 115.675,109.536 178.426,126.657c62.75,17.122 11.94,81.933 -1.708,199.782c-13.648,117.85 -18.53,150.837 4.823,209.392Z" style="fill:#87af35;stroke:#000;stroke-width:6.25px;"/></g><g id="Pflanze-vorne-links13" serif:id="Pflanze-vorne-links"><path d="M16087.2,16794.2c0,0 64.541,40.677 112.201,-90.319c47.66,-130.997 15.27,-3.297 102.535,-41.559c87.265,-38.263 -7.012,-24.496 -0.55,-98.707c6.462,-74.211 14.392,-91.062 64.968,-73.424c50.576,17.637 135.742,-89.886 24.213,-159.321c-111.53,-69.436 -133.182,39.449 -138.213,87.532c-5.031,48.083 46.491,101.909 -0,105.616c-46.491,3.707 -100.838,-11.369 -116.054,53.017c-15.216,64.385 69.474,94.982 0,126.846c-69.474,31.864 -134.625,-33.95 -92.151,90.319l43.051,0Z" style="fill:#87af35;stroke:#000;stroke-width:6.25px;"/><path d="M16080.2,16703.9c0,-0 14.537,-195.92 107.607,-220.086c93.07,-24.165 20.843,-70.326 29.533,-148.54c8.69,-78.214 69.665,-71.215 81.123,-116.043c11.458,-44.828 -90.694,-94.499 -80.789,-181.534c-0,0 -11.259,-115.428 19.308,-225.802c30.566,-110.373 -278.678,-323.245 -307.52,-259.053c0,-0 -222.496,95.16 46.288,531.999c-0,0 114.065,98.353 118.451,181.864c4.386,83.51 -64.242,306.829 -14.001,437.195Z" style="fill:#87af35;stroke:#000;stroke-width:6.25px;"/><path d="M16047.1,16681.2c-0,0 -115.092,1.294 -137.379,-51.767c0,0 11.4,-88.577 -15.46,-128.152c-26.86,-39.575 -109.089,24.157 -151.592,-52.493c-42.503,-76.65 26.116,-146.893 -16.485,-181.721c-42.6,-34.829 -177.96,11.513 -241.953,-58.787c-63.994,-70.3 16.309,-127.36 57.94,-119.646c41.631,7.715 147.258,-6.855 185.419,-49.635c38.161,-42.78 147.531,51.52 137.969,106.37c-9.562,54.849 115.675,109.536 178.426,126.657c62.75,17.122 11.94,81.933 -1.708,199.782c-13.648,117.849 -18.53,150.837 4.823,209.392Z" style="fill:#87af35;stroke:#000;stroke-width:6.25px;"/></g><g id="Pflanze-vorne-links14" serif:id="Pflanze-vorne-links"><path d="M16087.2,19055.3c0,0 64.541,40.677 112.201,-90.319c47.66,-130.997 15.27,-3.297 102.535,-41.559c87.265,-38.263 -7.012,-24.497 -0.55,-98.707c6.462,-74.211 14.392,-91.062 64.968,-73.424c50.576,17.637 135.742,-89.886 24.213,-159.322c-111.53,-69.435 -133.182,39.45 -138.213,87.533c-5.031,48.083 46.491,101.909 -0,105.616c-46.491,3.707 -100.838,-11.369 -116.054,53.017c-15.216,64.385 69.474,94.982 0,126.846c-69.474,31.863 -134.625,-33.95 -92.151,90.319l43.051,0Z" style="fill:#87af35;stroke:#000;stroke-width:6.25px;"/><path d="M16080.2,18965c0,-0 14.537,-195.92 107.607,-220.086c93.07,-24.165 20.843,-70.327 29.533,-148.541c8.69,-78.214 69.665,-71.214 81.123,-116.042c11.458,-44.828 -90.694,-94.499 -80.789,-181.534c-0,-0 -11.259,-115.428 19.308,-225.802c30.566,-110.374 -278.678,-323.245 -307.52,-259.053c0,-0 -222.496,95.16 46.288,531.999c-0,-0 114.065,98.353 118.451,181.864c4.386,83.51 -64.242,306.829 -14.001,437.195Z" style="fill:#87af35;stroke:#000;stroke-width:6.25px;"/><path d="M16047.1,18942.3c-0,0 -115.092,1.294 -137.379,-51.767c0,0 11.4,-88.577 -15.46,-128.152c-26.86,-39.575 -109.089,24.157 -151.592,-52.493c-42.503,-76.65 26.116,-146.893 -16.485,-181.721c-42.6,-34.829 -177.96,11.513 -241.953,-58.787c-63.994,-70.3 16.309,-127.36 57.94,-119.646c41.631,7.715 147.258,-6.855 185.419,-49.635c38.161,-42.78 147.531,51.52 137.969,106.369c-9.562,54.85 115.675,109.536 178.426,126.658c62.75,17.122 11.94,81.932 -1.708,199.782c-13.648,117.849 -18.53,150.837 4.823,209.392Z" style="fill:#87af35;stroke:#000;stroke-width:6.25px;"/></g><g id="Pflanze-vorne-links15" serif:id="Pflanze-vorne-links"><path d="M16260.3,21316.5c0,0 64.541,40.677 112.201,-90.319c47.659,-130.997 15.27,-3.297 102.535,-41.56c87.265,-38.262 -7.012,-24.496 -0.55,-98.706c6.462,-74.211 14.392,-91.062 64.968,-73.424c50.576,17.637 135.742,-89.886 24.212,-159.322c-111.529,-69.435 -133.181,39.45 -138.212,87.533c-5.032,48.082 46.491,101.909 -0,105.616c-46.492,3.707 -100.838,-11.369 -116.054,53.017c-15.216,64.385 69.474,94.982 0,126.846c-69.474,31.863 -134.625,-33.95 -92.151,90.319l43.051,0Z" style="fill:#87af35;stroke:#000;stroke-width:6.25px;"/><path d="M16253.3,21226.2c0,-0 14.537,-195.92 107.607,-220.086c93.07,-24.166 20.843,-70.327 29.533,-148.541c8.69,-78.214 69.665,-71.214 81.123,-116.042c11.458,-44.828 -90.694,-94.5 -80.789,-181.534c-0,-0 -11.259,-115.428 19.308,-225.802c30.566,-110.374 -278.678,-323.245 -307.52,-259.054c-0,0 -222.496,95.16 46.287,532c0,-0 114.066,98.353 118.452,181.864c4.386,83.51 -64.242,306.829 -14.001,437.195Z" style="fill:#87af35;stroke:#000;stroke-width:6.25px;"/><path d="M16220.3,21203.4c-0,-0 -115.092,1.294 -137.379,-51.767c-0,-0 11.4,-88.577 -15.46,-128.152c-26.86,-39.575 -109.089,24.157 -151.592,-52.493c-42.503,-76.65 26.116,-146.893 -16.485,-181.721c-42.6,-34.829 -177.96,11.513 -241.954,-58.787c-63.993,-70.3 16.31,-127.36 57.941,-119.646c41.631,7.714 147.257,-6.855 185.418,-49.635c38.161,-42.781 147.532,51.52 137.97,106.369c-9.562,54.85 115.675,109.536 178.425,126.658c62.751,17.122 11.941,81.932 -1.707,199.782c-13.648,117.849 -18.53,150.837 4.823,209.392Z" style="fill:#87af35;stroke:#000;stroke-width:6.25px;"/></g></g><g id="Schild-Beet-4"><path d="M19110.9,16658.8c0,-15.807 -12.833,-28.641 -28.641,-28.641l-3156.24,0c-15.808,0 -28.642,12.834 -28.642,28.641l0,1374.78c0,15.808 12.834,28.641 28.642,28.641l3156.24,0c15.808,0 28.641,-12.833 28.641,-28.641l0,-1374.78Z" style="fill:#f1dcaa;"/><g transform="matrix(937.5,0,0,937.5,18862.3,17618.4)"></g><text x="16089.1px" y="17618.4px" style="font-family:'Ubuntu', sans-serif;font-size:937.5px;fill:#ba2d0b;">Beet 4</text></g></g><g id="Beet3"><rect x="15154.1" y="1392.46" width="4429.13" height="9227.36" style="fill:#8b6818;"/><g id="Pflanzen8"><g id="Pflanze-hinten-links35" serif:id="Pflanze-hinten-links"><path d="M18906.9,1814.3c0,0 213.128,295.677 -19.774,761.965c0,-0 -137.984,-433.155 19.774,-761.965Z" style="fill:#87af35;stroke:#000;stroke-width:3.13px;"/><path d="M18553.1,2136.99c-0,-0 435.334,-139.687 406.997,506.296c-0,0 -22.49,33.994 -76.837,-10.242c0,0 -62.753,-401.794 -330.16,-496.054Z" style="fill:#87af35;stroke:#000;stroke-width:3.13px;"/><path d="M19269.4,2140.29c0,0 -367.778,-71.066 -334.855,507.916c0,0 15.143,25.222 34.711,-31.319c0,0 138.826,-449.454 300.144,-476.597Z" style="fill:#87af35;stroke:#000;stroke-width:3.13px;"/></g><g id="Pflanze-hinten-links36" serif:id="Pflanze-hinten-links"><path d="M18906.9,4350.16c0,0 213.128,295.677 -19.774,761.965c0,-0 -137.984,-433.155 19.774,-761.965Z" style="fill:#87af35;stroke:#000;stroke-width:3.13px;"/><path d="M18553.1,4672.86c-0,-0 435.334,-139.687 406.997,506.296c-0,0 -22.49,33.994 -76.837,-10.241c0,-0 -62.753,-401.795 -330.16,-496.055Z" style="fill:#87af35;stroke:#000;stroke-width:3.13px;"/><path d="M19269.4,4676.15c0,-0 -367.778,-71.067 -334.855,507.916c0,-0 15.143,25.221 34.711,-31.319c0,-0 138.826,-449.455 300.144,-476.597Z" style="fill:#87af35;stroke:#000;stroke-width:3.13px;"/></g><g id="Pflanze-hinten-links37" serif:id="Pflanze-hinten-links"><path d="M18906.9,6886.03c0,-0 213.128,295.676 -19.774,761.964c0,0 -137.984,-433.155 19.774,-761.964Z" style="fill:#87af35;stroke:#000;stroke-width:3.13px;"/><path d="M18553.1,7208.72c-0,-0 435.334,-139.687 406.997,506.297c-0,-0 -22.49,33.993 -76.837,-10.242c0,-0 -62.753,-401.795 -330.16,-496.055Z" style="fill:#87af35;stroke:#000;stroke-width:3.13px;"/><path d="M19269.4,7212.01c0,-0 -367.778,-71.067 -334.855,507.916c0,-0 15.143,25.222 34.711,-31.319c0,-0 138.826,-449.455 300.144,-476.597Z" style="fill:#87af35;stroke:#000;stroke-width:3.13px;"/></g><g id="Pflanze-hinten-links38" serif:id="Pflanze-hinten-links"><path d="M18906.9,3082.23c0,-0 213.128,295.677 -19.774,761.964c0,0 -137.984,-433.155 19.774,-761.964Z" style="fill:#87af35;stroke:#000;stroke-width:3.13px;"/><path d="M18553.1,3404.92c-0,0 435.334,-139.687 406.997,506.297c-0,-0 -22.49,33.994 -76.837,-10.242c0,-0 -62.753,-401.795 -330.16,-496.055Z" style="fill:#87af35;stroke:#000;stroke-width:3.13px;"/><path d="M19269.4,3408.22c0,0 -367.778,-71.067 -334.855,507.916c0,0 15.143,25.222 34.711,-31.319c0,-0 138.826,-449.455 300.144,-476.597Z" style="fill:#87af35;stroke:#000;stroke-width:3.13px;"/></g><g id="Pflanze-hinten-links39" serif:id="Pflanze-hinten-links"><path d="M18906.9,5618.1c0,-0 213.128,295.677 -19.774,761.964c0,0 -137.984,-433.154 19.774,-761.964Z" style="fill:#87af35;stroke:#000;stroke-width:3.13px;"/><path d="M18553.1,5940.79c-0,0 435.334,-139.686 406.997,506.297c-0,0 -22.49,33.994 -76.837,-10.242c0,0 -62.753,-401.795 -330.16,-496.055Z" style="fill:#87af35;stroke:#000;stroke-width:3.13px;"/><path d="M19269.4,5944.08c0,0 -367.778,-71.066 -334.855,507.916c0,0 15.143,25.222 34.711,-31.319c0,0 138.826,-449.454 300.144,-476.597Z" style="fill:#87af35;stroke:#000;stroke-width:3.13px;"/></g><g id="Pflanze-hinten-links40" serif:id="Pflanze-hinten-links"><path d="M18906.9,8153.96c0,0 213.128,295.677 -19.774,761.965c0,-0 -137.984,-433.155 19.774,-761.965Z" style="fill:#87af35;stroke:#000;stroke-width:3.13px;"/><path d="M18553.1,8476.65c-0,-0 435.334,-139.687 406.997,506.296c-0,0 -22.49,33.994 -76.837,-10.242c0,0 -62.753,-401.794 -330.16,-496.054Z" style="fill:#87af35;stroke:#000;stroke-width:3.13px;"/><path d="M19269.4,8479.94c0,-0 -367.778,-71.067 -334.855,507.916c0,-0 15.143,25.221 34.711,-31.32c0,0 138.826,-449.454 300.144,-476.596Z" style="fill:#87af35;stroke:#000;stroke-width:3.13px;"/></g><g id="Pflanze-hinten-links41" serif:id="Pflanze-hinten-links"><path d="M18906.9,9421.89c0,-0 213.128,295.677 -19.774,761.964c0,0 -137.984,-433.155 19.774,-761.964Z" style="fill:#87af35;stroke:#000;stroke-width:3.13px;"/><path d="M18553.1,9744.58c-0,0 435.334,-139.687 406.997,506.297c-0,-0 -22.49,33.994 -76.837,-10.242c0,-0 -62.753,-401.795 -330.16,-496.055Z" style="fill:#87af35;stroke:#000;stroke-width:3.13px;"/><path d="M19269.4,9747.88c0,0 -367.778,-71.066 -334.855,507.916c0,0 15.143,25.222 34.711,-31.319c0,-0 138.826,-449.455 300.144,-476.597Z" style="fill:#87af35;stroke:#000;stroke-width:3.13px;"/></g></g><g id="Pflanzen7"><g id="Pflanze-hinten-links42" serif:id="Pflanze-hinten-links"><path d="M17364.4,1781.62c-0,-0 213.127,295.677 -19.774,761.964c-0,0 -137.985,-433.154 19.774,-761.964Z" style="fill:#87af35;stroke:#000;stroke-width:3.13px;"/><path d="M17010.6,2104.31c0,0 435.335,-139.686 406.997,506.297c0,0 -22.49,33.994 -76.836,-10.242c-0,0 -62.754,-401.795 -330.161,-496.055Z" style="fill:#87af35;stroke:#000;stroke-width:3.13px;"/><path d="M17726.8,2107.6c-0,0 -367.778,-71.066 -334.855,507.916c-0,0 15.143,25.222 34.711,-31.319c-0,0 138.826,-449.454 300.144,-476.597Z" style="fill:#87af35;stroke:#000;stroke-width:3.13px;"/></g><g id="Pflanze-hinten-links43" serif:id="Pflanze-hinten-links"><path d="M17364.4,4317.48c-0,0 213.127,295.677 -19.774,761.965c-0,-0 -137.985,-433.155 19.774,-761.965Z" style="fill:#87af35;stroke:#000;stroke-width:3.13px;"/><path d="M17010.6,4640.17c0,-0 435.335,-139.687 406.997,506.296c0,0 -22.49,33.994 -76.836,-10.242c-0,0 -62.754,-401.794 -330.161,-496.054Z" style="fill:#87af35;stroke:#000;stroke-width:3.13px;"/><path d="M17726.8,4643.47c-0,-0 -367.778,-71.067 -334.855,507.916c-0,-0 15.143,25.221 34.711,-31.32c-0,0 138.826,-449.454 300.144,-476.596Z" style="fill:#87af35;stroke:#000;stroke-width:3.13px;"/></g><g id="Pflanze-hinten-links44" serif:id="Pflanze-hinten-links"><path d="M17364.4,6853.34c-0,0 213.127,295.677 -19.774,761.965c-0,-0 -137.985,-433.155 19.774,-761.965Z" style="fill:#87af35;stroke:#000;stroke-width:3.13px;"/><path d="M17010.6,7176.03c0,-0 435.335,-139.687 406.997,506.297c0,-0 -22.49,33.993 -76.836,-10.242c-0,-0 -62.754,-401.795 -330.161,-496.055Z" style="fill:#87af35;stroke:#000;stroke-width:3.13px;"/><path d="M17726.8,7179.33c-0,-0 -367.778,-71.067 -334.855,507.916c-0,-0 15.143,25.222 34.711,-31.319c-0,-0 138.826,-449.455 300.144,-476.597Z" style="fill:#87af35;stroke:#000;stroke-width:3.13px;"/></g><g id="Pflanze-hinten-links45" serif:id="Pflanze-hinten-links"><path d="M17364.4,3049.55c-0,-0 213.127,295.676 -19.774,761.964c-0,0 -137.985,-433.155 19.774,-761.964Z" style="fill:#87af35;stroke:#000;stroke-width:3.13px;"/><path d="M17010.6,3372.24c0,-0 435.335,-139.687 406.997,506.297c0,-0 -22.49,33.993 -76.836,-10.242c-0,-0 -62.754,-401.795 -330.161,-496.055Z" style="fill:#87af35;stroke:#000;stroke-width:3.13px;"/><path d="M17726.8,3375.53c-0,-0 -367.778,-71.067 -334.855,507.916c-0,-0 15.143,25.222 34.711,-31.319c-0,-0 138.826,-449.455 300.144,-476.597Z" style="fill:#87af35;stroke:#000;stroke-width:3.13px;"/></g><g id="Pflanze-hinten-links46" serif:id="Pflanze-hinten-links"><path d="M17364.4,5585.41c-0,-0 213.127,295.677 -19.774,761.964c-0,0 -137.985,-433.155 19.774,-761.964Z" style="fill:#87af35;stroke:#000;stroke-width:3.13px;"/><path d="M17010.6,5908.1c0,0 435.335,-139.687 406.997,506.297c0,-0 -22.49,33.994 -76.836,-10.242c-0,-0 -62.754,-401.795 -330.161,-496.055Z" style="fill:#87af35;stroke:#000;stroke-width:3.13px;"/><path d="M17726.8,5911.4c-0,0 -367.778,-71.066 -334.855,507.916c-0,0 15.143,25.222 34.711,-31.319c-0,-0 138.826,-449.455 300.144,-476.597Z" style="fill:#87af35;stroke:#000;stroke-width:3.13px;"/></g><g id="Pflanze-hinten-links47" serif:id="Pflanze-hinten-links"><path d="M17364.4,8121.28c-0,0 213.127,295.677 -19.774,761.964c-0,0 -137.985,-433.154 19.774,-761.964Z" style="fill:#87af35;stroke:#000;stroke-width:3.13px;"/><path d="M17010.6,8443.97c0,0 435.335,-139.686 406.997,506.297c0,0 -22.49,33.994 -76.836,-10.242c-0,0 -62.754,-401.795 -330.161,-496.055Z" style="fill:#87af35;stroke:#000;stroke-width:3.13px;"/><path d="M17726.8,8447.26c-0,0 -367.778,-71.066 -334.855,507.916c-0,0 15.143,25.222 34.711,-31.319c-0,0 138.826,-449.454 300.144,-476.597Z" style="fill:#87af35;stroke:#000;stroke-width:3.13px;"/></g><g id="Pflanze-hinten-links48" serif:id="Pflanze-hinten-links"><path d="M17364.4,9389.21c-0,-0 213.127,295.676 -19.774,761.964c-0,0 -137.985,-433.155 19.774,-761.964Z" style="fill:#87af35;stroke:#000;stroke-width:3.13px;"/><path d="M17010.6,9711.9c0,0 435.335,-139.687 406.997,506.297c0,-0 -22.49,33.994 -76.836,-10.242c-0,-0 -62.754,-401.795 -330.161,-496.055Z" style="fill:#87af35;stroke:#000;stroke-width:3.13px;"/><path d="M17726.8,9715.19c-0,-0 -367.778,-71.067 -334.855,507.916c-0,0 15.143,25.222 34.711,-31.319c-0,-0 138.826,-449.455 300.144,-476.597Z" style="fill:#87af35;stroke:#000;stroke-width:3.13px;"/></g></g><g id="Pflanzen6"><g id="Pflanze-hinten-links49" serif:id="Pflanze-hinten-links"><path d="M16095.8,1781.62c-0,-0 213.128,295.677 -19.774,761.964c0,0 -137.985,-433.154 19.774,-761.964Z" style="fill:#87af35;stroke:#000;stroke-width:3.13px;"/><path d="M15742,2104.31c0,0 435.335,-139.686 406.997,506.297c0,0 -22.49,33.994 -76.836,-10.242c0,0 -62.754,-401.795 -330.161,-496.055Z" style="fill:#87af35;stroke:#000;stroke-width:3.13px;"/><path d="M16458.2,2107.6c-0,0 -367.778,-71.066 -334.855,507.916c-0,0 15.143,25.222 34.711,-31.319c0,0 138.826,-449.454 300.144,-476.597Z" style="fill:#87af35;stroke:#000;stroke-width:3.13px;"/></g><g id="Pflanze-hinten-links50" serif:id="Pflanze-hinten-links"><path d="M16095.8,4317.48c-0,0 213.128,295.677 -19.774,761.965c0,-0 -137.985,-433.155 19.774,-761.965Z" style="fill:#87af35;stroke:#000;stroke-width:3.13px;"/><path d="M15742,4640.17c0,-0 435.335,-139.687 406.997,506.296c0,0 -22.49,33.994 -76.836,-10.242c0,0 -62.754,-401.794 -330.161,-496.054Z" style="fill:#87af35;stroke:#000;stroke-width:3.13px;"/><path d="M16458.2,4643.47c-0,-0 -367.778,-71.067 -334.855,507.916c-0,-0 15.143,25.221 34.711,-31.32c0,0 138.826,-449.454 300.144,-476.596Z" style="fill:#87af35;stroke:#000;stroke-width:3.13px;"/></g><g id="Pflanze-hinten-links51" serif:id="Pflanze-hinten-links"><path d="M16095.8,6853.34c-0,0 213.128,295.677 -19.774,761.965c0,-0 -137.985,-433.155 19.774,-761.965Z" style="fill:#87af35;stroke:#000;stroke-width:3.13px;"/><path d="M15742,7176.03c0,-0 435.335,-139.687 406.997,506.297c0,-0 -22.49,33.993 -76.836,-10.242c0,-0 -62.754,-401.795 -330.161,-496.055Z" style="fill:#87af35;stroke:#000;stroke-width:3.13px;"/><path d="M16458.2,7179.33c-0,-0 -367.778,-71.067 -334.855,507.916c-0,-0 15.143,25.222 34.711,-31.319c0,-0 138.826,-449.455 300.144,-476.597Z" style="fill:#87af35;stroke:#000;stroke-width:3.13px;"/></g><g id="Pflanze-hinten-links52" serif:id="Pflanze-hinten-links"><path d="M16095.8,3049.55c-0,-0 213.128,295.676 -19.774,761.964c0,0 -137.985,-433.155 19.774,-761.964Z" style="fill:#87af35;stroke:#000;stroke-width:3.13px;"/><path d="M15742,3372.24c0,-0 435.335,-139.687 406.997,506.297c0,-0 -22.49,33.993 -76.836,-10.242c0,-0 -62.754,-401.795 -330.161,-496.055Z" style="fill:#87af35;stroke:#000;stroke-width:3.13px;"/><path d="M16458.2,3375.53c-0,-0 -367.778,-71.067 -334.855,507.916c-0,-0 15.143,25.222 34.711,-31.319c0,-0 138.826,-449.455 300.144,-476.597Z" style="fill:#87af35;stroke:#000;stroke-width:3.13px;"/></g><g id="Pflanze-hinten-links53" serif:id="Pflanze-hinten-links"><path d="M16095.8,5585.41c-0,-0 213.128,295.677 -19.774,761.964c0,0 -137.985,-433.155 19.774,-761.964Z" style="fill:#87af35;stroke:#000;stroke-width:3.13px;"/><path d="M15742,5908.1c0,0 435.335,-139.687 406.997,506.297c0,-0 -22.49,33.994 -76.836,-10.242c0,-0 -62.754,-401.795 -330.161,-496.055Z" style="fill:#87af35;stroke:#000;stroke-width:3.13px;"/><path d="M16458.2,5911.4c-0,0 -367.778,-71.066 -334.855,507.916c-0,0 15.143,25.222 34.711,-31.319c0,-0 138.826,-449.455 300.144,-476.597Z" style="fill:#87af35;stroke:#000;stroke-width:3.13px;"/></g><g id="Pflanze-hinten-links54" serif:id="Pflanze-hinten-links"><path d="M16095.8,8121.28c-0,0 213.128,295.677 -19.774,761.964c0,0 -137.985,-433.154 19.774,-761.964Z" style="fill:#87af35;stroke:#000;stroke-width:3.13px;"/><path d="M15742,8443.97c0,0 435.335,-139.686 406.997,506.297c0,0 -22.49,33.994 -76.836,-10.242c0,0 -62.754,-401.795 -330.161,-496.055Z" style="fill:#87af35;stroke:#000;stroke-width:3.13px;"/><path d="M16458.2,8447.26c-0,0 -367.778,-71.066 -334.855,507.916c-0,0 15.143,25.222 34.711,-31.319c0,0 138.826,-449.454 300.144,-476.597Z" style="fill:#87af35;stroke:#000;stroke-width:3.13px;"/></g><g id="Pflanze-hinten-links55" serif:id="Pflanze-hinten-links"><path d="M16095.8,9389.21c-0,-0 213.128,295.676 -19.774,761.964c0,0 -137.985,-433.155 19.774,-761.964Z" style="fill:#87af35;stroke:#000;stroke-width:3.13px;"/><path d="M15742,9711.9c0,0 435.335,-139.687 406.997,506.297c0,-0 -22.49,33.994 -76.836,-10.242c0,-0 -62.754,-401.795 -330.161,-496.055Z" style="fill:#87af35;stroke:#000;stroke-width:3.13px;"/><path d="M16458.2,9715.19c-0,-0 -367.778,-71.067 -334.855,507.916c-0,0 15.143,25.222 34.711,-31.319c0,-0 138.826,-449.455 300.144,-476.597Z" style="fill:#87af35;stroke:#000;stroke-width:3.13px;"/></g></g><g id="Schild-Beet-3"><path d="M19165.1,5479.39c0,-15.808 -12.833,-28.641 -28.641,-28.641l-3156.24,-0c-15.808,-0 -28.642,12.833 -28.642,28.641l0,1374.78c0,15.807 12.834,28.641 28.642,28.641l3156.24,-0c15.808,-0 28.641,-12.834 28.641,-28.641l0,-1374.78Z" style="fill:#f1dcaa;"/><g transform="matrix(937.5,0,0,937.5,18916.5,6439.01)"></g><text x="16143.4px" y="6439.01px" style="font-family:'Ubuntu', sans-serif;font-size:937.5px;fill:#ba2d0b;">Beet 3</text></g></g><g id="Beet2"><rect x="8216.87" y="1392.46" width="4429.13" height="9227.36" style="fill:#8b6818;"/><g id="Pflanzen3"><g id="Pflanze-hinten-links56" serif:id="Pflanze-hinten-links"><path d="M8949.12,1779.93c-0,0 213.127,295.677 -19.774,761.965c-0,-0 -137.985,-433.155 19.774,-761.965Z" style="fill:#87af35;stroke:#000;stroke-width:3.13px;"/><path d="M8595.31,2102.62c0,-0 435.335,-139.687 406.997,506.296c0,0 -22.49,33.994 -76.836,-10.242c-0,0 -62.754,-401.794 -330.161,-496.054Z" style="fill:#87af35;stroke:#000;stroke-width:3.13px;"/><path d="M9311.53,2105.91c-0,0 -367.778,-71.066 -334.855,507.916c-0,0 15.143,25.222 34.711,-31.319c-0,0 138.826,-449.454 300.144,-476.597Z" style="fill:#87af35;stroke:#000;stroke-width:3.13px;"/></g><g id="Pflanze-hinten-links57" serif:id="Pflanze-hinten-links"><path d="M8949.12,4315.79c-0,0 213.127,295.677 -19.774,761.965c-0,-0 -137.985,-433.155 19.774,-761.965Z" style="fill:#87af35;stroke:#000;stroke-width:3.13px;"/><path d="M8595.31,4638.48c0,-0 435.335,-139.687 406.997,506.296c0,0 -22.49,33.994 -76.836,-10.241c-0,-0 -62.754,-401.795 -330.161,-496.055Z" style="fill:#87af35;stroke:#000;stroke-width:3.13px;"/><path d="M9311.53,4641.78c-0,-0 -367.778,-71.067 -334.855,507.916c-0,-0 15.143,25.221 34.711,-31.319c-0,-0 138.826,-449.455 300.144,-476.597Z" style="fill:#87af35;stroke:#000;stroke-width:3.13px;"/></g><g id="Pflanze-hinten-links58" serif:id="Pflanze-hinten-links"><path d="M8949.12,6851.65c-0,-0 213.127,295.676 -19.774,761.964c-0,0 -137.985,-433.155 19.774,-761.964Z" style="fill:#87af35;stroke:#000;stroke-width:3.13px;"/><path d="M8595.31,7174.34c0,-0 435.335,-139.687 406.997,506.297c0,-0 -22.49,33.993 -76.836,-10.242c-0,-0 -62.754,-401.795 -330.161,-496.055Z" style="fill:#87af35;stroke:#000;stroke-width:3.13px;"/><path d="M9311.53,7177.64c-0,-0 -367.778,-71.067 -334.855,507.916c-0,-0 15.143,25.222 34.711,-31.319c-0,-0 138.826,-449.455 300.144,-476.597Z" style="fill:#87af35;stroke:#000;stroke-width:3.13px;"/></g><g id="Pflanze-hinten-links59" serif:id="Pflanze-hinten-links"><path d="M8949.12,3047.86c-0,-0 213.127,295.677 -19.774,761.964c-0,0 -137.985,-433.155 19.774,-761.964Z" style="fill:#87af35;stroke:#000;stroke-width:3.13px;"/><path d="M8595.31,3370.55c0,0 435.335,-139.687 406.997,506.297c0,-0 -22.49,33.994 -76.836,-10.242c-0,-0 -62.754,-401.795 -330.161,-496.055Z" style="fill:#87af35;stroke:#000;stroke-width:3.13px;"/><path d="M9311.53,3373.84c-0,0 -367.778,-71.067 -334.855,507.916c-0,0 15.143,25.222 34.711,-31.319c-0,-0 138.826,-449.455 300.144,-476.597Z" style="fill:#87af35;stroke:#000;stroke-width:3.13px;"/></g><g id="Pflanze-hinten-links60" serif:id="Pflanze-hinten-links"><path d="M8949.12,5583.72c-0,-0 213.127,295.677 -19.774,761.964c-0,0 -137.985,-433.154 19.774,-761.964Z" style="fill:#87af35;stroke:#000;stroke-width:3.13px;"/><path d="M8595.31,5906.41c0,0 435.335,-139.686 406.997,506.297c0,0 -22.49,33.994 -76.836,-10.242c-0,0 -62.754,-401.795 -330.161,-496.055Z" style="fill:#87af35;stroke:#000;stroke-width:3.13px;"/><path d="M9311.53,5909.71c-0,0 -367.778,-71.066 -334.855,507.916c-0,0 15.143,25.222 34.711,-31.319c-0,0 138.826,-449.454 300.144,-476.597Z" style="fill:#87af35;stroke:#000;stroke-width:3.13px;"/></g><g id="Pflanze-hinten-links61" serif:id="Pflanze-hinten-links"><path d="M8949.12,8119.59c-0,0 213.127,295.677 -19.774,761.965c-0,-0 -137.985,-433.155 19.774,-761.965Z" style="fill:#87af35;stroke:#000;stroke-width:3.13px;"/><path d="M8595.31,8442.28c0,-0 435.335,-139.687 406.997,506.296c0,0 -22.49,33.994 -76.836,-10.242c-0,0 -62.754,-401.794 -330.161,-496.054Z" style="fill:#87af35;stroke:#000;stroke-width:3.13px;"/><path d="M9311.53,8445.57c-0,-0 -367.778,-71.067 -334.855,507.916c-0,-0 15.143,25.221 34.711,-31.32c-0,0 138.826,-449.454 300.144,-476.596Z" style="fill:#87af35;stroke:#000;stroke-width:3.13px;"/></g><g id="Pflanze-hinten-links62" serif:id="Pflanze-hinten-links"><path d="M8949.12,9387.52c-0,-0 213.127,295.677 -19.774,761.964c-0,0 -137.985,-433.155 19.774,-761.964Z" style="fill:#87af35;stroke:#000;stroke-width:3.13px;"/><path d="M8595.31,9710.21c0,0 435.335,-139.687 406.997,506.297c0,-0 -22.49,33.994 -76.836,-10.242c-0,-0 -62.754,-401.795 -330.161,-496.055Z" style="fill:#87af35;stroke:#000;stroke-width:3.13px;"/><path d="M9311.53,9713.5c-0,0 -367.778,-71.066 -334.855,507.916c-0,0 15.143,25.222 34.711,-31.319c-0,-0 138.826,-449.455 300.144,-476.597Z" style="fill:#87af35;stroke:#000;stroke-width:3.13px;"/></g></g><g id="Pflanzen4"><g id="Pflanze-hinten-links63" serif:id="Pflanze-hinten-links"><path d="M10428.8,1781.62c0,-0 213.128,295.677 -19.773,761.964c-0,0 -137.985,-433.154 19.773,-761.964Z" style="fill:#87af35;stroke:#000;stroke-width:3.13px;"/><path d="M10075,2104.31c-0,0 435.334,-139.686 406.997,506.297c-0,0 -22.49,33.994 -76.836,-10.242c-0,0 -62.754,-401.795 -330.161,-496.055Z" style="fill:#87af35;stroke:#000;stroke-width:3.13px;"/><path d="M10791.2,2107.6c0,0 -367.778,-71.066 -334.855,507.916c0,0 15.144,25.222 34.712,-31.319c-0,0 138.825,-449.454 300.143,-476.597Z" style="fill:#87af35;stroke:#000;stroke-width:3.13px;"/></g><g id="Pflanze-hinten-links64" serif:id="Pflanze-hinten-links"><path d="M10428.8,4317.48c0,0 213.128,295.677 -19.773,761.965c-0,-0 -137.985,-433.155 19.773,-761.965Z" style="fill:#87af35;stroke:#000;stroke-width:3.13px;"/><path d="M10075,4640.17c-0,-0 435.334,-139.687 406.997,506.296c-0,0 -22.49,33.994 -76.836,-10.242c-0,0 -62.754,-401.794 -330.161,-496.054Z" style="fill:#87af35;stroke:#000;stroke-width:3.13px;"/><path d="M10791.2,4643.47c0,-0 -367.778,-71.067 -334.855,507.916c0,-0 15.144,25.221 34.712,-31.32c-0,0 138.825,-449.454 300.143,-476.596Z" style="fill:#87af35;stroke:#000;stroke-width:3.13px;"/></g><g id="Pflanze-hinten-links65" serif:id="Pflanze-hinten-links"><path d="M10428.8,6853.34c0,0 213.128,295.677 -19.773,761.965c-0,-0 -137.985,-433.155 19.773,-761.965Z" style="fill:#87af35;stroke:#000;stroke-width:3.13px;"/><path d="M10075,7176.03c-0,-0 435.334,-139.687 406.997,506.297c-0,-0 -22.49,33.993 -76.836,-10.242c-0,-0 -62.754,-401.795 -330.161,-496.055Z" style="fill:#87af35;stroke:#000;stroke-width:3.13px;"/><path d="M10791.2,7179.33c0,-0 -367.778,-71.067 -334.855,507.916c0,-0 15.144,25.222 34.712,-31.319c-0,-0 138.825,-449.455 300.143,-476.597Z" style="fill:#87af35;stroke:#000;stroke-width:3.13px;"/></g><g id="Pflanze-hinten-links66" serif:id="Pflanze-hinten-links"><path d="M10428.8,3049.55c0,-0 213.128,295.676 -19.773,761.964c-0,0 -137.985,-433.155 19.773,-761.964Z" style="fill:#87af35;stroke:#000;stroke-width:3.13px;"/><path d="M10075,3372.24c-0,-0 435.334,-139.687 406.997,506.297c-0,-0 -22.49,33.993 -76.836,-10.242c-0,-0 -62.754,-401.795 -330.161,-496.055Z" style="fill:#87af35;stroke:#000;stroke-width:3.13px;"/><path d="M10791.2,3375.53c0,-0 -367.778,-71.067 -334.855,507.916c0,-0 15.144,25.222 34.712,-31.319c-0,-0 138.825,-449.455 300.143,-476.597Z" style="fill:#87af35;stroke:#000;stroke-width:3.13px;"/></g><g id="Pflanze-hinten-links67" serif:id="Pflanze-hinten-links"><path d="M10428.8,5585.41c0,-0 213.128,295.677 -19.773,761.964c-0,0 -137.985,-433.155 19.773,-761.964Z" style="fill:#87af35;stroke:#000;stroke-width:3.13px;"/><path d="M10075,5908.1c-0,0 435.334,-139.687 406.997,506.297c-0,-0 -22.49,33.994 -76.836,-10.242c-0,-0 -62.754,-401.795 -330.161,-496.055Z" style="fill:#87af35;stroke:#000;stroke-width:3.13px;"/><path d="M10791.2,5911.4c0,0 -367.778,-71.066 -334.855,507.916c0,0 15.144,25.222 34.712,-31.319c-0,-0 138.825,-449.455 300.143,-476.597Z" style="fill:#87af35;stroke:#000;stroke-width:3.13px;"/></g><g id="Pflanze-hinten-links68" serif:id="Pflanze-hinten-links"><path d="M10428.8,8121.28c0,0 213.128,295.677 -19.773,761.964c-0,0 -137.985,-433.154 19.773,-761.964Z" style="fill:#87af35;stroke:#000;stroke-width:3.13px;"/><path d="M10075,8443.97c-0,0 435.334,-139.686 406.997,506.297c-0,0 -22.49,33.994 -76.836,-10.242c-0,0 -62.754,-401.795 -330.161,-496.055Z" style="fill:#87af35;stroke:#000;stroke-width:3.13px;"/><path d="M10791.2,8447.26c0,0 -367.778,-71.066 -334.855,507.916c0,0 15.144,25.222 34.712,-31.319c-0,0 138.825,-449.454 300.143,-476.597Z" style="fill:#87af35;stroke:#000;stroke-width:3.13px;"/></g><g id="Pflanze-hinten-links69" serif:id="Pflanze-hinten-links"><path d="M10428.8,9389.21c0,-0 213.128,295.676 -19.773,761.964c-0,0 -137.985,-433.155 19.773,-761.964Z" style="fill:#87af35;stroke:#000;stroke-width:3.13px;"/><path d="M10075,9711.9c-0,0 435.334,-139.687 406.997,506.297c-0,-0 -22.49,33.994 -76.836,-10.242c-0,-0 -62.754,-401.795 -330.161,-496.055Z" style="fill:#87af35;stroke:#000;stroke-width:3.13px;"/><path d="M10791.2,9715.19c0,-0 -367.778,-71.067 -334.855,507.916c0,0 15.144,25.222 34.712,-31.319c-0,-0 138.825,-449.455 300.143,-476.597Z" style="fill:#87af35;stroke:#000;stroke-width:3.13px;"/></g></g><g id="Pflanzen5"><g id="Pflanze-hinten-links70" serif:id="Pflanze-hinten-links"><path d="M11813.4,1779.93c-0,0 213.128,295.677 -19.774,761.965c0,-0 -137.985,-433.155 19.774,-761.965Z" style="fill:#87af35;stroke:#000;stroke-width:3.13px;"/><path d="M11459.6,2102.62c0,-0 435.335,-139.687 406.997,506.296c0,0 -22.49,33.994 -76.836,-10.242c0,0 -62.754,-401.794 -330.161,-496.054Z" style="fill:#87af35;stroke:#000;stroke-width:3.13px;"/><path d="M12175.9,2105.91c-0,0 -367.778,-71.066 -334.855,507.916c-0,0 15.143,25.222 34.711,-31.319c0,0 138.826,-449.454 300.144,-476.597Z" style="fill:#87af35;stroke:#000;stroke-width:3.13px;"/></g><g id="Pflanze-hinten-links71" serif:id="Pflanze-hinten-links"><path d="M11813.4,4315.79c-0,0 213.128,295.677 -19.774,761.965c0,-0 -137.985,-433.155 19.774,-761.965Z" style="fill:#87af35;stroke:#000;stroke-width:3.13px;"/><path d="M11459.6,4638.48c0,-0 435.335,-139.687 406.997,506.296c0,0 -22.49,33.994 -76.836,-10.241c0,-0 -62.754,-401.795 -330.161,-496.055Z" style="fill:#87af35;stroke:#000;stroke-width:3.13px;"/><path d="M12175.9,4641.78c-0,-0 -367.778,-71.067 -334.855,507.916c-0,-0 15.143,25.221 34.711,-31.319c0,-0 138.826,-449.455 300.144,-476.597Z" style="fill:#87af35;stroke:#000;stroke-width:3.13px;"/></g><g id="Pflanze-hinten-links72" serif:id="Pflanze-hinten-links"><path d="M11813.4,6851.65c-0,-0 213.128,295.676 -19.774,761.964c0,0 -137.985,-433.155 19.774,-761.964Z" style="fill:#87af35;stroke:#000;stroke-width:3.13px;"/><path d="M11459.6,7174.34c0,-0 435.335,-139.687 406.997,506.297c0,-0 -22.49,33.993 -76.836,-10.242c0,-0 -62.754,-401.795 -330.161,-496.055Z" style="fill:#87af35;stroke:#000;stroke-width:3.13px;"/><path d="M12175.9,7177.64c-0,-0 -367.778,-71.067 -334.855,507.916c-0,-0 15.143,25.222 34.711,-31.319c0,-0 138.826,-449.455 300.144,-476.597Z" style="fill:#87af35;stroke:#000;stroke-width:3.13px;"/></g><g id="Pflanze-hinten-links73" serif:id="Pflanze-hinten-links"><path d="M11813.4,3047.86c-0,-0 213.128,295.677 -19.774,761.964c0,0 -137.985,-433.155 19.774,-761.964Z" style="fill:#87af35;stroke:#000;stroke-width:3.13px;"/><path d="M11459.6,3370.55c0,0 435.335,-139.687 406.997,506.297c0,-0 -22.49,33.994 -76.836,-10.242c0,-0 -62.754,-401.795 -330.161,-496.055Z" style="fill:#87af35;stroke:#000;stroke-width:3.13px;"/><path d="M12175.9,3373.84c-0,0 -367.778,-71.067 -334.855,507.916c-0,0 15.143,25.222 34.711,-31.319c0,-0 138.826,-449.455 300.144,-476.597Z" style="fill:#87af35;stroke:#000;stroke-width:3.13px;"/></g><g id="Pflanze-hinten-links74" serif:id="Pflanze-hinten-links"><path d="M11813.4,5583.72c-0,-0 213.128,295.677 -19.774,761.964c0,0 -137.985,-433.154 19.774,-761.964Z" style="fill:#87af35;stroke:#000;stroke-width:3.13px;"/><path d="M11459.6,5906.41c0,0 435.335,-139.686 406.997,506.297c0,0 -22.49,33.994 -76.836,-10.242c0,0 -62.754,-401.795 -330.161,-496.055Z" style="fill:#87af35;stroke:#000;stroke-width:3.13px;"/><path d="M12175.9,5909.71c-0,0 -367.778,-71.066 -334.855,507.916c-0,0 15.143,25.222 34.711,-31.319c0,0 138.826,-449.454 300.144,-476.597Z" style="fill:#87af35;stroke:#000;stroke-width:3.13px;"/></g><g id="Pflanze-hinten-links75" serif:id="Pflanze-hinten-links"><path d="M11813.4,8119.59c-0,0 213.128,295.677 -19.774,761.965c0,-0 -137.985,-433.155 19.774,-761.965Z" style="fill:#87af35;stroke:#000;stroke-width:3.13px;"/><path d="M11459.6,8442.28c0,-0 435.335,-139.687 406.997,506.296c0,0 -22.49,33.994 -76.836,-10.242c0,0 -62.754,-401.794 -330.161,-496.054Z" style="fill:#87af35;stroke:#000;stroke-width:3.13px;"/><path d="M12175.9,8445.57c-0,-0 -367.778,-71.067 -334.855,507.916c-0,-0 15.143,25.221 34.711,-31.32c0,0 138.826,-449.454 300.144,-476.596Z" style="fill:#87af35;stroke:#000;stroke-width:3.13px;"/></g><g id="Pflanze-hinten-links76" serif:id="Pflanze-hinten-links"><path d="M11813.4,9387.52c-0,-0 213.128,295.677 -19.774,761.964c0,0 -137.985,-433.155 19.774,-761.964Z" style="fill:#87af35;stroke:#000;stroke-width:3.13px;"/><path d="M11459.6,9710.21c0,0 435.335,-139.687 406.997,506.297c0,-0 -22.49,33.994 -76.836,-10.242c0,-0 -62.754,-401.795 -330.161,-496.055Z" style="fill:#87af35;stroke:#000;stroke-width:3.13px;"/><path d="M12175.9,9713.5c-0,0 -367.778,-71.066 -334.855,507.916c-0,0 15.143,25.222 34.711,-31.319c0,-0 138.826,-449.455 300.144,-476.597Z" style="fill:#87af35;stroke:#000;stroke-width:3.13px;"/></g></g><g id="Schild-Beet-2"><path d="M12038.2,5318.76c-0,-15.807 -12.834,-28.641 -28.642,-28.641l-3156.24,-0c-15.808,-0 -28.641,12.834 -28.641,28.641l-0,1374.78c-0,15.808 12.833,28.641 28.641,28.641l3156.24,0c15.808,0 28.642,-12.833 28.642,-28.641l-0,-1374.78Z" style="fill:#f1dcaa;"/><g transform="matrix(937.5,0,0,937.5,11789.6,6278.38)"></g><text x="9016.47px" y="6278.38px" style="font-family:'Ubuntu', sans-serif;font-size:937.5px;fill:#ba2d0b;">Beet 2</text></g></g><g id="Beet1"><path d="M5708.73,1481.05c0,-48.89 -39.692,-88.583 -88.582,-88.583l-4251.97,0c-48.89,0 -88.582,39.693 -88.582,88.583l-0,9050.2c-0,48.89 39.692,88.583 88.582,88.583l4251.97,-0c48.89,-0 88.582,-39.693 88.582,-88.583l0,-9050.2Z" style="fill:#8b6818;"/><g id="Pflanzen2"><g id="Pflanze-hinten-links77" serif:id="Pflanze-hinten-links"><path d="M2050.49,1779.93c-0,0 213.127,295.677 -19.774,761.965c-0,-0 -137.985,-433.155 19.774,-761.965Z" style="fill:#87af35;stroke:#000;stroke-width:3.13px;"/><path d="M1696.69,2102.62c0,-0 435.335,-139.687 406.997,506.296c0,0 -22.49,33.994 -76.836,-10.242c-0,0 -62.754,-401.794 -330.161,-496.054Z" style="fill:#87af35;stroke:#000;stroke-width:3.13px;"/><path d="M2412.91,2105.91c-0,0 -367.778,-71.066 -334.855,507.916c-0,0 15.143,25.222 34.711,-31.319c-0,0 138.826,-449.454 300.144,-476.597Z" style="fill:#87af35;stroke:#000;stroke-width:3.13px;"/></g><g id="Pflanze-hinten-links78" serif:id="Pflanze-hinten-links"><path d="M2050.49,4315.79c-0,0 213.127,295.677 -19.774,761.965c-0,-0 -137.985,-433.155 19.774,-761.965Z" style="fill:#87af35;stroke:#000;stroke-width:3.13px;"/><path d="M1696.69,4638.48c0,-0 435.335,-139.687 406.997,506.296c0,0 -22.49,33.994 -76.836,-10.241c-0,-0 -62.754,-401.795 -330.161,-496.055Z" style="fill:#87af35;stroke:#000;stroke-width:3.13px;"/><path d="M2412.91,4641.78c-0,-0 -367.778,-71.067 -334.855,507.916c-0,-0 15.143,25.221 34.711,-31.319c-0,-0 138.826,-449.455 300.144,-476.597Z" style="fill:#87af35;stroke:#000;stroke-width:3.13px;"/></g><g id="Pflanze-hinten-links79" serif:id="Pflanze-hinten-links"><path d="M2050.49,6851.65c-0,-0 213.127,295.676 -19.774,761.964c-0,0 -137.985,-433.155 19.774,-761.964Z" style="fill:#87af35;stroke:#000;stroke-width:3.13px;"/><path d="M1696.69,7174.34c0,-0 435.335,-139.687 406.997,506.297c0,-0 -22.49,33.993 -76.836,-10.242c-0,-0 -62.754,-401.795 -330.161,-496.055Z" style="fill:#87af35;stroke:#000;stroke-width:3.13px;"/><path d="M2412.91,7177.64c-0,-0 -367.778,-71.067 -334.855,507.916c-0,-0 15.143,25.222 34.711,-31.319c-0,-0 138.826,-449.455 300.144,-476.597Z" style="fill:#87af35;stroke:#000;stroke-width:3.13px;"/></g><g id="Pflanze-hinten-links80" serif:id="Pflanze-hinten-links"><path d="M2050.49,3047.86c-0,-0 213.127,295.677 -19.774,761.964c-0,0 -137.985,-433.155 19.774,-761.964Z" style="fill:#87af35;stroke:#000;stroke-width:3.13px;"/><path d="M1696.69,3370.55c0,0 435.335,-139.687 406.997,506.297c0,-0 -22.49,33.994 -76.836,-10.242c-0,-0 -62.754,-401.795 -330.161,-496.055Z" style="fill:#87af35;stroke:#000;stroke-width:3.13px;"/><path d="M2412.91,3373.84c-0,0 -367.778,-71.067 -334.855,507.916c-0,0 15.143,25.222 34.711,-31.319c-0,-0 138.826,-449.455 300.144,-476.597Z" style="fill:#87af35;stroke:#000;stroke-width:3.13px;"/></g><g id="Pflanze-hinten-links81" serif:id="Pflanze-hinten-links"><path d="M2050.49,5583.72c-0,-0 213.127,295.677 -19.774,761.964c-0,0 -137.985,-433.154 19.774,-761.964Z" style="fill:#87af35;stroke:#000;stroke-width:3.13px;"/><path d="M1696.69,5906.41c0,0 435.335,-139.686 406.997,506.297c0,0 -22.49,33.994 -76.836,-10.242c-0,0 -62.754,-401.795 -330.161,-496.055Z" style="fill:#87af35;stroke:#000;stroke-width:3.13px;"/><path d="M2412.91,5909.71c-0,0 -367.778,-71.066 -334.855,507.916c-0,0 15.143,25.222 34.711,-31.319c-0,0 138.826,-449.454 300.144,-476.597Z" style="fill:#87af35;stroke:#000;stroke-width:3.13px;"/></g><g id="Pflanze-hinten-links82" serif:id="Pflanze-hinten-links"><path d="M2050.49,8119.59c-0,0 213.127,295.677 -19.774,761.965c-0,-0 -137.985,-433.155 19.774,-761.965Z" style="fill:#87af35;stroke:#000;stroke-width:3.13px;"/><path d="M1696.69,8442.28c0,-0 435.335,-139.687 406.997,506.296c0,0 -22.49,33.994 -76.836,-10.242c-0,0 -62.754,-401.794 -330.161,-496.054Z" style="fill:#87af35;stroke:#000;stroke-width:3.13px;"/><path d="M2412.91,8445.57c-0,-0 -367.778,-71.067 -334.855,507.916c-0,-0 15.143,25.221 34.711,-31.32c-0,0 138.826,-449.454 300.144,-476.596Z" style="fill:#87af35;stroke:#000;stroke-width:3.13px;"/></g><g id="Pflanze-hinten-links83" serif:id="Pflanze-hinten-links"><path d="M2050.49,9387.52c-0,-0 213.127,295.677 -19.774,761.964c-0,0 -137.985,-433.155 19.774,-761.964Z" style="fill:#87af35;stroke:#000;stroke-width:3.13px;"/><path d="M1696.69,9710.21c0,0 435.335,-139.687 406.997,506.297c0,-0 -22.49,33.994 -76.836,-10.242c-0,-0 -62.754,-401.795 -330.161,-496.055Z" style="fill:#87af35;stroke:#000;stroke-width:3.13px;"/><path d="M2412.91,9713.5c-0,0 -367.778,-71.066 -334.855,507.916c-0,0 15.143,25.222 34.711,-31.319c-0,-0 138.826,-449.455 300.144,-476.597Z" style="fill:#87af35;stroke:#000;stroke-width:3.13px;"/></g></g><g id="Pflanzen1"><g id="Pflanze-vorne-links16" serif:id="Pflanze-vorne-links"><path d="M4120.97,3238.05c0,0 64.541,40.677 112.201,-90.32c47.66,-130.996 15.27,-3.296 102.535,-41.559c87.265,-38.262 -7.012,-24.496 -0.55,-98.706c6.462,-74.211 14.392,-91.062 64.968,-73.424c50.576,17.637 135.742,-89.886 24.213,-159.322c-111.53,-69.435 -133.181,39.45 -138.213,87.533c-5.031,48.082 46.492,101.909 0,105.616c-46.491,3.707 -100.837,-11.369 -116.054,53.016c-15.216,64.386 69.474,94.983 0,126.846c-69.474,31.864 -134.625,-33.949 -92.151,90.32l43.051,0Z" style="fill:#87af35;stroke:#000;stroke-width:6.25px;"/><path d="M4113.94,3147.73c-0,0 14.536,-195.92 107.606,-220.085c93.07,-24.166 20.843,-70.327 29.533,-148.541c8.69,-78.214 69.665,-71.214 81.123,-116.042c11.459,-44.828 -90.693,-94.5 -80.789,-181.534c-0,-0 -11.259,-115.428 19.308,-225.802c30.567,-110.374 -278.678,-323.246 -307.52,-259.054c0,0 -222.495,95.16 46.288,532c-0,-0 114.065,98.353 118.451,181.864c4.386,83.51 -64.242,306.829 -14,437.194Z" style="fill:#87af35;stroke:#000;stroke-width:6.25px;"/><path d="M4080.92,3125.01c-0,-0 -115.092,1.294 -137.379,-51.767c0,-0 11.4,-88.577 -15.46,-128.152c-26.86,-39.575 -109.089,24.157 -151.592,-52.493c-42.502,-76.65 26.116,-146.893 -16.484,-181.722c-42.601,-34.828 -177.961,11.514 -241.954,-58.786c-63.994,-70.3 16.309,-127.36 57.94,-119.646c41.632,7.714 147.258,-6.856 185.419,-49.636c38.161,-42.78 147.531,51.521 137.969,106.37c-9.562,54.85 115.676,109.536 178.426,126.658c62.75,17.122 11.94,81.932 -1.708,199.782c-13.648,117.849 -18.53,150.837 4.823,209.392Z" style="fill:#87af35;stroke:#000;stroke-width:6.25px;"/></g><g id="Pflanze-vorne-links17" serif:id="Pflanze-vorne-links"><path d="M4120.97,5499.19c0,0 64.541,40.677 112.201,-90.32c47.66,-130.996 15.27,-3.296 102.535,-41.559c87.265,-38.263 -7.012,-24.496 -0.55,-98.706c6.462,-74.211 14.392,-91.062 64.968,-73.424c50.576,17.637 135.742,-89.886 24.213,-159.322c-111.53,-69.435 -133.181,39.45 -138.213,87.533c-5.031,48.082 46.492,101.909 0,105.615c-46.491,3.707 -100.837,-11.368 -116.054,53.017c-15.216,64.386 69.474,94.983 0,126.846c-69.474,31.864 -134.625,-33.949 -92.151,90.32l43.051,0Z" style="fill:#87af35;stroke:#000;stroke-width:6.25px;"/><path d="M4113.94,5408.87c-0,0 14.536,-195.92 107.606,-220.085c93.07,-24.166 20.843,-70.327 29.533,-148.541c8.69,-78.214 69.665,-71.214 81.123,-116.042c11.459,-44.828 -90.693,-94.5 -80.789,-181.534c-0,-0 -11.259,-115.428 19.308,-225.802c30.567,-110.374 -278.678,-323.246 -307.52,-259.054c0,0 -222.495,95.16 46.288,532c-0,-0 114.065,98.353 118.451,181.863c4.386,83.511 -64.242,306.83 -14,437.195Z" style="fill:#87af35;stroke:#000;stroke-width:6.25px;"/><path d="M4080.92,5386.16c-0,-0 -115.092,1.294 -137.379,-51.767c0,-0 11.4,-88.577 -15.46,-128.152c-26.86,-39.575 -109.089,24.156 -151.592,-52.493c-42.502,-76.65 26.116,-146.893 -16.484,-181.722c-42.601,-34.828 -177.961,11.514 -241.954,-58.786c-63.994,-70.3 16.309,-127.36 57.94,-119.646c41.632,7.714 147.258,-6.856 185.419,-49.636c38.161,-42.78 147.531,51.521 137.969,106.37c-9.562,54.85 115.676,109.536 178.426,126.658c62.75,17.122 11.94,81.932 -1.708,199.782c-13.648,117.849 -18.53,150.837 4.823,209.392Z" style="fill:#87af35;stroke:#000;stroke-width:6.25px;"/></g><g id="Pflanze-vorne-links18" serif:id="Pflanze-vorne-links"><path d="M4120.97,7760.33c0,-0 64.541,40.677 112.201,-90.32c47.66,-130.996 15.27,-3.296 102.535,-41.559c87.265,-38.263 -7.012,-24.496 -0.55,-98.707c6.462,-74.21 14.392,-91.061 64.968,-73.424c50.576,17.638 135.742,-89.885 24.213,-159.321c-111.53,-69.435 -133.181,39.45 -138.213,87.533c-5.031,48.082 46.492,101.908 0,105.615c-46.491,3.707 -100.837,-11.368 -116.054,53.017c-15.216,64.386 69.474,94.982 0,126.846c-69.474,31.864 -134.625,-33.949 -92.151,90.32l43.051,-0Z" style="fill:#87af35;stroke:#000;stroke-width:6.25px;"/><path d="M4113.94,7670.01c-0,0 14.536,-195.92 107.606,-220.085c93.07,-24.166 20.843,-70.327 29.533,-148.541c8.69,-78.214 69.665,-71.214 81.123,-116.042c11.459,-44.828 -90.693,-94.5 -80.789,-181.534c-0,-0 -11.259,-115.429 19.308,-225.802c30.567,-110.374 -278.678,-323.246 -307.52,-259.054c0,0 -222.495,95.16 46.288,532c-0,-0 114.065,98.353 118.451,181.863c4.386,83.511 -64.242,306.83 -14,437.195Z" style="fill:#87af35;stroke:#000;stroke-width:6.25px;"/><path d="M4080.92,7647.3c-0,-0 -115.092,1.294 -137.379,-51.767c0,-0 11.4,-88.577 -15.46,-128.153c-26.86,-39.575 -109.089,24.157 -151.592,-52.492c-42.502,-76.65 26.116,-146.893 -16.484,-181.722c-42.601,-34.828 -177.961,11.514 -241.954,-58.786c-63.994,-70.3 16.309,-127.36 57.94,-119.646c41.632,7.714 147.258,-6.856 185.419,-49.636c38.161,-42.78 147.531,51.521 137.969,106.37c-9.562,54.85 115.676,109.536 178.426,126.658c62.75,17.121 11.94,81.932 -1.708,199.782c-13.648,117.849 -18.53,150.837 4.823,209.392Z" style="fill:#87af35;stroke:#000;stroke-width:6.25px;"/></g><g id="Pflanze-vorne-links19" serif:id="Pflanze-vorne-links"><path d="M4294.1,10021.5c0,-0 64.541,40.677 112.201,-90.32c47.66,-130.996 15.27,-3.296 102.535,-41.559c87.265,-38.263 -7.012,-24.496 -0.55,-98.707c6.462,-74.21 14.392,-91.061 64.968,-73.424c50.576,17.638 135.742,-89.886 24.213,-159.321c-111.53,-69.436 -133.182,39.45 -138.213,87.532c-5.032,48.083 46.491,101.909 -0,105.616c-46.492,3.707 -100.838,-11.368 -116.054,53.017c-15.216,64.386 69.474,94.982 0,126.846c-69.474,31.864 -134.625,-33.949 -92.151,90.32l43.051,-0Z" style="fill:#87af35;stroke:#000;stroke-width:6.25px;"/><path d="M4287.06,9931.16c0,0 14.537,-195.92 107.607,-220.085c93.07,-24.166 20.843,-70.327 29.533,-148.541c8.69,-78.214 69.665,-71.214 81.123,-116.042c11.458,-44.829 -90.694,-94.5 -80.789,-181.535c-0,0 -11.259,-115.428 19.308,-225.801c30.566,-110.374 -278.678,-323.246 -307.52,-259.054c0,0 -222.496,95.16 46.288,531.999c-0,0 114.065,98.354 118.451,181.864c4.386,83.511 -64.242,306.83 -14.001,437.195Z" style="fill:#87af35;stroke:#000;stroke-width:6.25px;"/><path d="M4254.04,9908.44c-0,-0 -115.092,1.294 -137.379,-51.767c0,-0 11.4,-88.578 -15.46,-128.153c-26.86,-39.575 -109.089,24.157 -151.592,-52.493c-42.503,-76.649 26.116,-146.892 -16.485,-181.721c-42.6,-34.828 -177.96,11.514 -241.954,-58.786c-63.993,-70.3 16.31,-127.36 57.941,-119.646c41.631,7.714 147.258,-6.856 185.419,-49.636c38.16,-42.78 147.531,51.52 137.969,106.37c-9.562,54.849 115.675,109.536 178.425,126.658c62.751,17.121 11.941,81.932 -1.707,199.781c-13.648,117.85 -18.53,150.838 4.823,209.393Z" style="fill:#87af35;stroke:#000;stroke-width:6.25px;"/></g></g><g id="Schild-Beet-1"><path d="M5100.93,5318.76c-0,-15.807 -12.834,-28.641 -28.642,-28.641l-3156.24,-0c-15.808,-0 -28.641,12.834 -28.641,28.641l-0,1374.78c-0,15.808 12.833,28.641 28.641,28.641l3156.24,0c15.808,0 28.642,-12.833 28.642,-28.641l-0,-1374.78Z" style="fill:#f1dcaa;"/><g transform="matrix(937.5,0,0,937.5,4852.32,6278.38)"></g><text x="2079.2px" y="6278.38px" style="font-family:'Ubuntu', sans-serif;font-size:937.5px;fill:#ba2d0b;">Beet 1</text></g></g></svg>