<?xml version="1.0" encoding="UTF-8" standalone="no"?><!DOCTYPE svg PUBLIC "-//W3C//DTD SVG 1.1//EN" "http://www.w3.org/Graphics/SVG/1.1/DTD/svg11.dtd"><svg width="100%" height="100%" viewBox="0 0 18325 23527" version="1.1" xmlns="http://www.w3.org/2000/svg" xmlns:xlink="http://www.w3.org/1999/xlink" xml:space="preserve" xmlns:serif="http://www.serif.com/" style="fill-rule:evenodd;clip-rule:evenodd;stroke-linecap:round;stroke-linejoin:round;stroke-miterlimit:1.5;"><g id="Beet1"><path d="M4429.13,1557.62c-0,-48.89 -39.693,-88.583 -88.583,-88.583l-4251.97,0c-48.89,0 -88.583,39.693 -88.583,88.583l-0,9050.2c-0,48.89 39.693,88.582 88.583,88.582l4251.97,0c48.89,0 88.583,-39.692 88.583,-88.582l-0,-9050.2Z" style="fill:#8b6818;"/><g><g id="Pflanze-hinten-links"><path d="M538.178,1856.51c0,-0 213.128,295.677 -19.774,761.964c0,0 -137.984,-433.154 19.774,-761.964Z" style="fill:#87af35;stroke:#000;stroke-width:3.13px;"/><path d="M184.376,2179.2c-0,0 435.334,-139.686 406.997,506.297c-0,-0 -22.49,33.994 -76.837,-10.242c0,0 -62.753,-401.795 -330.16,-496.055Z" style="fill:#87af35;stroke:#000;stroke-width:3.13px;"/><path d="M900.595,2182.49c0,0 -367.778,-71.066 -334.855,507.916c0,0 15.143,25.222 34.712,-31.319c-0,0 138.825,-449.455 300.143,-476.597Z" style="fill:#87af35;stroke:#000;stroke-width:3.13px;"/></g><g id="Pflanze-hinten-links1" serif:id="Pflanze-hinten-links"><path d="M538.178,4392.37c0,0 213.128,295.677 -19.774,761.965c0,-0 -137.984,-433.155 19.774,-761.965Z" style="fill:#87af35;stroke:#000;stroke-width:3.13px;"/><path d="M184.376,4715.06c-0,-0 435.334,-139.687 406.997,506.296c-0,0 -22.49,33.994 -76.837,-10.242c0,0 -62.753,-401.794 -330.16,-496.054Z" style="fill:#87af35;stroke:#000;stroke-width:3.13px;"/><path d="M900.595,4718.35c0,0 -367.778,-71.066 -334.855,507.916c0,0 15.143,25.222 34.712,-31.319c-0,0 138.825,-449.454 300.143,-476.597Z" style="fill:#87af35;stroke:#000;stroke-width:3.13px;"/></g><g id="Pflanze-hinten-links2" serif:id="Pflanze-hinten-links"><path d="M538.178,6928.23c0,0 213.128,295.677 -19.774,761.965c0,-0 -137.984,-433.155 19.774,-761.965Z" style="fill:#87af35;stroke:#000;stroke-width:3.13px;"/><path d="M184.376,7250.92c-0,-0 435.334,-139.687 406.997,506.296c-0,0 -22.49,33.994 -76.837,-10.241c0,-0 -62.753,-401.795 -330.16,-496.055Z" style="fill:#87af35;stroke:#000;stroke-width:3.13px;"/><path d="M900.595,7254.22c0,-0 -367.778,-71.067 -334.855,507.916c0,-0 15.143,25.221 34.712,-31.319c-0,-0 138.825,-449.455 300.143,-476.597Z" style="fill:#87af35;stroke:#000;stroke-width:3.13px;"/></g><g id="Pflanze-hinten-links3" serif:id="Pflanze-hinten-links"><path d="M538.178,3124.44c0,-0 213.128,295.676 -19.774,761.964c0,-0 -137.984,-433.155 19.774,-761.964Z" style="fill:#87af35;stroke:#000;stroke-width:3.13px;"/><path d="M184.376,3447.13c-0,-0 435.334,-139.687 406.997,506.297c-0,-0 -22.49,33.993 -76.837,-10.242c0,-0 -62.753,-401.795 -330.16,-496.055Z" style="fill:#87af35;stroke:#000;stroke-width:3.13px;"/><path d="M900.595,3450.42c0,-0 -367.778,-71.067 -334.855,507.916c0,-0 15.143,25.222 34.712,-31.319c-0,-0 138.825,-449.455 300.143,-476.597Z" style="fill:#87af35;stroke:#000;stroke-width:3.13px;"/></g><g id="Pflanze-hinten-links4" serif:id="Pflanze-hinten-links"><path d="M538.178,5660.3c0,-0 213.128,295.677 -19.774,761.964c0,0 -137.984,-433.155 19.774,-761.964Z" style="fill:#87af35;stroke:#000;stroke-width:3.13px;"/><path d="M184.376,5982.99c-0,0 435.334,-139.687 406.997,506.297c-0,-0 -22.49,33.994 -76.837,-10.242c0,-0 -62.753,-401.795 -330.16,-496.055Z" style="fill:#87af35;stroke:#000;stroke-width:3.13px;"/><path d="M900.595,5986.29c0,0 -367.778,-71.067 -334.855,507.916c0,0 15.143,25.222 34.712,-31.319c-0,-0 138.825,-449.455 300.143,-476.597Z" style="fill:#87af35;stroke:#000;stroke-width:3.13px;"/></g><g id="Pflanze-hinten-links5" serif:id="Pflanze-hinten-links"><path d="M538.178,8196.17c0,-0 213.128,295.677 -19.774,761.964c0,0 -137.984,-433.154 19.774,-761.964Z" style="fill:#87af35;stroke:#000;stroke-width:3.13px;"/><path d="M184.376,8518.85c-0,0 435.334,-139.686 406.997,506.297c-0,0 -22.49,33.994 -76.837,-10.242c0,0 -62.753,-401.795 -330.16,-496.055Z" style="fill:#87af35;stroke:#000;stroke-width:3.13px;"/><path d="M900.595,8522.15c0,0 -367.778,-71.066 -334.855,507.916c0,0 15.143,25.222 34.712,-31.319c-0,0 138.825,-449.454 300.143,-476.597Z" style="fill:#87af35;stroke:#000;stroke-width:3.13px;"/></g><g id="Pflanze-hinten-links6" serif:id="Pflanze-hinten-links"><path d="M538.178,9464.1c0,-0 213.128,295.676 -19.774,761.964c0,0 -137.984,-433.155 19.774,-761.964Z" style="fill:#87af35;stroke:#000;stroke-width:3.13px;"/><path d="M184.376,9786.79c-0,-0 435.334,-139.687 406.997,506.297c-0,-0 -22.49,33.993 -76.837,-10.242c0,-0 -62.753,-401.795 -330.16,-496.055Z" style="fill:#87af35;stroke:#000;stroke-width:3.13px;"/><path d="M900.595,9790.08c0,-0 -367.778,-71.067 -334.855,507.916c0,-0 15.143,25.222 34.712,-31.319c-0,-0 138.825,-449.455 300.143,-476.597Z" style="fill:#87af35;stroke:#000;stroke-width:3.13px;"/></g></g><g><g id="Pflanze-hinten-links7" serif:id="Pflanze-hinten-links"><path d="M3688.74,1856.51c-0,-0 213.127,295.677 -19.774,761.964c-0,0 -137.985,-433.154 19.774,-761.964Z" style="fill:#87af35;stroke:#000;stroke-width:3.13px;"/><path d="M3334.94,2179.2c0,0 435.335,-139.686 406.997,506.297c0,-0 -22.49,33.994 -76.836,-10.242c-0,0 -62.754,-401.795 -330.161,-496.055Z" style="fill:#87af35;stroke:#000;stroke-width:3.13px;"/><path d="M4051.16,2182.49c-0,0 -367.778,-71.066 -334.855,507.916c-0,0 15.143,25.222 34.711,-31.319c-0,0 138.826,-449.455 300.144,-476.597Z" style="fill:#87af35;stroke:#000;stroke-width:3.13px;"/></g><g id="Pflanze-hinten-links8" serif:id="Pflanze-hinten-links"><path d="M3688.74,4392.37c-0,0 213.127,295.677 -19.774,761.965c-0,-0 -137.985,-433.155 19.774,-761.965Z" style="fill:#87af35;stroke:#000;stroke-width:3.13px;"/><path d="M3334.94,4715.06c0,-0 435.335,-139.687 406.997,506.296c0,0 -22.49,33.994 -76.836,-10.242c-0,0 -62.754,-401.794 -330.161,-496.054Z" style="fill:#87af35;stroke:#000;stroke-width:3.13px;"/><path d="M4051.16,4718.35c-0,0 -367.778,-71.066 -334.855,507.916c-0,0 15.143,25.222 34.711,-31.319c-0,0 138.826,-449.454 300.144,-476.597Z" style="fill:#87af35;stroke:#000;stroke-width:3.13px;"/></g><g id="Pflanze-hinten-links9" serif:id="Pflanze-hinten-links"><path d="M3688.74,6928.23c-0,0 213.127,295.677 -19.774,761.965c-0,-0 -137.985,-433.155 19.774,-761.965Z" style="fill:#87af35;stroke:#000;stroke-width:3.13px;"/><path d="M3334.94,7250.92c0,-0 435.335,-139.687 406.997,506.296c0,0 -22.49,33.994 -76.836,-10.241c-0,-0 -62.754,-401.795 -330.161,-496.055Z" style="fill:#87af35;stroke:#000;stroke-width:3.13px;"/><path d="M4051.16,7254.22c-0,-0 -367.778,-71.067 -334.855,507.916c-0,-0 15.143,25.221 34.711,-31.319c-0,-0 138.826,-449.455 300.144,-476.597Z" style="fill:#87af35;stroke:#000;stroke-width:3.13px;"/></g><g id="Pflanze-hinten-links10" serif:id="Pflanze-hinten-links"><path d="M3688.74,3124.44c-0,-0 213.127,295.676 -19.774,761.964c-0,-0 -137.985,-433.155 19.774,-761.964Z" style="fill:#87af35;stroke:#000;stroke-width:3.13px;"/><path d="M3334.94,3447.13c0,-0 435.335,-139.687 406.997,506.297c0,-0 -22.49,33.993 -76.836,-10.242c-0,-0 -62.754,-401.795 -330.161,-496.055Z" style="fill:#87af35;stroke:#000;stroke-width:3.13px;"/><path d="M4051.16,3450.42c-0,-0 -367.778,-71.067 -334.855,507.916c-0,-0 15.143,25.222 34.711,-31.319c-0,-0 138.826,-449.455 300.144,-476.597Z" style="fill:#87af35;stroke:#000;stroke-width:3.13px;"/></g><g id="Pflanze-hinten-links11" serif:id="Pflanze-hinten-links"><path d="M3688.74,5660.3c-0,-0 213.127,295.677 -19.774,761.964c-0,0 -137.985,-433.155 19.774,-761.964Z" style="fill:#87af35;stroke:#000;stroke-width:3.13px;"/><path d="M3334.94,5982.99c0,0 435.335,-139.687 406.997,506.297c0,-0 -22.49,33.994 -76.836,-10.242c-0,-0 -62.754,-401.795 -330.161,-496.055Z" style="fill:#87af35;stroke:#000;stroke-width:3.13px;"/><path d="M4051.16,5986.29c-0,0 -367.778,-71.067 -334.855,507.916c-0,0 15.143,25.222 34.711,-31.319c-0,-0 138.826,-449.455 300.144,-476.597Z" style="fill:#87af35;stroke:#000;stroke-width:3.13px;"/></g><g id="Pflanze-hinten-links12" serif:id="Pflanze-hinten-links"><path d="M3688.74,8196.17c-0,-0 213.127,295.677 -19.774,761.964c-0,0 -137.985,-433.154 19.774,-761.964Z" style="fill:#87af35;stroke:#000;stroke-width:3.13px;"/><path d="M3334.94,8518.85c0,0 435.335,-139.686 406.997,506.297c0,0 -22.49,33.994 -76.836,-10.242c-0,0 -62.754,-401.795 -330.161,-496.055Z" style="fill:#87af35;stroke:#000;stroke-width:3.13px;"/><path d="M4051.16,8522.15c-0,0 -367.778,-71.066 -334.855,507.916c-0,0 15.143,25.222 34.711,-31.319c-0,0 138.826,-449.454 300.144,-476.597Z" style="fill:#87af35;stroke:#000;stroke-width:3.13px;"/></g><g id="Pflanze-hinten-links13" serif:id="Pflanze-hinten-links"><path d="M3688.74,9464.1c-0,-0 213.127,295.676 -19.774,761.964c-0,0 -137.985,-433.155 19.774,-761.964Z" style="fill:#87af35;stroke:#000;stroke-width:3.13px;"/><path d="M3334.94,9786.79c0,-0 435.335,-139.687 406.997,506.297c0,-0 -22.49,33.993 -76.836,-10.242c-0,-0 -62.754,-401.795 -330.161,-496.055Z" style="fill:#87af35;stroke:#000;stroke-width:3.13px;"/><path d="M4051.16,9790.08c-0,-0 -367.778,-71.067 -334.855,507.916c-0,-0 15.143,25.222 34.711,-31.319c-0,-0 138.826,-449.455 300.144,-476.597Z" style="fill:#87af35;stroke:#000;stroke-width:3.13px;"/></g></g><g><g id="Pflanze-vorne-links"><path d="M2175.78,3267.88c0,0 64.541,40.677 112.201,-90.319c47.659,-130.997 15.27,-3.297 102.535,-41.559c87.265,-38.263 -7.012,-24.497 -0.55,-98.707c6.462,-74.211 14.392,-91.062 64.968,-73.424c50.576,17.637 135.742,-89.886 24.212,-159.322c-111.529,-69.435 -133.181,39.45 -138.212,87.533c-5.032,48.083 46.491,101.909 -0,105.616c-46.492,3.707 -100.838,-11.369 -116.054,53.017c-15.216,64.385 69.474,94.982 0,126.846c-69.474,31.863 -134.625,-33.95 -92.151,90.319l43.051,0Z" style="fill:#87af35;stroke:#000;stroke-width:6.25px;"/><path d="M2168.74,3177.57c0,-0 14.537,-195.92 107.607,-220.086c93.07,-24.165 20.843,-70.327 29.533,-148.541c8.69,-78.214 69.665,-71.214 81.123,-116.042c11.458,-44.828 -90.694,-94.5 -80.789,-181.534c-0,-0 -11.259,-115.428 19.308,-225.802c30.566,-110.374 -278.678,-323.245 -307.52,-259.053c-0,-0 -222.496,95.16 46.287,531.999c0,-0 114.066,98.353 118.452,181.864c4.386,83.51 -64.242,306.829 -14.001,437.195Z" style="fill:#87af35;stroke:#000;stroke-width:6.25px;"/><path d="M2135.72,3154.85c-0,0 -115.092,1.294 -137.379,-51.767c-0,0 11.4,-88.577 -15.46,-128.152c-26.86,-39.575 -109.089,24.157 -151.592,-52.493c-42.503,-76.65 26.116,-146.893 -16.485,-181.721c-42.6,-34.829 -177.96,11.513 -241.954,-58.787c-63.993,-70.3 16.31,-127.36 57.941,-119.646c41.631,7.715 147.257,-6.855 185.418,-49.635c38.161,-42.78 147.532,51.52 137.97,106.369c-9.562,54.85 115.675,109.536 178.425,126.658c62.75,17.122 11.941,81.932 -1.707,199.782c-13.648,117.849 -18.53,150.837 4.823,209.392Z" style="fill:#87af35;stroke:#000;stroke-width:6.25px;"/></g><g id="Pflanze-vorne-links1" serif:id="Pflanze-vorne-links"><path d="M2175.78,5529.03c0,0 64.541,40.677 112.201,-90.319c47.659,-130.997 15.27,-3.297 102.535,-41.56c87.265,-38.262 -7.012,-24.496 -0.55,-98.706c6.462,-74.211 14.392,-91.062 64.968,-73.424c50.576,17.637 135.742,-89.886 24.212,-159.322c-111.529,-69.435 -133.181,39.45 -138.212,87.533c-5.032,48.082 46.491,101.909 -0,105.616c-46.492,3.707 -100.838,-11.369 -116.054,53.017c-15.216,64.385 69.474,94.982 0,126.846c-69.474,31.863 -134.625,-33.95 -92.151,90.319l43.051,0Z" style="fill:#87af35;stroke:#000;stroke-width:6.25px;"/><path d="M2168.74,5438.71c0,-0 14.537,-195.92 107.607,-220.086c93.07,-24.166 20.843,-70.327 29.533,-148.541c8.69,-78.214 69.665,-71.214 81.123,-116.042c11.458,-44.828 -90.694,-94.5 -80.789,-181.534c-0,-0 -11.259,-115.428 19.308,-225.802c30.566,-110.374 -278.678,-323.245 -307.52,-259.054c-0,0 -222.496,95.16 46.287,532c0,-0 114.066,98.353 118.452,181.864c4.386,83.51 -64.242,306.829 -14.001,437.195Z" style="fill:#87af35;stroke:#000;stroke-width:6.25px;"/><path d="M2135.72,5415.99c-0,-0 -115.092,1.294 -137.379,-51.767c-0,-0 11.4,-88.577 -15.46,-128.152c-26.86,-39.575 -109.089,24.157 -151.592,-52.493c-42.503,-76.65 26.116,-146.893 -16.485,-181.721c-42.6,-34.829 -177.96,11.513 -241.954,-58.787c-63.993,-70.3 16.31,-127.36 57.941,-119.646c41.631,7.714 147.257,-6.855 185.418,-49.636c38.161,-42.78 147.532,51.521 137.97,106.37c-9.562,54.85 115.675,109.536 178.425,126.658c62.75,17.122 11.941,81.932 -1.707,199.782c-13.648,117.849 -18.53,150.837 4.823,209.392Z" style="fill:#87af35;stroke:#000;stroke-width:6.25px;"/></g><g id="Pflanze-vorne-links2" serif:id="Pflanze-vorne-links"><path d="M2175.78,7790.17c0,0 64.541,40.677 112.201,-90.32c47.659,-130.996 15.27,-3.296 102.535,-41.559c87.265,-38.262 -7.012,-24.496 -0.55,-98.706c6.462,-74.211 14.392,-91.062 64.968,-73.424c50.576,17.637 135.742,-89.886 24.212,-159.322c-111.529,-69.435 -133.181,39.45 -138.212,87.533c-5.032,48.082 46.491,101.909 -0,105.616c-46.492,3.706 -100.838,-11.369 -116.054,53.016c-15.216,64.386 69.474,94.983 0,126.846c-69.474,31.864 -134.625,-33.949 -92.151,90.32l43.051,0Z" style="fill:#87af35;stroke:#000;stroke-width:6.25px;"/><path d="M2168.74,7699.85c0,0 14.537,-195.92 107.607,-220.085c93.07,-24.166 20.843,-70.327 29.533,-148.541c8.69,-78.214 69.665,-71.214 81.123,-116.042c11.458,-44.828 -90.694,-94.5 -80.789,-181.534c-0,-0 -11.259,-115.428 19.308,-225.802c30.566,-110.374 -278.678,-323.246 -307.52,-259.054c-0,0 -222.496,95.16 46.287,532c0,-0 114.066,98.353 118.452,181.864c4.386,83.51 -64.242,306.829 -14.001,437.194Z" style="fill:#87af35;stroke:#000;stroke-width:6.25px;"/><path d="M2135.72,7677.14c-0,-0 -115.092,1.294 -137.379,-51.767c-0,-0 11.4,-88.577 -15.46,-128.152c-26.86,-39.575 -109.089,24.156 -151.592,-52.493c-42.503,-76.65 26.116,-146.893 -16.485,-181.722c-42.6,-34.828 -177.96,11.514 -241.954,-58.786c-63.993,-70.3 16.31,-127.36 57.941,-119.646c41.631,7.714 147.257,-6.856 185.418,-49.636c38.161,-42.78 147.532,51.521 137.97,106.37c-9.562,54.85 115.675,109.536 178.425,126.658c62.75,17.122 11.941,81.932 -1.707,199.782c-13.648,117.849 -18.53,150.837 4.823,209.392Z" style="fill:#87af35;stroke:#000;stroke-width:6.25px;"/></g><g id="Pflanze-vorne-links3" serif:id="Pflanze-vorne-links"><path d="M2348.9,10051.3c-0,-0 64.541,40.677 112.201,-90.32c47.659,-130.996 15.27,-3.296 102.535,-41.559c87.265,-38.263 -7.012,-24.496 -0.55,-98.706c6.462,-74.211 14.391,-91.062 64.967,-73.424c50.576,17.637 135.743,-89.886 24.213,-159.322c-111.529,-69.435 -133.181,39.45 -138.212,87.533c-5.032,48.082 46.491,101.908 -0,105.615c-46.492,3.707 -100.838,-11.368 -116.054,53.017c-15.216,64.386 69.474,94.983 -0,126.846c-69.474,31.864 -134.626,-33.949 -92.151,90.32l43.051,-0Z" style="fill:#87af35;stroke:#000;stroke-width:6.25px;"/><path d="M2341.87,9960.99c0,0 14.537,-195.92 107.607,-220.085c93.07,-24.166 20.842,-70.327 29.533,-148.541c8.69,-78.214 69.665,-71.214 81.123,-116.042c11.458,-44.828 -90.694,-94.5 -80.79,-181.534c0,-0 -11.258,-115.429 19.308,-225.802c30.567,-110.374 -278.678,-323.246 -307.519,-259.054c-0,0 -222.496,95.16 46.287,532c0,-0 114.066,98.353 118.452,181.863c4.386,83.511 -64.243,306.83 -14.001,437.195Z" style="fill:#87af35;stroke:#000;stroke-width:6.25px;"/><path d="M2308.85,9938.28c0,-0 -115.091,1.294 -137.378,-51.767c-0,-0 11.4,-88.577 -15.46,-128.152c-26.861,-39.576 -109.089,24.156 -151.592,-52.493c-42.503,-76.65 26.116,-146.893 -16.485,-181.722c-42.601,-34.828 -177.961,11.514 -241.954,-58.786c-63.993,-70.3 16.31,-127.36 57.941,-119.646c41.631,7.714 147.257,-6.856 185.418,-49.636c38.161,-42.78 147.532,51.521 137.97,106.37c-9.563,54.85 115.675,109.536 178.425,126.658c62.75,17.121 11.941,81.932 -1.707,199.782c-13.649,117.849 -18.53,150.837 4.822,209.392Z" style="fill:#87af35;stroke:#000;stroke-width:6.25px;"/></g></g><g><circle cx="1344.67" cy="1469.04" r="612.565" style="fill:#48704f;stroke:#fff;stroke-width:39.06px;"/><path d="M1369.87,1348.5c2.955,-13.433 50.793,-218.687 215.23,-221.801c0,-0 246.726,8.601 186.846,289.694c0.223,-1.396 0.76,-5.585 0.37,-4.226c-1.182,4.116 -1.004,8.641 -2.757,12.547c-5.371,11.964 -19.091,31.776 -27.167,42.044c-24.437,31.068 -52.872,54.805 -83.889,79.521c-38.868,30.972 -80.897,59.42 -117.739,93.017c-53.433,48.726 -98.792,103.305 -132.717,167.404c-11.757,22.214 -18.402,42.293 -26.593,65.964c-42.004,-66.256 -94.796,-127.952 -158.959,-173.713c-32.888,-23.455 -69.78,-38.464 -103.773,-59.928c-62.016,-39.158 -113.236,-90.112 -157.658,-148.175c-9.092,-11.883 -21.308,-29.713 -28.632,-44.277c-22.017,-43.78 -27.446,-94.701 -22.968,-142.89c3.235,-34.817 19.757,-70.328 47.245,-92.409c36.72,-34.424 84.761,-59.741 136.249,-59.212c29.041,0.298 56.415,10.319 83.178,20.522c30.729,11.716 61.006,24.894 87.642,44.555c45.808,33.812 77.679,82.968 106.092,131.363Z" style="fill:#99b563;stroke:#f1dcaa;stroke-width:26.04px;"/></g></g><g id="Beet2"><rect x="6937.27" y="1469.04" width="4429.13" height="9227.36" style="fill:#8b6818;"/><g><g id="Pflanze-hinten-links14" serif:id="Pflanze-hinten-links"><path d="M9149.22,1858.2c-0,-0 213.128,295.677 -19.774,761.964c0,0 -137.985,-433.155 19.774,-761.964Z" style="fill:#87af35;stroke:#000;stroke-width:3.13px;"/><path d="M8795.42,2180.89c0,0 435.335,-139.687 406.997,506.297c0,-0 -22.49,33.994 -76.836,-10.242c0,-0 -62.754,-401.795 -330.161,-496.055Z" style="fill:#87af35;stroke:#000;stroke-width:3.13px;"/><path d="M9511.64,2184.18c-0,0 -367.778,-71.067 -334.855,507.916c-0,0 15.143,25.222 34.711,-31.319c0,-0 138.826,-449.455 300.144,-476.597Z" style="fill:#87af35;stroke:#000;stroke-width:3.13px;"/></g><g id="Pflanze-hinten-links15" serif:id="Pflanze-hinten-links"><path d="M9149.22,4394.06c-0,-0 213.128,295.677 -19.774,761.964c0,0 -137.985,-433.154 19.774,-761.964Z" style="fill:#87af35;stroke:#000;stroke-width:3.13px;"/><path d="M8795.42,4716.75c0,0 435.335,-139.686 406.997,506.297c0,0 -22.49,33.994 -76.836,-10.242c0,0 -62.754,-401.795 -330.161,-496.055Z" style="fill:#87af35;stroke:#000;stroke-width:3.13px;"/><path d="M9511.64,4720.04c-0,0 -367.778,-71.066 -334.855,507.916c-0,0 15.143,25.222 34.711,-31.319c0,0 138.826,-449.454 300.144,-476.597Z" style="fill:#87af35;stroke:#000;stroke-width:3.13px;"/></g><g id="Pflanze-hinten-links16" serif:id="Pflanze-hinten-links"><path d="M9149.22,6929.92c-0,0 213.128,295.677 -19.774,761.965c0,-0 -137.985,-433.155 19.774,-761.965Z" style="fill:#87af35;stroke:#000;stroke-width:3.13px;"/><path d="M8795.42,7252.61c0,-0 435.335,-139.687 406.997,506.296c0,0 -22.49,33.994 -76.836,-10.242c0,0 -62.754,-401.794 -330.161,-496.054Z" style="fill:#87af35;stroke:#000;stroke-width:3.13px;"/><path d="M9511.64,7255.91c-0,-0 -367.778,-71.067 -334.855,507.916c-0,-0 15.143,25.221 34.711,-31.32c0,0 138.826,-449.454 300.144,-476.596Z" style="fill:#87af35;stroke:#000;stroke-width:3.13px;"/></g><g id="Pflanze-hinten-links17" serif:id="Pflanze-hinten-links"><path d="M9149.22,3126.13c-0,0 213.128,295.677 -19.774,761.965c0,-0 -137.985,-433.155 19.774,-761.965Z" style="fill:#87af35;stroke:#000;stroke-width:3.13px;"/><path d="M8795.42,3448.82c0,-0 435.335,-139.687 406.997,506.296c0,0 -22.49,33.994 -76.836,-10.241c0,-0 -62.754,-401.795 -330.161,-496.055Z" style="fill:#87af35;stroke:#000;stroke-width:3.13px;"/><path d="M9511.64,3452.11c-0,-0 -367.778,-71.067 -334.855,507.916c-0,-0 15.143,25.221 34.711,-31.319c0,-0 138.826,-449.455 300.144,-476.597Z" style="fill:#87af35;stroke:#000;stroke-width:3.13px;"/></g><g id="Pflanze-hinten-links18" serif:id="Pflanze-hinten-links"><path d="M9149.22,5661.99c-0,-0 213.128,295.676 -19.774,761.964c0,0 -137.985,-433.155 19.774,-761.964Z" style="fill:#87af35;stroke:#000;stroke-width:3.13px;"/><path d="M8795.42,5984.68c0,-0 435.335,-139.687 406.997,506.297c0,-0 -22.49,33.993 -76.836,-10.242c0,-0 -62.754,-401.795 -330.161,-496.055Z" style="fill:#87af35;stroke:#000;stroke-width:3.13px;"/><path d="M9511.64,5987.98c-0,-0 -367.778,-71.067 -334.855,507.916c-0,-0 15.143,25.222 34.711,-31.319c0,-0 138.826,-449.455 300.144,-476.597Z" style="fill:#87af35;stroke:#000;stroke-width:3.13px;"/></g><g id="Pflanze-hinten-links19" serif:id="Pflanze-hinten-links"><path d="M9149.22,8197.85c-0,-0 213.128,295.677 -19.774,761.964c0,0 -137.985,-433.155 19.774,-761.964Z" style="fill:#87af35;stroke:#000;stroke-width:3.13px;"/><path d="M8795.42,8520.55c0,0 435.335,-139.687 406.997,506.297c0,-0 -22.49,33.994 -76.836,-10.242c0,-0 -62.754,-401.795 -330.161,-496.055Z" style="fill:#87af35;stroke:#000;stroke-width:3.13px;"/><path d="M9511.64,8523.84c-0,0 -367.778,-71.066 -334.855,507.916c-0,0 15.143,25.222 34.711,-31.319c0,-0 138.826,-449.455 300.144,-476.597Z" style="fill:#87af35;stroke:#000;stroke-width:3.13px;"/></g><g id="Pflanze-hinten-links20" serif:id="Pflanze-hinten-links"><path d="M9149.22,9465.79c-0,0 213.128,295.677 -19.774,761.965c0,-0 -137.985,-433.155 19.774,-761.965Z" style="fill:#87af35;stroke:#000;stroke-width:3.13px;"/><path d="M8795.42,9788.48c0,-0 435.335,-139.687 406.997,506.297c0,-0 -22.49,33.993 -76.836,-10.242c0,-0 -62.754,-401.795 -330.161,-496.055Z" style="fill:#87af35;stroke:#000;stroke-width:3.13px;"/><path d="M9511.64,9791.77c-0,-0 -367.778,-71.067 -334.855,507.916c-0,-0 15.143,25.222 34.711,-31.319c0,-0 138.826,-449.455 300.144,-476.597Z" style="fill:#87af35;stroke:#000;stroke-width:3.13px;"/></g></g><g><g id="Pflanze-hinten-links21" serif:id="Pflanze-hinten-links"><path d="M10533.8,1856.51c0,-0 213.128,295.677 -19.774,761.964c0,0 -137.984,-433.154 19.774,-761.964Z" style="fill:#87af35;stroke:#000;stroke-width:3.13px;"/><path d="M10180,2179.2c-0,0 435.334,-139.686 406.997,506.297c-0,-0 -22.49,33.994 -76.837,-10.242c0,0 -62.753,-401.795 -330.16,-496.055Z" style="fill:#87af35;stroke:#000;stroke-width:3.13px;"/><path d="M10896.3,2182.49c0,0 -367.778,-71.066 -334.855,507.916c0,0 15.143,25.222 34.711,-31.319c0,0 138.826,-449.455 300.144,-476.597Z" style="fill:#87af35;stroke:#000;stroke-width:3.13px;"/></g><g id="Pflanze-hinten-links22" serif:id="Pflanze-hinten-links"><path d="M10533.8,4392.37c0,0 213.128,295.677 -19.774,761.965c0,-0 -137.984,-433.155 19.774,-761.965Z" style="fill:#87af35;stroke:#000;stroke-width:3.13px;"/><path d="M10180,4715.06c-0,-0 435.334,-139.687 406.997,506.296c-0,0 -22.49,33.994 -76.837,-10.242c0,0 -62.753,-401.794 -330.16,-496.054Z" style="fill:#87af35;stroke:#000;stroke-width:3.13px;"/><path d="M10896.3,4718.35c0,0 -367.778,-71.066 -334.855,507.916c0,0 15.143,25.222 34.711,-31.319c0,0 138.826,-449.454 300.144,-476.597Z" style="fill:#87af35;stroke:#000;stroke-width:3.13px;"/></g><g id="Pflanze-hinten-links23" serif:id="Pflanze-hinten-links"><path d="M10533.8,6928.23c0,0 213.128,295.677 -19.774,761.965c0,-0 -137.984,-433.155 19.774,-761.965Z" style="fill:#87af35;stroke:#000;stroke-width:3.13px;"/><path d="M10180,7250.92c-0,-0 435.334,-139.687 406.997,506.296c-0,0 -22.49,33.994 -76.837,-10.241c0,-0 -62.753,-401.795 -330.16,-496.055Z" style="fill:#87af35;stroke:#000;stroke-width:3.13px;"/><path d="M10896.3,7254.22c0,-0 -367.778,-71.067 -334.855,507.916c0,-0 15.143,25.221 34.711,-31.319c0,-0 138.826,-449.455 300.144,-476.597Z" style="fill:#87af35;stroke:#000;stroke-width:3.13px;"/></g><g id="Pflanze-hinten-links24" serif:id="Pflanze-hinten-links"><path d="M10533.8,3124.44c0,-0 213.128,295.676 -19.774,761.964c0,-0 -137.984,-433.155 19.774,-761.964Z" style="fill:#87af35;stroke:#000;stroke-width:3.13px;"/><path d="M10180,3447.13c-0,-0 435.334,-139.687 406.997,506.297c-0,-0 -22.49,33.993 -76.837,-10.242c0,-0 -62.753,-401.795 -330.16,-496.055Z" style="fill:#87af35;stroke:#000;stroke-width:3.13px;"/><path d="M10896.3,3450.42c0,-0 -367.778,-71.067 -334.855,507.916c0,-0 15.143,25.222 34.711,-31.319c0,-0 138.826,-449.455 300.144,-476.597Z" style="fill:#87af35;stroke:#000;stroke-width:3.13px;"/></g><g id="Pflanze-hinten-links25" serif:id="Pflanze-hinten-links"><path d="M10533.8,5660.3c0,-0 213.128,295.677 -19.774,761.964c0,0 -137.984,-433.155 19.774,-761.964Z" style="fill:#87af35;stroke:#000;stroke-width:3.13px;"/><path d="M10180,5982.99c-0,0 435.334,-139.687 406.997,506.297c-0,-0 -22.49,33.994 -76.837,-10.242c0,-0 -62.753,-401.795 -330.16,-496.055Z" style="fill:#87af35;stroke:#000;stroke-width:3.13px;"/><path d="M10896.3,5986.29c0,0 -367.778,-71.067 -334.855,507.916c0,0 15.143,25.222 34.711,-31.319c0,-0 138.826,-449.455 300.144,-476.597Z" style="fill:#87af35;stroke:#000;stroke-width:3.13px;"/></g><g id="Pflanze-hinten-links26" serif:id="Pflanze-hinten-links"><path d="M10533.8,8196.17c0,-0 213.128,295.677 -19.774,761.964c0,0 -137.984,-433.154 19.774,-761.964Z" style="fill:#87af35;stroke:#000;stroke-width:3.13px;"/><path d="M10180,8518.85c-0,0 435.334,-139.686 406.997,506.297c-0,0 -22.49,33.994 -76.837,-10.242c0,0 -62.753,-401.795 -330.16,-496.055Z" style="fill:#87af35;stroke:#000;stroke-width:3.13px;"/><path d="M10896.3,8522.15c0,0 -367.778,-71.066 -334.855,507.916c0,0 15.143,25.222 34.711,-31.319c0,0 138.826,-449.454 300.144,-476.597Z" style="fill:#87af35;stroke:#000;stroke-width:3.13px;"/></g><g id="Pflanze-hinten-links27" serif:id="Pflanze-hinten-links"><path d="M10533.8,9464.1c0,-0 213.128,295.676 -19.774,761.964c0,0 -137.984,-433.155 19.774,-761.964Z" style="fill:#87af35;stroke:#000;stroke-width:3.13px;"/><path d="M10180,9786.79c-0,-0 435.334,-139.687 406.997,506.297c-0,-0 -22.49,33.993 -76.837,-10.242c0,-0 -62.753,-401.795 -330.16,-496.055Z" style="fill:#87af35;stroke:#000;stroke-width:3.13px;"/><path d="M10896.3,9790.08c0,-0 -367.778,-71.067 -334.855,507.916c0,-0 15.143,25.222 34.711,-31.319c0,-0 138.826,-449.455 300.144,-476.597Z" style="fill:#87af35;stroke:#000;stroke-width:3.13px;"/></g></g><g><circle cx="9955.73" cy="1469.04" r="612.565" style="fill:#fc8f36;stroke:#e7e8e9;stroke-width:39.06px;"/><path d="M9896,980.349l189.838,15.607l-212.263,454.696l317.491,-115.88l-172.563,460.136l100.404,8.255l-153.119,154.572l-130.773,-177.986l90.954,7.477l82.776,-277.581l-288.351,91.163l175.606,-620.459Z" style="fill:#48704f;stroke:#f1dcaa;stroke-width:39.06px;"/></g><path d="M7706.91,669.59l-732.422,366.211l732.422,366.211l0,-732.422Z" style="fill:#ba2d0b;"/><path d="M8419.42,669.59l732.422,366.211l-732.422,366.211l0,-732.422Z" style="fill:#ba2d0b;"/><path d="M7560.43,1035.8l1005.47,-0" style="fill:none;stroke:#ba2d0b;stroke-width:122.07px;"/></g><g id="Beet3"><rect x="13874.5" y="1469.04" width="4429.13" height="9227.36" style="fill:#8b6818;"/><g><g id="Pflanze-hinten-links28" serif:id="Pflanze-hinten-links"><path d="M17627.4,1890.88c-0,-0 213.127,295.677 -19.774,761.964c-0,0 -137.985,-433.154 19.774,-761.964Z" style="fill:#87af35;stroke:#000;stroke-width:3.13px;"/><path d="M17273.5,2213.57c0,0 435.334,-139.686 406.997,506.297c0,-0 -22.49,33.994 -76.836,-10.242c-0,0 -62.754,-401.795 -330.161,-496.055Z" style="fill:#87af35;stroke:#000;stroke-width:3.13px;"/><path d="M17989.8,2216.87c0,0 -367.777,-71.066 -334.855,507.916c0,0 15.144,25.222 34.712,-31.319c-0,0 138.825,-449.455 300.143,-476.597Z" style="fill:#87af35;stroke:#000;stroke-width:3.13px;"/></g><g id="Pflanze-hinten-links29" serif:id="Pflanze-hinten-links"><path d="M17627.4,4426.74c-0,0 213.127,295.677 -19.774,761.965c-0,-0 -137.985,-433.155 19.774,-761.965Z" style="fill:#87af35;stroke:#000;stroke-width:3.13px;"/><path d="M17273.5,4749.44c0,-0 435.334,-139.687 406.997,506.296c0,0 -22.49,33.994 -76.836,-10.242c-0,0 -62.754,-401.794 -330.161,-496.054Z" style="fill:#87af35;stroke:#000;stroke-width:3.13px;"/><path d="M17989.8,4752.73c0,0 -367.777,-71.066 -334.855,507.916c0,0 15.144,25.222 34.712,-31.319c-0,0 138.825,-449.454 300.143,-476.597Z" style="fill:#87af35;stroke:#000;stroke-width:3.13px;"/></g><g id="Pflanze-hinten-links30" serif:id="Pflanze-hinten-links"><path d="M17627.4,6962.61c-0,0 213.127,295.677 -19.774,761.965c-0,-0 -137.985,-433.155 19.774,-761.965Z" style="fill:#87af35;stroke:#000;stroke-width:3.13px;"/><path d="M17273.5,7285.3c0,-0 435.334,-139.687 406.997,506.296c0,0 -22.49,33.994 -76.836,-10.241c-0,-0 -62.754,-401.795 -330.161,-496.055Z" style="fill:#87af35;stroke:#000;stroke-width:3.13px;"/><path d="M17989.8,7288.59c0,-0 -367.777,-71.067 -334.855,507.916c0,-0 15.144,25.221 34.712,-31.319c-0,-0 138.825,-449.455 300.143,-476.597Z" style="fill:#87af35;stroke:#000;stroke-width:3.13px;"/></g><g id="Pflanze-hinten-links31" serif:id="Pflanze-hinten-links"><path d="M17627.4,3158.81c-0,-0 213.127,295.676 -19.774,761.964c-0,-0 -137.985,-433.155 19.774,-761.964Z" style="fill:#87af35;stroke:#000;stroke-width:3.13px;"/><path d="M17273.5,3481.5c0,-0 435.334,-139.687 406.997,506.297c0,-0 -22.49,33.993 -76.836,-10.242c-0,-0 -62.754,-401.795 -330.161,-496.055Z" style="fill:#87af35;stroke:#000;stroke-width:3.13px;"/><path d="M17989.8,3484.8c0,-0 -367.777,-71.067 -334.855,507.916c0,-0 15.144,25.222 34.712,-31.319c-0,-0 138.825,-449.455 300.143,-476.597Z" style="fill:#87af35;stroke:#000;stroke-width:3.13px;"/></g><g id="Pflanze-hinten-links32" serif:id="Pflanze-hinten-links"><path d="M17627.4,5694.68c-0,-0 213.127,295.677 -19.774,761.964c-0,0 -137.985,-433.155 19.774,-761.964Z" style="fill:#87af35;stroke:#000;stroke-width:3.13px;"/><path d="M17273.5,6017.37c0,0 435.334,-139.687 406.997,506.297c0,-0 -22.49,33.994 -76.836,-10.242c-0,-0 -62.754,-401.795 -330.161,-496.055Z" style="fill:#87af35;stroke:#000;stroke-width:3.13px;"/><path d="M17989.8,6020.66c0,0 -367.777,-71.067 -334.855,507.916c0,0 15.144,25.222 34.712,-31.319c-0,-0 138.825,-449.455 300.143,-476.597Z" style="fill:#87af35;stroke:#000;stroke-width:3.13px;"/></g><g id="Pflanze-hinten-links33" serif:id="Pflanze-hinten-links"><path d="M17627.4,8230.54c-0,-0 213.127,295.677 -19.774,761.964c-0,0 -137.985,-433.154 19.774,-761.964Z" style="fill:#87af35;stroke:#000;stroke-width:3.13px;"/><path d="M17273.5,8553.23c0,0 435.334,-139.686 406.997,506.297c0,0 -22.49,33.994 -76.836,-10.242c-0,0 -62.754,-401.795 -330.161,-496.055Z" style="fill:#87af35;stroke:#000;stroke-width:3.13px;"/><path d="M17989.8,8556.52c0,0 -367.777,-71.066 -334.855,507.916c0,0 15.144,25.222 34.712,-31.319c-0,0 138.825,-449.454 300.143,-476.597Z" style="fill:#87af35;stroke:#000;stroke-width:3.13px;"/></g><g id="Pflanze-hinten-links34" serif:id="Pflanze-hinten-links"><path d="M17627.4,9498.47c-0,-0 213.127,295.676 -19.774,761.964c-0,0 -137.985,-433.155 19.774,-761.964Z" style="fill:#87af35;stroke:#000;stroke-width:3.13px;"/><path d="M17273.5,9821.16c0,-0 435.334,-139.687 406.997,506.297c0,-0 -22.49,33.993 -76.836,-10.242c-0,-0 -62.754,-401.795 -330.161,-496.055Z" style="fill:#87af35;stroke:#000;stroke-width:3.13px;"/><path d="M17989.8,9824.46c0,-0 -367.777,-71.067 -334.855,507.916c0,-0 15.144,25.222 34.712,-31.319c-0,-0 138.825,-449.455 300.143,-476.597Z" style="fill:#87af35;stroke:#000;stroke-width:3.13px;"/></g></g><g><g id="Pflanze-hinten-links35" serif:id="Pflanze-hinten-links"><path d="M16084.8,1858.2c0,-0 213.128,295.677 -19.774,761.964c0,0 -137.984,-433.155 19.774,-761.964Z" style="fill:#87af35;stroke:#000;stroke-width:3.13px;"/><path d="M15731,2180.89c-0,0 435.334,-139.687 406.997,506.297c-0,-0 -22.49,33.994 -76.837,-10.242c0,-0 -62.754,-401.795 -330.16,-496.055Z" style="fill:#87af35;stroke:#000;stroke-width:3.13px;"/><path d="M16447.2,2184.18c-0,0 -367.778,-71.067 -334.855,507.916c-0,0 15.143,25.222 34.711,-31.319c0,-0 138.826,-449.455 300.144,-476.597Z" style="fill:#87af35;stroke:#000;stroke-width:3.13px;"/></g><g id="Pflanze-hinten-links36" serif:id="Pflanze-hinten-links"><path d="M16084.8,4394.06c0,-0 213.128,295.677 -19.774,761.964c0,0 -137.984,-433.154 19.774,-761.964Z" style="fill:#87af35;stroke:#000;stroke-width:3.13px;"/><path d="M15731,4716.75c-0,0 435.334,-139.686 406.997,506.297c-0,0 -22.49,33.994 -76.837,-10.242c0,0 -62.754,-401.795 -330.16,-496.055Z" style="fill:#87af35;stroke:#000;stroke-width:3.13px;"/><path d="M16447.2,4720.04c-0,0 -367.778,-71.066 -334.855,507.916c-0,0 15.143,25.222 34.711,-31.319c0,0 138.826,-449.454 300.144,-476.597Z" style="fill:#87af35;stroke:#000;stroke-width:3.13px;"/></g><g id="Pflanze-hinten-links37" serif:id="Pflanze-hinten-links"><path d="M16084.8,6929.92c0,0 213.128,295.677 -19.774,761.965c0,-0 -137.984,-433.155 19.774,-761.965Z" style="fill:#87af35;stroke:#000;stroke-width:3.13px;"/><path d="M15731,7252.61c-0,-0 435.334,-139.687 406.997,506.296c-0,0 -22.49,33.994 -76.837,-10.242c0,0 -62.754,-401.794 -330.16,-496.054Z" style="fill:#87af35;stroke:#000;stroke-width:3.13px;"/><path d="M16447.2,7255.91c-0,-0 -367.778,-71.067 -334.855,507.916c-0,-0 15.143,25.221 34.711,-31.32c0,0 138.826,-449.454 300.144,-476.596Z" style="fill:#87af35;stroke:#000;stroke-width:3.13px;"/></g><g id="Pflanze-hinten-links38" serif:id="Pflanze-hinten-links"><path d="M16084.8,3126.13c0,0 213.128,295.677 -19.774,761.965c0,-0 -137.984,-433.155 19.774,-761.965Z" style="fill:#87af35;stroke:#000;stroke-width:3.13px;"/><path d="M15731,3448.82c-0,-0 435.334,-139.687 406.997,506.296c-0,0 -22.49,33.994 -76.837,-10.241c0,-0 -62.754,-401.795 -330.16,-496.055Z" style="fill:#87af35;stroke:#000;stroke-width:3.13px;"/><path d="M16447.2,3452.11c-0,-0 -367.778,-71.067 -334.855,507.916c-0,-0 15.143,25.221 34.711,-31.319c0,-0 138.826,-449.455 300.144,-476.597Z" style="fill:#87af35;stroke:#000;stroke-width:3.13px;"/></g><g id="Pflanze-hinten-links39" serif:id="Pflanze-hinten-links"><path d="M16084.8,5661.99c0,-0 213.128,295.676 -19.774,761.964c0,0 -137.984,-433.155 19.774,-761.964Z" style="fill:#87af35;stroke:#000;stroke-width:3.13px;"/><path d="M15731,5984.68c-0,-0 435.334,-139.687 406.997,506.297c-0,-0 -22.49,33.993 -76.837,-10.242c0,-0 -62.754,-401.795 -330.16,-496.055Z" style="fill:#87af35;stroke:#000;stroke-width:3.13px;"/><path d="M16447.2,5987.98c-0,-0 -367.778,-71.067 -334.855,507.916c-0,-0 15.143,25.222 34.711,-31.319c0,-0 138.826,-449.455 300.144,-476.597Z" style="fill:#87af35;stroke:#000;stroke-width:3.13px;"/></g><g id="Pflanze-hinten-links40" serif:id="Pflanze-hinten-links"><path d="M16084.8,8197.85c0,-0 213.128,295.677 -19.774,761.964c0,0 -137.984,-433.155 19.774,-761.964Z" style="fill:#87af35;stroke:#000;stroke-width:3.13px;"/><path d="M15731,8520.55c-0,0 435.334,-139.687 406.997,506.297c-0,-0 -22.49,33.994 -76.837,-10.242c0,-0 -62.754,-401.795 -330.16,-496.055Z" style="fill:#87af35;stroke:#000;stroke-width:3.13px;"/><path d="M16447.2,8523.84c-0,0 -367.778,-71.066 -334.855,507.916c-0,0 15.143,25.222 34.711,-31.319c0,-0 138.826,-449.455 300.144,-476.597Z" style="fill:#87af35;stroke:#000;stroke-width:3.13px;"/></g><g id="Pflanze-hinten-links41" serif:id="Pflanze-hinten-links"><path d="M16084.8,9465.79c0,0 213.128,295.677 -19.774,761.965c0,-0 -137.984,-433.155 19.774,-761.965Z" style="fill:#87af35;stroke:#000;stroke-width:3.13px;"/><path d="M15731,9788.48c-0,-0 435.334,-139.687 406.997,506.297c-0,-0 -22.49,33.993 -76.837,-10.242c0,-0 -62.754,-401.795 -330.16,-496.055Z" style="fill:#87af35;stroke:#000;stroke-width:3.13px;"/><path d="M16447.2,9791.77c-0,-0 -367.778,-71.067 -334.855,507.916c-0,-0 15.143,25.222 34.711,-31.319c0,-0 138.826,-449.455 300.144,-476.597Z" style="fill:#87af35;stroke:#000;stroke-width:3.13px;"/></g></g><g><g id="Pflanze-hinten-links42" serif:id="Pflanze-hinten-links"><path d="M14816.2,1858.2c0,-0 213.128,295.677 -19.773,761.964c-0,0 -137.985,-433.155 19.773,-761.964Z" style="fill:#87af35;stroke:#000;stroke-width:3.13px;"/><path d="M14462.4,2180.89c-0,0 435.334,-139.687 406.997,506.297c-0,-0 -22.49,33.994 -76.836,-10.242c-0,-0 -62.754,-401.795 -330.161,-496.055Z" style="fill:#87af35;stroke:#000;stroke-width:3.13px;"/><path d="M15178.6,2184.18c0,0 -367.778,-71.067 -334.855,507.916c0,0 15.143,25.222 34.712,-31.319c-0,-0 138.825,-449.455 300.143,-476.597Z" style="fill:#87af35;stroke:#000;stroke-width:3.13px;"/></g><g id="Pflanze-hinten-links43" serif:id="Pflanze-hinten-links"><path d="M14816.2,4394.06c0,-0 213.128,295.677 -19.773,761.964c-0,0 -137.985,-433.154 19.773,-761.964Z" style="fill:#87af35;stroke:#000;stroke-width:3.13px;"/><path d="M14462.4,4716.75c-0,0 435.334,-139.686 406.997,506.297c-0,0 -22.49,33.994 -76.836,-10.242c-0,0 -62.754,-401.795 -330.161,-496.055Z" style="fill:#87af35;stroke:#000;stroke-width:3.13px;"/><path d="M15178.6,4720.04c0,0 -367.778,-71.066 -334.855,507.916c0,0 15.143,25.222 34.712,-31.319c-0,0 138.825,-449.454 300.143,-476.597Z" style="fill:#87af35;stroke:#000;stroke-width:3.13px;"/></g><g id="Pflanze-hinten-links44" serif:id="Pflanze-hinten-links"><path d="M14816.2,6929.92c0,0 213.128,295.677 -19.773,761.965c-0,-0 -137.985,-433.155 19.773,-761.965Z" style="fill:#87af35;stroke:#000;stroke-width:3.13px;"/><path d="M14462.4,7252.61c-0,-0 435.334,-139.687 406.997,506.296c-0,0 -22.49,33.994 -76.836,-10.242c-0,0 -62.754,-401.794 -330.161,-496.054Z" style="fill:#87af35;stroke:#000;stroke-width:3.13px;"/><path d="M15178.6,7255.91c0,-0 -367.778,-71.067 -334.855,507.916c0,-0 15.143,25.221 34.712,-31.32c-0,0 138.825,-449.454 300.143,-476.596Z" style="fill:#87af35;stroke:#000;stroke-width:3.13px;"/></g><g id="Pflanze-hinten-links45" serif:id="Pflanze-hinten-links"><path d="M14816.2,3126.13c0,0 213.128,295.677 -19.773,761.965c-0,-0 -137.985,-433.155 19.773,-761.965Z" style="fill:#87af35;stroke:#000;stroke-width:3.13px;"/><path d="M14462.4,3448.82c-0,-0 435.334,-139.687 406.997,506.296c-0,0 -22.49,33.994 -76.836,-10.241c-0,-0 -62.754,-401.795 -330.161,-496.055Z" style="fill:#87af35;stroke:#000;stroke-width:3.13px;"/><path d="M15178.6,3452.11c0,-0 -367.778,-71.067 -334.855,507.916c0,-0 15.143,25.221 34.712,-31.319c-0,-0 138.825,-449.455 300.143,-476.597Z" style="fill:#87af35;stroke:#000;stroke-width:3.13px;"/></g><g id="Pflanze-hinten-links46" serif:id="Pflanze-hinten-links"><path d="M14816.2,5661.99c0,-0 213.128,295.676 -19.773,761.964c-0,0 -137.985,-433.155 19.773,-761.964Z" style="fill:#87af35;stroke:#000;stroke-width:3.13px;"/><path d="M14462.4,5984.68c-0,-0 435.334,-139.687 406.997,506.297c-0,-0 -22.49,33.993 -76.836,-10.242c-0,-0 -62.754,-401.795 -330.161,-496.055Z" style="fill:#87af35;stroke:#000;stroke-width:3.13px;"/><path d="M15178.6,5987.98c0,-0 -367.778,-71.067 -334.855,507.916c0,-0 15.143,25.222 34.712,-31.319c-0,-0 138.825,-449.455 300.143,-476.597Z" style="fill:#87af35;stroke:#000;stroke-width:3.13px;"/></g><g id="Pflanze-hinten-links47" serif:id="Pflanze-hinten-links"><path d="M14816.2,8197.85c0,-0 213.128,295.677 -19.773,761.964c-0,0 -137.985,-433.155 19.773,-761.964Z" style="fill:#87af35;stroke:#000;stroke-width:3.13px;"/><path d="M14462.4,8520.55c-0,0 435.334,-139.687 406.997,506.297c-0,-0 -22.49,33.994 -76.836,-10.242c-0,-0 -62.754,-401.795 -330.161,-496.055Z" style="fill:#87af35;stroke:#000;stroke-width:3.13px;"/><path d="M15178.6,8523.84c0,0 -367.778,-71.066 -334.855,507.916c0,0 15.143,25.222 34.712,-31.319c-0,-0 138.825,-449.455 300.143,-476.597Z" style="fill:#87af35;stroke:#000;stroke-width:3.13px;"/></g><g id="Pflanze-hinten-links48" serif:id="Pflanze-hinten-links"><path d="M14816.2,9465.79c0,0 213.128,295.677 -19.773,761.965c-0,-0 -137.985,-433.155 19.773,-761.965Z" style="fill:#87af35;stroke:#000;stroke-width:3.13px;"/><path d="M14462.4,9788.48c-0,-0 435.334,-139.687 406.997,506.297c-0,-0 -22.49,33.993 -76.836,-10.242c-0,-0 -62.754,-401.795 -330.161,-496.055Z" style="fill:#87af35;stroke:#000;stroke-width:3.13px;"/><path d="M15178.6,9791.77c0,-0 -367.778,-71.067 -334.855,507.916c0,-0 15.143,25.222 34.712,-31.319c-0,-0 138.825,-449.455 300.143,-476.597Z" style="fill:#87af35;stroke:#000;stroke-width:3.13px;"/></g></g><g><circle cx="15476.5" cy="1469.04" r="612.565" style="fill:#fc8f36;stroke:#e7e8e9;stroke-width:39.06px;"/><path d="M15416.8,980.349l189.838,15.607l-212.263,454.696l317.491,-115.88l-172.563,460.136l100.405,8.255l-153.12,154.572l-130.772,-177.986l90.953,7.477l82.776,-277.581l-288.351,91.163l175.606,-620.459Z" style="fill:#48704f;stroke:#f1dcaa;stroke-width:39.06px;"/></g></g><g id="Beet6"><rect x="0" y="12809.1" width="4429.13" height="9227.36" style="fill:#8b6818;"/><g><g id="Pflanze-vorne-links4" serif:id="Pflanze-vorne-links"><path d="M1057.36,14406.4c-0,0 64.541,40.677 112.201,-90.319c47.659,-130.997 15.27,-3.297 102.535,-41.56c87.265,-38.262 -7.012,-24.496 -0.55,-98.706c6.462,-74.211 14.391,-91.062 64.967,-73.424c50.577,17.637 135.743,-89.886 24.213,-159.322c-111.529,-69.435 -133.181,39.45 -138.212,87.533c-5.032,48.082 46.491,101.909 -0,105.616c-46.492,3.707 -100.838,-11.369 -116.054,53.017c-15.216,64.385 69.474,94.982 -0,126.846c-69.474,31.863 -134.625,-33.95 -92.151,90.319l43.051,0Z" style="fill:#87af35;stroke:#000;stroke-width:6.25px;"/><path d="M1050.33,14316.1c0,-0 14.537,-195.92 107.607,-220.086c93.07,-24.166 20.842,-70.327 29.533,-148.541c8.69,-78.214 69.665,-71.214 81.123,-116.042c11.458,-44.828 -90.694,-94.5 -80.79,-181.534c0,-0 -11.258,-115.428 19.309,-225.802c30.566,-110.374 -278.678,-323.245 -307.52,-259.054c-0,0 -222.496,95.16 46.287,532c0,-0 114.066,98.353 118.452,181.864c4.386,83.51 -64.243,306.829 -14.001,437.195Z" style="fill:#87af35;stroke:#000;stroke-width:6.25px;"/><path d="M1017.31,14293.4c0,-0 -115.091,1.294 -137.378,-51.767c-0,-0 11.4,-88.577 -15.46,-128.152c-26.861,-39.575 -109.089,24.157 -151.592,-52.493c-42.503,-76.65 26.116,-146.893 -16.485,-181.721c-42.6,-34.829 -177.96,11.513 -241.954,-58.787c-63.993,-70.3 16.31,-127.36 57.941,-119.646c41.631,7.714 147.257,-6.855 185.418,-49.636c38.161,-42.78 147.532,51.521 137.97,106.37c-9.562,54.85 115.675,109.536 178.425,126.658c62.75,17.122 11.941,81.932 -1.707,199.782c-13.649,117.849 -18.53,150.837 4.822,209.392Z" style="fill:#87af35;stroke:#000;stroke-width:6.25px;"/></g><g id="Pflanze-vorne-links5" serif:id="Pflanze-vorne-links"><path d="M1057.36,16667.5c-0,0 64.541,40.677 112.201,-90.32c47.659,-130.996 15.27,-3.296 102.535,-41.559c87.265,-38.262 -7.012,-24.496 -0.55,-98.706c6.462,-74.211 14.391,-91.062 64.967,-73.424c50.577,17.637 135.743,-89.886 24.213,-159.322c-111.529,-69.435 -133.181,39.45 -138.212,87.533c-5.032,48.082 46.491,101.909 -0,105.616c-46.492,3.706 -100.838,-11.369 -116.054,53.016c-15.216,64.386 69.474,94.983 -0,126.846c-69.474,31.864 -134.625,-33.949 -92.151,90.32l43.051,0Z" style="fill:#87af35;stroke:#000;stroke-width:6.25px;"/><path d="M1050.33,16577.2c0,0 14.537,-195.92 107.607,-220.085c93.07,-24.166 20.842,-70.327 29.533,-148.541c8.69,-78.214 69.665,-71.214 81.123,-116.042c11.458,-44.828 -90.694,-94.5 -80.79,-181.534c0,-0 -11.258,-115.428 19.309,-225.802c30.566,-110.374 -278.678,-323.246 -307.52,-259.054c-0,0 -222.496,95.16 46.287,532c0,-0 114.066,98.353 118.452,181.864c4.386,83.51 -64.243,306.829 -14.001,437.194Z" style="fill:#87af35;stroke:#000;stroke-width:6.25px;"/><path d="M1017.31,16554.5c0,-0 -115.091,1.294 -137.378,-51.767c-0,-0 11.4,-88.577 -15.46,-128.152c-26.861,-39.575 -109.089,24.156 -151.592,-52.493c-42.503,-76.65 26.116,-146.893 -16.485,-181.722c-42.6,-34.828 -177.96,11.514 -241.954,-58.786c-63.993,-70.3 16.31,-127.36 57.941,-119.646c41.631,7.714 147.257,-6.856 185.418,-49.636c38.161,-42.78 147.532,51.521 137.97,106.37c-9.562,54.85 115.675,109.536 178.425,126.658c62.75,17.122 11.941,81.932 -1.707,199.782c-13.649,117.849 -18.53,150.837 4.822,209.392Z" style="fill:#87af35;stroke:#000;stroke-width:6.25px;"/></g><g id="Pflanze-vorne-links6" serif:id="Pflanze-vorne-links"><path d="M1057.36,18928.7c-0,-0 64.541,40.677 112.201,-90.32c47.659,-130.996 15.27,-3.296 102.535,-41.559c87.265,-38.263 -7.012,-24.496 -0.55,-98.706c6.462,-74.211 14.391,-91.062 64.967,-73.424c50.577,17.637 135.743,-89.886 24.213,-159.322c-111.529,-69.435 -133.181,39.45 -138.212,87.533c-5.032,48.082 46.491,101.908 -0,105.615c-46.492,3.707 -100.838,-11.368 -116.054,53.017c-15.216,64.386 69.474,94.983 -0,126.846c-69.474,31.864 -134.625,-33.949 -92.151,90.32l43.051,-0Z" style="fill:#87af35;stroke:#000;stroke-width:6.25px;"/><path d="M1050.33,18838.4c0,0 14.537,-195.92 107.607,-220.085c93.07,-24.166 20.842,-70.327 29.533,-148.541c8.69,-78.214 69.665,-71.214 81.123,-116.042c11.458,-44.828 -90.694,-94.5 -80.79,-181.534c0,-0 -11.258,-115.429 19.309,-225.802c30.566,-110.374 -278.678,-323.246 -307.52,-259.054c-0,0 -222.496,95.16 46.287,532c0,-0 114.066,98.353 118.452,181.863c4.386,83.511 -64.243,306.83 -14.001,437.195Z" style="fill:#87af35;stroke:#000;stroke-width:6.25px;"/><path d="M1017.31,18815.7c0,-0 -115.091,1.294 -137.378,-51.767c-0,-0 11.4,-88.577 -15.46,-128.152c-26.861,-39.576 -109.089,24.156 -151.592,-52.493c-42.503,-76.65 26.116,-146.893 -16.485,-181.722c-42.6,-34.828 -177.96,11.514 -241.954,-58.786c-63.993,-70.3 16.31,-127.36 57.941,-119.646c41.631,7.714 147.257,-6.856 185.418,-49.636c38.161,-42.78 147.532,51.521 137.97,106.37c-9.562,54.85 115.675,109.536 178.425,126.658c62.75,17.121 11.941,81.932 -1.707,199.782c-13.649,117.849 -18.53,150.837 4.822,209.392Z" style="fill:#87af35;stroke:#000;stroke-width:6.25px;"/></g><g id="Pflanze-vorne-links7" serif:id="Pflanze-vorne-links"><path d="M1230.49,21189.8c-0,-0 64.541,40.677 112.2,-90.32c47.66,-130.996 15.27,-3.296 102.536,-41.559c87.265,-38.263 -7.013,-24.496 -0.55,-98.707c6.462,-74.21 14.391,-91.061 64.967,-73.424c50.576,17.638 135.743,-89.886 24.213,-159.321c-111.529,-69.435 -133.181,39.45 -138.212,87.532c-5.032,48.083 46.491,101.909 -0,105.616c-46.492,3.707 -100.838,-11.368 -116.054,53.017c-15.216,64.386 69.474,94.982 -0,126.846c-69.474,31.864 -134.626,-33.949 -92.151,90.32l43.051,-0Z" style="fill:#87af35;stroke:#000;stroke-width:6.25px;"/><path d="M1223.45,21099.5c0,0 14.536,-195.92 107.606,-220.085c93.071,-24.166 20.843,-70.327 29.534,-148.541c8.69,-78.214 69.664,-71.214 81.123,-116.042c11.458,-44.828 -90.694,-94.5 -80.79,-181.535c0,0 -11.258,-115.428 19.308,-225.801c30.567,-110.374 -278.678,-323.246 -307.519,-259.054c-0,0 -222.496,95.16 46.287,532c0,-0 114.066,98.353 118.452,181.863c4.385,83.511 -64.243,306.83 -14.001,437.195Z" style="fill:#87af35;stroke:#000;stroke-width:6.25px;"/><path d="M1190.43,21076.8c0,-0 -115.091,1.294 -137.378,-51.767c-0,-0 11.4,-88.578 -15.461,-128.153c-26.86,-39.575 -109.089,24.157 -151.591,-52.492c-42.503,-76.65 26.116,-146.893 -16.485,-181.722c-42.601,-34.828 -177.961,11.514 -241.954,-58.786c-63.993,-70.3 16.31,-127.36 57.941,-119.646c41.631,7.714 147.257,-6.856 185.418,-49.636c38.161,-42.78 147.532,51.52 137.97,106.37c-9.563,54.849 115.675,109.536 178.425,126.658c62.75,17.121 11.941,81.932 -1.708,199.781c-13.648,117.85 -18.529,150.838 4.823,209.393Z" style="fill:#87af35;stroke:#000;stroke-width:6.25px;"/></g></g><g><g id="Pflanze-vorne-links8" serif:id="Pflanze-vorne-links"><path d="M3117.62,14406.4c-0,0 64.541,40.677 112.201,-90.319c47.659,-130.997 15.27,-3.297 102.535,-41.56c87.265,-38.262 -7.012,-24.496 -0.55,-98.706c6.462,-74.211 14.391,-91.062 64.967,-73.424c50.577,17.637 135.743,-89.886 24.213,-159.322c-111.529,-69.435 -133.181,39.45 -138.212,87.533c-5.032,48.082 46.491,101.909 -0,105.616c-46.492,3.707 -100.838,-11.369 -116.054,53.017c-15.216,64.385 69.474,94.982 -0,126.846c-69.474,31.863 -134.625,-33.95 -92.151,90.319l43.051,0Z" style="fill:#87af35;stroke:#000;stroke-width:6.25px;"/><path d="M3110.59,14316.1c0,-0 14.537,-195.92 107.607,-220.086c93.07,-24.166 20.842,-70.327 29.533,-148.541c8.69,-78.214 69.665,-71.214 81.123,-116.042c11.458,-44.828 -90.694,-94.5 -80.79,-181.534c0,-0 -11.258,-115.428 19.309,-225.802c30.566,-110.374 -278.678,-323.245 -307.52,-259.054c-0,0 -222.496,95.16 46.287,532c0,-0 114.066,98.353 118.452,181.864c4.386,83.51 -64.243,306.829 -14.001,437.195Z" style="fill:#87af35;stroke:#000;stroke-width:6.25px;"/><path d="M3077.57,14293.4c0,-0 -115.091,1.294 -137.378,-51.767c-0,-0 11.4,-88.577 -15.46,-128.152c-26.861,-39.575 -109.089,24.157 -151.592,-52.493c-42.503,-76.65 26.116,-146.893 -16.485,-181.721c-42.6,-34.829 -177.96,11.513 -241.954,-58.787c-63.993,-70.3 16.31,-127.36 57.941,-119.646c41.631,7.714 147.257,-6.855 185.418,-49.636c38.161,-42.78 147.532,51.521 137.97,106.37c-9.562,54.85 115.675,109.536 178.425,126.658c62.75,17.122 11.941,81.932 -1.707,199.782c-13.649,117.849 -18.53,150.837 4.822,209.392Z" style="fill:#87af35;stroke:#000;stroke-width:6.25px;"/></g><g id="Pflanze-vorne-links9" serif:id="Pflanze-vorne-links"><path d="M3117.62,16667.5c-0,0 64.541,40.677 112.201,-90.32c47.659,-130.996 15.27,-3.296 102.535,-41.559c87.265,-38.262 -7.012,-24.496 -0.55,-98.706c6.462,-74.211 14.391,-91.062 64.967,-73.424c50.577,17.637 135.743,-89.886 24.213,-159.322c-111.529,-69.435 -133.181,39.45 -138.212,87.533c-5.032,48.082 46.491,101.909 -0,105.616c-46.492,3.706 -100.838,-11.369 -116.054,53.016c-15.216,64.386 69.474,94.983 -0,126.846c-69.474,31.864 -134.625,-33.949 -92.151,90.32l43.051,0Z" style="fill:#87af35;stroke:#000;stroke-width:6.25px;"/><path d="M3110.59,16577.2c0,0 14.537,-195.92 107.607,-220.085c93.07,-24.166 20.842,-70.327 29.533,-148.541c8.69,-78.214 69.665,-71.214 81.123,-116.042c11.458,-44.828 -90.694,-94.5 -80.79,-181.534c0,-0 -11.258,-115.428 19.309,-225.802c30.566,-110.374 -278.678,-323.246 -307.52,-259.054c-0,0 -222.496,95.16 46.287,532c0,-0 114.066,98.353 118.452,181.864c4.386,83.51 -64.243,306.829 -14.001,437.194Z" style="fill:#87af35;stroke:#000;stroke-width:6.25px;"/><path d="M3077.57,16554.5c0,-0 -115.091,1.294 -137.378,-51.767c-0,-0 11.4,-88.577 -15.46,-128.152c-26.861,-39.575 -109.089,24.156 -151.592,-52.493c-42.503,-76.65 26.116,-146.893 -16.485,-181.722c-42.6,-34.828 -177.96,11.514 -241.954,-58.786c-63.993,-70.3 16.31,-127.36 57.941,-119.646c41.631,7.714 147.257,-6.856 185.418,-49.636c38.161,-42.78 147.532,51.521 137.97,106.37c-9.562,54.85 115.675,109.536 178.425,126.658c62.75,17.122 11.941,81.932 -1.707,199.782c-13.649,117.849 -18.53,150.837 4.822,209.392Z" style="fill:#87af35;stroke:#000;stroke-width:6.25px;"/></g><g id="Pflanze-vorne-links10" serif:id="Pflanze-vorne-links"><path d="M3117.62,18928.7c-0,-0 64.541,40.677 112.201,-90.32c47.659,-130.996 15.27,-3.296 102.535,-41.559c87.265,-38.263 -7.012,-24.496 -0.55,-98.706c6.462,-74.211 14.391,-91.062 64.967,-73.424c50.577,17.637 135.743,-89.886 24.213,-159.322c-111.529,-69.435 -133.181,39.45 -138.212,87.533c-5.032,48.082 46.491,101.908 -0,105.615c-46.492,3.707 -100.838,-11.368 -116.054,53.017c-15.216,64.386 69.474,94.983 -0,126.846c-69.474,31.864 -134.625,-33.949 -92.151,90.32l43.051,-0Z" style="fill:#87af35;stroke:#000;stroke-width:6.25px;"/><path d="M3110.59,18838.4c0,0 14.537,-195.92 107.607,-220.085c93.07,-24.166 20.842,-70.327 29.533,-148.541c8.69,-78.214 69.665,-71.214 81.123,-116.042c11.458,-44.828 -90.694,-94.5 -80.79,-181.534c0,-0 -11.258,-115.429 19.309,-225.802c30.566,-110.374 -278.678,-323.246 -307.52,-259.054c-0,0 -222.496,95.16 46.287,532c0,-0 114.066,98.353 118.452,181.863c4.386,83.511 -64.243,306.83 -14.001,437.195Z" style="fill:#87af35;stroke:#000;stroke-width:6.25px;"/><path d="M3077.57,18815.7c0,-0 -115.091,1.294 -137.378,-51.767c-0,-0 11.4,-88.577 -15.46,-128.152c-26.861,-39.576 -109.089,24.156 -151.592,-52.493c-42.503,-76.65 26.116,-146.893 -16.485,-181.722c-42.6,-34.828 -177.96,11.514 -241.954,-58.786c-63.993,-70.3 16.31,-127.36 57.941,-119.646c41.631,7.714 147.257,-6.856 185.418,-49.636c38.161,-42.78 147.532,51.521 137.97,106.37c-9.562,54.85 115.675,109.536 178.425,126.658c62.75,17.121 11.941,81.932 -1.707,199.782c-13.649,117.849 -18.53,150.837 4.822,209.392Z" style="fill:#87af35;stroke:#000;stroke-width:6.25px;"/></g><g id="Pflanze-vorne-links11" serif:id="Pflanze-vorne-links"><path d="M3290.75,21189.8c-0,-0 64.541,40.677 112.2,-90.32c47.66,-130.996 15.27,-3.296 102.536,-41.559c87.265,-38.263 -7.013,-24.496 -0.55,-98.707c6.462,-74.21 14.391,-91.061 64.967,-73.424c50.576,17.638 135.743,-89.886 24.213,-159.321c-111.529,-69.435 -133.181,39.45 -138.212,87.532c-5.032,48.083 46.491,101.909 -0,105.616c-46.492,3.707 -100.838,-11.368 -116.054,53.017c-15.216,64.386 69.474,94.982 -0,126.846c-69.474,31.864 -134.626,-33.949 -92.151,90.32l43.051,-0Z" style="fill:#87af35;stroke:#000;stroke-width:6.25px;"/><path d="M3283.72,21099.5c0,0 14.536,-195.92 107.607,-220.085c93.07,-24.166 20.842,-70.327 29.533,-148.541c8.69,-78.214 69.664,-71.214 81.123,-116.042c11.458,-44.828 -90.694,-94.5 -80.79,-181.535c0,0 -11.258,-115.428 19.308,-225.801c30.567,-110.374 -278.678,-323.246 -307.519,-259.054c-0,0 -222.496,95.16 46.287,532c0,-0 114.066,98.353 118.452,181.863c4.385,83.511 -64.243,306.83 -14.001,437.195Z" style="fill:#87af35;stroke:#000;stroke-width:6.25px;"/><path d="M3250.69,21076.8c0,-0 -115.091,1.294 -137.378,-51.767c-0,-0 11.4,-88.578 -15.461,-128.153c-26.86,-39.575 -109.089,24.157 -151.591,-52.492c-42.503,-76.65 26.116,-146.893 -16.485,-181.722c-42.601,-34.828 -177.961,11.514 -241.954,-58.786c-63.993,-70.3 16.31,-127.36 57.941,-119.646c41.631,7.714 147.257,-6.856 185.418,-49.636c38.161,-42.78 147.532,51.52 137.97,106.37c-9.563,54.849 115.675,109.536 178.425,126.658c62.75,17.121 11.941,81.932 -1.708,199.781c-13.648,117.85 -18.529,150.838 4.823,209.393Z" style="fill:#87af35;stroke:#000;stroke-width:6.25px;"/></g></g><path d="M1828.19,22124.4l-732.421,366.211l732.421,366.211l0,-732.422Z" style="fill:#ba2d0b;"/><path d="M2540.69,22124.4l732.421,366.211l-732.421,366.211l-0,-732.422Z" style="fill:#ba2d0b;"/><path d="M1681.7,22490.6c311.677,0 693.796,0 1005.47,0" style="fill:none;stroke:#ba2d0b;stroke-width:122.07px;"/></g><g id="Beet5"><rect x="6937.27" y="12809.1" width="4429.13" height="9227.36" style="fill:#8b6818;"/><g><g id="Pflanze-hinten-links49" serif:id="Pflanze-hinten-links"><path d="M7572.25,13198.2c0,-0 213.128,295.677 -19.774,761.964c0,0 -137.984,-433.154 19.774,-761.964Z" style="fill:#87af35;stroke:#000;stroke-width:3.13px;"/><path d="M7218.45,13520.9c-0,0 435.334,-139.686 406.997,506.297c-0,0 -22.49,33.994 -76.837,-10.242c0,0 -62.753,-401.795 -330.16,-496.055Z" style="fill:#87af35;stroke:#000;stroke-width:3.13px;"/><path d="M7934.67,13524.2c0,0 -367.778,-71.066 -334.855,507.916c0,0 15.143,25.222 34.711,-31.319c0,0 138.826,-449.455 300.144,-476.597Z" style="fill:#87af35;stroke:#000;stroke-width:3.13px;"/></g><g id="Pflanze-hinten-links50" serif:id="Pflanze-hinten-links"><path d="M7572.25,15734.1c0,0 213.128,295.677 -19.774,761.965c0,-0 -137.984,-433.155 19.774,-761.965Z" style="fill:#87af35;stroke:#000;stroke-width:3.13px;"/><path d="M7218.45,16056.8c-0,-0 435.334,-139.687 406.997,506.296c-0,0 -22.49,33.994 -76.837,-10.242c0,0 -62.753,-401.794 -330.16,-496.054Z" style="fill:#87af35;stroke:#000;stroke-width:3.13px;"/><path d="M7934.67,16060.1c0,0 -367.778,-71.066 -334.855,507.917c0,-0 15.143,25.221 34.711,-31.32c0,0 138.826,-449.454 300.144,-476.597Z" style="fill:#87af35;stroke:#000;stroke-width:3.13px;"/></g><g id="Pflanze-hinten-links51" serif:id="Pflanze-hinten-links"><path d="M7572.25,18270c0,0 213.128,295.677 -19.774,761.965c0,-0 -137.984,-433.155 19.774,-761.965Z" style="fill:#87af35;stroke:#000;stroke-width:3.13px;"/><path d="M7218.45,18592.7c-0,-0 435.334,-139.687 406.997,506.296c-0,0 -22.49,33.994 -76.837,-10.241c0,-0 -62.753,-401.795 -330.16,-496.055Z" style="fill:#87af35;stroke:#000;stroke-width:3.13px;"/><path d="M7934.67,18596c0,-0 -367.778,-71.067 -334.855,507.916c0,-0 15.143,25.221 34.711,-31.319c0,-0 138.826,-449.455 300.144,-476.597Z" style="fill:#87af35;stroke:#000;stroke-width:3.13px;"/></g><g id="Pflanze-hinten-links52" serif:id="Pflanze-hinten-links"><path d="M7572.25,14466.2c0,-0 213.128,295.676 -19.774,761.964c0,-0 -137.984,-433.155 19.774,-761.964Z" style="fill:#87af35;stroke:#000;stroke-width:3.13px;"/><path d="M7218.45,14788.9c-0,-0 435.334,-139.687 406.997,506.297c-0,-0 -22.49,33.993 -76.837,-10.242c0,-0 -62.753,-401.795 -330.16,-496.055Z" style="fill:#87af35;stroke:#000;stroke-width:3.13px;"/><path d="M7934.67,14792.2c0,-0 -367.778,-71.067 -334.855,507.916c0,-0 15.143,25.222 34.711,-31.319c0,-0 138.826,-449.455 300.144,-476.597Z" style="fill:#87af35;stroke:#000;stroke-width:3.13px;"/></g><g id="Pflanze-hinten-links53" serif:id="Pflanze-hinten-links"><path d="M7572.25,17002c0,-0 213.128,295.677 -19.774,761.964c0,0 -137.984,-433.155 19.774,-761.964Z" style="fill:#87af35;stroke:#000;stroke-width:3.13px;"/><path d="M7218.45,17324.7c-0,0 435.334,-139.687 406.997,506.297c-0,-0 -22.49,33.994 -76.837,-10.242c0,-0 -62.753,-401.795 -330.16,-496.055Z" style="fill:#87af35;stroke:#000;stroke-width:3.13px;"/><path d="M7934.67,17328c0,0 -367.778,-71.067 -334.855,507.916c0,0 15.143,25.222 34.711,-31.319c0,-0 138.826,-449.455 300.144,-476.597Z" style="fill:#87af35;stroke:#000;stroke-width:3.13px;"/></g><g id="Pflanze-hinten-links54" serif:id="Pflanze-hinten-links"><path d="M7572.25,19537.9c0,-0 213.128,295.677 -19.774,761.964c0,0 -137.984,-433.154 19.774,-761.964Z" style="fill:#87af35;stroke:#000;stroke-width:3.13px;"/><path d="M7218.45,19860.6c-0,0 435.334,-139.686 406.997,506.297c-0,0 -22.49,33.994 -76.837,-10.242c0,0 -62.753,-401.795 -330.16,-496.055Z" style="fill:#87af35;stroke:#000;stroke-width:3.13px;"/><path d="M7934.67,19863.9c0,0 -367.778,-71.066 -334.855,507.916c0,0 15.143,25.222 34.711,-31.319c0,0 138.826,-449.454 300.144,-476.597Z" style="fill:#87af35;stroke:#000;stroke-width:3.13px;"/></g><g id="Pflanze-hinten-links55" serif:id="Pflanze-hinten-links"><path d="M7572.25,20805.8c0,-0 213.128,295.676 -19.774,761.964c0,0 -137.984,-433.155 19.774,-761.964Z" style="fill:#87af35;stroke:#000;stroke-width:3.13px;"/><path d="M7218.45,21128.5c-0,0 435.334,-139.687 406.997,506.297c-0,-0 -22.49,33.994 -76.837,-10.242c0,-0 -62.753,-401.795 -330.16,-496.055Z" style="fill:#87af35;stroke:#000;stroke-width:3.13px;"/><path d="M7934.67,21131.8c0,-0 -367.778,-71.067 -334.855,507.916c0,-0 15.143,25.222 34.711,-31.319c0,-0 138.826,-449.455 300.144,-476.597Z" style="fill:#87af35;stroke:#000;stroke-width:3.13px;"/></g></g><g><g id="Pflanze-hinten-links56" serif:id="Pflanze-hinten-links"><path d="M10722.8,13198.2c-0,-0 213.127,295.677 -19.774,761.964c-0,0 -137.985,-433.154 19.774,-761.964Z" style="fill:#87af35;stroke:#000;stroke-width:3.13px;"/><path d="M10369,13520.9c0,0 435.334,-139.686 406.997,506.297c0,0 -22.49,33.994 -76.836,-10.242c-0,0 -62.754,-401.795 -330.161,-496.055Z" style="fill:#87af35;stroke:#000;stroke-width:3.13px;"/><path d="M11085.2,13524.2c-0,0 -367.778,-71.066 -334.855,507.916c-0,0 15.143,25.222 34.711,-31.319c-0,0 138.825,-449.455 300.144,-476.597Z" style="fill:#87af35;stroke:#000;stroke-width:3.13px;"/></g><g id="Pflanze-hinten-links57" serif:id="Pflanze-hinten-links"><path d="M10722.8,15734.1c-0,0 213.127,295.677 -19.774,761.965c-0,-0 -137.985,-433.155 19.774,-761.965Z" style="fill:#87af35;stroke:#000;stroke-width:3.13px;"/><path d="M10369,16056.8c0,-0 435.334,-139.687 406.997,506.296c0,0 -22.49,33.994 -76.836,-10.242c-0,0 -62.754,-401.794 -330.161,-496.054Z" style="fill:#87af35;stroke:#000;stroke-width:3.13px;"/><path d="M11085.2,16060.1c-0,0 -367.778,-71.066 -334.855,507.917c-0,-0 15.143,25.221 34.711,-31.32c-0,0 138.825,-449.454 300.144,-476.597Z" style="fill:#87af35;stroke:#000;stroke-width:3.13px;"/></g><g id="Pflanze-hinten-links58" serif:id="Pflanze-hinten-links"><path d="M10722.8,18270c-0,0 213.127,295.677 -19.774,761.965c-0,-0 -137.985,-433.155 19.774,-761.965Z" style="fill:#87af35;stroke:#000;stroke-width:3.13px;"/><path d="M10369,18592.7c0,-0 435.334,-139.687 406.997,506.296c0,0 -22.49,33.994 -76.836,-10.241c-0,-0 -62.754,-401.795 -330.161,-496.055Z" style="fill:#87af35;stroke:#000;stroke-width:3.13px;"/><path d="M11085.2,18596c-0,-0 -367.778,-71.067 -334.855,507.916c-0,-0 15.143,25.221 34.711,-31.319c-0,-0 138.825,-449.455 300.144,-476.597Z" style="fill:#87af35;stroke:#000;stroke-width:3.13px;"/></g><g id="Pflanze-hinten-links59" serif:id="Pflanze-hinten-links"><path d="M10722.8,14466.2c-0,-0 213.127,295.676 -19.774,761.964c-0,-0 -137.985,-433.155 19.774,-761.964Z" style="fill:#87af35;stroke:#000;stroke-width:3.13px;"/><path d="M10369,14788.9c0,-0 435.334,-139.687 406.997,506.297c0,-0 -22.49,33.993 -76.836,-10.242c-0,-0 -62.754,-401.795 -330.161,-496.055Z" style="fill:#87af35;stroke:#000;stroke-width:3.13px;"/><path d="M11085.2,14792.2c-0,-0 -367.778,-71.067 -334.855,507.916c-0,-0 15.143,25.222 34.711,-31.319c-0,-0 138.825,-449.455 300.144,-476.597Z" style="fill:#87af35;stroke:#000;stroke-width:3.13px;"/></g><g id="Pflanze-hinten-links60" serif:id="Pflanze-hinten-links"><path d="M10722.8,17002c-0,-0 213.127,295.677 -19.774,761.964c-0,0 -137.985,-433.155 19.774,-761.964Z" style="fill:#87af35;stroke:#000;stroke-width:3.13px;"/><path d="M10369,17324.7c0,0 435.334,-139.687 406.997,506.297c0,-0 -22.49,33.994 -76.836,-10.242c-0,-0 -62.754,-401.795 -330.161,-496.055Z" style="fill:#87af35;stroke:#000;stroke-width:3.13px;"/><path d="M11085.2,17328c-0,0 -367.778,-71.067 -334.855,507.916c-0,0 15.143,25.222 34.711,-31.319c-0,-0 138.825,-449.455 300.144,-476.597Z" style="fill:#87af35;stroke:#000;stroke-width:3.13px;"/></g><g id="Pflanze-hinten-links61" serif:id="Pflanze-hinten-links"><path d="M10722.8,19537.9c-0,-0 213.127,295.677 -19.774,761.964c-0,0 -137.985,-433.154 19.774,-761.964Z" style="fill:#87af35;stroke:#000;stroke-width:3.13px;"/><path d="M10369,19860.6c0,0 435.334,-139.686 406.997,506.297c0,0 -22.49,33.994 -76.836,-10.242c-0,0 -62.754,-401.795 -330.161,-496.055Z" style="fill:#87af35;stroke:#000;stroke-width:3.13px;"/><path d="M11085.2,19863.9c-0,0 -367.778,-71.066 -334.855,507.916c-0,0 15.143,25.222 34.711,-31.319c-0,0 138.825,-449.454 300.144,-476.597Z" style="fill:#87af35;stroke:#000;stroke-width:3.13px;"/></g><g id="Pflanze-hinten-links62" serif:id="Pflanze-hinten-links"><path d="M10722.8,20805.8c-0,-0 213.127,295.676 -19.774,761.964c-0,0 -137.985,-433.155 19.774,-761.964Z" style="fill:#87af35;stroke:#000;stroke-width:3.13px;"/><path d="M10369,21128.5c0,0 435.334,-139.687 406.997,506.297c0,-0 -22.49,33.994 -76.836,-10.242c-0,-0 -62.754,-401.795 -330.161,-496.055Z" style="fill:#87af35;stroke:#000;stroke-width:3.13px;"/><path d="M11085.2,21131.8c-0,-0 -367.778,-71.067 -334.855,507.916c-0,-0 15.143,25.222 34.711,-31.319c-0,-0 138.825,-449.455 300.144,-476.597Z" style="fill:#87af35;stroke:#000;stroke-width:3.13px;"/></g></g><g><g id="Pflanze-vorne-links12" serif:id="Pflanze-vorne-links"><path d="M9209.85,14609.6c-0,0 64.541,40.677 112.201,-90.319c47.659,-130.997 15.27,-3.297 102.535,-41.559c87.265,-38.263 -7.012,-24.497 -0.55,-98.707c6.462,-74.211 14.391,-91.062 64.968,-73.424c50.576,17.637 135.742,-89.886 24.212,-159.322c-111.529,-69.435 -133.181,39.45 -138.212,87.533c-5.032,48.083 46.491,101.909 -0,105.616c-46.492,3.707 -100.838,-11.369 -116.054,53.017c-15.216,64.385 69.474,94.982 0,126.846c-69.474,31.863 -134.625,-33.95 -92.151,90.319l43.051,0Z" style="fill:#87af35;stroke:#000;stroke-width:6.25px;"/><path d="M9202.81,14519.3c0,-0 14.537,-195.92 107.607,-220.086c93.07,-24.165 20.842,-70.327 29.533,-148.541c8.69,-78.214 69.665,-71.214 81.123,-116.042c11.458,-44.828 -90.694,-94.499 -80.789,-181.534c-0,-0 -11.259,-115.428 19.308,-225.802c30.566,-110.374 -278.678,-323.245 -307.52,-259.053c-0,-0 -222.496,95.16 46.287,531.999c0,-0 114.066,98.353 118.452,181.864c4.386,83.51 -64.243,306.829 -14.001,437.195Z" style="fill:#87af35;stroke:#000;stroke-width:6.25px;"/><path d="M9169.79,14496.6c-0,0 -115.092,1.294 -137.379,-51.767c-0,0 11.4,-88.577 -15.46,-128.152c-26.86,-39.575 -109.089,24.157 -151.592,-52.493c-42.503,-76.65 26.116,-146.893 -16.485,-181.721c-42.6,-34.829 -177.96,11.513 -241.954,-58.787c-63.993,-70.3 16.31,-127.36 57.941,-119.646c41.631,7.715 147.257,-6.855 185.418,-49.635c38.161,-42.78 147.532,51.52 137.97,106.369c-9.562,54.85 115.675,109.536 178.425,126.658c62.75,17.122 11.941,81.932 -1.707,199.782c-13.649,117.849 -18.53,150.837 4.823,209.392Z" style="fill:#87af35;stroke:#000;stroke-width:6.25px;"/></g><g id="Pflanze-vorne-links13" serif:id="Pflanze-vorne-links"><path d="M9209.85,16870.8c-0,0 64.541,40.677 112.201,-90.319c47.659,-130.997 15.27,-3.297 102.535,-41.56c87.265,-38.262 -7.012,-24.496 -0.55,-98.706c6.462,-74.211 14.391,-91.062 64.968,-73.424c50.576,17.637 135.742,-89.886 24.212,-159.322c-111.529,-69.435 -133.181,39.45 -138.212,87.533c-5.032,48.082 46.491,101.909 -0,105.616c-46.492,3.707 -100.838,-11.369 -116.054,53.017c-15.216,64.385 69.474,94.982 0,126.846c-69.474,31.863 -134.625,-33.95 -92.151,90.319l43.051,0Z" style="fill:#87af35;stroke:#000;stroke-width:6.25px;"/><path d="M9202.81,16780.4c0,-0 14.537,-195.92 107.607,-220.086c93.07,-24.166 20.842,-70.327 29.533,-148.541c8.69,-78.214 69.665,-71.214 81.123,-116.042c11.458,-44.828 -90.694,-94.5 -80.789,-181.534c-0,-0 -11.259,-115.428 19.308,-225.802c30.566,-110.374 -278.678,-323.245 -307.52,-259.054c-0,0 -222.496,95.16 46.287,532c0,-0 114.066,98.353 118.452,181.864c4.386,83.51 -64.243,306.829 -14.001,437.195Z" style="fill:#87af35;stroke:#000;stroke-width:6.25px;"/><path d="M9169.79,16757.7c-0,-0 -115.092,1.294 -137.379,-51.767c-0,-0 11.4,-88.577 -15.46,-128.152c-26.86,-39.575 -109.089,24.157 -151.592,-52.493c-42.503,-76.65 26.116,-146.893 -16.485,-181.721c-42.6,-34.829 -177.96,11.513 -241.954,-58.787c-63.993,-70.3 16.31,-127.36 57.941,-119.646c41.631,7.714 147.257,-6.855 185.418,-49.636c38.161,-42.78 147.532,51.521 137.97,106.37c-9.562,54.85 115.675,109.536 178.425,126.658c62.75,17.122 11.941,81.932 -1.707,199.782c-13.649,117.849 -18.53,150.837 4.823,209.392Z" style="fill:#87af35;stroke:#000;stroke-width:6.25px;"/></g><g id="Pflanze-vorne-links14" serif:id="Pflanze-vorne-links"><path d="M9209.85,19131.9c-0,0 64.541,40.677 112.201,-90.32c47.659,-130.996 15.27,-3.296 102.535,-41.559c87.265,-38.262 -7.012,-24.496 -0.55,-98.706c6.462,-74.211 14.391,-91.062 64.968,-73.424c50.576,17.637 135.742,-89.886 24.212,-159.322c-111.529,-69.435 -133.181,39.45 -138.212,87.533c-5.032,48.082 46.491,101.909 -0,105.616c-46.492,3.706 -100.838,-11.369 -116.054,53.016c-15.216,64.386 69.474,94.983 0,126.846c-69.474,31.864 -134.625,-33.949 -92.151,90.32l43.051,0Z" style="fill:#87af35;stroke:#000;stroke-width:6.25px;"/><path d="M9202.81,19041.6c0,0 14.537,-195.92 107.607,-220.085c93.07,-24.166 20.842,-70.327 29.533,-148.541c8.69,-78.214 69.665,-71.214 81.123,-116.042c11.458,-44.828 -90.694,-94.5 -80.789,-181.534c-0,-0 -11.259,-115.428 19.308,-225.802c30.566,-110.374 -278.678,-323.246 -307.52,-259.054c-0,0 -222.496,95.16 46.287,532c0,-0 114.066,98.353 118.452,181.864c4.386,83.51 -64.243,306.829 -14.001,437.194Z" style="fill:#87af35;stroke:#000;stroke-width:6.25px;"/><path d="M9169.79,19018.9c-0,-0 -115.092,1.294 -137.379,-51.767c-0,-0 11.4,-88.577 -15.46,-128.152c-26.86,-39.575 -109.089,24.156 -151.592,-52.493c-42.503,-76.65 26.116,-146.893 -16.485,-181.722c-42.6,-34.828 -177.96,11.514 -241.954,-58.786c-63.993,-70.3 16.31,-127.36 57.941,-119.646c41.631,7.714 147.257,-6.856 185.418,-49.636c38.161,-42.78 147.532,51.521 137.97,106.37c-9.562,54.85 115.675,109.536 178.425,126.658c62.75,17.122 11.941,81.932 -1.707,199.782c-13.649,117.849 -18.53,150.837 4.823,209.392Z" style="fill:#87af35;stroke:#000;stroke-width:6.25px;"/></g><g id="Pflanze-vorne-links15" serif:id="Pflanze-vorne-links"><path d="M9382.97,21393.1c-0,-0 64.541,40.677 112.2,-90.32c47.66,-130.996 15.271,-3.296 102.536,-41.559c87.265,-38.263 -7.013,-24.496 -0.55,-98.706c6.462,-74.211 14.391,-91.062 64.967,-73.424c50.576,17.637 135.743,-89.886 24.213,-159.322c-111.529,-69.435 -133.181,39.45 -138.212,87.533c-5.032,48.082 46.491,101.909 -0,105.615c-46.492,3.707 -100.838,-11.368 -116.054,53.017c-15.216,64.386 69.474,94.983 -0,126.846c-69.474,31.864 -134.626,-33.949 -92.151,90.32l43.051,-0Z" style="fill:#87af35;stroke:#000;stroke-width:6.25px;"/><path d="M9375.94,21302.7c0,0 14.536,-195.92 107.607,-220.085c93.07,-24.166 20.842,-70.327 29.533,-148.541c8.69,-78.214 69.664,-71.214 81.123,-116.042c11.458,-44.828 -90.694,-94.5 -80.79,-181.534c0,-0 -11.258,-115.428 19.308,-225.802c30.567,-110.374 -278.678,-323.246 -307.519,-259.054c-0,0 -222.496,95.16 46.287,532c0,-0 114.066,98.353 118.452,181.863c4.386,83.511 -64.243,306.83 -14.001,437.195Z" style="fill:#87af35;stroke:#000;stroke-width:6.25px;"/><path d="M9342.92,21280c0,-0 -115.091,1.294 -137.378,-51.767c-0,-0 11.4,-88.577 -15.46,-128.152c-26.861,-39.575 -109.09,24.156 -151.592,-52.493c-42.503,-76.65 26.116,-146.893 -16.485,-181.722c-42.601,-34.828 -177.961,11.514 -241.954,-58.786c-63.993,-70.3 16.31,-127.36 57.941,-119.646c41.631,7.714 147.257,-6.856 185.418,-49.636c38.161,-42.78 147.532,51.521 137.97,106.37c-9.563,54.85 115.675,109.536 178.425,126.658c62.75,17.122 11.941,81.932 -1.708,199.782c-13.648,117.849 -18.529,150.837 4.823,209.392Z" style="fill:#87af35;stroke:#000;stroke-width:6.25px;"/></g></g><g><circle cx="9955.73" cy="22036.5" r="612.565" style="fill:#48704f;stroke:#fff;stroke-width:39.06px;"/><path d="M9980.94,21915.9c2.955,-13.432 50.793,-218.687 215.231,-221.801c-0,-0 246.725,8.602 186.846,289.695c0.222,-1.397 0.759,-5.586 0.369,-4.227c-1.181,4.117 -1.003,8.641 -2.757,12.548c-5.371,11.963 -19.091,31.775 -27.167,42.043c-24.437,31.069 -52.872,54.806 -83.889,79.521c-38.868,30.972 -80.897,59.421 -117.739,93.017c-53.433,48.726 -98.792,103.305 -132.717,167.404c-11.757,22.215 -18.402,42.293 -26.593,65.965c-42.004,-66.256 -94.796,-127.953 -158.959,-173.713c-32.888,-23.456 -69.779,-38.465 -103.773,-59.929c-62.016,-39.157 -113.236,-90.112 -157.658,-148.174c-9.092,-11.884 -21.308,-29.714 -28.632,-44.278c-22.017,-43.779 -27.446,-94.7 -22.968,-142.889c3.235,-34.817 19.757,-70.329 47.245,-92.409c36.721,-34.425 84.761,-59.741 136.249,-59.213c29.042,0.299 56.416,10.32 83.178,20.523c30.729,11.715 61.006,24.893 87.642,44.554c45.808,33.813 77.679,82.968 106.092,131.363Z" style="fill:#99b563;stroke:#f1dcaa;stroke-width:26.04px;"/></g></g><g id="Beet4"><rect x="13874.5" y="12809.1" width="4429.13" height="9227.36" style="fill:#8b6818;"/><g><g id="Pflanze-hinten-links63" serif:id="Pflanze-hinten-links"><path d="M17368.7,13153.2c-0,0 213.128,295.677 -19.774,761.965c0,-0 -137.985,-433.155 19.774,-761.965Z" style="fill:#87af35;stroke:#000;stroke-width:3.13px;"/><path d="M17014.9,13475.9c0,-0 435.335,-139.687 406.997,506.296c0,0 -22.49,33.994 -76.836,-10.242c0,0 -62.754,-401.794 -330.161,-496.054Z" style="fill:#87af35;stroke:#000;stroke-width:3.13px;"/><path d="M17731.1,13479.2c-0,0 -367.778,-71.066 -334.855,507.916c-0,0 15.143,25.222 34.711,-31.319c0,0 138.826,-449.454 300.144,-476.597Z" style="fill:#87af35;stroke:#000;stroke-width:3.13px;"/></g><g id="Pflanze-hinten-links64" serif:id="Pflanze-hinten-links"><path d="M17368.7,15689.1c-0,0 213.128,295.677 -19.774,761.965c0,-0 -137.985,-433.155 19.774,-761.965Z" style="fill:#87af35;stroke:#000;stroke-width:3.13px;"/><path d="M17014.9,16011.7c0,-0 435.335,-139.687 406.997,506.296c0,0 -22.49,33.994 -76.836,-10.241c0,-0 -62.754,-401.795 -330.161,-496.055Z" style="fill:#87af35;stroke:#000;stroke-width:3.13px;"/><path d="M17731.1,16015c-0,-0 -367.778,-71.067 -334.855,507.916c-0,-0 15.143,25.221 34.711,-31.319c0,-0 138.826,-449.455 300.144,-476.597Z" style="fill:#87af35;stroke:#000;stroke-width:3.13px;"/></g><g id="Pflanze-hinten-links65" serif:id="Pflanze-hinten-links"><path d="M17368.7,18224.9c-0,-0 213.128,295.676 -19.774,761.964c0,0 -137.985,-433.155 19.774,-761.964Z" style="fill:#87af35;stroke:#000;stroke-width:3.13px;"/><path d="M17014.9,18547.6c0,-0 435.335,-139.687 406.997,506.297c0,-0 -22.49,33.993 -76.836,-10.242c0,-0 -62.754,-401.795 -330.161,-496.055Z" style="fill:#87af35;stroke:#000;stroke-width:3.13px;"/><path d="M17731.1,18550.9c-0,-0 -367.778,-71.067 -334.855,507.916c-0,-0 15.143,25.222 34.711,-31.319c0,-0 138.826,-449.455 300.144,-476.597Z" style="fill:#87af35;stroke:#000;stroke-width:3.13px;"/></g><g id="Pflanze-hinten-links66" serif:id="Pflanze-hinten-links"><path d="M17368.7,14421.1c-0,-0 213.128,295.676 -19.774,761.964c0,0 -137.985,-433.155 19.774,-761.964Z" style="fill:#87af35;stroke:#000;stroke-width:3.13px;"/><path d="M17014.9,14743.8c0,0 435.335,-139.687 406.997,506.297c0,-0 -22.49,33.994 -76.836,-10.242c0,-0 -62.754,-401.795 -330.161,-496.055Z" style="fill:#87af35;stroke:#000;stroke-width:3.13px;"/><path d="M17731.1,14747.1c-0,0 -367.778,-71.067 -334.855,507.916c-0,0 15.143,25.222 34.711,-31.319c0,-0 138.826,-449.455 300.144,-476.597Z" style="fill:#87af35;stroke:#000;stroke-width:3.13px;"/></g><g id="Pflanze-hinten-links67" serif:id="Pflanze-hinten-links"><path d="M17368.7,16957c-0,-0 213.128,295.677 -19.774,761.964c0,0 -137.985,-433.154 19.774,-761.964Z" style="fill:#87af35;stroke:#000;stroke-width:3.13px;"/><path d="M17014.9,17279.7c0,0 435.335,-139.686 406.997,506.297c0,0 -22.49,33.994 -76.836,-10.242c0,0 -62.754,-401.795 -330.161,-496.055Z" style="fill:#87af35;stroke:#000;stroke-width:3.13px;"/><path d="M17731.1,17283c-0,0 -367.778,-71.066 -334.855,507.916c-0,0 15.143,25.222 34.711,-31.319c0,0 138.826,-449.454 300.144,-476.597Z" style="fill:#87af35;stroke:#000;stroke-width:3.13px;"/></g><g id="Pflanze-hinten-links68" serif:id="Pflanze-hinten-links"><path d="M17368.7,19492.9c-0,0 213.128,295.677 -19.774,761.965c0,-0 -137.985,-433.155 19.774,-761.965Z" style="fill:#87af35;stroke:#000;stroke-width:3.13px;"/><path d="M17014.9,19815.5c0,-0 435.335,-139.687 406.997,506.296c0,0 -22.49,33.994 -76.836,-10.242c0,0 -62.754,-401.794 -330.161,-496.054Z" style="fill:#87af35;stroke:#000;stroke-width:3.13px;"/><path d="M17731.1,19818.8c-0,-0 -367.778,-71.067 -334.855,507.916c-0,-0 15.143,25.221 34.711,-31.32c0,0 138.826,-449.454 300.144,-476.596Z" style="fill:#87af35;stroke:#000;stroke-width:3.13px;"/></g><g id="Pflanze-hinten-links69" serif:id="Pflanze-hinten-links"><path d="M17368.7,20760.8c-0,-0 213.128,295.677 -19.774,761.964c0,0 -137.985,-433.155 19.774,-761.964Z" style="fill:#87af35;stroke:#000;stroke-width:3.13px;"/><path d="M17014.9,21083.5c0,0 435.335,-139.687 406.997,506.297c0,-0 -22.49,33.994 -76.836,-10.242c0,-0 -62.754,-401.795 -330.161,-496.055Z" style="fill:#87af35;stroke:#000;stroke-width:3.13px;"/><path d="M17731.1,21086.8c-0,0 -367.778,-71.066 -334.855,507.916c-0,0 15.143,25.222 34.711,-31.319c0,-0 138.826,-449.455 300.144,-476.597Z" style="fill:#87af35;stroke:#000;stroke-width:3.13px;"/></g></g><g><g id="Pflanze-vorne-links16" serif:id="Pflanze-vorne-links"><path d="M14807.6,14609.6c-0,0 64.54,40.677 112.2,-90.319c47.66,-130.997 15.27,-3.297 102.535,-41.559c87.266,-38.263 -7.012,-24.497 -0.55,-98.707c6.463,-74.211 14.392,-91.062 64.968,-73.424c50.576,17.637 135.743,-89.886 24.213,-159.322c-111.53,-69.435 -133.181,39.45 -138.213,87.533c-5.031,48.083 46.492,101.909 0,105.616c-46.491,3.707 -100.837,-11.369 -116.053,53.017c-15.217,64.385 69.474,94.982 -0,126.846c-69.474,31.863 -134.626,-33.95 -92.151,90.319l43.051,0Z" style="fill:#87af35;stroke:#000;stroke-width:6.25px;"/><path d="M14800.6,14519.3c-0,-0 14.536,-195.92 107.606,-220.086c93.07,-24.165 20.843,-70.327 29.533,-148.541c8.691,-78.214 69.665,-71.214 81.124,-116.042c11.458,-44.828 -90.694,-94.499 -80.79,-181.534c0,-0 -11.258,-115.428 19.308,-225.802c30.567,-110.374 -278.678,-323.245 -307.519,-259.053c-0,-0 -222.496,95.16 46.287,531.999c0,-0 114.065,98.353 118.451,181.864c4.386,83.51 -64.242,306.829 -14,437.195Z" style="fill:#87af35;stroke:#000;stroke-width:6.25px;"/><path d="M14767.5,14496.6c0,0 -115.091,1.294 -137.378,-51.767c-0,0 11.399,-88.577 -15.461,-128.152c-26.86,-39.575 -109.089,24.157 -151.591,-52.493c-42.503,-76.65 26.115,-146.893 -16.485,-181.721c-42.601,-34.829 -177.961,11.513 -241.954,-58.787c-63.993,-70.3 16.31,-127.36 57.941,-119.646c41.631,7.715 147.257,-6.855 185.418,-49.635c38.161,-42.78 147.532,51.52 137.969,106.369c-9.562,54.85 115.676,109.536 178.426,126.658c62.75,17.122 11.94,81.932 -1.708,199.782c-13.648,117.849 -18.53,150.837 4.823,209.392Z" style="fill:#87af35;stroke:#000;stroke-width:6.25px;"/></g><g id="Pflanze-vorne-links17" serif:id="Pflanze-vorne-links"><path d="M14807.6,16870.8c-0,0 64.54,40.677 112.2,-90.319c47.66,-130.997 15.27,-3.297 102.535,-41.56c87.266,-38.262 -7.012,-24.496 -0.55,-98.706c6.463,-74.211 14.392,-91.062 64.968,-73.424c50.576,17.637 135.743,-89.886 24.213,-159.322c-111.53,-69.435 -133.181,39.45 -138.213,87.533c-5.031,48.082 46.492,101.909 0,105.616c-46.491,3.707 -100.837,-11.369 -116.053,53.017c-15.217,64.385 69.474,94.982 -0,126.846c-69.474,31.863 -134.626,-33.95 -92.151,90.319l43.051,0Z" style="fill:#87af35;stroke:#000;stroke-width:6.25px;"/><path d="M14800.6,16780.4c-0,-0 14.536,-195.92 107.606,-220.086c93.07,-24.166 20.843,-70.327 29.533,-148.541c8.691,-78.214 69.665,-71.214 81.124,-116.042c11.458,-44.828 -90.694,-94.5 -80.79,-181.534c0,-0 -11.258,-115.428 19.308,-225.802c30.567,-110.374 -278.678,-323.245 -307.519,-259.054c-0,0 -222.496,95.16 46.287,532c0,-0 114.065,98.353 118.451,181.864c4.386,83.51 -64.242,306.829 -14,437.195Z" style="fill:#87af35;stroke:#000;stroke-width:6.25px;"/><path d="M14767.5,16757.7c0,-0 -115.091,1.294 -137.378,-51.767c-0,-0 11.399,-88.577 -15.461,-128.152c-26.86,-39.575 -109.089,24.157 -151.591,-52.493c-42.503,-76.65 26.115,-146.893 -16.485,-181.721c-42.601,-34.829 -177.961,11.513 -241.954,-58.787c-63.993,-70.3 16.31,-127.36 57.941,-119.646c41.631,7.714 147.257,-6.855 185.418,-49.636c38.161,-42.78 147.532,51.521 137.969,106.37c-9.562,54.85 115.676,109.536 178.426,126.658c62.75,17.122 11.94,81.932 -1.708,199.782c-13.648,117.849 -18.53,150.837 4.823,209.392Z" style="fill:#87af35;stroke:#000;stroke-width:6.25px;"/></g><g id="Pflanze-vorne-links18" serif:id="Pflanze-vorne-links"><path d="M14807.6,19131.9c-0,0 64.54,40.677 112.2,-90.32c47.66,-130.996 15.27,-3.296 102.535,-41.559c87.266,-38.262 -7.012,-24.496 -0.55,-98.706c6.463,-74.211 14.392,-91.062 64.968,-73.424c50.576,17.637 135.743,-89.886 24.213,-159.322c-111.53,-69.435 -133.181,39.45 -138.213,87.533c-5.031,48.082 46.492,101.909 0,105.616c-46.491,3.706 -100.837,-11.369 -116.053,53.016c-15.217,64.386 69.474,94.983 -0,126.846c-69.474,31.864 -134.626,-33.949 -92.151,90.32l43.051,0Z" style="fill:#87af35;stroke:#000;stroke-width:6.25px;"/><path d="M14800.6,19041.6c-0,0 14.536,-195.92 107.606,-220.085c93.07,-24.166 20.843,-70.327 29.533,-148.541c8.691,-78.214 69.665,-71.214 81.124,-116.042c11.458,-44.828 -90.694,-94.5 -80.79,-181.534c0,-0 -11.258,-115.428 19.308,-225.802c30.567,-110.374 -278.678,-323.246 -307.519,-259.054c-0,0 -222.496,95.16 46.287,532c0,-0 114.065,98.353 118.451,181.864c4.386,83.51 -64.242,306.829 -14,437.194Z" style="fill:#87af35;stroke:#000;stroke-width:6.25px;"/><path d="M14767.5,19018.9c0,-0 -115.091,1.294 -137.378,-51.767c-0,-0 11.399,-88.577 -15.461,-128.152c-26.86,-39.575 -109.089,24.156 -151.591,-52.493c-42.503,-76.65 26.115,-146.893 -16.485,-181.722c-42.601,-34.828 -177.961,11.514 -241.954,-58.786c-63.993,-70.3 16.31,-127.36 57.941,-119.646c41.631,7.714 147.257,-6.856 185.418,-49.636c38.161,-42.78 147.532,51.521 137.969,106.37c-9.562,54.85 115.676,109.536 178.426,126.658c62.75,17.122 11.94,81.932 -1.708,199.782c-13.648,117.849 -18.53,150.837 4.823,209.392Z" style="fill:#87af35;stroke:#000;stroke-width:6.25px;"/></g><g id="Pflanze-vorne-links19" serif:id="Pflanze-vorne-links"><path d="M14980.7,21393.1c0,-0 64.541,40.677 112.201,-90.32c47.66,-130.996 15.27,-3.296 102.535,-41.559c87.265,-38.263 -7.012,-24.496 -0.55,-98.706c6.463,-74.211 14.392,-91.062 64.968,-73.424c50.576,17.637 135.742,-89.886 24.213,-159.322c-111.53,-69.435 -133.181,39.45 -138.213,87.533c-5.031,48.082 46.492,101.909 0,105.615c-46.491,3.707 -100.837,-11.368 -116.054,53.017c-15.216,64.386 69.475,94.983 0,126.846c-69.474,31.864 -134.625,-33.949 -92.15,90.32l43.05,-0Z" style="fill:#87af35;stroke:#000;stroke-width:6.25px;"/><path d="M14973.7,21302.7c-0,0 14.536,-195.92 107.606,-220.085c93.07,-24.166 20.843,-70.327 29.533,-148.541c8.69,-78.214 69.665,-71.214 81.123,-116.042c11.459,-44.828 -90.693,-94.5 -80.789,-181.534c-0,-0 -11.259,-115.428 19.308,-225.802c30.567,-110.374 -278.678,-323.246 -307.52,-259.054c0,0 -222.495,95.16 46.288,532c-0,-0 114.065,98.353 118.451,181.863c4.386,83.511 -64.242,306.83 -14,437.195Z" style="fill:#87af35;stroke:#000;stroke-width:6.25px;"/><path d="M14940.7,21280c-0,-0 -115.091,1.294 -137.379,-51.767c0,-0 11.4,-88.577 -15.46,-128.152c-26.86,-39.575 -109.089,24.156 -151.592,-52.493c-42.502,-76.65 26.116,-146.893 -16.484,-181.722c-42.601,-34.828 -177.961,11.514 -241.954,-58.786c-63.994,-70.3 16.309,-127.36 57.94,-119.646c41.632,7.714 147.258,-6.856 185.419,-49.636c38.161,-42.78 147.531,51.521 137.969,106.37c-9.562,54.85 115.676,109.536 178.426,126.658c62.75,17.122 11.94,81.932 -1.708,199.782c-13.648,117.849 -18.53,150.837 4.823,209.392Z" style="fill:#87af35;stroke:#000;stroke-width:6.25px;"/></g></g><path d="M15732.9,22124.4l-732.422,366.211l732.422,366.211l0,-732.422Z" style="fill:#ba2d0b;"/><path d="M16445.4,22124.4l732.422,366.211l-732.422,366.211l0,-732.422Z" style="fill:#ba2d0b;"/><path d="M15586.4,22490.6c311.676,0 693.796,0 1005.47,0" style="fill:none;stroke:#ba2d0b;stroke-width:122.07px;"/></g><g id="Weg"><path d="M17651.2,10836.8l672.975,781.127l-356.469,770.421l-391.911,410.946l-444.743,-308.038l-191.895,-621.308l232.67,-412.325l83.369,-484.294l396.004,-136.529Z" style="fill:#aaa193;"/><path d="M11135.5,10821.8l976.621,330.555l84.675,844.659l-128.586,553.115l-539.583,-39.178l-481.095,-437.487l-9.245,-473.352l-174.4,-459.43l271.613,-318.882Z" style="fill:#aaa193;"/><path d="M16353.2,12799.2l-938.736,-426.416l0.085,-848.893l183.171,-537.512l532.974,92.859l435.009,483.337l-38.064,471.909l127.655,474.547l-302.094,290.169Z" style="fill:#aaa193;"/><path d="M10277.9,12724.4l-938.736,-426.416l0.085,-848.892l183.171,-537.512l532.974,92.858l435.009,483.337l-38.065,471.91l127.656,474.547l-302.094,290.168Z" style="fill:#aaa193;"/><path d="M13141,10855.4l436.632,447.579l31.71,713.965l-270.06,499.539l-510.092,-180.252l-348.516,-548.985l116.061,-458.996l348.305,-125.212l195.96,-347.638Z" style="fill:#aaa193;"/><path d="M14724.2,12516.5l-831.046,-315.617l139.034,-660.237l263.761,-421.183l496.262,63.118l338.335,368.491l-113.774,367.683l44.826,366.903l-337.398,230.842Z" style="fill:#aaa193;"/><path d="M8382.37,10803.5l672.975,781.127l-356.469,770.421l-391.911,410.946l-444.743,-308.038l-191.895,-621.308l232.67,-412.325l83.369,-484.294l396.004,-136.529Z" style="fill:#aaa193;"/><path d="M1866.69,10788.6l976.621,330.555l84.675,844.659l-128.586,553.115l-539.583,-39.179l-481.095,-437.487l-9.245,-473.351l-174.4,-459.43l271.613,-318.882Z" style="fill:#aaa193;"/><path d="M7084.37,12766l-938.736,-426.416l0.085,-848.893l183.171,-537.512l532.974,92.859l435.009,483.337l-38.064,471.909l127.655,474.547l-302.094,290.169Z" style="fill:#aaa193;"/><path d="M1009.12,12691.2l-938.736,-426.416l0.085,-848.892l183.171,-537.512l532.974,92.858l435.009,483.337l-38.065,471.909l127.656,474.548l-302.094,290.168Z" style="fill:#aaa193;"/><path d="M3872.18,10822.2l436.632,447.579l31.71,713.965l-270.06,499.538l-510.092,-180.251l-348.516,-548.985l116.061,-458.996l348.305,-125.212l195.96,-347.638Z" style="fill:#aaa193;"/><path d="M5455.43,12483.3l-831.046,-315.616l139.034,-660.237l263.761,-421.183l496.262,63.118l338.335,368.491l-113.774,367.682l44.826,366.904l-337.398,230.841Z" style="fill:#aaa193;"/><path d="M4722.11,2144.62l781.128,-672.975l770.42,356.469l410.946,391.911l-308.038,444.743l-621.308,191.895l-412.325,-232.67l-484.294,-83.37l-136.529,-396.003Z" style="fill:#aaa193;"/><path d="M4707.17,8737.49l330.555,-976.621l844.659,-84.676l553.115,128.587l-39.178,539.582l-437.487,481.095l-473.352,9.245l-459.43,174.4l-318.882,-271.612Z" style="fill:#aaa193;"/><path d="M6684.6,3461.92l-426.416,938.735l-848.892,-0.085l-537.512,-183.171l92.858,-532.974l483.337,-435.009l471.91,38.065l474.547,-127.656l290.168,302.095Z" style="fill:#aaa193;"/><path d="M6609.77,9614.36l-426.416,938.736l-848.893,-0.085l-537.512,-183.171l92.859,-532.974l483.336,-435.009l471.91,38.064l474.547,-127.655l290.169,302.094Z" style="fill:#aaa193;"/><path d="M4740.79,6712.71l447.578,-436.632l713.966,-31.709l499.538,270.06l-180.252,510.091l-548.984,348.516l-458.997,-116.06l-125.212,-348.305l-347.637,-195.961Z" style="fill:#aaa193;"/><path d="M6401.88,5110.16l-315.617,831.046l-660.236,-139.034l-421.184,-263.761l63.119,-496.262l368.49,-338.335l367.683,113.774l366.904,-44.826l230.841,337.398Z" style="fill:#aaa193;"/><path d="M6653.9,21343.4l-781.127,672.975l-770.421,-356.469l-410.946,-391.911l308.038,-444.743l621.308,-191.895l412.326,232.67l484.293,83.37l136.529,396.003Z" style="fill:#aaa193;"/><path d="M6668.84,14750.5l-330.555,976.621l-844.659,84.676l-553.115,-128.587l39.179,-539.582l437.487,-481.095l473.351,-9.245l459.43,-174.4l318.882,271.612Z" style="fill:#aaa193;"/><path d="M4691.41,20026.1l426.416,-938.735l848.893,0.085l537.512,183.171l-92.859,532.974l-483.337,435.009l-471.909,-38.065l-474.547,127.656l-290.169,-302.095Z" style="fill:#aaa193;"/><path d="M4766.25,13942.4l426.416,-938.736l848.892,0.085l537.513,183.171l-92.859,532.974l-483.337,435.009l-471.909,-38.065l-474.548,127.656l-290.168,-302.094Z" style="fill:#aaa193;"/><path d="M6635.22,16775.3l-447.579,436.631l-713.965,31.71l-499.538,-270.06l180.251,-510.091l548.985,-348.517l458.996,116.061l125.213,348.305l347.637,195.961Z" style="fill:#aaa193;"/><path d="M4974.14,18377.8l315.616,-831.046l660.237,139.034l421.184,263.761l-63.119,496.262l-368.491,338.335l-367.682,-113.774l-366.904,44.826l-230.841,-337.398Z" style="fill:#aaa193;"/><path d="M11705.2,13582.5l781.127,-672.975l770.421,356.47l410.946,391.91l-308.038,444.744l-621.308,191.895l-412.325,-232.671l-484.294,-83.369l-136.529,-396.004Z" style="fill:#aaa193;"/><path d="M11690.2,20175.3l330.555,-976.621l844.659,-84.675l553.115,128.586l-39.179,539.582l-437.487,481.096l-473.351,9.244l-459.43,174.4l-318.882,-271.612Z" style="fill:#aaa193;"/><path d="M13667.6,14899.8l-426.416,938.735l-848.893,-0.084l-537.512,-183.171l92.859,-532.974l483.337,-435.009l471.909,38.064l474.547,-127.656l290.169,302.095Z" style="fill:#aaa193;"/><path d="M13592.8,21052.2l-426.416,938.735l-848.892,-0.085l-537.512,-183.17l92.858,-532.974l483.337,-435.01l471.909,38.065l474.548,-127.656l290.168,302.095Z" style="fill:#aaa193;"/><path d="M11723.8,18150.5l447.579,-436.632l713.965,-31.71l499.538,270.06l-180.251,510.092l-548.985,348.516l-458.996,-116.061l-125.212,-348.305l-347.638,-195.96Z" style="fill:#aaa193;"/><path d="M13384.9,16548l-315.616,831.046l-660.237,-139.034l-421.184,-263.761l63.119,-496.262l368.491,-338.335l367.682,113.774l366.904,-44.826l230.841,337.398Z" style="fill:#aaa193;"/><path d="M13593.5,9880.12l-781.128,672.975l-770.42,-356.469l-410.946,-391.911l308.038,-444.743l621.308,-191.895l412.325,232.67l484.294,83.369l136.529,396.004Z" style="fill:#aaa193;"/><path d="M13608.4,3287.25l-330.555,976.621l-844.659,84.675l-553.115,-128.586l39.178,-539.582l437.487,-481.096l473.352,-9.244l459.429,-174.4l318.883,271.612Z" style="fill:#aaa193;"/><path d="M11631,8562.82l426.416,-938.735l848.892,0.085l537.512,183.17l-92.858,532.974l-483.337,435.01l-471.91,-38.065l-474.547,127.656l-290.168,-302.095Z" style="fill:#aaa193;"/><path d="M11705.8,2410.38l426.416,-938.735l848.893,0.085l537.512,183.17l-92.859,532.974l-483.337,435.01l-471.909,-38.065l-474.547,127.656l-290.169,-302.095Z" style="fill:#aaa193;"/><path d="M13574.8,5312.03l-447.578,436.632l-713.966,31.71l-499.538,-270.06l180.252,-510.092l548.984,-348.516l458.996,116.061l125.213,348.305l347.637,195.96Z" style="fill:#aaa193;"/><path d="M11913.7,6914.58l315.617,-831.046l660.236,139.034l421.184,263.761l-63.119,496.262l-368.491,338.335l-367.682,-113.774l-366.904,44.826l-230.841,-337.398Z" style="fill:#aaa193;"/></g></svg>