<?xml version="1.0" encoding="UTF-8" standalone="no"?><!DOCTYPE svg PUBLIC "-//W3C//DTD SVG 1.1//EN" "http://www.w3.org/Graphics/SVG/1.1/DTD/svg11.dtd"><svg width="100%" height="100%" viewBox="0 0 22815 24963" version="1.1" xmlns="http://www.w3.org/2000/svg" xmlns:xlink="http://www.w3.org/1999/xlink" xml:space="preserve" xmlns:serif="http://www.serif.com/" style="fill-rule:evenodd;clip-rule:evenodd;stroke-linecap:round;stroke-linejoin:round;stroke-miterlimit:1.5;"><g id="Weg"><path d="M14020.1,14260l781.127,-672.975l770.421,356.47l410.946,391.911l-308.038,444.743l-621.309,191.895l-412.325,-232.67l-484.294,-83.37l-136.528,-396.004Z" style="fill:#aaa193;"/><path d="M14005.1,20852.8l330.554,-976.621l844.659,-84.675l553.115,128.586l-39.178,539.582l-437.487,481.096l-473.352,9.244l-459.429,174.401l-318.882,-271.613Z" style="fill:#aaa193;"/><path d="M15982.6,15577.3l-426.417,938.736l-848.892,-0.085l-537.512,-183.171l92.858,-532.974l483.337,-435.009l471.91,38.064l474.547,-127.655l290.169,302.094Z" style="fill:#aaa193;"/><path d="M15907.7,21729.7l-426.416,938.735l-848.893,-0.084l-537.512,-183.171l92.859,-532.974l483.337,-435.009l471.909,38.064l474.547,-127.656l290.169,302.095Z" style="fill:#aaa193;"/><path d="M14038.8,18828l447.578,-436.632l713.966,-31.71l499.538,270.06l-180.252,510.092l-548.984,348.516l-458.996,-116.06l-125.213,-348.306l-347.637,-195.96Z" style="fill:#aaa193;"/><path d="M15699.9,17225.5l-315.617,831.047l-660.236,-139.035l-421.184,-263.761l63.119,-496.261l368.491,-338.335l367.682,113.773l366.904,-44.826l230.841,337.398Z" style="fill:#aaa193;"/><path d="M13450.4,11499.3l976.621,330.555l84.675,844.659l-128.586,553.115l-539.582,-39.178l-481.095,-437.487l-9.245,-473.352l-174.4,-459.43l271.612,-318.882Z" style="fill:#aaa193;"/><path d="M15455.9,11532.9l436.632,447.578l31.709,713.966l-270.06,499.538l-510.091,-180.252l-348.516,-548.985l116.06,-458.996l348.305,-125.212l195.961,-347.637Z" style="fill:#aaa193;"/><path d="M15908.4,10557.6l-781.127,672.975l-770.421,-356.469l-410.946,-391.911l308.038,-444.743l621.308,-191.895l412.326,232.67l484.293,83.369l136.529,396.004Z" style="fill:#aaa193;"/><path d="M15923.4,3964.75l-330.555,976.621l-844.659,84.675l-553.115,-128.586l39.179,-539.582l437.487,-481.095l473.351,-9.245l459.43,-174.4l318.882,271.612Z" style="fill:#aaa193;"/><path d="M13945.9,9240.33l426.416,-938.735l848.893,0.085l537.512,183.17l-92.859,532.974l-483.337,435.01l-471.909,-38.065l-474.547,127.656l-290.169,-302.095Z" style="fill:#aaa193;"/><path d="M14020.8,3087.89l426.416,-938.735l848.892,0.085l537.512,183.171l-92.858,532.974l-483.337,435.009l-471.909,-38.065l-474.548,127.656l-290.168,-302.095Z" style="fill:#aaa193;"/><path d="M15889.7,5989.54l-447.579,436.632l-713.965,31.71l-499.538,-270.06l180.251,-510.091l548.985,-348.517l458.996,116.061l125.213,348.305l347.637,195.96Z" style="fill:#aaa193;"/><path d="M14228.7,7592.09l315.616,-831.046l660.237,139.034l421.184,263.761l-63.119,496.262l-368.491,338.335l-367.682,-113.774l-366.904,44.826l-230.841,-337.398Z" style="fill:#aaa193;"/><path d="M7037.05,2822.12l781.127,-672.975l770.421,356.469l410.946,391.911l-308.038,444.743l-621.308,191.895l-412.325,-232.67l-484.294,-83.369l-136.529,-396.004Z" style="fill:#aaa193;"/><path d="M7022.11,9415l330.555,-976.621l844.659,-84.675l553.115,128.586l-39.178,539.582l-437.487,481.095l-473.352,9.245l-459.43,174.4l-318.882,-271.612Z" style="fill:#aaa193;"/><path d="M8999.54,4139.42l-426.416,938.735l-848.893,-0.085l-537.512,-183.17l92.859,-532.974l483.337,-435.01l471.909,38.065l474.547,-127.656l290.169,302.095Z" style="fill:#aaa193;"/><path d="M8924.7,10291.9l-426.416,938.735l-848.892,-0.085l-537.512,-183.171l92.858,-532.974l483.337,-435.009l471.909,38.065l474.548,-127.656l290.168,302.095Z" style="fill:#aaa193;"/><path d="M7055.73,7390.22l447.579,-436.632l713.965,-31.71l499.538,270.06l-180.251,510.091l-548.985,348.517l-458.996,-116.061l-125.212,-348.305l-347.638,-195.96Z" style="fill:#aaa193;"/><path d="M8716.81,5787.67l-315.616,831.046l-660.237,-139.034l-421.183,-263.761l63.118,-496.262l368.491,-338.335l367.683,113.774l366.903,-44.826l230.841,337.398Z" style="fill:#aaa193;"/><path d="M8968.84,22020.9l-781.127,672.975l-770.421,-356.469l-410.946,-391.911l308.038,-444.743l621.308,-191.895l412.325,232.67l484.294,83.37l136.529,396.003Z" style="fill:#aaa193;"/><path d="M8983.78,15428l-330.555,976.62l-844.659,84.676l-553.115,-128.586l39.178,-539.583l437.487,-481.095l473.352,-9.245l459.43,-174.4l318.882,271.613Z" style="fill:#aaa193;"/><path d="M7006.35,20703.6l426.416,-938.736l848.892,0.085l537.512,183.171l-92.858,532.974l-483.337,435.009l-471.909,-38.065l-474.548,127.656l-290.168,-302.094Z" style="fill:#aaa193;"/><path d="M7081.18,14619.9l426.417,-938.736l848.892,0.085l537.512,183.171l-92.858,532.974l-483.337,435.009l-471.91,-38.064l-474.547,127.655l-290.169,-302.094Z" style="fill:#aaa193;"/><path d="M8950.16,17452.8l-447.578,436.632l-713.966,31.709l-499.538,-270.06l180.252,-510.091l548.985,-348.516l458.996,116.06l125.212,348.305l347.637,195.961Z" style="fill:#aaa193;"/><path d="M9399.31,13443.5l-938.735,-426.416l0.085,-848.893l183.17,-537.512l532.974,92.859l435.01,483.337l-38.065,471.909l127.656,474.547l-302.095,290.169Z" style="fill:#aaa193;"/><path d="M6187.11,11499.7l436.632,447.578l31.709,713.966l-270.06,499.538l-510.091,-180.252l-348.516,-548.985l116.06,-458.996l348.305,-125.212l195.961,-347.637Z" style="fill:#aaa193;"/><path d="M7770.36,13160.8l-831.046,-315.617l139.034,-660.236l263.761,-421.184l496.262,63.119l338.335,368.49l-113.774,367.683l44.826,366.903l-337.398,230.842Z" style="fill:#aaa193;"/><path d="M7289.07,19055.4l315.617,-831.047l660.236,139.034l421.184,263.761l-63.119,496.262l-368.49,338.335l-367.683,-113.773l-366.903,44.825l-230.842,-337.397Z" style="fill:#aaa193;"/><g><g id="Pflanze-hinten-links"><path d="M6003.68,2534.01c0,0 213.128,295.677 -19.773,761.965c-0,-0 -137.985,-433.155 19.773,-761.965Z" style="fill:#87af35;stroke:#000;stroke-width:3.13px;"/><path d="M5649.88,2856.7c-0,-0 435.334,-139.687 406.997,506.296c-0,0 -22.49,33.994 -76.836,-10.242c-0,0 -62.754,-401.794 -330.161,-496.054Z" style="fill:#87af35;stroke:#000;stroke-width:3.13px;"/><path d="M6366.1,2860c0,0 -367.778,-71.066 -334.855,507.916c0,0 15.143,25.222 34.712,-31.319c-0,0 138.825,-449.454 300.143,-476.597Z" style="fill:#87af35;stroke:#000;stroke-width:3.12px;"/></g><g id="Pflanze-hinten-links1" serif:id="Pflanze-hinten-links"><path d="M6003.68,5069.88c0,0 213.128,295.677 -19.773,761.965c-0,-0 -137.985,-433.155 19.773,-761.965Z" style="fill:#87af35;stroke:#000;stroke-width:3.13px;"/><path d="M5649.88,5392.57c-0,-0 435.334,-139.687 406.997,506.296c-0,0 -22.49,33.994 -76.836,-10.241c-0,-0 -62.754,-401.795 -330.161,-496.055Z" style="fill:#87af35;stroke:#000;stroke-width:3.13px;"/><path d="M6366.1,5395.86c0,-0 -367.778,-71.067 -334.855,507.916c0,-0 15.143,25.221 34.712,-31.319c-0,-0 138.825,-449.455 300.143,-476.597Z" style="fill:#87af35;stroke:#000;stroke-width:3.12px;"/></g><g id="Pflanze-hinten-links2" serif:id="Pflanze-hinten-links"><path d="M6003.68,7605.74c0,-0 213.128,295.676 -19.773,761.964c-0,0 -137.985,-433.155 19.773,-761.964Z" style="fill:#87af35;stroke:#000;stroke-width:3.13px;"/><path d="M5649.88,7928.43c-0,-0 435.334,-139.687 406.997,506.297c-0,-0 -22.49,33.993 -76.836,-10.242c-0,-0 -62.754,-401.795 -330.161,-496.055Z" style="fill:#87af35;stroke:#000;stroke-width:3.13px;"/><path d="M6366.1,7931.72c0,-0 -367.778,-71.067 -334.855,507.916c0,-0 15.143,25.222 34.712,-31.319c-0,-0 138.825,-449.455 300.143,-476.597Z" style="fill:#87af35;stroke:#000;stroke-width:3.12px;"/></g><g id="Pflanze-hinten-links3" serif:id="Pflanze-hinten-links"><path d="M6003.68,3801.95c0,-0 213.128,295.676 -19.773,761.964c-0,0 -137.985,-433.155 19.773,-761.964Z" style="fill:#87af35;stroke:#000;stroke-width:3.13px;"/><path d="M5649.88,4124.64c-0,0 435.334,-139.687 406.997,506.297c-0,-0 -22.49,33.994 -76.836,-10.242c-0,-0 -62.754,-401.795 -330.161,-496.055Z" style="fill:#87af35;stroke:#000;stroke-width:3.13px;"/><path d="M6366.1,4127.93c0,0 -367.778,-71.067 -334.855,507.916c0,0 15.143,25.222 34.712,-31.319c-0,-0 138.825,-449.455 300.143,-476.597Z" style="fill:#87af35;stroke:#000;stroke-width:3.12px;"/></g><g id="Pflanze-hinten-links4" serif:id="Pflanze-hinten-links"><path d="M6003.68,6337.81c0,-0 213.128,295.677 -19.773,761.964c-0,0 -137.985,-433.154 19.773,-761.964Z" style="fill:#87af35;stroke:#000;stroke-width:3.13px;"/><path d="M5649.88,6660.5c-0,0 435.334,-139.686 406.997,506.297c-0,0 -22.49,33.994 -76.836,-10.242c-0,0 -62.754,-401.795 -330.161,-496.055Z" style="fill:#87af35;stroke:#000;stroke-width:3.13px;"/><path d="M6366.1,6663.79c0,0 -367.778,-71.066 -334.855,507.916c0,0 15.143,25.222 34.712,-31.319c-0,0 138.825,-449.454 300.143,-476.597Z" style="fill:#87af35;stroke:#000;stroke-width:3.12px;"/></g><g id="Pflanze-hinten-links5" serif:id="Pflanze-hinten-links"><path d="M6003.68,8873.67c0,0 213.128,295.677 -19.773,761.965c-0,-0 -137.985,-433.155 19.773,-761.965Z" style="fill:#87af35;stroke:#000;stroke-width:3.13px;"/><path d="M5649.88,9196.36c-0,-0 435.334,-139.687 406.997,506.296c-0,0 -22.49,33.994 -76.836,-10.242c-0,0 -62.754,-401.794 -330.161,-496.054Z" style="fill:#87af35;stroke:#000;stroke-width:3.13px;"/><path d="M6366.1,9199.66c0,-0 -367.778,-71.067 -334.855,507.916c0,-0 15.143,25.221 34.712,-31.32c-0,0 138.825,-449.454 300.143,-476.596Z" style="fill:#87af35;stroke:#000;stroke-width:3.12px;"/></g><g id="Pflanze-hinten-links6" serif:id="Pflanze-hinten-links"><path d="M6003.68,10141.6c0,-0 213.128,295.677 -19.773,761.964c-0,0 -137.985,-433.155 19.773,-761.964Z" style="fill:#87af35;stroke:#000;stroke-width:3.13px;"/><path d="M5649.88,10464.3c-0,0 435.334,-139.687 406.997,506.297c-0,-0 -22.49,33.994 -76.836,-10.242c-0,-0 -62.754,-401.795 -330.161,-496.055Z" style="fill:#87af35;stroke:#000;stroke-width:3.13px;"/><path d="M6366.1,10467.6c0,0 -367.778,-71.067 -334.855,507.916c0,0 15.143,25.222 34.712,-31.319c-0,-0 138.825,-449.455 300.143,-476.597Z" style="fill:#87af35;stroke:#000;stroke-width:3.12px;"/></g></g><path d="M19966.1,11514.3l672.974,781.127l-356.469,770.421l-391.911,410.946l-444.743,-308.038l-191.895,-621.308l232.67,-412.325l83.37,-484.294l396.004,-136.529Z" style="fill:#aaa193;"/><path d="M18668.1,13476.8l-938.735,-426.416l0.085,-848.892l183.171,-537.512l532.974,92.858l435.009,483.337l-38.065,471.909l127.656,474.548l-302.095,290.168Z" style="fill:#aaa193;"/><path d="M12592.9,13401.9l-938.735,-426.417l0.085,-848.892l183.17,-537.512l532.974,92.858l435.01,483.337l-38.065,471.91l127.656,474.547l-302.095,290.169Z" style="fill:#aaa193;"/><path d="M17039.2,13194l-831.046,-315.617l139.034,-660.236l263.761,-421.184l496.262,63.119l338.335,368.49l-113.774,367.683l44.826,366.904l-337.398,230.841Z" style="fill:#aaa193;"/><path d="M10697.3,11481l672.975,781.127l-356.469,770.421l-391.911,410.946l-444.743,-308.038l-191.895,-621.308l232.67,-412.325l83.37,-484.294l396.003,-136.529Z" style="fill:#aaa193;"/><path d="M4181.63,11466.1l976.621,330.555l84.675,844.659l-128.586,553.115l-539.582,-39.178l-481.095,-437.487l-9.245,-473.352l-174.4,-459.43l271.612,-318.882Z" style="fill:#aaa193;"/><path d="M3324.06,13368.7l-938.735,-426.417l0.085,-848.892l183.17,-537.512l532.974,92.858l435.01,483.337l-38.065,471.91l127.656,474.547l-302.095,290.169Z" style="fill:#aaa193;"/></g><g id="Beet6"><rect x="2314.93" y="13486.6" width="4429.13" height="9227.36" style="fill:#8b6818;"/><g id="Pflanzen16"><g id="Pflanze-vorne-links"><path d="M3372.3,15083.9c-0,0 64.54,40.677 112.2,-90.319c47.66,-130.997 15.27,-3.297 102.535,-41.559c87.265,-38.263 -7.012,-24.497 -0.55,-98.707c6.463,-74.211 14.392,-91.062 64.968,-73.424c50.576,17.637 135.742,-89.886 24.213,-159.321c-111.53,-69.436 -133.181,39.449 -138.213,87.532c-5.031,48.083 46.492,101.909 0,105.616c-46.491,3.707 -100.837,-11.369 -116.053,53.017c-15.217,64.385 69.474,94.982 -0,126.846c-69.474,31.864 -134.626,-33.95 -92.151,90.319l43.051,0Z" style="fill:#87af35;stroke:#000;stroke-width:6.25px;"/><path d="M3365.26,14993.6c-0,-0 14.536,-195.92 107.606,-220.086c93.07,-24.165 20.843,-70.326 29.533,-148.54c8.691,-78.215 69.665,-71.215 81.123,-116.043c11.459,-44.828 -90.693,-94.499 -80.789,-181.534c0,-0 -11.258,-115.428 19.308,-225.802c30.567,-110.373 -278.678,-323.245 -307.52,-259.053c0,-0 -222.495,95.16 46.288,531.999c-0,0 114.065,98.353 118.451,181.864c4.386,83.51 -64.242,306.829 -14,437.195Z" style="fill:#87af35;stroke:#000;stroke-width:6.25px;"/><path d="M3332.24,14970.9c0,0 -115.091,1.294 -137.379,-51.767c0,0 11.4,-88.577 -15.46,-128.152c-26.86,-39.575 -109.089,24.157 -151.592,-52.493c-42.502,-76.65 26.116,-146.893 -16.484,-181.721c-42.601,-34.829 -177.961,11.513 -241.954,-58.787c-63.993,-70.3 16.309,-127.36 57.941,-119.646c41.631,7.715 147.257,-6.855 185.418,-49.635c38.161,-42.78 147.531,51.52 137.969,106.369c-9.562,54.85 115.676,109.536 178.426,126.658c62.75,17.122 11.94,81.933 -1.708,199.782c-13.648,117.849 -18.53,150.837 4.823,209.392Z" style="fill:#87af35;stroke:#000;stroke-width:6.25px;"/></g><g id="Pflanze-vorne-links1" serif:id="Pflanze-vorne-links"><path d="M3372.3,17345c-0,0 64.54,40.677 112.2,-90.319c47.66,-130.997 15.27,-3.297 102.535,-41.559c87.265,-38.263 -7.012,-24.497 -0.55,-98.707c6.463,-74.211 14.392,-91.062 64.968,-73.424c50.576,17.637 135.742,-89.886 24.213,-159.322c-111.53,-69.435 -133.181,39.45 -138.213,87.533c-5.031,48.083 46.492,101.909 0,105.616c-46.491,3.707 -100.837,-11.369 -116.053,53.017c-15.217,64.385 69.474,94.982 -0,126.846c-69.474,31.863 -134.626,-33.95 -92.151,90.319l43.051,0Z" style="fill:#87af35;stroke:#000;stroke-width:6.25px;"/><path d="M3365.26,17254.7c-0,-0 14.536,-195.92 107.606,-220.086c93.07,-24.165 20.843,-70.327 29.533,-148.541c8.691,-78.214 69.665,-71.214 81.123,-116.042c11.459,-44.828 -90.693,-94.5 -80.789,-181.534c0,-0 -11.258,-115.428 19.308,-225.802c30.567,-110.374 -278.678,-323.245 -307.52,-259.053c0,-0 -222.495,95.16 46.288,531.999c-0,-0 114.065,98.353 118.451,181.864c4.386,83.51 -64.242,306.829 -14,437.195Z" style="fill:#87af35;stroke:#000;stroke-width:6.25px;"/><path d="M3332.24,17232c0,0 -115.091,1.294 -137.379,-51.767c0,0 11.4,-88.577 -15.46,-128.152c-26.86,-39.575 -109.089,24.157 -151.592,-52.493c-42.502,-76.65 26.116,-146.893 -16.484,-181.721c-42.601,-34.829 -177.961,11.513 -241.954,-58.787c-63.993,-70.3 16.309,-127.36 57.941,-119.646c41.631,7.715 147.257,-6.855 185.418,-49.635c38.161,-42.78 147.531,51.52 137.969,106.369c-9.562,54.85 115.676,109.536 178.426,126.658c62.75,17.122 11.94,81.932 -1.708,199.782c-13.648,117.849 -18.53,150.837 4.823,209.392Z" style="fill:#87af35;stroke:#000;stroke-width:6.25px;"/></g><g id="Pflanze-vorne-links2" serif:id="Pflanze-vorne-links"><path d="M3372.3,19606.2c-0,0 64.54,40.677 112.2,-90.319c47.66,-130.997 15.27,-3.297 102.535,-41.56c87.265,-38.262 -7.012,-24.496 -0.55,-98.706c6.463,-74.211 14.392,-91.062 64.968,-73.424c50.576,17.637 135.742,-89.886 24.213,-159.322c-111.53,-69.435 -133.181,39.45 -138.213,87.533c-5.031,48.082 46.492,101.909 0,105.616c-46.491,3.707 -100.837,-11.369 -116.053,53.017c-15.217,64.385 69.474,94.982 -0,126.846c-69.474,31.863 -134.626,-33.95 -92.151,90.319l43.051,0Z" style="fill:#87af35;stroke:#000;stroke-width:6.25px;"/><path d="M3365.26,19515.9c-0,-0 14.536,-195.92 107.606,-220.086c93.07,-24.166 20.843,-70.327 29.533,-148.541c8.691,-78.214 69.665,-71.214 81.123,-116.042c11.459,-44.828 -90.693,-94.5 -80.789,-181.534c0,-0 -11.258,-115.428 19.308,-225.802c30.567,-110.374 -278.678,-323.245 -307.52,-259.054c0,0 -222.495,95.16 46.288,532c-0,-0 114.065,98.353 118.451,181.864c4.386,83.51 -64.242,306.829 -14,437.195Z" style="fill:#87af35;stroke:#000;stroke-width:6.25px;"/><path d="M3332.24,19493.2c0,-0 -115.091,1.294 -137.379,-51.767c0,-0 11.4,-88.577 -15.46,-128.152c-26.86,-39.575 -109.089,24.157 -151.592,-52.493c-42.502,-76.65 26.116,-146.893 -16.484,-181.721c-42.601,-34.829 -177.961,11.513 -241.954,-58.787c-63.993,-70.3 16.309,-127.36 57.941,-119.646c41.631,7.714 147.257,-6.855 185.418,-49.636c38.161,-42.78 147.531,51.521 137.969,106.37c-9.562,54.85 115.676,109.536 178.426,126.658c62.75,17.122 11.94,81.932 -1.708,199.782c-13.648,117.849 -18.53,150.837 4.823,209.392Z" style="fill:#87af35;stroke:#000;stroke-width:6.25px;"/></g><g id="Pflanze-vorne-links3" serif:id="Pflanze-vorne-links"><path d="M3545.42,21867.3c0,0 64.541,40.677 112.201,-90.32c47.66,-130.996 15.27,-3.296 102.535,-41.559c87.265,-38.262 -7.012,-24.496 -0.55,-98.706c6.462,-74.211 14.392,-91.062 64.968,-73.424c50.576,17.637 135.742,-89.886 24.213,-159.322c-111.53,-69.435 -133.181,39.45 -138.213,87.533c-5.031,48.082 46.492,101.909 0,105.616c-46.491,3.706 -100.837,-11.369 -116.054,53.016c-15.216,64.386 69.474,94.983 0,126.846c-69.474,31.864 -134.625,-33.949 -92.151,90.32l43.051,0Z" style="fill:#87af35;stroke:#000;stroke-width:6.25px;"/><path d="M3538.39,21777c-0,0 14.536,-195.92 107.606,-220.085c93.07,-24.166 20.843,-70.327 29.533,-148.541c8.69,-78.214 69.665,-71.214 81.123,-116.042c11.459,-44.828 -90.693,-94.5 -80.789,-181.534c-0,-0 -11.259,-115.428 19.308,-225.802c30.567,-110.374 -278.678,-323.246 -307.52,-259.054c0,0 -222.495,95.16 46.288,532c-0,-0 114.065,98.353 118.451,181.864c4.386,83.51 -64.242,306.829 -14,437.194Z" style="fill:#87af35;stroke:#000;stroke-width:6.25px;"/><path d="M3505.37,21754.3c-0,-0 -115.092,1.294 -137.379,-51.767c0,-0 11.4,-88.577 -15.46,-128.152c-26.86,-39.575 -109.089,24.156 -151.592,-52.493c-42.502,-76.65 26.116,-146.893 -16.484,-181.722c-42.601,-34.828 -177.961,11.514 -241.954,-58.786c-63.994,-70.3 16.309,-127.36 57.94,-119.646c41.632,7.714 147.258,-6.856 185.419,-49.636c38.161,-42.78 147.531,51.521 137.969,106.37c-9.562,54.85 115.676,109.536 178.426,126.658c62.75,17.122 11.94,81.932 -1.708,199.782c-13.648,117.849 -18.53,150.837 4.823,209.392Z" style="fill:#87af35;stroke:#000;stroke-width:6.25px;"/></g></g><g id="Pflanzen15"><g id="Pflanze-vorne-links4" serif:id="Pflanze-vorne-links"><path d="M5432.56,15083.9c-0,0 64.54,40.677 112.2,-90.319c47.66,-130.997 15.27,-3.297 102.535,-41.559c87.265,-38.263 -7.012,-24.497 -0.55,-98.707c6.463,-74.211 14.392,-91.062 64.968,-73.424c50.576,17.637 135.742,-89.886 24.213,-159.321c-111.53,-69.436 -133.181,39.449 -138.213,87.532c-5.031,48.083 46.492,101.909 0,105.616c-46.491,3.707 -100.837,-11.369 -116.053,53.017c-15.217,64.385 69.474,94.982 -0,126.846c-69.474,31.864 -134.626,-33.95 -92.151,90.319l43.051,0Z" style="fill:#87af35;stroke:#000;stroke-width:6.25px;"/><path d="M5425.52,14993.6c-0,-0 14.536,-195.92 107.606,-220.086c93.07,-24.165 20.843,-70.326 29.533,-148.54c8.691,-78.215 69.665,-71.215 81.124,-116.043c11.458,-44.828 -90.694,-94.499 -80.79,-181.534c0,-0 -11.258,-115.428 19.308,-225.802c30.567,-110.373 -278.678,-323.245 -307.519,-259.053c-0,-0 -222.496,95.16 46.287,531.999c-0,0 114.065,98.353 118.451,181.864c4.386,83.51 -64.242,306.829 -14,437.195Z" style="fill:#87af35;stroke:#000;stroke-width:6.25px;"/><path d="M5392.5,14970.9c0,0 -115.091,1.294 -137.379,-51.767c0,0 11.4,-88.577 -15.46,-128.152c-26.86,-39.575 -109.089,24.157 -151.592,-52.493c-42.502,-76.65 26.116,-146.893 -16.484,-181.721c-42.601,-34.829 -177.961,11.513 -241.954,-58.787c-63.993,-70.3 16.309,-127.36 57.941,-119.646c41.631,7.715 147.257,-6.855 185.418,-49.635c38.161,-42.78 147.532,51.52 137.969,106.369c-9.562,54.85 115.676,109.536 178.426,126.658c62.75,17.122 11.94,81.933 -1.708,199.782c-13.648,117.849 -18.53,150.837 4.823,209.392Z" style="fill:#87af35;stroke:#000;stroke-width:6.25px;"/></g><g id="Pflanze-vorne-links5" serif:id="Pflanze-vorne-links"><path d="M5432.56,17345c-0,0 64.54,40.677 112.2,-90.319c47.66,-130.997 15.27,-3.297 102.535,-41.559c87.265,-38.263 -7.012,-24.497 -0.55,-98.707c6.463,-74.211 14.392,-91.062 64.968,-73.424c50.576,17.637 135.742,-89.886 24.213,-159.322c-111.53,-69.435 -133.181,39.45 -138.213,87.533c-5.031,48.083 46.492,101.909 0,105.616c-46.491,3.707 -100.837,-11.369 -116.053,53.017c-15.217,64.385 69.474,94.982 -0,126.846c-69.474,31.863 -134.626,-33.95 -92.151,90.319l43.051,0Z" style="fill:#87af35;stroke:#000;stroke-width:6.25px;"/><path d="M5425.52,17254.7c-0,-0 14.536,-195.92 107.606,-220.086c93.07,-24.165 20.843,-70.327 29.533,-148.541c8.691,-78.214 69.665,-71.214 81.124,-116.042c11.458,-44.828 -90.694,-94.5 -80.79,-181.534c0,-0 -11.258,-115.428 19.308,-225.802c30.567,-110.374 -278.678,-323.245 -307.519,-259.053c-0,-0 -222.496,95.16 46.287,531.999c-0,-0 114.065,98.353 118.451,181.864c4.386,83.51 -64.242,306.829 -14,437.195Z" style="fill:#87af35;stroke:#000;stroke-width:6.25px;"/><path d="M5392.5,17232c0,0 -115.091,1.294 -137.379,-51.767c0,0 11.4,-88.577 -15.46,-128.152c-26.86,-39.575 -109.089,24.157 -151.592,-52.493c-42.502,-76.65 26.116,-146.893 -16.484,-181.721c-42.601,-34.829 -177.961,11.513 -241.954,-58.787c-63.993,-70.3 16.309,-127.36 57.941,-119.646c41.631,7.715 147.257,-6.855 185.418,-49.635c38.161,-42.78 147.532,51.52 137.969,106.369c-9.562,54.85 115.676,109.536 178.426,126.658c62.75,17.122 11.94,81.932 -1.708,199.782c-13.648,117.849 -18.53,150.837 4.823,209.392Z" style="fill:#87af35;stroke:#000;stroke-width:6.25px;"/></g><g id="Pflanze-vorne-links6" serif:id="Pflanze-vorne-links"><path d="M5432.56,19606.2c-0,0 64.54,40.677 112.2,-90.319c47.66,-130.997 15.27,-3.297 102.535,-41.56c87.265,-38.262 -7.012,-24.496 -0.55,-98.706c6.463,-74.211 14.392,-91.062 64.968,-73.424c50.576,17.637 135.742,-89.886 24.213,-159.322c-111.53,-69.435 -133.181,39.45 -138.213,87.533c-5.031,48.082 46.492,101.909 0,105.616c-46.491,3.707 -100.837,-11.369 -116.053,53.017c-15.217,64.385 69.474,94.982 -0,126.846c-69.474,31.863 -134.626,-33.95 -92.151,90.319l43.051,0Z" style="fill:#87af35;stroke:#000;stroke-width:6.25px;"/><path d="M5425.52,19515.9c-0,-0 14.536,-195.92 107.606,-220.086c93.07,-24.166 20.843,-70.327 29.533,-148.541c8.691,-78.214 69.665,-71.214 81.124,-116.042c11.458,-44.828 -90.694,-94.5 -80.79,-181.534c0,-0 -11.258,-115.428 19.308,-225.802c30.567,-110.374 -278.678,-323.245 -307.519,-259.054c-0,0 -222.496,95.16 46.287,532c-0,-0 114.065,98.353 118.451,181.864c4.386,83.51 -64.242,306.829 -14,437.195Z" style="fill:#87af35;stroke:#000;stroke-width:6.25px;"/><path d="M5392.5,19493.2c0,-0 -115.091,1.294 -137.379,-51.767c0,-0 11.4,-88.577 -15.46,-128.152c-26.86,-39.575 -109.089,24.157 -151.592,-52.493c-42.502,-76.65 26.116,-146.893 -16.484,-181.721c-42.601,-34.829 -177.961,11.513 -241.954,-58.787c-63.993,-70.3 16.309,-127.36 57.941,-119.646c41.631,7.714 147.257,-6.855 185.418,-49.636c38.161,-42.78 147.532,51.521 137.969,106.37c-9.562,54.85 115.676,109.536 178.426,126.658c62.75,17.122 11.94,81.932 -1.708,199.782c-13.648,117.849 -18.53,150.837 4.823,209.392Z" style="fill:#87af35;stroke:#000;stroke-width:6.25px;"/></g><g id="Pflanze-vorne-links7" serif:id="Pflanze-vorne-links"><path d="M5605.68,21867.3c0,0 64.541,40.677 112.201,-90.32c47.66,-130.996 15.27,-3.296 102.535,-41.559c87.265,-38.262 -7.012,-24.496 -0.55,-98.706c6.463,-74.211 14.392,-91.062 64.968,-73.424c50.576,17.637 135.742,-89.886 24.213,-159.322c-111.53,-69.435 -133.181,39.45 -138.213,87.533c-5.031,48.082 46.492,101.909 0,105.616c-46.491,3.706 -100.837,-11.369 -116.054,53.016c-15.216,64.386 69.474,94.983 0,126.846c-69.474,31.864 -134.625,-33.949 -92.151,90.32l43.051,0Z" style="fill:#87af35;stroke:#000;stroke-width:6.25px;"/><path d="M5598.65,21777c-0,0 14.536,-195.92 107.606,-220.085c93.07,-24.166 20.843,-70.327 29.533,-148.541c8.69,-78.214 69.665,-71.214 81.123,-116.042c11.459,-44.828 -90.693,-94.5 -80.789,-181.534c-0,-0 -11.259,-115.428 19.308,-225.802c30.567,-110.374 -278.678,-323.246 -307.52,-259.054c0,0 -222.495,95.16 46.288,532c-0,-0 114.065,98.353 118.451,181.864c4.386,83.51 -64.242,306.829 -14,437.194Z" style="fill:#87af35;stroke:#000;stroke-width:6.25px;"/><path d="M5565.63,21754.3c-0,-0 -115.092,1.294 -137.379,-51.767c0,-0 11.4,-88.577 -15.46,-128.152c-26.86,-39.575 -109.089,24.156 -151.592,-52.493c-42.502,-76.65 26.116,-146.893 -16.484,-181.722c-42.601,-34.828 -177.961,11.514 -241.954,-58.786c-63.994,-70.3 16.309,-127.36 57.94,-119.646c41.632,7.714 147.258,-6.856 185.419,-49.636c38.161,-42.78 147.531,51.521 137.969,106.37c-9.562,54.85 115.676,109.536 178.426,126.658c62.75,17.122 11.94,81.932 -1.708,199.782c-13.648,117.849 -18.53,150.837 4.823,209.392Z" style="fill:#87af35;stroke:#000;stroke-width:6.25px;"/></g></g><g id="Schild-Beet-6"><path d="M6136.26,17412.9c-0,-15.807 -12.834,-28.641 -28.642,-28.641l-3156.24,0c-15.808,0 -28.641,12.834 -28.641,28.641l-0,1374.78c-0,15.808 12.833,28.641 28.641,28.641l3156.24,0c15.808,0 28.642,-12.833 28.642,-28.641l-0,-1374.78Z" style="fill:#f1dcaa;"/><g transform="matrix(937.5,0,0,937.5,5887.66,18372.5)"></g><text x="3114.53px" y="18372.5px" style="font-family:'Ubuntu', sans-serif;font-size:937.5px;fill:#ba2d0b;">Beet 6</text></g></g><g id="Beet5"><rect x="9252.21" y="13486.6" width="4429.13" height="9227.36" style="fill:#8b6818;"/><g id="Pflanzen12"><g id="Pflanze-hinten-links7" serif:id="Pflanze-hinten-links"><path d="M13037.7,13875.8c0,0 213.128,295.677 -19.773,761.965c-0,-0 -137.985,-433.155 19.773,-761.965Z" style="fill:#87af35;stroke:#000;stroke-width:3.13px;"/><path d="M12683.9,14198.4c-0,-0 435.334,-139.687 406.997,506.296c-0,0 -22.49,33.994 -76.836,-10.242c-0,0 -62.754,-401.794 -330.161,-496.054Z" style="fill:#87af35;stroke:#000;stroke-width:3.13px;"/><path d="M13400.2,14201.7c0,0 -367.778,-71.066 -334.855,507.917c0,-0 15.143,25.221 34.712,-31.32c-0,0 138.825,-449.454 300.143,-476.597Z" style="fill:#87af35;stroke:#000;stroke-width:3.12px;"/></g><g id="Pflanze-hinten-links8" serif:id="Pflanze-hinten-links"><path d="M13037.7,16411.6c0,0 213.128,295.677 -19.773,761.965c-0,-0 -137.985,-433.155 19.773,-761.965Z" style="fill:#87af35;stroke:#000;stroke-width:3.13px;"/><path d="M12683.9,16734.3c-0,-0 435.334,-139.687 406.997,506.296c-0,0 -22.49,33.994 -76.836,-10.241c-0,-0 -62.754,-401.795 -330.161,-496.055Z" style="fill:#87af35;stroke:#000;stroke-width:3.13px;"/><path d="M13400.2,16737.6c0,-0 -367.778,-71.067 -334.855,507.916c0,-0 15.143,25.221 34.712,-31.319c-0,-0 138.825,-449.455 300.143,-476.597Z" style="fill:#87af35;stroke:#000;stroke-width:3.12px;"/></g><g id="Pflanze-hinten-links9" serif:id="Pflanze-hinten-links"><path d="M13037.7,18947.5c0,-0 213.128,295.676 -19.773,761.964c-0,0 -137.985,-433.155 19.773,-761.964Z" style="fill:#87af35;stroke:#000;stroke-width:3.13px;"/><path d="M12683.9,19270.2c-0,0 435.334,-139.687 406.997,506.297c-0,-0 -22.49,33.994 -76.836,-10.242c-0,-0 -62.754,-401.795 -330.161,-496.055Z" style="fill:#87af35;stroke:#000;stroke-width:3.13px;"/><path d="M13400.2,19273.5c0,-0 -367.778,-71.067 -334.855,507.916c0,-0 15.143,25.222 34.712,-31.319c-0,-0 138.825,-449.455 300.143,-476.597Z" style="fill:#87af35;stroke:#000;stroke-width:3.12px;"/></g><g id="Pflanze-hinten-links10" serif:id="Pflanze-hinten-links"><path d="M13037.7,15143.7c0,-0 213.128,295.677 -19.773,761.964c-0,0 -137.985,-433.155 19.773,-761.964Z" style="fill:#87af35;stroke:#000;stroke-width:3.13px;"/><path d="M12683.9,15466.4c-0,0 435.334,-139.687 406.997,506.297c-0,-0 -22.49,33.994 -76.836,-10.242c-0,-0 -62.754,-401.795 -330.161,-496.055Z" style="fill:#87af35;stroke:#000;stroke-width:3.13px;"/><path d="M13400.2,15469.7c0,0 -367.778,-71.067 -334.855,507.916c0,0 15.143,25.222 34.712,-31.319c-0,-0 138.825,-449.455 300.143,-476.597Z" style="fill:#87af35;stroke:#000;stroke-width:3.12px;"/></g><g id="Pflanze-hinten-links11" serif:id="Pflanze-hinten-links"><path d="M13037.7,17679.5c0,-0 213.128,295.677 -19.773,761.964c-0,0 -137.985,-433.154 19.773,-761.964Z" style="fill:#87af35;stroke:#000;stroke-width:3.13px;"/><path d="M12683.9,18002.2c-0,0 435.334,-139.686 406.997,506.297c-0,0 -22.49,33.994 -76.836,-10.242c-0,0 -62.754,-401.795 -330.161,-496.055Z" style="fill:#87af35;stroke:#000;stroke-width:3.13px;"/><path d="M13400.2,18005.5c0,0 -367.778,-71.066 -334.855,507.916c0,0 15.143,25.222 34.712,-31.319c-0,0 138.825,-449.454 300.143,-476.597Z" style="fill:#87af35;stroke:#000;stroke-width:3.12px;"/></g><g id="Pflanze-hinten-links12" serif:id="Pflanze-hinten-links"><path d="M13037.7,20215.4c0,0 213.128,295.677 -19.773,761.965c-0,-0 -137.985,-433.155 19.773,-761.965Z" style="fill:#87af35;stroke:#000;stroke-width:3.13px;"/><path d="M12683.9,20538.1c-0,-0 435.334,-139.687 406.997,506.296c-0,0 -22.49,33.994 -76.836,-10.242c-0,0 -62.754,-401.794 -330.161,-496.054Z" style="fill:#87af35;stroke:#000;stroke-width:3.13px;"/><path d="M13400.2,20541.4c0,-0 -367.778,-71.067 -334.855,507.916c0,-0 15.143,25.221 34.712,-31.32c-0,0 138.825,-449.454 300.143,-476.596Z" style="fill:#87af35;stroke:#000;stroke-width:3.12px;"/></g><g id="Pflanze-hinten-links13" serif:id="Pflanze-hinten-links"><path d="M13037.7,21483.3c0,-0 213.128,295.677 -19.773,761.964c-0,0 -137.985,-433.155 19.773,-761.964Z" style="fill:#87af35;stroke:#000;stroke-width:3.13px;"/><path d="M12683.9,21806c-0,0 435.334,-139.687 406.997,506.297c-0,-0 -22.49,33.994 -76.836,-10.242c-0,-0 -62.754,-401.795 -330.161,-496.055Z" style="fill:#87af35;stroke:#000;stroke-width:3.13px;"/><path d="M13400.2,21809.3c0,0 -367.778,-71.066 -334.855,507.916c0,0 15.143,25.222 34.712,-31.319c-0,0 138.825,-449.455 300.143,-476.597Z" style="fill:#87af35;stroke:#000;stroke-width:3.12px;"/></g></g><g id="Pflanzen14"><g id="Pflanze-hinten-links14" serif:id="Pflanze-hinten-links"><path d="M9887.18,13875.8c-0,0 213.128,295.677 -19.774,761.965c0,-0 -137.985,-433.155 19.774,-761.965Z" style="fill:#87af35;stroke:#000;stroke-width:3.13px;"/><path d="M9533.38,14198.4c0,-0 435.335,-139.687 406.997,506.296c0,0 -22.49,33.994 -76.836,-10.242c0,0 -62.754,-401.794 -330.161,-496.054Z" style="fill:#87af35;stroke:#000;stroke-width:3.13px;"/><path d="M10249.6,14201.7c-0,0 -367.778,-71.066 -334.855,507.917c-0,-0 15.143,25.221 34.711,-31.32c0,0 138.826,-449.454 300.144,-476.597Z" style="fill:#87af35;stroke:#000;stroke-width:3.12px;"/></g><g id="Pflanze-hinten-links15" serif:id="Pflanze-hinten-links"><path d="M9887.18,16411.6c-0,0 213.128,295.677 -19.774,761.965c0,-0 -137.985,-433.155 19.774,-761.965Z" style="fill:#87af35;stroke:#000;stroke-width:3.13px;"/><path d="M9533.38,16734.3c0,-0 435.335,-139.687 406.997,506.296c0,0 -22.49,33.994 -76.836,-10.241c0,-0 -62.754,-401.795 -330.161,-496.055Z" style="fill:#87af35;stroke:#000;stroke-width:3.13px;"/><path d="M10249.6,16737.6c-0,-0 -367.778,-71.067 -334.855,507.916c-0,-0 15.143,25.221 34.711,-31.319c0,-0 138.826,-449.455 300.144,-476.597Z" style="fill:#87af35;stroke:#000;stroke-width:3.12px;"/></g><g id="Pflanze-hinten-links16" serif:id="Pflanze-hinten-links"><path d="M9887.18,18947.5c-0,-0 213.128,295.676 -19.774,761.964c0,0 -137.985,-433.155 19.774,-761.964Z" style="fill:#87af35;stroke:#000;stroke-width:3.13px;"/><path d="M9533.38,19270.2c0,0 435.335,-139.687 406.997,506.297c0,-0 -22.49,33.994 -76.836,-10.242c0,-0 -62.754,-401.795 -330.161,-496.055Z" style="fill:#87af35;stroke:#000;stroke-width:3.13px;"/><path d="M10249.6,19273.5c-0,-0 -367.778,-71.067 -334.855,507.916c-0,-0 15.143,25.222 34.711,-31.319c0,-0 138.826,-449.455 300.144,-476.597Z" style="fill:#87af35;stroke:#000;stroke-width:3.12px;"/></g><g id="Pflanze-hinten-links17" serif:id="Pflanze-hinten-links"><path d="M9887.18,15143.7c-0,-0 213.128,295.677 -19.774,761.964c0,0 -137.985,-433.155 19.774,-761.964Z" style="fill:#87af35;stroke:#000;stroke-width:3.13px;"/><path d="M9533.38,15466.4c0,0 435.335,-139.687 406.997,506.297c0,-0 -22.49,33.994 -76.836,-10.242c0,-0 -62.754,-401.795 -330.161,-496.055Z" style="fill:#87af35;stroke:#000;stroke-width:3.13px;"/><path d="M10249.6,15469.7c-0,0 -367.778,-71.067 -334.855,507.916c-0,0 15.143,25.222 34.711,-31.319c0,-0 138.826,-449.455 300.144,-476.597Z" style="fill:#87af35;stroke:#000;stroke-width:3.12px;"/></g><g id="Pflanze-hinten-links18" serif:id="Pflanze-hinten-links"><path d="M9887.18,17679.5c-0,-0 213.128,295.677 -19.774,761.964c0,0 -137.985,-433.154 19.774,-761.964Z" style="fill:#87af35;stroke:#000;stroke-width:3.13px;"/><path d="M9533.38,18002.2c0,0 435.335,-139.686 406.997,506.297c0,0 -22.49,33.994 -76.836,-10.242c0,0 -62.754,-401.795 -330.161,-496.055Z" style="fill:#87af35;stroke:#000;stroke-width:3.13px;"/><path d="M10249.6,18005.5c-0,0 -367.778,-71.066 -334.855,507.916c-0,0 15.143,25.222 34.711,-31.319c0,0 138.826,-449.454 300.144,-476.597Z" style="fill:#87af35;stroke:#000;stroke-width:3.12px;"/></g><g id="Pflanze-hinten-links19" serif:id="Pflanze-hinten-links"><path d="M9887.18,20215.4c-0,0 213.128,295.677 -19.774,761.965c0,-0 -137.985,-433.155 19.774,-761.965Z" style="fill:#87af35;stroke:#000;stroke-width:3.13px;"/><path d="M9533.38,20538.1c0,-0 435.335,-139.687 406.997,506.296c0,0 -22.49,33.994 -76.836,-10.242c0,0 -62.754,-401.794 -330.161,-496.054Z" style="fill:#87af35;stroke:#000;stroke-width:3.13px;"/><path d="M10249.6,20541.4c-0,-0 -367.778,-71.067 -334.855,507.916c-0,-0 15.143,25.221 34.711,-31.32c0,0 138.826,-449.454 300.144,-476.596Z" style="fill:#87af35;stroke:#000;stroke-width:3.12px;"/></g><g id="Pflanze-hinten-links20" serif:id="Pflanze-hinten-links"><path d="M9887.18,21483.3c-0,-0 213.128,295.677 -19.774,761.964c0,0 -137.985,-433.155 19.774,-761.964Z" style="fill:#87af35;stroke:#000;stroke-width:3.13px;"/><path d="M9533.38,21806c0,0 435.335,-139.687 406.997,506.297c0,-0 -22.49,33.994 -76.836,-10.242c0,-0 -62.754,-401.795 -330.161,-496.055Z" style="fill:#87af35;stroke:#000;stroke-width:3.13px;"/><path d="M10249.6,21809.3c-0,0 -367.778,-71.066 -334.855,507.916c-0,0 15.143,25.222 34.711,-31.319c0,0 138.826,-449.455 300.144,-476.597Z" style="fill:#87af35;stroke:#000;stroke-width:3.12px;"/></g></g><g id="Pflanzen13"><g id="Pflanze-vorne-links8" serif:id="Pflanze-vorne-links"><path d="M11524.8,15287.1c-0,-0 64.54,40.676 112.2,-90.32c47.66,-130.997 15.27,-3.296 102.535,-41.559c87.266,-38.263 -7.012,-24.496 -0.55,-98.707c6.463,-74.21 14.392,-91.061 64.968,-73.424c50.576,17.638 135.743,-89.886 24.213,-159.321c-111.53,-69.436 -133.181,39.45 -138.213,87.532c-5.031,48.083 46.492,101.909 0,105.616c-46.491,3.707 -100.837,-11.369 -116.053,53.017c-15.217,64.385 69.474,94.982 -0,126.846c-69.474,31.864 -134.626,-33.95 -92.151,90.32l43.051,-0Z" style="fill:#87af35;stroke:#000;stroke-width:6.25px;"/><path d="M11517.7,15196.8c-0,-0 14.536,-195.92 107.606,-220.086c93.07,-24.165 20.843,-70.326 29.533,-148.54c8.691,-78.214 69.665,-71.214 81.124,-116.043c11.458,-44.828 -90.694,-94.499 -80.79,-181.534c0,0 -11.258,-115.428 19.308,-225.802c30.567,-110.373 -278.678,-323.245 -307.519,-259.053c-0,-0 -222.496,95.16 46.287,531.999c0,0 114.065,98.353 118.451,181.864c4.386,83.51 -64.242,306.829 -14,437.195Z" style="fill:#87af35;stroke:#000;stroke-width:6.25px;"/><path d="M11484.7,15174.1c0,0 -115.091,1.294 -137.378,-51.767c-0,0 11.399,-88.577 -15.461,-128.152c-26.86,-39.575 -109.089,24.157 -151.591,-52.493c-42.503,-76.65 26.115,-146.893 -16.485,-181.721c-42.601,-34.829 -177.961,11.513 -241.954,-58.787c-63.993,-70.3 16.31,-127.36 57.941,-119.645c41.631,7.714 147.257,-6.856 185.418,-49.636c38.161,-42.78 147.532,51.52 137.969,106.37c-9.562,54.849 115.676,109.536 178.426,126.657c62.75,17.122 11.94,81.933 -1.708,199.782c-13.648,117.85 -18.53,150.837 4.823,209.392Z" style="fill:#87af35;stroke:#000;stroke-width:6.25px;"/></g><g id="Pflanze-vorne-links9" serif:id="Pflanze-vorne-links"><path d="M11524.8,17548.3c-0,0 64.54,40.677 112.2,-90.319c47.66,-130.997 15.27,-3.297 102.535,-41.559c87.266,-38.263 -7.012,-24.497 -0.55,-98.707c6.463,-74.211 14.392,-91.062 64.968,-73.424c50.576,17.637 135.743,-89.886 24.213,-159.321c-111.53,-69.436 -133.181,39.449 -138.213,87.532c-5.031,48.083 46.492,101.909 0,105.616c-46.491,3.707 -100.837,-11.369 -116.053,53.017c-15.217,64.385 69.474,94.982 -0,126.846c-69.474,31.864 -134.626,-33.95 -92.151,90.319l43.051,0Z" style="fill:#87af35;stroke:#000;stroke-width:6.25px;"/><path d="M11517.7,17458c-0,-0 14.536,-195.92 107.606,-220.086c93.07,-24.165 20.843,-70.326 29.533,-148.54c8.691,-78.214 69.665,-71.215 81.124,-116.043c11.458,-44.828 -90.694,-94.499 -80.79,-181.534c0,0 -11.258,-115.428 19.308,-225.802c30.567,-110.373 -278.678,-323.245 -307.519,-259.053c-0,-0 -222.496,95.16 46.287,531.999c0,0 114.065,98.353 118.451,181.864c4.386,83.51 -64.242,306.829 -14,437.195Z" style="fill:#87af35;stroke:#000;stroke-width:6.25px;"/><path d="M11484.7,17435.2c0,0 -115.091,1.294 -137.378,-51.767c-0,0 11.399,-88.577 -15.461,-128.152c-26.86,-39.575 -109.089,24.157 -151.591,-52.493c-42.503,-76.65 26.115,-146.893 -16.485,-181.721c-42.601,-34.829 -177.961,11.513 -241.954,-58.787c-63.993,-70.3 16.31,-127.36 57.941,-119.646c41.631,7.715 147.257,-6.855 185.418,-49.635c38.161,-42.78 147.532,51.52 137.969,106.37c-9.562,54.849 115.676,109.536 178.426,126.657c62.75,17.122 11.94,81.933 -1.708,199.782c-13.648,117.849 -18.53,150.837 4.823,209.392Z" style="fill:#87af35;stroke:#000;stroke-width:6.25px;"/></g><g id="Pflanze-vorne-links10" serif:id="Pflanze-vorne-links"><path d="M11524.8,19809.4c-0,0 64.54,40.677 112.2,-90.319c47.66,-130.997 15.27,-3.297 102.535,-41.559c87.266,-38.263 -7.012,-24.497 -0.55,-98.707c6.463,-74.211 14.392,-91.062 64.968,-73.424c50.576,17.637 135.743,-89.886 24.213,-159.322c-111.53,-69.435 -133.181,39.45 -138.213,87.533c-5.031,48.083 46.492,101.909 0,105.616c-46.491,3.707 -100.837,-11.369 -116.053,53.017c-15.217,64.385 69.474,94.982 -0,126.846c-69.474,31.863 -134.626,-33.95 -92.151,90.319l43.051,0Z" style="fill:#87af35;stroke:#000;stroke-width:6.25px;"/><path d="M11517.7,19719.1c-0,-0 14.536,-195.92 107.606,-220.086c93.07,-24.165 20.843,-70.327 29.533,-148.541c8.691,-78.214 69.665,-71.214 81.124,-116.042c11.458,-44.828 -90.694,-94.499 -80.79,-181.534c0,-0 -11.258,-115.428 19.308,-225.802c30.567,-110.374 -278.678,-323.245 -307.519,-259.053c-0,-0 -222.496,95.16 46.287,531.999c0,-0 114.065,98.353 118.451,181.864c4.386,83.51 -64.242,306.829 -14,437.195Z" style="fill:#87af35;stroke:#000;stroke-width:6.25px;"/><path d="M11484.7,19696.4c0,0 -115.091,1.294 -137.378,-51.767c-0,0 11.399,-88.577 -15.461,-128.152c-26.86,-39.575 -109.089,24.157 -151.591,-52.493c-42.503,-76.65 26.115,-146.893 -16.485,-181.721c-42.601,-34.829 -177.961,11.513 -241.954,-58.787c-63.993,-70.3 16.31,-127.36 57.941,-119.646c41.631,7.715 147.257,-6.855 185.418,-49.635c38.161,-42.78 147.532,51.52 137.969,106.369c-9.562,54.85 115.676,109.536 178.426,126.658c62.75,17.122 11.94,81.932 -1.708,199.782c-13.648,117.849 -18.53,150.837 4.823,209.392Z" style="fill:#87af35;stroke:#000;stroke-width:6.25px;"/></g><g id="Pflanze-vorne-links11" serif:id="Pflanze-vorne-links"><path d="M11697.9,22070.6c0,0 64.541,40.677 112.201,-90.319c47.66,-130.997 15.27,-3.297 102.535,-41.56c87.265,-38.262 -7.012,-24.496 -0.55,-98.706c6.463,-74.211 14.392,-91.062 64.968,-73.424c50.576,17.637 135.742,-89.886 24.213,-159.322c-111.53,-69.435 -133.181,39.45 -138.213,87.533c-5.031,48.082 46.492,101.909 0,105.616c-46.491,3.707 -100.837,-11.369 -116.054,53.017c-15.216,64.385 69.474,94.982 0,126.846c-69.474,31.863 -134.625,-33.95 -92.15,90.319l43.05,0Z" style="fill:#87af35;stroke:#000;stroke-width:6.25px;"/><path d="M11690.9,21980.2c-0,-0 14.536,-195.92 107.606,-220.086c93.07,-24.166 20.843,-70.327 29.533,-148.541c8.69,-78.214 69.665,-71.214 81.123,-116.042c11.459,-44.828 -90.693,-94.5 -80.789,-181.534c-0,-0 -11.259,-115.428 19.308,-225.802c30.567,-110.374 -278.678,-323.245 -307.52,-259.054c0,0 -222.495,95.16 46.288,532c-0,-0 114.065,98.353 118.451,181.864c4.386,83.51 -64.242,306.829 -14,437.195Z" style="fill:#87af35;stroke:#000;stroke-width:6.25px;"/><path d="M11657.9,21957.5c-0,-0 -115.091,1.294 -137.379,-51.767c0,-0 11.4,-88.577 -15.46,-128.152c-26.86,-39.575 -109.089,24.157 -151.592,-52.493c-42.502,-76.65 26.116,-146.893 -16.484,-181.721c-42.601,-34.829 -177.961,11.513 -241.954,-58.787c-63.994,-70.3 16.309,-127.36 57.94,-119.646c41.632,7.714 147.258,-6.855 185.419,-49.636c38.161,-42.78 147.531,51.521 137.969,106.37c-9.562,54.85 115.676,109.536 178.426,126.658c62.75,17.122 11.94,81.932 -1.708,199.782c-13.648,117.849 -18.53,150.837 4.823,209.392Z" style="fill:#87af35;stroke:#000;stroke-width:6.25px;"/></g></g><g id="Schild-Beet-5"><path d="M13073.5,17412.9c-0,-15.807 -12.834,-28.641 -28.642,-28.641l-3156.24,0c-15.808,0 -28.641,12.834 -28.641,28.641l-0,1374.78c-0,15.808 12.833,28.641 28.641,28.641l3156.24,0c15.808,0 28.642,-12.833 28.642,-28.641l-0,-1374.78Z" style="fill:#f1dcaa;"/><g transform="matrix(937.5,0,0,937.5,12824.9,18372.5)"></g><text x="10051.8px" y="18372.5px" style="font-family:'Ubuntu', sans-serif;font-size:937.5px;fill:#ba2d0b;">Beet 5</text></g></g><g id="Beet4"><rect x="16189.5" y="13486.6" width="4429.13" height="9227.36" style="fill:#8b6818;"/><g id="Pflanzen10"><g id="Pflanze-hinten-links21" serif:id="Pflanze-hinten-links"><path d="M18345.5,13830.7c-0,0 213.128,295.677 -19.774,761.965c-0,-0 -137.985,-433.155 19.774,-761.965Z" style="fill:#87af35;stroke:#000;stroke-width:3.13px;"/><path d="M17991.7,14153.4c0,-0 435.335,-139.687 406.997,506.296c0,0 -22.49,33.994 -76.836,-10.242c-0,0 -62.754,-401.794 -330.161,-496.054Z" style="fill:#87af35;stroke:#000;stroke-width:3.13px;"/><path d="M18707.9,14156.7c-0,-0 -367.778,-71.067 -334.855,507.916c-0,-0 15.143,25.221 34.711,-31.319c0,-0 138.826,-449.455 300.144,-476.597Z" style="fill:#87af35;stroke:#000;stroke-width:3.12px;"/></g><g id="Pflanze-hinten-links22" serif:id="Pflanze-hinten-links"><path d="M18345.5,16366.6c-0,-0 213.128,295.676 -19.774,761.964c-0,0 -137.985,-433.155 19.774,-761.964Z" style="fill:#87af35;stroke:#000;stroke-width:3.13px;"/><path d="M17991.7,16689.3c0,-0 435.335,-139.687 406.997,506.297c0,-0 -22.49,33.993 -76.836,-10.242c-0,-0 -62.754,-401.795 -330.161,-496.055Z" style="fill:#87af35;stroke:#000;stroke-width:3.13px;"/><path d="M18707.9,16692.5c-0,-0 -367.778,-71.067 -334.855,507.916c-0,-0 15.143,25.222 34.711,-31.319c0,-0 138.826,-449.455 300.144,-476.597Z" style="fill:#87af35;stroke:#000;stroke-width:3.12px;"/></g><g id="Pflanze-hinten-links23" serif:id="Pflanze-hinten-links"><path d="M18345.5,18902.4c-0,-0 213.128,295.677 -19.774,761.964c-0,0 -137.985,-433.155 19.774,-761.964Z" style="fill:#87af35;stroke:#000;stroke-width:3.13px;"/><path d="M17991.7,19225.1c0,0 435.335,-139.687 406.997,506.297c0,-0 -22.49,33.994 -76.836,-10.242c-0,-0 -62.754,-401.795 -330.161,-496.055Z" style="fill:#87af35;stroke:#000;stroke-width:3.13px;"/><path d="M18707.9,19228.4c-0,0 -367.778,-71.067 -334.855,507.916c-0,0 15.143,25.222 34.711,-31.319c0,-0 138.826,-449.455 300.144,-476.597Z" style="fill:#87af35;stroke:#000;stroke-width:3.12px;"/></g><g id="Pflanze-hinten-links24" serif:id="Pflanze-hinten-links"><path d="M18345.5,15098.6c-0,-0 213.128,295.677 -19.774,761.964c-0,0 -137.985,-433.154 19.774,-761.964Z" style="fill:#87af35;stroke:#000;stroke-width:3.13px;"/><path d="M17991.7,15421.3c0,0 435.335,-139.686 406.997,506.297c0,0 -22.49,33.994 -76.836,-10.242c-0,0 -62.754,-401.795 -330.161,-496.055Z" style="fill:#87af35;stroke:#000;stroke-width:3.13px;"/><path d="M18707.9,15424.6c-0,0 -367.778,-71.066 -334.855,507.916c-0,0 15.143,25.222 34.711,-31.319c0,0 138.826,-449.454 300.144,-476.597Z" style="fill:#87af35;stroke:#000;stroke-width:3.12px;"/></g><g id="Pflanze-hinten-links25" serif:id="Pflanze-hinten-links"><path d="M18345.5,17634.5c-0,0 213.128,295.677 -19.774,761.965c-0,-0 -137.985,-433.155 19.774,-761.965Z" style="fill:#87af35;stroke:#000;stroke-width:3.13px;"/><path d="M17991.7,17957.2c0,-0 435.335,-139.687 406.997,506.296c0,0 -22.49,33.994 -76.836,-10.242c-0,0 -62.754,-401.794 -330.161,-496.054Z" style="fill:#87af35;stroke:#000;stroke-width:3.13px;"/><path d="M18707.9,17960.5c-0,-0 -367.778,-71.067 -334.855,507.916c-0,-0 15.143,25.221 34.711,-31.32c0,0 138.826,-449.454 300.144,-476.596Z" style="fill:#87af35;stroke:#000;stroke-width:3.12px;"/></g><g id="Pflanze-hinten-links26" serif:id="Pflanze-hinten-links"><path d="M18345.5,20170.4c-0,0 213.128,295.677 -19.774,761.965c-0,-0 -137.985,-433.155 19.774,-761.965Z" style="fill:#87af35;stroke:#000;stroke-width:3.13px;"/><path d="M17991.7,20493c0,-0 435.335,-139.687 406.997,506.296c0,0 -22.49,33.994 -76.836,-10.241c-0,-0 -62.754,-401.795 -330.161,-496.055Z" style="fill:#87af35;stroke:#000;stroke-width:3.13px;"/><path d="M18707.9,20496.3c-0,-0 -367.778,-71.067 -334.855,507.916c-0,-0 15.143,25.222 34.711,-31.319c0,-0 138.826,-449.455 300.144,-476.597Z" style="fill:#87af35;stroke:#000;stroke-width:3.12px;"/></g><g id="Pflanze-hinten-links27" serif:id="Pflanze-hinten-links"><path d="M18345.5,21438.3c-0,-0 213.128,295.677 -19.774,761.964c-0,0 -137.985,-433.154 19.774,-761.964Z" style="fill:#87af35;stroke:#000;stroke-width:3.13px;"/><path d="M17991.7,21761c0,0 435.335,-139.686 406.997,506.297c0,0 -22.49,33.994 -76.836,-10.242c-0,0 -62.754,-401.795 -330.161,-496.055Z" style="fill:#87af35;stroke:#000;stroke-width:3.13px;"/><path d="M18707.9,21764.3c-0,0 -367.778,-71.066 -334.855,507.916c-0,0 15.143,25.222 34.711,-31.319c0,0 138.826,-449.454 300.144,-476.597Z" style="fill:#87af35;stroke:#000;stroke-width:3.12px;"/></g></g><g id="Pflanzen9"><g id="Pflanze-hinten-links28" serif:id="Pflanze-hinten-links"><path d="M19683.6,13830.7c0,0 213.128,295.677 -19.773,761.965c-0,-0 -137.985,-433.155 19.773,-761.965Z" style="fill:#87af35;stroke:#000;stroke-width:3.13px;"/><path d="M19329.8,14153.4c-0,-0 435.334,-139.687 406.997,506.296c0,0 -22.49,33.994 -76.836,-10.242c-0,0 -62.754,-401.794 -330.161,-496.054Z" style="fill:#87af35;stroke:#000;stroke-width:3.13px;"/><path d="M20046,14156.7c0,-0 -367.778,-71.067 -334.855,507.916c0,-0 15.144,25.221 34.712,-31.319c-0,-0 138.825,-449.455 300.143,-476.597Z" style="fill:#87af35;stroke:#000;stroke-width:3.12px;"/></g><g id="Pflanze-hinten-links29" serif:id="Pflanze-hinten-links"><path d="M19683.6,16366.6c0,-0 213.128,295.676 -19.773,761.964c-0,0 -137.985,-433.155 19.773,-761.964Z" style="fill:#87af35;stroke:#000;stroke-width:3.13px;"/><path d="M19329.8,16689.3c-0,-0 435.334,-139.687 406.997,506.297c0,-0 -22.49,33.993 -76.836,-10.242c-0,-0 -62.754,-401.795 -330.161,-496.055Z" style="fill:#87af35;stroke:#000;stroke-width:3.13px;"/><path d="M20046,16692.5c0,-0 -367.778,-71.067 -334.855,507.916c0,-0 15.144,25.222 34.712,-31.319c-0,-0 138.825,-449.455 300.143,-476.597Z" style="fill:#87af35;stroke:#000;stroke-width:3.12px;"/></g><g id="Pflanze-hinten-links30" serif:id="Pflanze-hinten-links"><path d="M19683.6,18902.4c0,-0 213.128,295.677 -19.773,761.964c-0,0 -137.985,-433.155 19.773,-761.964Z" style="fill:#87af35;stroke:#000;stroke-width:3.13px;"/><path d="M19329.8,19225.1c-0,0 435.334,-139.687 406.997,506.297c0,-0 -22.49,33.994 -76.836,-10.242c-0,-0 -62.754,-401.795 -330.161,-496.055Z" style="fill:#87af35;stroke:#000;stroke-width:3.13px;"/><path d="M20046,19228.4c0,0 -367.778,-71.067 -334.855,507.916c0,0 15.144,25.222 34.712,-31.319c-0,-0 138.825,-449.455 300.143,-476.597Z" style="fill:#87af35;stroke:#000;stroke-width:3.12px;"/></g><g id="Pflanze-hinten-links31" serif:id="Pflanze-hinten-links"><path d="M19683.6,15098.6c0,-0 213.128,295.677 -19.773,761.964c-0,0 -137.985,-433.154 19.773,-761.964Z" style="fill:#87af35;stroke:#000;stroke-width:3.13px;"/><path d="M19329.8,15421.3c-0,0 435.334,-139.686 406.997,506.297c0,0 -22.49,33.994 -76.836,-10.242c-0,0 -62.754,-401.795 -330.161,-496.055Z" style="fill:#87af35;stroke:#000;stroke-width:3.13px;"/><path d="M20046,15424.6c0,0 -367.778,-71.066 -334.855,507.916c0,0 15.144,25.222 34.712,-31.319c-0,0 138.825,-449.454 300.143,-476.597Z" style="fill:#87af35;stroke:#000;stroke-width:3.12px;"/></g><g id="Pflanze-hinten-links32" serif:id="Pflanze-hinten-links"><path d="M19683.6,17634.5c0,0 213.128,295.677 -19.773,761.965c-0,-0 -137.985,-433.155 19.773,-761.965Z" style="fill:#87af35;stroke:#000;stroke-width:3.13px;"/><path d="M19329.8,17957.2c-0,-0 435.334,-139.687 406.997,506.296c0,0 -22.49,33.994 -76.836,-10.242c-0,0 -62.754,-401.794 -330.161,-496.054Z" style="fill:#87af35;stroke:#000;stroke-width:3.13px;"/><path d="M20046,17960.5c0,-0 -367.778,-71.067 -334.855,507.916c0,-0 15.144,25.221 34.712,-31.32c-0,0 138.825,-449.454 300.143,-476.596Z" style="fill:#87af35;stroke:#000;stroke-width:3.12px;"/></g><g id="Pflanze-hinten-links33" serif:id="Pflanze-hinten-links"><path d="M19683.6,20170.4c0,0 213.128,295.677 -19.773,761.965c-0,-0 -137.985,-433.155 19.773,-761.965Z" style="fill:#87af35;stroke:#000;stroke-width:3.13px;"/><path d="M19329.8,20493c-0,-0 435.334,-139.687 406.997,506.296c0,0 -22.49,33.994 -76.836,-10.241c-0,-0 -62.754,-401.795 -330.161,-496.055Z" style="fill:#87af35;stroke:#000;stroke-width:3.13px;"/><path d="M20046,20496.3c0,-0 -367.778,-71.067 -334.855,507.916c0,-0 15.144,25.222 34.712,-31.319c-0,-0 138.825,-449.455 300.143,-476.597Z" style="fill:#87af35;stroke:#000;stroke-width:3.12px;"/></g><g id="Pflanze-hinten-links34" serif:id="Pflanze-hinten-links"><path d="M19683.6,21438.3c0,-0 213.128,295.677 -19.773,761.964c-0,0 -137.985,-433.154 19.773,-761.964Z" style="fill:#87af35;stroke:#000;stroke-width:3.13px;"/><path d="M19329.8,21761c-0,0 435.334,-139.686 406.997,506.297c0,0 -22.49,33.994 -76.836,-10.242c-0,0 -62.754,-401.795 -330.161,-496.055Z" style="fill:#87af35;stroke:#000;stroke-width:3.13px;"/><path d="M20046,21764.3c0,0 -367.778,-71.066 -334.855,507.916c0,0 15.144,25.222 34.712,-31.319c-0,0 138.825,-449.454 300.143,-476.597Z" style="fill:#87af35;stroke:#000;stroke-width:3.12px;"/></g></g><g id="Pflanzen11"><g id="Pflanze-vorne-links12" serif:id="Pflanze-vorne-links"><path d="M17122.5,15287.1c0,-0 64.541,40.676 112.201,-90.32c47.66,-130.997 15.27,-3.296 102.535,-41.559c87.265,-38.263 -7.012,-24.496 -0.55,-98.707c6.462,-74.21 14.392,-91.061 64.968,-73.424c50.576,17.638 135.742,-89.886 24.213,-159.321c-111.53,-69.436 -133.182,39.45 -138.213,87.532c-5.031,48.083 46.491,101.909 -0,105.616c-46.491,3.707 -100.838,-11.369 -116.054,53.017c-15.216,64.385 69.474,94.982 0,126.846c-69.474,31.864 -134.625,-33.95 -92.151,90.32l43.051,-0Z" style="fill:#87af35;stroke:#000;stroke-width:6.25px;"/><path d="M17115.5,15196.8c0,-0 14.537,-195.92 107.607,-220.086c93.07,-24.165 20.843,-70.326 29.533,-148.54c8.69,-78.214 69.665,-71.214 81.123,-116.043c11.458,-44.828 -90.694,-94.499 -80.789,-181.534c-0,0 -11.259,-115.428 19.308,-225.802c30.566,-110.373 -278.678,-323.245 -307.52,-259.053c0,-0 -222.496,95.16 46.288,531.999c-0,0 114.065,98.353 118.451,181.864c4.386,83.51 -64.242,306.829 -14.001,437.195Z" style="fill:#87af35;stroke:#000;stroke-width:6.25px;"/><path d="M17082.5,15174.1c-0,0 -115.092,1.294 -137.379,-51.767c0,0 11.4,-88.577 -15.46,-128.152c-26.86,-39.575 -109.089,24.157 -151.592,-52.493c-42.503,-76.65 26.116,-146.893 -16.485,-181.721c-42.6,-34.829 -177.96,11.513 -241.953,-58.787c-63.994,-70.3 16.309,-127.36 57.94,-119.645c41.631,7.714 147.258,-6.856 185.419,-49.636c38.161,-42.78 147.531,51.52 137.969,106.37c-9.562,54.849 115.675,109.536 178.426,126.657c62.75,17.122 11.94,81.933 -1.708,199.782c-13.648,117.85 -18.53,150.837 4.823,209.392Z" style="fill:#87af35;stroke:#000;stroke-width:6.25px;"/></g><g id="Pflanze-vorne-links13" serif:id="Pflanze-vorne-links"><path d="M17122.5,17548.3c0,0 64.541,40.677 112.201,-90.319c47.66,-130.997 15.27,-3.297 102.535,-41.559c87.265,-38.263 -7.012,-24.497 -0.55,-98.707c6.462,-74.211 14.392,-91.062 64.968,-73.424c50.576,17.637 135.742,-89.886 24.213,-159.321c-111.53,-69.436 -133.182,39.449 -138.213,87.532c-5.031,48.083 46.491,101.909 -0,105.616c-46.491,3.707 -100.838,-11.369 -116.054,53.017c-15.216,64.385 69.474,94.982 0,126.846c-69.474,31.864 -134.625,-33.95 -92.151,90.319l43.051,0Z" style="fill:#87af35;stroke:#000;stroke-width:6.25px;"/><path d="M17115.5,17458c0,-0 14.537,-195.92 107.607,-220.086c93.07,-24.165 20.843,-70.326 29.533,-148.54c8.69,-78.214 69.665,-71.215 81.123,-116.043c11.458,-44.828 -90.694,-94.499 -80.789,-181.534c-0,0 -11.259,-115.428 19.308,-225.802c30.566,-110.373 -278.678,-323.245 -307.52,-259.053c0,-0 -222.496,95.16 46.288,531.999c-0,0 114.065,98.353 118.451,181.864c4.386,83.51 -64.242,306.829 -14.001,437.195Z" style="fill:#87af35;stroke:#000;stroke-width:6.25px;"/><path d="M17082.5,17435.2c-0,0 -115.092,1.294 -137.379,-51.767c0,0 11.4,-88.577 -15.46,-128.152c-26.86,-39.575 -109.089,24.157 -151.592,-52.493c-42.503,-76.65 26.116,-146.893 -16.485,-181.721c-42.6,-34.829 -177.96,11.513 -241.953,-58.787c-63.994,-70.3 16.309,-127.36 57.94,-119.646c41.631,7.715 147.258,-6.855 185.419,-49.635c38.161,-42.78 147.531,51.52 137.969,106.37c-9.562,54.849 115.675,109.536 178.426,126.657c62.75,17.122 11.94,81.933 -1.708,199.782c-13.648,117.849 -18.53,150.837 4.823,209.392Z" style="fill:#87af35;stroke:#000;stroke-width:6.25px;"/></g><g id="Pflanze-vorne-links14" serif:id="Pflanze-vorne-links"><path d="M17122.5,19809.4c0,0 64.541,40.677 112.201,-90.319c47.66,-130.997 15.27,-3.297 102.535,-41.559c87.265,-38.263 -7.012,-24.497 -0.55,-98.707c6.462,-74.211 14.392,-91.062 64.968,-73.424c50.576,17.637 135.742,-89.886 24.213,-159.322c-111.53,-69.435 -133.182,39.45 -138.213,87.533c-5.031,48.083 46.491,101.909 -0,105.616c-46.491,3.707 -100.838,-11.369 -116.054,53.017c-15.216,64.385 69.474,94.982 0,126.846c-69.474,31.863 -134.625,-33.95 -92.151,90.319l43.051,0Z" style="fill:#87af35;stroke:#000;stroke-width:6.25px;"/><path d="M17115.5,19719.1c0,-0 14.537,-195.92 107.607,-220.086c93.07,-24.165 20.843,-70.327 29.533,-148.541c8.69,-78.214 69.665,-71.214 81.123,-116.042c11.458,-44.828 -90.694,-94.499 -80.789,-181.534c-0,-0 -11.259,-115.428 19.308,-225.802c30.566,-110.374 -278.678,-323.245 -307.52,-259.053c0,-0 -222.496,95.16 46.288,531.999c-0,-0 114.065,98.353 118.451,181.864c4.386,83.51 -64.242,306.829 -14.001,437.195Z" style="fill:#87af35;stroke:#000;stroke-width:6.25px;"/><path d="M17082.5,19696.4c-0,0 -115.092,1.294 -137.379,-51.767c0,0 11.4,-88.577 -15.46,-128.152c-26.86,-39.575 -109.089,24.157 -151.592,-52.493c-42.503,-76.65 26.116,-146.893 -16.485,-181.721c-42.6,-34.829 -177.96,11.513 -241.953,-58.787c-63.994,-70.3 16.309,-127.36 57.94,-119.646c41.631,7.715 147.258,-6.855 185.419,-49.635c38.161,-42.78 147.531,51.52 137.969,106.369c-9.562,54.85 115.675,109.536 178.426,126.658c62.75,17.122 11.94,81.932 -1.708,199.782c-13.648,117.849 -18.53,150.837 4.823,209.392Z" style="fill:#87af35;stroke:#000;stroke-width:6.25px;"/></g><g id="Pflanze-vorne-links15" serif:id="Pflanze-vorne-links"><path d="M17295.7,22070.6c0,0 64.541,40.677 112.201,-90.319c47.659,-130.997 15.27,-3.297 102.535,-41.56c87.265,-38.262 -7.012,-24.496 -0.55,-98.706c6.462,-74.211 14.392,-91.062 64.968,-73.424c50.576,17.637 135.742,-89.886 24.212,-159.322c-111.529,-69.435 -133.181,39.45 -138.212,87.533c-5.032,48.082 46.491,101.909 -0,105.616c-46.492,3.707 -100.838,-11.369 -116.054,53.017c-15.216,64.385 69.474,94.982 0,126.846c-69.474,31.863 -134.625,-33.95 -92.151,90.319l43.051,0Z" style="fill:#87af35;stroke:#000;stroke-width:6.25px;"/><path d="M17288.6,21980.2c0,-0 14.537,-195.92 107.607,-220.086c93.07,-24.166 20.843,-70.327 29.533,-148.541c8.69,-78.214 69.665,-71.214 81.123,-116.042c11.458,-44.828 -90.694,-94.5 -80.789,-181.534c-0,-0 -11.259,-115.428 19.308,-225.802c30.566,-110.374 -278.678,-323.245 -307.52,-259.054c-0,0 -222.496,95.16 46.287,532c0,-0 114.066,98.353 118.452,181.864c4.386,83.51 -64.242,306.829 -14.001,437.195Z" style="fill:#87af35;stroke:#000;stroke-width:6.25px;"/><path d="M17255.6,21957.5c-0,-0 -115.092,1.294 -137.379,-51.767c-0,-0 11.4,-88.577 -15.46,-128.152c-26.86,-39.575 -109.089,24.157 -151.592,-52.493c-42.503,-76.65 26.116,-146.893 -16.485,-181.721c-42.6,-34.829 -177.96,11.513 -241.954,-58.787c-63.993,-70.3 16.31,-127.36 57.941,-119.646c41.631,7.714 147.257,-6.855 185.418,-49.636c38.161,-42.78 147.532,51.521 137.97,106.37c-9.562,54.85 115.675,109.536 178.425,126.658c62.75,17.122 11.941,81.932 -1.707,199.782c-13.649,117.849 -18.53,150.837 4.823,209.392Z" style="fill:#87af35;stroke:#000;stroke-width:6.25px;"/></g></g><g id="Schild-Beet-4"><path d="M20146.2,17412.9c0,-15.807 -12.833,-28.641 -28.641,-28.641l-3156.24,0c-15.808,0 -28.642,12.834 -28.642,28.641l0,1374.78c0,15.808 12.834,28.641 28.642,28.641l3156.24,0c15.808,0 28.641,-12.833 28.641,-28.641l0,-1374.78Z" style="fill:#f1dcaa;"/><g transform="matrix(937.5,0,0,937.5,19897.6,18372.5)"></g><text x="17124.5px" y="18372.5px" style="font-family:'Ubuntu', sans-serif;font-size:937.5px;fill:#ba2d0b;">Beet 4</text></g></g><g id="Beet3"><rect x="16189.5" y="2146.55" width="4429.13" height="9227.36" style="fill:#8b6818;"/><g id="Pflanzen8"><g id="Pflanze-hinten-links35" serif:id="Pflanze-hinten-links"><path d="M19942.3,2568.39c0,0 213.128,295.677 -19.774,761.965c0,-0 -137.984,-433.155 19.774,-761.965Z" style="fill:#87af35;stroke:#000;stroke-width:3.13px;"/><path d="M19588.5,2891.08c-0,-0 435.334,-139.687 406.997,506.296c-0,0 -22.49,33.994 -76.837,-10.242c0,0 -62.753,-401.794 -330.16,-496.054Z" style="fill:#87af35;stroke:#000;stroke-width:3.13px;"/><path d="M20304.7,2894.37c0,0 -367.778,-71.066 -334.855,507.916c0,0 15.143,25.222 34.711,-31.319c0,0 138.826,-449.454 300.144,-476.597Z" style="fill:#87af35;stroke:#000;stroke-width:3.12px;"/></g><g id="Pflanze-hinten-links36" serif:id="Pflanze-hinten-links"><path d="M19942.3,5104.25c0,0 213.128,295.677 -19.774,761.965c0,-0 -137.984,-433.155 19.774,-761.965Z" style="fill:#87af35;stroke:#000;stroke-width:3.13px;"/><path d="M19588.5,5426.94c-0,-0 435.334,-139.687 406.997,506.296c-0,0 -22.49,33.994 -76.837,-10.241c0,-0 -62.753,-401.795 -330.16,-496.055Z" style="fill:#87af35;stroke:#000;stroke-width:3.13px;"/><path d="M20304.7,5430.24c0,-0 -367.778,-71.067 -334.855,507.916c0,-0 15.143,25.221 34.711,-31.319c0,-0 138.826,-449.455 300.144,-476.597Z" style="fill:#87af35;stroke:#000;stroke-width:3.12px;"/></g><g id="Pflanze-hinten-links37" serif:id="Pflanze-hinten-links"><path d="M19942.3,7640.11c0,-0 213.128,295.676 -19.774,761.964c0,0 -137.984,-433.155 19.774,-761.964Z" style="fill:#87af35;stroke:#000;stroke-width:3.13px;"/><path d="M19588.5,7962.81c-0,-0 435.334,-139.687 406.997,506.297c-0,-0 -22.49,33.993 -76.837,-10.242c0,-0 -62.753,-401.795 -330.16,-496.055Z" style="fill:#87af35;stroke:#000;stroke-width:3.13px;"/><path d="M20304.7,7966.1c0,-0 -367.778,-71.067 -334.855,507.916c0,-0 15.143,25.222 34.711,-31.319c0,-0 138.826,-449.455 300.144,-476.597Z" style="fill:#87af35;stroke:#000;stroke-width:3.12px;"/></g><g id="Pflanze-hinten-links38" serif:id="Pflanze-hinten-links"><path d="M19942.3,3836.32c0,-0 213.128,295.676 -19.774,761.964c0,0 -137.984,-433.155 19.774,-761.964Z" style="fill:#87af35;stroke:#000;stroke-width:3.13px;"/><path d="M19588.5,4159.01c-0,0 435.334,-139.687 406.997,506.297c-0,-0 -22.49,33.994 -76.837,-10.242c0,-0 -62.753,-401.795 -330.16,-496.055Z" style="fill:#87af35;stroke:#000;stroke-width:3.13px;"/><path d="M20304.7,4162.3c0,0 -367.778,-71.067 -334.855,507.916c0,0 15.143,25.222 34.711,-31.319c0,-0 138.826,-449.455 300.144,-476.597Z" style="fill:#87af35;stroke:#000;stroke-width:3.12px;"/></g><g id="Pflanze-hinten-links39" serif:id="Pflanze-hinten-links"><path d="M19942.3,6372.18c0,-0 213.128,295.677 -19.774,761.964c0,0 -137.984,-433.154 19.774,-761.964Z" style="fill:#87af35;stroke:#000;stroke-width:3.13px;"/><path d="M19588.5,6694.87c-0,0 435.334,-139.686 406.997,506.297c-0,0 -22.49,33.994 -76.837,-10.242c0,0 -62.753,-401.795 -330.16,-496.055Z" style="fill:#87af35;stroke:#000;stroke-width:3.13px;"/><path d="M20304.7,6698.17c0,0 -367.778,-71.066 -334.855,507.916c0,0 15.143,25.222 34.711,-31.319c0,0 138.826,-449.454 300.144,-476.597Z" style="fill:#87af35;stroke:#000;stroke-width:3.12px;"/></g><g id="Pflanze-hinten-links40" serif:id="Pflanze-hinten-links"><path d="M19942.3,8908.05c0,0 213.128,295.677 -19.774,761.965c0,-0 -137.984,-433.155 19.774,-761.965Z" style="fill:#87af35;stroke:#000;stroke-width:3.13px;"/><path d="M19588.5,9230.74c-0,-0 435.334,-139.687 406.997,506.296c-0,0 -22.49,33.994 -76.837,-10.242c0,0 -62.753,-401.794 -330.16,-496.054Z" style="fill:#87af35;stroke:#000;stroke-width:3.13px;"/><path d="M20304.7,9234.03c0,-0 -367.778,-71.067 -334.855,507.916c0,-0 15.143,25.221 34.711,-31.32c0,0 138.826,-449.454 300.144,-476.596Z" style="fill:#87af35;stroke:#000;stroke-width:3.12px;"/></g><g id="Pflanze-hinten-links41" serif:id="Pflanze-hinten-links"><path d="M19942.3,10176c0,-0 213.128,295.677 -19.774,761.964c0,0 -137.984,-433.155 19.774,-761.964Z" style="fill:#87af35;stroke:#000;stroke-width:3.13px;"/><path d="M19588.5,10498.7c-0,0 435.334,-139.687 406.997,506.297c-0,-0 -22.49,33.994 -76.837,-10.242c0,-0 -62.753,-401.795 -330.16,-496.055Z" style="fill:#87af35;stroke:#000;stroke-width:3.13px;"/><path d="M20304.7,10502c0,0 -367.778,-71.067 -334.855,507.916c0,0 15.143,25.222 34.711,-31.319c0,-0 138.826,-449.455 300.144,-476.597Z" style="fill:#87af35;stroke:#000;stroke-width:3.12px;"/></g></g><g id="Pflanzen7"><g id="Pflanze-hinten-links42" serif:id="Pflanze-hinten-links"><path d="M18399.7,2535.7c-0,-0 213.127,295.677 -19.774,761.964c-0,0 -137.985,-433.154 19.774,-761.964Z" style="fill:#87af35;stroke:#000;stroke-width:3.13px;"/><path d="M18045.9,2858.39c0,0 435.335,-139.686 406.997,506.297c0,0 -22.49,33.994 -76.836,-10.242c-0,0 -62.754,-401.795 -330.161,-496.055Z" style="fill:#87af35;stroke:#000;stroke-width:3.13px;"/><path d="M18762.2,2861.69c-0,0 -367.778,-71.066 -334.855,507.916c-0,0 15.143,25.222 34.711,-31.319c-0,0 138.826,-449.454 300.144,-476.597Z" style="fill:#87af35;stroke:#000;stroke-width:3.12px;"/></g><g id="Pflanze-hinten-links43" serif:id="Pflanze-hinten-links"><path d="M18399.7,5071.57c-0,0 213.127,295.677 -19.774,761.965c-0,-0 -137.985,-433.155 19.774,-761.965Z" style="fill:#87af35;stroke:#000;stroke-width:3.13px;"/><path d="M18045.9,5394.26c0,-0 435.335,-139.687 406.997,506.296c0,0 -22.49,33.994 -76.836,-10.242c-0,0 -62.754,-401.794 -330.161,-496.054Z" style="fill:#87af35;stroke:#000;stroke-width:3.13px;"/><path d="M18762.2,5397.55c-0,-0 -367.778,-71.067 -334.855,507.916c-0,-0 15.143,25.221 34.711,-31.32c-0,0 138.826,-449.454 300.144,-476.596Z" style="fill:#87af35;stroke:#000;stroke-width:3.12px;"/></g><g id="Pflanze-hinten-links44" serif:id="Pflanze-hinten-links"><path d="M18399.7,7607.43c-0,0 213.127,295.677 -19.774,761.965c-0,-0 -137.985,-433.155 19.774,-761.965Z" style="fill:#87af35;stroke:#000;stroke-width:3.13px;"/><path d="M18045.9,7930.12c0,-0 435.335,-139.687 406.997,506.296c0,0 -22.49,33.994 -76.836,-10.241c-0,-0 -62.754,-401.795 -330.161,-496.055Z" style="fill:#87af35;stroke:#000;stroke-width:3.13px;"/><path d="M18762.2,7933.41c-0,-0 -367.778,-71.067 -334.855,507.916c-0,-0 15.143,25.222 34.711,-31.319c-0,-0 138.826,-449.455 300.144,-476.597Z" style="fill:#87af35;stroke:#000;stroke-width:3.12px;"/></g><g id="Pflanze-hinten-links45" serif:id="Pflanze-hinten-links"><path d="M18399.7,3803.64c-0,-0 213.127,295.676 -19.774,761.964c-0,0 -137.985,-433.155 19.774,-761.964Z" style="fill:#87af35;stroke:#000;stroke-width:3.13px;"/><path d="M18045.9,4126.32c0,-0 435.335,-139.687 406.997,506.297c0,-0 -22.49,33.993 -76.836,-10.242c-0,-0 -62.754,-401.795 -330.161,-496.055Z" style="fill:#87af35;stroke:#000;stroke-width:3.13px;"/><path d="M18762.2,4129.62c-0,-0 -367.778,-71.067 -334.855,507.916c-0,-0 15.143,25.222 34.711,-31.319c-0,-0 138.826,-449.455 300.144,-476.597Z" style="fill:#87af35;stroke:#000;stroke-width:3.12px;"/></g><g id="Pflanze-hinten-links46" serif:id="Pflanze-hinten-links"><path d="M18399.7,6339.5c-0,-0 213.127,295.677 -19.774,761.964c-0,0 -137.985,-433.155 19.774,-761.964Z" style="fill:#87af35;stroke:#000;stroke-width:3.13px;"/><path d="M18045.9,6662.19c0,0 435.335,-139.687 406.997,506.297c0,-0 -22.49,33.994 -76.836,-10.242c-0,-0 -62.754,-401.795 -330.161,-496.055Z" style="fill:#87af35;stroke:#000;stroke-width:3.13px;"/><path d="M18762.2,6665.48c-0,0 -367.778,-71.067 -334.855,507.916c-0,0 15.143,25.222 34.711,-31.319c-0,-0 138.826,-449.455 300.144,-476.597Z" style="fill:#87af35;stroke:#000;stroke-width:3.12px;"/></g><g id="Pflanze-hinten-links47" serif:id="Pflanze-hinten-links"><path d="M18399.7,8875.36c-0,0 213.127,295.677 -19.774,761.964c-0,0 -137.985,-433.154 19.774,-761.964Z" style="fill:#87af35;stroke:#000;stroke-width:3.13px;"/><path d="M18045.9,9198.05c0,0 435.335,-139.686 406.997,506.297c0,0 -22.49,33.994 -76.836,-10.242c-0,0 -62.754,-401.795 -330.161,-496.055Z" style="fill:#87af35;stroke:#000;stroke-width:3.13px;"/><path d="M18762.2,9201.34c-0,0 -367.778,-71.066 -334.855,507.916c-0,0 15.143,25.222 34.711,-31.319c-0,0 138.826,-449.454 300.144,-476.597Z" style="fill:#87af35;stroke:#000;stroke-width:3.12px;"/></g><g id="Pflanze-hinten-links48" serif:id="Pflanze-hinten-links"><path d="M18399.7,10143.3c-0,-0 213.127,295.676 -19.774,761.964c-0,0 -137.985,-433.155 19.774,-761.964Z" style="fill:#87af35;stroke:#000;stroke-width:3.13px;"/><path d="M18045.9,10466c0,0 435.335,-139.687 406.997,506.297c0,-0 -22.49,33.994 -76.836,-10.242c-0,-0 -62.754,-401.795 -330.161,-496.055Z" style="fill:#87af35;stroke:#000;stroke-width:3.13px;"/><path d="M18762.2,10469.3c-0,-0 -367.778,-71.067 -334.855,507.916c-0,-0 15.143,25.222 34.711,-31.319c-0,-0 138.826,-449.455 300.144,-476.597Z" style="fill:#87af35;stroke:#000;stroke-width:3.12px;"/></g></g><g id="Pflanzen6"><g id="Pflanze-hinten-links49" serif:id="Pflanze-hinten-links"><path d="M17131.1,2535.7c-0,-0 213.128,295.677 -19.774,761.964c0,0 -137.985,-433.154 19.774,-761.964Z" style="fill:#87af35;stroke:#000;stroke-width:3.13px;"/><path d="M16777.3,2858.39c0,0 435.335,-139.686 406.997,506.297c0,0 -22.49,33.994 -76.836,-10.242c0,0 -62.754,-401.795 -330.161,-496.055Z" style="fill:#87af35;stroke:#000;stroke-width:3.13px;"/><path d="M17493.6,2861.69c-0,0 -367.778,-71.066 -334.855,507.916c-0,0 15.143,25.222 34.711,-31.319c0,0 138.826,-449.454 300.144,-476.597Z" style="fill:#87af35;stroke:#000;stroke-width:3.12px;"/></g><g id="Pflanze-hinten-links50" serif:id="Pflanze-hinten-links"><path d="M17131.1,5071.57c-0,0 213.128,295.677 -19.774,761.965c0,-0 -137.985,-433.155 19.774,-761.965Z" style="fill:#87af35;stroke:#000;stroke-width:3.13px;"/><path d="M16777.3,5394.26c0,-0 435.335,-139.687 406.997,506.296c0,0 -22.49,33.994 -76.836,-10.242c0,0 -62.754,-401.794 -330.161,-496.054Z" style="fill:#87af35;stroke:#000;stroke-width:3.13px;"/><path d="M17493.6,5397.55c-0,-0 -367.778,-71.067 -334.855,507.916c-0,-0 15.143,25.221 34.711,-31.32c0,0 138.826,-449.454 300.144,-476.596Z" style="fill:#87af35;stroke:#000;stroke-width:3.12px;"/></g><g id="Pflanze-hinten-links51" serif:id="Pflanze-hinten-links"><path d="M17131.1,7607.43c-0,0 213.128,295.677 -19.774,761.965c0,-0 -137.985,-433.155 19.774,-761.965Z" style="fill:#87af35;stroke:#000;stroke-width:3.13px;"/><path d="M16777.3,7930.12c0,-0 435.335,-139.687 406.997,506.296c0,0 -22.49,33.994 -76.836,-10.241c0,-0 -62.754,-401.795 -330.161,-496.055Z" style="fill:#87af35;stroke:#000;stroke-width:3.13px;"/><path d="M17493.6,7933.41c-0,-0 -367.778,-71.067 -334.855,507.916c-0,-0 15.143,25.222 34.711,-31.319c0,-0 138.826,-449.455 300.144,-476.597Z" style="fill:#87af35;stroke:#000;stroke-width:3.12px;"/></g><g id="Pflanze-hinten-links52" serif:id="Pflanze-hinten-links"><path d="M17131.1,3803.64c-0,-0 213.128,295.676 -19.774,761.964c0,0 -137.985,-433.155 19.774,-761.964Z" style="fill:#87af35;stroke:#000;stroke-width:3.13px;"/><path d="M16777.3,4126.32c0,-0 435.335,-139.687 406.997,506.297c0,-0 -22.49,33.993 -76.836,-10.242c0,-0 -62.754,-401.795 -330.161,-496.055Z" style="fill:#87af35;stroke:#000;stroke-width:3.13px;"/><path d="M17493.6,4129.62c-0,-0 -367.778,-71.067 -334.855,507.916c-0,-0 15.143,25.222 34.711,-31.319c0,-0 138.826,-449.455 300.144,-476.597Z" style="fill:#87af35;stroke:#000;stroke-width:3.12px;"/></g><g id="Pflanze-hinten-links53" serif:id="Pflanze-hinten-links"><path d="M17131.1,6339.5c-0,-0 213.128,295.677 -19.774,761.964c0,0 -137.985,-433.155 19.774,-761.964Z" style="fill:#87af35;stroke:#000;stroke-width:3.13px;"/><path d="M16777.3,6662.19c0,0 435.335,-139.687 406.997,506.297c0,-0 -22.49,33.994 -76.836,-10.242c0,-0 -62.754,-401.795 -330.161,-496.055Z" style="fill:#87af35;stroke:#000;stroke-width:3.13px;"/><path d="M17493.6,6665.48c-0,0 -367.778,-71.067 -334.855,507.916c-0,0 15.143,25.222 34.711,-31.319c0,-0 138.826,-449.455 300.144,-476.597Z" style="fill:#87af35;stroke:#000;stroke-width:3.12px;"/></g><g id="Pflanze-hinten-links54" serif:id="Pflanze-hinten-links"><path d="M17131.1,8875.36c-0,0 213.128,295.677 -19.774,761.964c0,0 -137.985,-433.154 19.774,-761.964Z" style="fill:#87af35;stroke:#000;stroke-width:3.13px;"/><path d="M16777.3,9198.05c0,0 435.335,-139.686 406.997,506.297c0,0 -22.49,33.994 -76.836,-10.242c0,0 -62.754,-401.795 -330.161,-496.055Z" style="fill:#87af35;stroke:#000;stroke-width:3.13px;"/><path d="M17493.6,9201.34c-0,0 -367.778,-71.066 -334.855,507.916c-0,0 15.143,25.222 34.711,-31.319c0,0 138.826,-449.454 300.144,-476.597Z" style="fill:#87af35;stroke:#000;stroke-width:3.12px;"/></g><g id="Pflanze-hinten-links55" serif:id="Pflanze-hinten-links"><path d="M17131.1,10143.3c-0,-0 213.128,295.676 -19.774,761.964c0,0 -137.985,-433.155 19.774,-761.964Z" style="fill:#87af35;stroke:#000;stroke-width:3.13px;"/><path d="M16777.3,10466c0,0 435.335,-139.687 406.997,506.297c0,-0 -22.49,33.994 -76.836,-10.242c0,-0 -62.754,-401.795 -330.161,-496.055Z" style="fill:#87af35;stroke:#000;stroke-width:3.13px;"/><path d="M17493.6,10469.3c-0,-0 -367.778,-71.067 -334.855,507.916c-0,-0 15.143,25.222 34.711,-31.319c0,-0 138.826,-449.455 300.144,-476.597Z" style="fill:#87af35;stroke:#000;stroke-width:3.12px;"/></g></g><g id="Schild-Beet-3"><path d="M20200.4,6233.48c0,-15.808 -12.833,-28.641 -28.641,-28.641l-3156.24,-0c-15.808,-0 -28.642,12.833 -28.642,28.641l0,1374.78c0,15.807 12.834,28.641 28.642,28.641l3156.24,-0c15.808,-0 28.641,-12.834 28.641,-28.641l0,-1374.78Z" style="fill:#f1dcaa;"/><g transform="matrix(937.5,0,0,937.5,19951.8,7193.1)"></g><text x="17178.7px" y="7193.1px" style="font-family:'Ubuntu', sans-serif;font-size:937.5px;fill:#ba2d0b;">Beet 3</text></g></g><g id="Beet2"><rect x="9252.21" y="2146.55" width="4429.13" height="9227.36" style="fill:#8b6818;"/><g id="Pflanzen3"><g id="Pflanze-hinten-links56" serif:id="Pflanze-hinten-links"><path d="M9984.45,2534.01c-0,0 213.127,295.677 -19.774,761.965c-0,-0 -137.985,-433.155 19.774,-761.965Z" style="fill:#87af35;stroke:#000;stroke-width:3.13px;"/><path d="M9630.65,2856.7c0,-0 435.334,-139.687 406.997,506.296c0,0 -22.49,33.994 -76.836,-10.242c-0,0 -62.754,-401.794 -330.161,-496.054Z" style="fill:#87af35;stroke:#000;stroke-width:3.13px;"/><path d="M10346.9,2860c-0,0 -367.778,-71.066 -334.855,507.916c-0,0 15.143,25.222 34.711,-31.319c-0,0 138.826,-449.454 300.144,-476.597Z" style="fill:#87af35;stroke:#000;stroke-width:3.12px;"/></g><g id="Pflanze-hinten-links57" serif:id="Pflanze-hinten-links"><path d="M9984.45,5069.88c-0,0 213.127,295.677 -19.774,761.965c-0,-0 -137.985,-433.155 19.774,-761.965Z" style="fill:#87af35;stroke:#000;stroke-width:3.13px;"/><path d="M9630.65,5392.57c0,-0 435.334,-139.687 406.997,506.296c0,0 -22.49,33.994 -76.836,-10.241c-0,-0 -62.754,-401.795 -330.161,-496.055Z" style="fill:#87af35;stroke:#000;stroke-width:3.13px;"/><path d="M10346.9,5395.86c-0,-0 -367.778,-71.067 -334.855,507.916c-0,-0 15.143,25.221 34.711,-31.319c-0,-0 138.826,-449.455 300.144,-476.597Z" style="fill:#87af35;stroke:#000;stroke-width:3.12px;"/></g><g id="Pflanze-hinten-links58" serif:id="Pflanze-hinten-links"><path d="M9984.45,7605.74c-0,-0 213.127,295.676 -19.774,761.964c-0,0 -137.985,-433.155 19.774,-761.964Z" style="fill:#87af35;stroke:#000;stroke-width:3.13px;"/><path d="M9630.65,7928.43c0,-0 435.334,-139.687 406.997,506.297c0,-0 -22.49,33.993 -76.836,-10.242c-0,-0 -62.754,-401.795 -330.161,-496.055Z" style="fill:#87af35;stroke:#000;stroke-width:3.13px;"/><path d="M10346.9,7931.72c-0,-0 -367.778,-71.067 -334.855,507.916c-0,-0 15.143,25.222 34.711,-31.319c-0,-0 138.826,-449.455 300.144,-476.597Z" style="fill:#87af35;stroke:#000;stroke-width:3.12px;"/></g><g id="Pflanze-hinten-links59" serif:id="Pflanze-hinten-links"><path d="M9984.45,3801.95c-0,-0 213.127,295.676 -19.774,761.964c-0,0 -137.985,-433.155 19.774,-761.964Z" style="fill:#87af35;stroke:#000;stroke-width:3.13px;"/><path d="M9630.65,4124.64c0,0 435.334,-139.687 406.997,506.297c0,-0 -22.49,33.994 -76.836,-10.242c-0,-0 -62.754,-401.795 -330.161,-496.055Z" style="fill:#87af35;stroke:#000;stroke-width:3.13px;"/><path d="M10346.9,4127.93c-0,0 -367.778,-71.067 -334.855,507.916c-0,0 15.143,25.222 34.711,-31.319c-0,-0 138.826,-449.455 300.144,-476.597Z" style="fill:#87af35;stroke:#000;stroke-width:3.12px;"/></g><g id="Pflanze-hinten-links60" serif:id="Pflanze-hinten-links"><path d="M9984.45,6337.81c-0,-0 213.127,295.677 -19.774,761.964c-0,0 -137.985,-433.154 19.774,-761.964Z" style="fill:#87af35;stroke:#000;stroke-width:3.13px;"/><path d="M9630.65,6660.5c0,0 435.334,-139.686 406.997,506.297c0,0 -22.49,33.994 -76.836,-10.242c-0,0 -62.754,-401.795 -330.161,-496.055Z" style="fill:#87af35;stroke:#000;stroke-width:3.13px;"/><path d="M10346.9,6663.79c-0,0 -367.778,-71.066 -334.855,507.916c-0,0 15.143,25.222 34.711,-31.319c-0,0 138.826,-449.454 300.144,-476.597Z" style="fill:#87af35;stroke:#000;stroke-width:3.12px;"/></g><g id="Pflanze-hinten-links61" serif:id="Pflanze-hinten-links"><path d="M9984.45,8873.67c-0,0 213.127,295.677 -19.774,761.965c-0,-0 -137.985,-433.155 19.774,-761.965Z" style="fill:#87af35;stroke:#000;stroke-width:3.13px;"/><path d="M9630.65,9196.36c0,-0 435.334,-139.687 406.997,506.296c0,0 -22.49,33.994 -76.836,-10.242c-0,0 -62.754,-401.794 -330.161,-496.054Z" style="fill:#87af35;stroke:#000;stroke-width:3.13px;"/><path d="M10346.9,9199.66c-0,-0 -367.778,-71.067 -334.855,507.916c-0,-0 15.143,25.221 34.711,-31.32c-0,0 138.826,-449.454 300.144,-476.596Z" style="fill:#87af35;stroke:#000;stroke-width:3.12px;"/></g><g id="Pflanze-hinten-links62" serif:id="Pflanze-hinten-links"><path d="M9984.45,10141.6c-0,-0 213.127,295.677 -19.774,761.964c-0,0 -137.985,-433.155 19.774,-761.964Z" style="fill:#87af35;stroke:#000;stroke-width:3.13px;"/><path d="M9630.65,10464.3c0,0 435.334,-139.687 406.997,506.297c0,-0 -22.49,33.994 -76.836,-10.242c-0,-0 -62.754,-401.795 -330.161,-496.055Z" style="fill:#87af35;stroke:#000;stroke-width:3.13px;"/><path d="M10346.9,10467.6c-0,0 -367.778,-71.067 -334.855,507.916c-0,0 15.143,25.222 34.711,-31.319c-0,-0 138.826,-449.455 300.144,-476.597Z" style="fill:#87af35;stroke:#000;stroke-width:3.12px;"/></g></g><g id="Pflanzen4"><g id="Pflanze-hinten-links63" serif:id="Pflanze-hinten-links"><path d="M11464.2,2535.7c0,-0 213.128,295.677 -19.773,761.964c-0,0 -137.985,-433.154 19.773,-761.964Z" style="fill:#87af35;stroke:#000;stroke-width:3.13px;"/><path d="M11110.4,2858.39c-0,0 435.334,-139.686 406.997,506.297c-0,0 -22.49,33.994 -76.836,-10.242c-0,0 -62.754,-401.795 -330.161,-496.055Z" style="fill:#87af35;stroke:#000;stroke-width:3.13px;"/><path d="M11826.6,2861.69c0,0 -367.778,-71.066 -334.855,507.916c0,0 15.144,25.222 34.712,-31.319c-0,0 138.825,-449.454 300.143,-476.597Z" style="fill:#87af35;stroke:#000;stroke-width:3.12px;"/></g><g id="Pflanze-hinten-links64" serif:id="Pflanze-hinten-links"><path d="M11464.2,5071.57c0,0 213.128,295.677 -19.773,761.965c-0,-0 -137.985,-433.155 19.773,-761.965Z" style="fill:#87af35;stroke:#000;stroke-width:3.13px;"/><path d="M11110.4,5394.26c-0,-0 435.334,-139.687 406.997,506.296c-0,0 -22.49,33.994 -76.836,-10.242c-0,0 -62.754,-401.794 -330.161,-496.054Z" style="fill:#87af35;stroke:#000;stroke-width:3.13px;"/><path d="M11826.6,5397.55c0,-0 -367.778,-71.067 -334.855,507.916c0,-0 15.144,25.221 34.712,-31.32c-0,0 138.825,-449.454 300.143,-476.596Z" style="fill:#87af35;stroke:#000;stroke-width:3.12px;"/></g><g id="Pflanze-hinten-links65" serif:id="Pflanze-hinten-links"><path d="M11464.2,7607.43c0,0 213.128,295.677 -19.773,761.965c-0,-0 -137.985,-433.155 19.773,-761.965Z" style="fill:#87af35;stroke:#000;stroke-width:3.13px;"/><path d="M11110.4,7930.12c-0,-0 435.334,-139.687 406.997,506.296c-0,0 -22.49,33.994 -76.836,-10.241c-0,-0 -62.754,-401.795 -330.161,-496.055Z" style="fill:#87af35;stroke:#000;stroke-width:3.13px;"/><path d="M11826.6,7933.41c0,-0 -367.778,-71.067 -334.855,507.916c0,-0 15.144,25.222 34.712,-31.319c-0,-0 138.825,-449.455 300.143,-476.597Z" style="fill:#87af35;stroke:#000;stroke-width:3.12px;"/></g><g id="Pflanze-hinten-links66" serif:id="Pflanze-hinten-links"><path d="M11464.2,3803.64c0,-0 213.128,295.676 -19.773,761.964c-0,0 -137.985,-433.155 19.773,-761.964Z" style="fill:#87af35;stroke:#000;stroke-width:3.13px;"/><path d="M11110.4,4126.32c-0,-0 435.334,-139.687 406.997,506.297c-0,-0 -22.49,33.993 -76.836,-10.242c-0,-0 -62.754,-401.795 -330.161,-496.055Z" style="fill:#87af35;stroke:#000;stroke-width:3.13px;"/><path d="M11826.6,4129.62c0,-0 -367.778,-71.067 -334.855,507.916c0,-0 15.144,25.222 34.712,-31.319c-0,-0 138.825,-449.455 300.143,-476.597Z" style="fill:#87af35;stroke:#000;stroke-width:3.12px;"/></g><g id="Pflanze-hinten-links67" serif:id="Pflanze-hinten-links"><path d="M11464.2,6339.5c0,-0 213.128,295.677 -19.773,761.964c-0,0 -137.985,-433.155 19.773,-761.964Z" style="fill:#87af35;stroke:#000;stroke-width:3.13px;"/><path d="M11110.4,6662.19c-0,0 435.334,-139.687 406.997,506.297c-0,-0 -22.49,33.994 -76.836,-10.242c-0,-0 -62.754,-401.795 -330.161,-496.055Z" style="fill:#87af35;stroke:#000;stroke-width:3.13px;"/><path d="M11826.6,6665.48c0,0 -367.778,-71.067 -334.855,507.916c0,0 15.144,25.222 34.712,-31.319c-0,-0 138.825,-449.455 300.143,-476.597Z" style="fill:#87af35;stroke:#000;stroke-width:3.12px;"/></g><g id="Pflanze-hinten-links68" serif:id="Pflanze-hinten-links"><path d="M11464.2,8875.36c0,0 213.128,295.677 -19.773,761.964c-0,0 -137.985,-433.154 19.773,-761.964Z" style="fill:#87af35;stroke:#000;stroke-width:3.13px;"/><path d="M11110.4,9198.05c-0,0 435.334,-139.686 406.997,506.297c-0,0 -22.49,33.994 -76.836,-10.242c-0,0 -62.754,-401.795 -330.161,-496.055Z" style="fill:#87af35;stroke:#000;stroke-width:3.13px;"/><path d="M11826.6,9201.34c0,0 -367.778,-71.066 -334.855,507.916c0,0 15.144,25.222 34.712,-31.319c-0,0 138.825,-449.454 300.143,-476.597Z" style="fill:#87af35;stroke:#000;stroke-width:3.12px;"/></g><g id="Pflanze-hinten-links69" serif:id="Pflanze-hinten-links"><path d="M11464.2,10143.3c0,-0 213.128,295.676 -19.773,761.964c-0,0 -137.985,-433.155 19.773,-761.964Z" style="fill:#87af35;stroke:#000;stroke-width:3.13px;"/><path d="M11110.4,10466c-0,0 435.334,-139.687 406.997,506.297c-0,-0 -22.49,33.994 -76.836,-10.242c-0,-0 -62.754,-401.795 -330.161,-496.055Z" style="fill:#87af35;stroke:#000;stroke-width:3.13px;"/><path d="M11826.6,10469.3c0,-0 -367.778,-71.067 -334.855,507.916c0,-0 15.144,25.222 34.712,-31.319c-0,-0 138.825,-449.455 300.143,-476.597Z" style="fill:#87af35;stroke:#000;stroke-width:3.12px;"/></g></g><g id="Pflanzen5"><g id="Pflanze-hinten-links70" serif:id="Pflanze-hinten-links"><path d="M12848.8,2534.01c-0,0 213.128,295.677 -19.774,761.965c0,-0 -137.985,-433.155 19.774,-761.965Z" style="fill:#87af35;stroke:#000;stroke-width:3.13px;"/><path d="M12495,2856.7c0,-0 435.335,-139.687 406.997,506.296c0,0 -22.49,33.994 -76.836,-10.242c0,0 -62.754,-401.794 -330.161,-496.054Z" style="fill:#87af35;stroke:#000;stroke-width:3.13px;"/><path d="M13211.2,2860c-0,0 -367.778,-71.066 -334.855,507.916c-0,0 15.143,25.222 34.711,-31.319c0,0 138.826,-449.454 300.144,-476.597Z" style="fill:#87af35;stroke:#000;stroke-width:3.12px;"/></g><g id="Pflanze-hinten-links71" serif:id="Pflanze-hinten-links"><path d="M12848.8,5069.88c-0,0 213.128,295.677 -19.774,761.965c0,-0 -137.985,-433.155 19.774,-761.965Z" style="fill:#87af35;stroke:#000;stroke-width:3.13px;"/><path d="M12495,5392.57c0,-0 435.335,-139.687 406.997,506.296c0,0 -22.49,33.994 -76.836,-10.241c0,-0 -62.754,-401.795 -330.161,-496.055Z" style="fill:#87af35;stroke:#000;stroke-width:3.13px;"/><path d="M13211.2,5395.86c-0,-0 -367.778,-71.067 -334.855,507.916c-0,-0 15.143,25.221 34.711,-31.319c0,-0 138.826,-449.455 300.144,-476.597Z" style="fill:#87af35;stroke:#000;stroke-width:3.12px;"/></g><g id="Pflanze-hinten-links72" serif:id="Pflanze-hinten-links"><path d="M12848.8,7605.74c-0,-0 213.128,295.676 -19.774,761.964c0,0 -137.985,-433.155 19.774,-761.964Z" style="fill:#87af35;stroke:#000;stroke-width:3.13px;"/><path d="M12495,7928.43c0,-0 435.335,-139.687 406.997,506.297c0,-0 -22.49,33.993 -76.836,-10.242c0,-0 -62.754,-401.795 -330.161,-496.055Z" style="fill:#87af35;stroke:#000;stroke-width:3.13px;"/><path d="M13211.2,7931.72c-0,-0 -367.778,-71.067 -334.855,507.916c-0,-0 15.143,25.222 34.711,-31.319c0,-0 138.826,-449.455 300.144,-476.597Z" style="fill:#87af35;stroke:#000;stroke-width:3.12px;"/></g><g id="Pflanze-hinten-links73" serif:id="Pflanze-hinten-links"><path d="M12848.8,3801.95c-0,-0 213.128,295.676 -19.774,761.964c0,0 -137.985,-433.155 19.774,-761.964Z" style="fill:#87af35;stroke:#000;stroke-width:3.13px;"/><path d="M12495,4124.64c0,0 435.335,-139.687 406.997,506.297c0,-0 -22.49,33.994 -76.836,-10.242c0,-0 -62.754,-401.795 -330.161,-496.055Z" style="fill:#87af35;stroke:#000;stroke-width:3.13px;"/><path d="M13211.2,4127.93c-0,0 -367.778,-71.067 -334.855,507.916c-0,0 15.143,25.222 34.711,-31.319c0,-0 138.826,-449.455 300.144,-476.597Z" style="fill:#87af35;stroke:#000;stroke-width:3.12px;"/></g><g id="Pflanze-hinten-links74" serif:id="Pflanze-hinten-links"><path d="M12848.8,6337.81c-0,-0 213.128,295.677 -19.774,761.964c0,0 -137.985,-433.154 19.774,-761.964Z" style="fill:#87af35;stroke:#000;stroke-width:3.13px;"/><path d="M12495,6660.5c0,0 435.335,-139.686 406.997,506.297c0,0 -22.49,33.994 -76.836,-10.242c0,0 -62.754,-401.795 -330.161,-496.055Z" style="fill:#87af35;stroke:#000;stroke-width:3.13px;"/><path d="M13211.2,6663.79c-0,0 -367.778,-71.066 -334.855,507.916c-0,0 15.143,25.222 34.711,-31.319c0,0 138.826,-449.454 300.144,-476.597Z" style="fill:#87af35;stroke:#000;stroke-width:3.12px;"/></g><g id="Pflanze-hinten-links75" serif:id="Pflanze-hinten-links"><path d="M12848.8,8873.67c-0,0 213.128,295.677 -19.774,761.965c0,-0 -137.985,-433.155 19.774,-761.965Z" style="fill:#87af35;stroke:#000;stroke-width:3.13px;"/><path d="M12495,9196.36c0,-0 435.335,-139.687 406.997,506.296c0,0 -22.49,33.994 -76.836,-10.242c0,0 -62.754,-401.794 -330.161,-496.054Z" style="fill:#87af35;stroke:#000;stroke-width:3.13px;"/><path d="M13211.2,9199.66c-0,-0 -367.778,-71.067 -334.855,507.916c-0,-0 15.143,25.221 34.711,-31.32c0,0 138.826,-449.454 300.144,-476.596Z" style="fill:#87af35;stroke:#000;stroke-width:3.12px;"/></g><g id="Pflanze-hinten-links76" serif:id="Pflanze-hinten-links"><path d="M12848.8,10141.6c-0,-0 213.128,295.677 -19.774,761.964c0,0 -137.985,-433.155 19.774,-761.964Z" style="fill:#87af35;stroke:#000;stroke-width:3.13px;"/><path d="M12495,10464.3c0,0 435.335,-139.687 406.997,506.297c0,-0 -22.49,33.994 -76.836,-10.242c0,-0 -62.754,-401.795 -330.161,-496.055Z" style="fill:#87af35;stroke:#000;stroke-width:3.13px;"/><path d="M13211.2,10467.6c-0,0 -367.778,-71.067 -334.855,507.916c-0,0 15.143,25.222 34.711,-31.319c0,-0 138.826,-449.455 300.144,-476.597Z" style="fill:#87af35;stroke:#000;stroke-width:3.12px;"/></g></g><g id="Schild-Beet-2"><path d="M13073.5,6072.84c-0,-15.807 -12.834,-28.641 -28.642,-28.641l-3156.24,-0c-15.808,-0 -28.641,12.834 -28.641,28.641l-0,1374.78c-0,15.808 12.833,28.641 28.641,28.641l3156.24,0c15.808,0 28.642,-12.833 28.642,-28.641l-0,-1374.78Z" style="fill:#f1dcaa;"/><g transform="matrix(937.5,0,0,937.5,12824.9,7032.46)"></g><text x="10051.8px" y="7032.47px" style="font-family:'Ubuntu', sans-serif;font-size:937.5px;fill:#ba2d0b;">Beet 2</text></g></g><g id="Beet1"><path d="M6744.07,2235.13c0,-48.89 -39.692,-88.583 -88.582,-88.583l-4251.97,0c-48.89,0 -88.582,39.693 -88.582,88.583l-0,9050.2c-0,48.89 39.692,88.583 88.582,88.583l4251.97,-0c48.89,-0 88.582,-39.693 88.582,-88.583l0,-9050.2Z" style="fill:#8b6818;"/><g id="Pflanzen2"><g id="Pflanze-hinten-links77" serif:id="Pflanze-hinten-links"><path d="M3085.83,2534.01c-0,0 213.127,295.677 -19.774,761.965c-0,-0 -137.985,-433.155 19.774,-761.965Z" style="fill:#87af35;stroke:#000;stroke-width:3.13px;"/><path d="M2732.02,2856.7c0,-0 435.335,-139.687 406.997,506.296c0,0 -22.49,33.994 -76.836,-10.242c-0,0 -62.754,-401.794 -330.161,-496.054Z" style="fill:#87af35;stroke:#000;stroke-width:3.13px;"/><path d="M3448.24,2860c-0,0 -367.778,-71.066 -334.855,507.916c-0,0 15.143,25.222 34.711,-31.319c-0,0 138.826,-449.454 300.144,-476.597Z" style="fill:#87af35;stroke:#000;stroke-width:3.12px;"/></g><g id="Pflanze-hinten-links78" serif:id="Pflanze-hinten-links"><path d="M3085.83,5069.88c-0,0 213.127,295.677 -19.774,761.965c-0,-0 -137.985,-433.155 19.774,-761.965Z" style="fill:#87af35;stroke:#000;stroke-width:3.13px;"/><path d="M2732.02,5392.57c0,-0 435.335,-139.687 406.997,506.296c0,0 -22.49,33.994 -76.836,-10.241c-0,-0 -62.754,-401.795 -330.161,-496.055Z" style="fill:#87af35;stroke:#000;stroke-width:3.13px;"/><path d="M3448.24,5395.86c-0,-0 -367.778,-71.067 -334.855,507.916c-0,-0 15.143,25.221 34.711,-31.319c-0,-0 138.826,-449.455 300.144,-476.597Z" style="fill:#87af35;stroke:#000;stroke-width:3.12px;"/></g><g id="Pflanze-hinten-links79" serif:id="Pflanze-hinten-links"><path d="M3085.83,7605.74c-0,-0 213.127,295.676 -19.774,761.964c-0,0 -137.985,-433.155 19.774,-761.964Z" style="fill:#87af35;stroke:#000;stroke-width:3.13px;"/><path d="M2732.02,7928.43c0,-0 435.335,-139.687 406.997,506.297c0,-0 -22.49,33.993 -76.836,-10.242c-0,-0 -62.754,-401.795 -330.161,-496.055Z" style="fill:#87af35;stroke:#000;stroke-width:3.13px;"/><path d="M3448.24,7931.72c-0,-0 -367.778,-71.067 -334.855,507.916c-0,-0 15.143,25.222 34.711,-31.319c-0,-0 138.826,-449.455 300.144,-476.597Z" style="fill:#87af35;stroke:#000;stroke-width:3.12px;"/></g><g id="Pflanze-hinten-links80" serif:id="Pflanze-hinten-links"><path d="M3085.83,3801.95c-0,-0 213.127,295.676 -19.774,761.964c-0,0 -137.985,-433.155 19.774,-761.964Z" style="fill:#87af35;stroke:#000;stroke-width:3.13px;"/><path d="M2732.02,4124.64c0,0 435.335,-139.687 406.997,506.297c0,-0 -22.49,33.994 -76.836,-10.242c-0,-0 -62.754,-401.795 -330.161,-496.055Z" style="fill:#87af35;stroke:#000;stroke-width:3.13px;"/><path d="M3448.24,4127.93c-0,0 -367.778,-71.067 -334.855,507.916c-0,0 15.143,25.222 34.711,-31.319c-0,-0 138.826,-449.455 300.144,-476.597Z" style="fill:#87af35;stroke:#000;stroke-width:3.12px;"/></g><g id="Pflanze-hinten-links81" serif:id="Pflanze-hinten-links"><path d="M3085.83,6337.81c-0,-0 213.127,295.677 -19.774,761.964c-0,0 -137.985,-433.154 19.774,-761.964Z" style="fill:#87af35;stroke:#000;stroke-width:3.13px;"/><path d="M2732.02,6660.5c0,0 435.335,-139.686 406.997,506.297c0,0 -22.49,33.994 -76.836,-10.242c-0,0 -62.754,-401.795 -330.161,-496.055Z" style="fill:#87af35;stroke:#000;stroke-width:3.13px;"/><path d="M3448.24,6663.79c-0,0 -367.778,-71.066 -334.855,507.916c-0,0 15.143,25.222 34.711,-31.319c-0,0 138.826,-449.454 300.144,-476.597Z" style="fill:#87af35;stroke:#000;stroke-width:3.12px;"/></g><g id="Pflanze-hinten-links82" serif:id="Pflanze-hinten-links"><path d="M3085.83,8873.67c-0,0 213.127,295.677 -19.774,761.965c-0,-0 -137.985,-433.155 19.774,-761.965Z" style="fill:#87af35;stroke:#000;stroke-width:3.13px;"/><path d="M2732.02,9196.36c0,-0 435.335,-139.687 406.997,506.296c0,0 -22.49,33.994 -76.836,-10.242c-0,0 -62.754,-401.794 -330.161,-496.054Z" style="fill:#87af35;stroke:#000;stroke-width:3.13px;"/><path d="M3448.24,9199.66c-0,-0 -367.778,-71.067 -334.855,507.916c-0,-0 15.143,25.221 34.711,-31.32c-0,0 138.826,-449.454 300.144,-476.596Z" style="fill:#87af35;stroke:#000;stroke-width:3.12px;"/></g><g id="Pflanze-hinten-links83" serif:id="Pflanze-hinten-links"><path d="M3085.83,10141.6c-0,-0 213.127,295.677 -19.774,761.964c-0,0 -137.985,-433.155 19.774,-761.964Z" style="fill:#87af35;stroke:#000;stroke-width:3.13px;"/><path d="M2732.02,10464.3c0,0 435.335,-139.687 406.997,506.297c0,-0 -22.49,33.994 -76.836,-10.242c-0,-0 -62.754,-401.795 -330.161,-496.055Z" style="fill:#87af35;stroke:#000;stroke-width:3.13px;"/><path d="M3448.24,10467.6c-0,0 -367.778,-71.067 -334.855,507.916c-0,0 15.143,25.222 34.711,-31.319c-0,-0 138.826,-449.455 300.144,-476.597Z" style="fill:#87af35;stroke:#000;stroke-width:3.12px;"/></g></g><g id="Pflanzen1"><g id="Pflanze-vorne-links16" serif:id="Pflanze-vorne-links"><path d="M5156.31,3992.13c0,0 64.541,40.677 112.201,-90.32c47.66,-130.996 15.27,-3.296 102.535,-41.559c87.265,-38.262 -7.012,-24.496 -0.55,-98.706c6.462,-74.211 14.392,-91.062 64.968,-73.424c50.576,17.637 135.742,-89.886 24.213,-159.322c-111.53,-69.435 -133.181,39.45 -138.213,87.533c-5.031,48.082 46.492,101.909 0,105.616c-46.491,3.707 -100.838,-11.369 -116.054,53.016c-15.216,64.386 69.474,94.983 0,126.846c-69.474,31.864 -134.625,-33.949 -92.151,90.32l43.051,0Z" style="fill:#87af35;stroke:#000;stroke-width:6.25px;"/><path d="M5149.27,3901.81c-0,0 14.536,-195.92 107.606,-220.085c93.07,-24.166 20.843,-70.327 29.533,-148.541c8.69,-78.214 69.665,-71.214 81.123,-116.042c11.459,-44.828 -90.693,-94.5 -80.789,-181.534c-0,-0 -11.259,-115.428 19.308,-225.802c30.567,-110.374 -278.678,-323.246 -307.52,-259.054c0,0 -222.495,95.16 46.288,532c-0,-0 114.065,98.353 118.451,181.864c4.386,83.51 -64.242,306.829 -14,437.194Z" style="fill:#87af35;stroke:#000;stroke-width:6.25px;"/><path d="M5116.25,3879.1c-0,-0 -115.092,1.294 -137.379,-51.767c0,-0 11.4,-88.577 -15.46,-128.152c-26.86,-39.575 -109.089,24.157 -151.592,-52.493c-42.502,-76.65 26.116,-146.893 -16.484,-181.722c-42.601,-34.828 -177.961,11.514 -241.954,-58.786c-63.994,-70.3 16.309,-127.36 57.94,-119.646c41.632,7.714 147.258,-6.856 185.419,-49.636c38.161,-42.78 147.531,51.521 137.969,106.37c-9.562,54.85 115.676,109.536 178.426,126.658c62.75,17.122 11.94,81.932 -1.708,199.782c-13.648,117.849 -18.53,150.837 4.823,209.392Z" style="fill:#87af35;stroke:#000;stroke-width:6.25px;"/></g><g id="Pflanze-vorne-links17" serif:id="Pflanze-vorne-links"><path d="M5156.31,6253.28c0,0 64.541,40.677 112.201,-90.32c47.66,-130.996 15.27,-3.296 102.535,-41.559c87.265,-38.263 -7.012,-24.496 -0.55,-98.706c6.462,-74.211 14.392,-91.062 64.968,-73.424c50.576,17.637 135.742,-89.886 24.213,-159.322c-111.53,-69.435 -133.181,39.45 -138.213,87.533c-5.031,48.082 46.492,101.909 0,105.615c-46.491,3.707 -100.838,-11.368 -116.054,53.017c-15.216,64.386 69.474,94.983 0,126.846c-69.474,31.864 -134.625,-33.949 -92.151,90.32l43.051,0Z" style="fill:#87af35;stroke:#000;stroke-width:6.25px;"/><path d="M5149.27,6162.96c-0,0 14.536,-195.92 107.606,-220.085c93.07,-24.166 20.843,-70.327 29.533,-148.541c8.69,-78.214 69.665,-71.214 81.123,-116.042c11.459,-44.828 -90.693,-94.5 -80.789,-181.534c-0,-0 -11.259,-115.428 19.308,-225.802c30.567,-110.374 -278.678,-323.246 -307.52,-259.054c0,0 -222.495,95.16 46.288,532c-0,-0 114.065,98.353 118.451,181.863c4.386,83.511 -64.242,306.83 -14,437.195Z" style="fill:#87af35;stroke:#000;stroke-width:6.25px;"/><path d="M5116.25,6140.24c-0,-0 -115.092,1.294 -137.379,-51.767c0,-0 11.4,-88.577 -15.46,-128.152c-26.86,-39.575 -109.089,24.156 -151.592,-52.493c-42.502,-76.65 26.116,-146.893 -16.484,-181.722c-42.601,-34.828 -177.961,11.514 -241.954,-58.786c-63.994,-70.3 16.309,-127.36 57.94,-119.646c41.632,7.714 147.258,-6.856 185.419,-49.636c38.161,-42.78 147.531,51.521 137.969,106.37c-9.562,54.85 115.676,109.536 178.426,126.658c62.75,17.122 11.94,81.932 -1.708,199.782c-13.648,117.849 -18.53,150.837 4.823,209.392Z" style="fill:#87af35;stroke:#000;stroke-width:6.25px;"/></g><g id="Pflanze-vorne-links18" serif:id="Pflanze-vorne-links"><path d="M5156.31,8514.42c0,-0 64.541,40.677 112.201,-90.32c47.66,-130.996 15.27,-3.296 102.535,-41.559c87.265,-38.263 -7.012,-24.496 -0.55,-98.707c6.462,-74.21 14.392,-91.061 64.968,-73.424c50.576,17.638 135.742,-89.886 24.213,-159.321c-111.53,-69.435 -133.181,39.45 -138.213,87.533c-5.031,48.082 46.492,101.908 0,105.615c-46.491,3.707 -100.838,-11.368 -116.054,53.017c-15.216,64.386 69.474,94.982 0,126.846c-69.474,31.864 -134.625,-33.949 -92.151,90.32l43.051,-0Z" style="fill:#87af35;stroke:#000;stroke-width:6.25px;"/><path d="M5149.27,8424.1c-0,0 14.536,-195.92 107.606,-220.085c93.07,-24.166 20.843,-70.327 29.533,-148.541c8.69,-78.214 69.665,-71.214 81.123,-116.042c11.459,-44.828 -90.693,-94.5 -80.789,-181.534c-0,-0 -11.259,-115.429 19.308,-225.802c30.567,-110.374 -278.678,-323.246 -307.52,-259.054c0,0 -222.495,95.16 46.288,532c-0,-0 114.065,98.353 118.451,181.863c4.386,83.511 -64.242,306.83 -14,437.195Z" style="fill:#87af35;stroke:#000;stroke-width:6.25px;"/><path d="M5116.25,8401.39c-0,-0 -115.092,1.294 -137.379,-51.767c0,-0 11.4,-88.577 -15.46,-128.153c-26.86,-39.575 -109.089,24.157 -151.592,-52.492c-42.502,-76.65 26.116,-146.893 -16.484,-181.722c-42.601,-34.828 -177.961,11.514 -241.954,-58.786c-63.994,-70.3 16.309,-127.36 57.94,-119.646c41.632,7.714 147.258,-6.856 185.419,-49.636c38.161,-42.78 147.531,51.521 137.969,106.37c-9.562,54.849 115.676,109.536 178.426,126.658c62.75,17.121 11.94,81.932 -1.708,199.782c-13.648,117.849 -18.53,150.837 4.823,209.392Z" style="fill:#87af35;stroke:#000;stroke-width:6.25px;"/></g><g id="Pflanze-vorne-links19" serif:id="Pflanze-vorne-links"><path d="M5329.44,10775.6c0,-0 64.541,40.677 112.201,-90.32c47.66,-130.996 15.27,-3.296 102.535,-41.559c87.265,-38.263 -7.012,-24.496 -0.55,-98.707c6.462,-74.21 14.392,-91.061 64.968,-73.424c50.576,17.638 135.742,-89.886 24.213,-159.321c-111.53,-69.436 -133.182,39.45 -138.213,87.532c-5.032,48.083 46.491,101.909 -0,105.616c-46.492,3.707 -100.838,-11.368 -116.054,53.017c-15.216,64.386 69.474,94.982 0,126.846c-69.474,31.864 -134.625,-33.949 -92.151,90.32l43.051,-0Z" style="fill:#87af35;stroke:#000;stroke-width:6.25px;"/><path d="M5322.4,10685.2c0,0 14.537,-195.92 107.607,-220.085c93.07,-24.166 20.843,-70.327 29.533,-148.541c8.69,-78.214 69.665,-71.214 81.123,-116.042c11.458,-44.829 -90.694,-94.5 -80.789,-181.535c-0,0 -11.259,-115.428 19.308,-225.801c30.566,-110.374 -278.678,-323.246 -307.52,-259.054c0,0 -222.496,95.16 46.288,531.999c-0,0 114.065,98.354 118.451,181.864c4.386,83.511 -64.242,306.83 -14.001,437.195Z" style="fill:#87af35;stroke:#000;stroke-width:6.25px;"/><path d="M5289.38,10662.5c-0,-0 -115.092,1.294 -137.379,-51.767c0,-0 11.4,-88.578 -15.46,-128.153c-26.86,-39.575 -109.089,24.157 -151.592,-52.493c-42.503,-76.649 26.116,-146.892 -16.485,-181.721c-42.6,-34.828 -177.96,11.514 -241.954,-58.786c-63.993,-70.3 16.31,-127.36 57.941,-119.646c41.631,7.714 147.258,-6.856 185.418,-49.636c38.161,-42.78 147.532,51.52 137.97,106.37c-9.562,54.849 115.675,109.536 178.425,126.658c62.751,17.121 11.941,81.932 -1.707,199.781c-13.648,117.85 -18.53,150.838 4.823,209.393Z" style="fill:#87af35;stroke:#000;stroke-width:6.25px;"/></g></g><g id="Schild-Beet-1"><path d="M6136.26,6072.84c-0,-15.807 -12.834,-28.641 -28.642,-28.641l-3156.24,-0c-15.808,-0 -28.641,12.834 -28.641,28.641l-0,1374.78c-0,15.808 12.833,28.641 28.641,28.641l3156.24,0c15.808,0 28.642,-12.833 28.642,-28.641l-0,-1374.78Z" style="fill:#f1dcaa;"/><g transform="matrix(937.5,0,0,937.5,5887.66,7032.46)"></g><text x="3114.53px" y="7032.47px" style="font-family:'Ubuntu', sans-serif;font-size:937.5px;fill:#ba2d0b;">Beet 1</text></g></g><path id="pfeil-6-zu-1" d="M1551.57,7190.81l352.503,-257.83l-5.238,436.701l-347.265,-178.871Z" style="fill:#ba2d0b;"/><path d="M1904.08,18100.3c-0,-0 -2943.44,-5272.81 -143.097,-10889.5" style="fill:none;stroke:#ba2d0b;stroke-width:65.1px;"/><path id="pfeil-5-zu-6" d="M5126.15,23457.3l-178.502,-398.588l425.971,96.351l-247.469,302.237Z" style="fill:#ba2d0b;"/><path d="M11882.7,23058.8c0,0 -3231.25,2904.59 -6693.23,197.976" style="fill:none;stroke:#ba2d0b;stroke-width:65.1px;"/><path id="pfeil-4-zu-5" d="M12148.7,23454.2l-178.502,-398.588l425.971,96.351l-247.469,302.237Z" style="fill:#ba2d0b;"/><path d="M18905.2,23055.6c-0,0 -3231.25,2904.59 -6693.23,197.976" style="fill:none;stroke:#ba2d0b;stroke-width:65.1px;"/><path id="pfeil-3-zu-4" d="M21262.7,17842.4l-352.503,257.83l5.238,-436.701l347.265,178.871Z" style="fill:#ba2d0b;"/><path d="M20910.1,6932.98c-0,0 2943.44,5272.81 143.096,10889.5" style="fill:none;stroke:#ba2d0b;stroke-width:65.1px;"/><path id="pfeil-2-zu-3" d="M18289.8,1505.49l178.501,398.588l-425.971,-96.351l247.47,-302.237Z" style="fill:#ba2d0b;"/><path d="M11533.3,1904.08c-0,-0 3231.25,-2904.59 6693.23,-197.976" style="fill:none;stroke:#ba2d0b;stroke-width:65.1px;"/><path id="pfeil-1-zu-2" d="M11267.3,1508.61l178.502,398.588l-425.971,-96.351l247.469,-302.237Z" style="fill:#ba2d0b;"/><path d="M4510.75,1907.2c-0,-0 3231.25,-2904.59 6693.23,-197.976" style="fill:none;stroke:#ba2d0b;stroke-width:65.1px;"/></svg>