<svg xmlns="http://www.w3.org/2000/svg">
  <symbol id="carrot" viewBox="0 0 512 512">
    <path d="M452.762,145.38c-42.12-1.683-121.506,53.426-147.52,70.052c-22.621,19.972-29.251,6.016-17.532-5.69 c16.207-16.173,30.217-37.233,96.573-69.491c33.279-16.18,44.181-23.736,33.042-35.165c-11.144-11.442-40.024,1.304-32.698-7.671 c7.313-8.996,17.532-42.633,6.238-50.926c-11.28-8.272-40.301,11.564-46.688,21.242c-6.366,9.679-2.872-21.694-17.126-28.893 c-14.247-7.191-18.18,5.461-23.641,42.059c-10.875,72.979-26.764,92.666-37.328,112.983c-7.657,14.687-22.952,12.53-10.685-15.031 c8.056-29.799,36.834-122.059,22.587-161.732c-14.241-39.672-50.128-1.075-40.41,22.29c-27.866-25.974-35.253,15.612-10.713,61.043 c5.833,10.814,17.998,54.785-4.947,102.318c-11.821-6.941-29.501-12.497-47.702-5.853c-19.681,7.279-35.05,16.166-47.155,25.831 c-6.319,5.056-11.773,10.334-16.518,15.781c-23.898,27.095-29.44,57.11-36.888,75.256c-1.939,4.663-4.028,10.685-6.15,17.627 c-2.176,6.9-4.44,14.68-6.712,22.985c-9.151,33.279-18.322,73.676-21.836,91.268c-7.023,34.942,6.002,48.791,17.139,56.961 c11.185,8.212,28.305,16.485,59.53-0.696c23.344-12.909,91.572-52.98,115.355-72.695c4.319-3.602,9.665-7.326,15.47-11.564 c5.813-4.238,12.05-8.935,18.33-14.443c22.215-19.505,44.83-49.425,47.58-104.926c0.831-19.37-9.712-34.53-19.891-43.748 c38.463-36.145,84.056-37.74,96.127-35.408c50.689,9.78,88.159-9.726,55.014-28.528C468.82,192.879,494.874,147.069,452.762,145.38 z M244.328,381.361c-1.466,1.291-2.933,2.419-4.4,3.623l-38.862-28.528c-5.447-3.988-12.862-3.163-16.544,1.859 c-3.643,4.961-2.211,12.286,3.23,16.281l33.468,24.554c-3.561,2.602-7.008,5.136-10.138,7.752 c-21.641,17.944-87.49,56.772-111.26,69.917c-18.356,10.09-23.553,6.272-27.352,3.487c-3.778-2.778-8.941-6.562-4.812-27.128 c3.184-15.944,10.807-49.642,18.843-79.927l14.233,10.442c5.447,4.002,12.855,3.163,16.491-1.798 c3.684-5.022,2.258-12.334-3.19-16.329l-21.08-15.484c0.879-2.967,1.744-5.9,2.609-8.617c1.899-6.19,3.73-11.469,5.339-15.349 c2.062-5.035,3.866-10.401,5.766-16.072c5.508-16.443,11.746-35.084,26.75-52.102c0.467-0.527,1.007-1.02,1.48-1.541l52.129,38.253 c5.447,3.988,12.794,3.116,16.471-1.899c3.649-4.968,2.278-12.24-3.17-16.241l-48.054-35.266 c9.726-6.819,21.073-12.747,33.996-17.518c11.476-4.19,22.607,3.346,24.723,4.9l60.022,44.045 c2.981,2.19,12.659,10.246,12.159,22.06C280.763,343.419,261.15,366.601,244.328,381.361z"></path>
  </symbol>

  <symbol id="tomato" viewBox="0 0 64 64">
     <path d="M61.96 31.649C60.747 10.563 49.854 7.48 41.072 7.479h-.001c-2.219.001-4.301.197-6.06.351c-.015-.959.026-1.986.187-3.121c.003-.016-.004-.03-.006-.045c.002-.008.006-.016.006-.024c0-.353-.664-.64-1.486-.64c-.82 0-1.484.287-1.484.64a24.454 24.454 0 0 1-.917 3.371c-11.587.07-26.85 1.908-29.18 22.922C.441 46.184 15.336 60 32.093 60S62.841 46.975 61.96 31.649M35.635 10.787c.409-.036.833-.073 1.269-.108c-.524.211-1.033.43-1.512.65c-.035-.158-.059-.346-.091-.514l.334-.028m-5.559.238c-.131.273-.259.535-.382.776a9.36 9.36 0 0 0-.933-.742c.438-.015.876-.025 1.315-.034m22.571 37.301C47.442 53.839 39.95 57 32.093 57c-8.007 0-15.96-3.544-21.276-9.48c-4.307-4.811-6.333-10.584-5.704-16.257c1.181-10.648 5.892-15.734 11.938-18.143c5.858-1.088 11.37.91 11.37.91s-12.529-3.11-17.442 12.988c6.183-9.639 16.823-6.802 19.622-10.355c0 6.869 4.992 3.536 7.515 6.63c3.246 3.978 4.434 11.106 8.168 12.51c-3.678-7.896 2.344-7.588-6.117-18.185c4.457 2.769 6.768-.033 12.854 2.462c-5.207-8.511-13.537-6.05-13.537-6.05s3.39-3.089 6.984-3.003c6.072 1.418 11.657 6.189 12.498 20.795c.342 5.965-1.902 11.826-6.319 16.504"></path>
  </symbol>

  <symbol id="sprout-example" viewBox="0 0 284 284">
    <path d="M62.861 42.944s120.552 66.95 89.954 237.945" style="fill:none;stroke:#000;stroke-width:3px"/>
    <path d="M232.495 140.424s-54.131 25.106-79.435 138.259" style="fill:none;stroke:#000;stroke-width:3px"/>
    <path d="M270.738 95.747c-9.074 6.88-138.356 6.728-85.724 85.712 52.632 78.984 94.797-92.592 85.724-85.712ZM10.128 6.339s171.511-12.77 104.729 72.882C48.075 164.874 10.128 6.339 10.128 6.339Z" style="fill:none;stroke:#000;stroke-width:3px"/>
  </symbol>

  <symbol id="plantdistance" viewBox="0 0 120 120">
    <path d="m4.265 53.545 4.274 9.707 9.707-4.274M19.149 15.245l9.707-4.274 4.274 9.707" style="fill:none;stroke:#000;stroke-width:5px"/>
    <path d="m8.539 63.252 20.317-52.281M51.95 89.379l24.408-62.808M80.295 103.582H8.98l35.672-91.588.002-.002 71.323-.007-35.664 91.706" style="fill:none;stroke:#000;stroke-width:5px;stroke-linejoin:round;stroke-miterlimit:1.5"/>
    <circle cx="34.864" cy="85.76" r="8.58"/>
    <circle cx="45.673" cy="57.068" r="8.58"/>
    <circle cx="56.482" cy="28.376" r="8.58"/>
    <circle cx="70.565" cy="88.207" r="8.58"/>
    <circle cx="81.374" cy="59.515" r="8.58"/>
    <circle cx="92.183" cy="30.823" r="8.58"/>
  </symbol>

  <symbol id="sprout" viewBox="0 0 469.824 469.824">
    <path d="M188.885 67.36C147.84 26.336 67.52 21.579 10.667 21.579 4.779 21.579 0 26.357 0 32.245c0 56.853 4.736 137.173 45.781 178.219 17.323 17.323 43.883 25.067 70.208 25.067 28.608 0 56.96-9.152 72.896-25.088 30.571-30.571 36.182-106.923 0-143.083zm-15.082 128.021c-22.827 22.805-86.208 26.709-112.917 0-33.131-33.13-38.87-100.437-39.489-152.405 51.968.619 119.275 6.357 152.405 39.488 26.71 26.709 22.806 90.112.001 112.917zM459.157 63.776c-56.853 0-137.173 4.736-178.219 45.781-36.181 36.16-30.571 112.512 0 143.083 15.936 15.915 44.267 25.067 72.875 25.067 26.325 0 52.864-7.723 70.229-25.045 41.024-41.045 45.781-121.365 45.781-178.219.001-5.888-4.778-10.667-10.666-10.667zm-50.24 173.781c-26.709 26.709-90.112 22.805-112.917 0-22.805-22.805-26.709-86.208 0-112.917 33.131-33.131 100.437-38.869 152.405-39.488-.618 51.989-6.357 119.296-39.488 152.405z"/>
    <path d="M382.123 156.107c-2.517-5.355-9.728-7.189-15.04-4.715-81.813 38.464-122.005 105.536-140.267 174.485-22.592-146.603-87.936-191.296-115.648-210.261-3.456-2.368-6.144-4.096-7.637-5.568-4.16-4.16-10.923-4.16-15.083 0s-4.16 10.923 0 15.083c2.112 2.091 5.76 4.715 10.688 8.085 31.232 21.355 114.197 78.123 114.197 304.363 0 5.888 4.779 10.667 10.667 10.667s10.667-4.779 10.667-10.645c0-91.413 24.555-211.925 141.504-266.88 0-.021 1.728-.832 1.728-.832 5.312-2.518 6.741-8.449 4.224-13.782z"/>
  </symbol>

  <symbol id="sprout-filled">



  </symbol>  
</svg>
