<?xml version="1.0" encoding="UTF-8" standalone="no"?><!DOCTYPE svg PUBLIC "-//W3C//DTD SVG 1.1//EN" "http://www.w3.org/Graphics/SVG/1.1/DTD/svg11.dtd"><svg width="100%" height="100%" viewBox="0 0 6875 5858" version="1.1" xmlns="http://www.w3.org/2000/svg" xmlns:xlink="http://www.w3.org/1999/xlink" xml:space="preserve" xmlns:serif="http://www.serif.com/" style="fill-rule:evenodd;clip-rule:evenodd;stroke-linecap:round;stroke-linejoin:round;stroke-miterlimit:1.5;"><g id="after"><g id="Beet-hinten"><g id="Beetumrandung"><rect x="989.059" y="3258.78" width="2668.37" height="464.826" style="fill:#8d806d;stroke:#000;stroke-width:6.25px;"/><path d="M2719.99,4074.64l0,464.827l937.437,-815.868l0,-464.827l-937.437,815.868Z" style="fill:#8d806d;stroke:#000;stroke-width:6.25px;"/><path d="M51.622,4074.64l937.437,-815.868l-0,464.827l-937.437,815.868l-0,-464.827Z" style="fill:#8d806d;stroke:#000;stroke-width:6.25px;"/><rect x="51.622" y="4074.64" width="2668.37" height="464.826" style="fill:#8d806d;stroke:#000;stroke-width:6.25px;"/></g><path id="Erde" d="M989.059,3416.38l2528.2,-36.613l-797.272,694.881l-2482.45,0l751.524,-658.268Z" style="fill:#684827;stroke:#000;stroke-width:6.25px;"/><g id="Pflanzen"><g id="Pflanze-vorne-links"><path d="M630.188,3354.4c-0,0 153.511,212.969 -14.243,548.826c-0,-0 -99.387,-311.992 14.243,-548.826Z" style="fill:#87af35;stroke:#000;stroke-width:3.12px;"/><path d="M375.352,3586.83c-0,-0 313.561,-100.614 293.15,364.673c0,0 -16.199,24.485 -55.343,-7.377c-0,0 -45.2,-289.403 -237.807,-357.296Z" style="fill:#87af35;stroke:#000;stroke-width:3.12px;"/><path d="M891.228,3589.2c0,0 -264.902,-51.188 -241.188,365.84c-0,0 10.907,18.167 25.002,-22.558c-0,-0 99.992,-323.732 216.186,-343.282Z" style="fill:#87af35;stroke:#000;stroke-width:3.13px;"/></g><g id="Pflanze-vorne-rechts"><path d="M2710,3359.95c0,0 153.511,212.969 -14.242,548.826c-0,-0 -99.388,-311.992 14.242,-548.826Z" style="fill:#87af35;stroke:#000;stroke-width:3.12px;"/><path d="M2455.17,3592.37c0,-0 313.562,-100.613 293.151,364.674c0,-0 -16.199,24.485 -55.343,-7.377c-0,-0 -45.2,-289.404 -237.808,-357.297Z" style="fill:#87af35;stroke:#000;stroke-width:3.12px;"/><path d="M2971.05,3594.75c-0,0 -264.902,-51.187 -241.189,365.841c0,-0 10.908,18.166 25.002,-22.559c0,0 99.993,-323.732 216.187,-343.282Z" style="fill:#87af35;stroke:#000;stroke-width:3.13px;"/></g><g id="Pflanze-vorne-mitte-links"><path d="M1370.53,3402.86c0,0 153.511,212.969 -14.242,548.826c-0,-0 -99.387,-311.992 14.242,-548.826Z" style="fill:#658947;stroke:#000;stroke-width:3.12px;"/><path d="M1115.7,3635.28c0,-0 313.562,-100.613 293.151,364.674c0,-0 -16.199,24.485 -55.343,-7.377c-0,-0 -45.2,-289.404 -237.808,-357.297Z" style="fill:#658947;stroke:#000;stroke-width:3.12px;"/><path d="M1631.57,3637.66c-0,0 -264.902,-51.187 -241.188,365.841c-0,-0 10.907,18.166 25.001,-22.559c0,0 99.993,-323.732 216.187,-343.282Z" style="fill:#658947;stroke:#000;stroke-width:3.13px;"/></g><g id="Pflanze-vorne-mitte-rechts"><path d="M2079.04,3410.04c-0,0 153.511,212.969 -14.243,548.826c0,-0 -99.387,-311.992 14.243,-548.826Z" style="fill:#87af35;stroke:#000;stroke-width:3.12px;"/><path d="M1824.21,3642.47c-0,-0 313.561,-100.614 293.151,364.673c-0,0 -16.199,24.485 -55.344,-7.377c0,0 -45.2,-289.403 -237.807,-357.296Z" style="fill:#87af35;stroke:#000;stroke-width:3.12px;"/><path d="M2340.08,3644.84c0,0 -264.902,-51.188 -241.188,365.84c-0,0 10.907,18.167 25.002,-22.558c-0,-0 99.993,-323.732 216.186,-343.282Z" style="fill:#87af35;stroke:#000;stroke-width:3.13px;"/></g><g id="Pflanze-hinten-links"><path d="M1111.66,2924.91c-0,0 153.511,212.969 -14.243,548.826c0,-0 -99.387,-311.992 14.243,-548.826Z" style="fill:#87af35;stroke:#000;stroke-width:3.12px;"/><path d="M856.827,3157.34c-0,-0 313.561,-100.613 293.151,364.674c-0,-0 -16.199,24.485 -55.344,-7.377c0,-0 -45.2,-289.404 -237.807,-357.297Z" style="fill:#87af35;stroke:#000;stroke-width:3.12px;"/><path d="M1372.7,3159.71c0,0 -264.902,-51.187 -241.188,365.841c0,-0 10.907,18.166 25.002,-22.559c-0,0 99.993,-323.732 216.186,-343.282Z" style="fill:#87af35;stroke:#000;stroke-width:3.13px;"/></g><g id="Pflanze-hinten-rechts"><path d="M3011.24,2968.73c-0,0 153.511,212.97 -14.243,548.826c0,0 -99.387,-311.991 14.243,-548.826Z" style="fill:#658947;stroke:#000;stroke-width:3.12px;"/><path d="M2756.4,3201.16c-0,0 313.561,-100.613 293.15,364.674c0,-0 -16.199,24.485 -55.343,-7.377c-0,-0 -45.2,-289.404 -237.807,-357.297Z" style="fill:#658947;stroke:#000;stroke-width:3.12px;"/><path d="M3272.28,3203.53c0,-0 -264.902,-51.188 -241.188,365.84c-0,-0 10.907,18.166 25.002,-22.559c-0,0 99.992,-323.732 216.186,-343.281Z" style="fill:#658947;stroke:#000;stroke-width:3.13px;"/></g><g id="Pflanze-hinten-mitte-links"><path d="M1763.42,2973.37c0,0 153.511,212.97 -14.242,548.826c-0,-0 -99.387,-311.991 14.242,-548.826Z" style="fill:#658947;stroke:#000;stroke-width:3.12px;"/><path d="M1508.59,3205.79c0,-0 313.562,-100.613 293.151,364.674c0,-0 -16.199,24.485 -55.343,-7.377c-0,-0 -45.2,-289.404 -237.808,-357.297Z" style="fill:#658947;stroke:#000;stroke-width:3.12px;"/><path d="M2024.46,3208.16c-0,0 -264.902,-51.187 -241.188,365.841c-0,-0 10.907,18.166 25.001,-22.559c0,0 99.993,-323.732 216.187,-343.282Z" style="fill:#658947;stroke:#000;stroke-width:3.13px;"/></g><g id="Pflanze-hinten-mitte-rechts"><path d="M2380.28,2973.37c-0,0 153.511,212.97 -14.243,548.826c0,-0 -99.387,-311.991 14.243,-548.826Z" style="fill:#658947;stroke:#000;stroke-width:3.12px;"/><path d="M2125.44,3205.79c-0,-0 313.561,-100.613 293.15,364.674c0,-0 -16.199,24.485 -55.343,-7.377c0,-0 -45.2,-289.404 -237.807,-357.297Z" style="fill:#658947;stroke:#000;stroke-width:3.12px;"/><path d="M2641.32,3208.16c0,0 -264.902,-51.187 -241.188,365.841c-0,-0 10.907,18.166 25.002,-22.559c-0,0 99.993,-323.732 216.186,-343.282Z" style="fill:#658947;stroke:#000;stroke-width:3.13px;"/></g></g></g><g id="Beet-vorne"><g id="Beetumrandung1" serif:id="Beetumrandung"><rect x="1998.26" y="4511.38" width="2681.55" height="462" style="fill:#8d806d;stroke:#000;stroke-width:6.25px;"/><path d="M3737.74,5322.28l0,462l942.068,-810.907l-0,-462l-942.068,810.907Z" style="fill:#8d806d;stroke:#000;stroke-width:6.25px;"/><path d="M1056.19,5322.28l942.068,-810.907l-0,462l-942.068,810.907l0,-462Z" style="fill:#8d806d;stroke:#000;stroke-width:6.25px;"/><rect x="1056.19" y="5322.28" width="2681.55" height="462" style="fill:#8d806d;stroke:#000;stroke-width:6.25px;"/></g><path id="Erde1" serif:id="Erde" d="M1998.26,4668.02l2540.69,-36.391l-801.21,690.656l-2494.72,0l755.236,-654.265Z" style="fill:#684827;stroke:#000;stroke-width:6.25px;"/><g id="Pflanzen1" serif:id="Pflanzen"><g id="Pflanze-vorne-links1" serif:id="Pflanze-vorne-links"><path d="M1650.4,5291.6c-0,-0 56.304,35.485 97.881,-78.793c41.577,-114.277 13.321,-2.875 89.448,-36.255c76.128,-33.379 -6.117,-21.369 -0.479,-86.108c5.637,-64.74 12.554,-79.44 56.676,-64.053c44.121,15.386 118.417,-78.414 21.122,-138.988c-97.295,-60.573 -116.183,34.415 -120.573,76.361c-4.389,41.946 40.558,88.902 0,92.136c-40.557,3.234 -87.967,-9.917 -101.242,46.251c-13.274,56.168 60.608,82.859 0,110.656c-60.607,27.798 -117.443,-29.616 -80.389,78.793l37.556,-0Z" style="fill:#87af35;stroke:#000;stroke-width:6.25px;"/><path d="M1644.26,5212.8c0,0 12.681,-170.915 93.873,-191.996c81.192,-21.081 18.183,-61.351 25.764,-129.583c7.581,-68.231 60.773,-62.125 70.769,-101.232c9.996,-39.106 -79.118,-82.438 -70.478,-158.365c-0,0 -9.822,-100.696 16.844,-196.983c26.665,-96.287 -243.111,-281.99 -268.272,-225.991c0,0 -194.099,83.015 40.38,464.101c0,0 99.508,85.801 103.334,158.653c3.826,72.852 -56.043,267.669 -12.214,381.396Z" style="fill:#87af35;stroke:#000;stroke-width:6.25px;"/><path d="M1615.45,5192.99c-0,-0 -100.403,1.129 -119.845,-45.16c-0,-0 9.945,-77.273 -13.488,-111.797c-23.432,-34.524 -95.166,21.074 -132.244,-45.793c-37.078,-66.867 22.783,-128.145 -14.381,-158.529c-37.163,-30.383 -155.247,10.045 -211.073,-51.283c-55.826,-61.328 14.228,-111.106 50.545,-104.376c36.318,6.73 128.464,-5.981 161.754,-43.301c33.291,-37.32 128.702,44.945 120.361,92.794c-8.342,47.849 100.912,95.556 155.653,110.493c54.742,14.936 10.417,71.475 -1.49,174.284c-11.906,102.808 -16.164,131.586 4.208,182.668Z" style="fill:#87af35;stroke:#000;stroke-width:6.25px;"/></g><g id="Pflanze-hinten-rechts1" serif:id="Pflanze-hinten-rechts"><path d="M4174.82,4769.91c0,0 56.304,35.485 97.881,-78.792c41.577,-114.278 13.321,-2.876 89.448,-36.255c76.128,-33.38 -6.117,-21.37 -0.479,-86.109c5.637,-64.739 12.555,-79.44 56.676,-64.053c44.121,15.386 118.417,-78.414 21.122,-138.988c-97.295,-60.573 -116.183,34.415 -120.572,76.361c-4.39,41.946 40.557,88.903 -0,92.136c-40.558,3.234 -87.968,-9.917 -101.242,46.251c-13.275,56.168 60.607,82.86 -0,110.657c-60.608,27.797 -117.444,-29.617 -80.39,78.792l37.556,0Z" style="fill:#87af35;stroke:#000;stroke-width:6.25px;"/><path d="M4168.68,4691.12c0,-0 12.681,-170.915 93.873,-191.997c81.192,-21.081 18.183,-61.351 25.764,-129.582c7.581,-68.232 60.773,-62.125 70.769,-101.232c9.996,-39.107 -79.118,-82.439 -70.478,-158.366c-0,0 -9.822,-100.696 16.844,-196.983c26.665,-96.286 -243.111,-281.99 -268.272,-225.991c0,0 -194.099,83.015 40.38,464.102c0,-0 99.508,85.8 103.334,158.652c3.826,72.853 -56.043,267.67 -12.214,381.397Z" style="fill:#87af35;stroke:#000;stroke-width:6.25px;"/><path d="M4139.87,4671.3c-0,-0 -100.403,1.129 -119.845,-45.16c-0,-0 9.945,-77.272 -13.487,-111.796c-23.433,-34.525 -95.167,21.073 -132.245,-45.794c-37.078,-66.867 22.783,-128.145 -14.381,-158.528c-37.163,-30.384 -155.247,10.044 -211.073,-51.284c-55.826,-61.328 14.228,-111.105 50.546,-104.376c36.317,6.73 128.463,-5.98 161.753,-43.3c33.291,-37.32 128.703,44.945 120.361,92.794c-8.342,47.849 100.912,95.556 155.653,110.492c54.742,14.937 10.417,71.476 -1.49,174.284c-11.906,102.809 -16.164,131.586 4.208,182.668Z" style="fill:#87af35;stroke:#000;stroke-width:6.25px;"/></g><g id="Pflanze-hinten-mitte"><path d="M3154.16,4803.36c-0,0 56.303,35.486 97.88,-78.792c41.578,-114.277 13.322,-2.876 89.449,-36.255c76.128,-33.379 -6.117,-21.37 -0.479,-86.109c5.637,-64.739 12.554,-79.439 56.675,-64.053c44.122,15.387 118.418,-78.414 21.123,-138.987c-97.295,-60.574 -116.183,34.415 -120.573,76.361c-4.389,41.945 40.558,88.902 0,92.136c-40.558,3.234 -87.968,-9.918 -101.242,46.25c-13.274,56.168 60.607,82.86 0,110.657c-60.607,27.797 -117.443,-29.617 -80.39,78.792l37.557,0Z" style="fill:#658947;stroke:#000;stroke-width:6.25px;"/><path d="M3148.02,4724.57c-0,0 12.681,-170.915 93.873,-191.996c81.191,-21.082 18.182,-61.351 25.764,-129.583c7.581,-68.232 60.773,-62.125 70.769,-101.232c9.996,-39.107 -79.119,-82.439 -70.478,-158.365c-0,-0 -9.822,-100.696 16.844,-196.983c26.665,-96.287 -243.111,-281.991 -268.272,-225.991c0,-0 -194.099,83.015 40.38,464.101c-0,-0 99.507,85.801 103.334,158.653c3.826,72.852 -56.044,267.669 -12.214,381.396Z" style="fill:#658947;stroke:#000;stroke-width:6.25px;"/><path d="M3119.21,4704.76c-0,0 -100.403,1.129 -119.846,-45.16c0,0 9.945,-77.272 -13.487,-111.796c-23.432,-34.524 -95.166,21.074 -132.244,-45.793c-37.078,-66.867 22.783,-128.145 -14.381,-158.529c-37.163,-30.383 -155.248,10.044 -211.074,-51.284c-55.825,-61.327 14.228,-111.105 50.546,-104.375c36.318,6.729 128.463,-5.981 161.754,-43.301c33.29,-37.32 128.702,44.945 120.361,92.794c-8.342,47.849 100.912,95.556 155.653,110.493c54.741,14.936 10.417,71.475 -1.49,174.284c-11.906,102.808 -16.165,131.586 4.208,182.667Z" style="fill:#658947;stroke:#000;stroke-width:6.25px;"/></g><g id="Pflanze-hinten-links1" serif:id="Pflanze-hinten-links"><path d="M2207.28,4803.03c-0,0 53.95,37.77 93.788,-83.865c39.839,-121.634 12.764,-3.06 85.709,-38.589c72.945,-35.528 -5.861,-22.745 -0.459,-91.652c5.401,-68.907 12.029,-84.554 54.306,-68.177c42.276,16.377 113.467,-83.462 20.239,-147.935c-93.227,-64.473 -111.325,36.631 -115.531,81.277c-4.206,44.646 38.862,94.626 -0,98.068c-38.862,3.442 -84.29,-10.556 -97.009,49.228c-12.72,59.784 58.073,88.194 -0,117.78c-58.074,29.587 -112.534,-31.523 -77.029,83.865l35.986,0Z" style="fill:#658947;stroke:#000;stroke-width:6.25px;"/><path d="M2201.39,4719.16c-0,0 12.151,-181.918 89.948,-204.356c77.797,-22.439 17.422,-65.301 24.686,-137.925c7.264,-72.624 58.233,-66.125 67.811,-107.749c9.578,-41.624 -75.811,-87.746 -67.532,-168.561c0,0 -9.411,-107.178 16.14,-209.664c25.551,-102.485 -232.947,-300.144 -257.055,-240.539c-0,-0 -185.984,88.359 38.691,493.978c0,0 95.347,91.325 99.014,168.867c3.666,77.542 -53.7,284.901 -11.703,405.949Z" style="fill:#658947;stroke:#000;stroke-width:6.25px;"/><path d="M2173.79,4698.08c-0,0 -96.205,1.202 -114.835,-48.067c0,-0 9.529,-82.247 -12.923,-118.994c-22.453,-36.747 -91.188,22.431 -126.716,-48.741c-35.527,-71.172 21.831,-136.395 -13.779,-168.734c-35.61,-32.34 -148.757,10.69 -202.249,-54.585c-53.492,-65.276 13.633,-118.258 48.433,-111.096c34.799,7.163 123.092,-6.365 154.991,-46.088c31.898,-39.723 123.321,47.838 115.328,98.768c-7.993,50.929 96.693,101.708 149.146,117.606c52.452,15.898 9.981,76.077 -1.428,185.504c-11.408,109.427 -15.489,140.057 4.032,194.427Z" style="fill:#658947;stroke:#000;stroke-width:6.25px;"/></g><g id="Pflanze-vorne-mitte"><path d="M2780.73,5265.37c-0,0 56.303,35.485 97.88,-78.792c41.577,-114.278 13.321,-2.876 89.449,-36.255c76.128,-33.38 -6.117,-21.37 -0.48,-86.109c5.638,-64.739 12.555,-79.44 56.676,-64.053c44.121,15.386 118.418,-78.414 21.123,-138.988c-97.295,-60.573 -116.184,34.415 -120.573,76.361c-4.389,41.946 40.558,88.903 0,92.136c-40.558,3.234 -87.968,-9.917 -101.242,46.251c-13.274,56.168 60.607,82.86 0,110.657c-60.607,27.797 -117.443,-29.617 -80.39,78.792l37.557,0Z" style="fill:#87af35;stroke:#000;stroke-width:6.25px;"/><path d="M2774.6,5186.57c-0,-0 12.681,-170.915 93.873,-191.997c81.191,-21.081 18.182,-61.351 25.763,-129.582c7.581,-68.232 60.774,-62.125 70.77,-101.232c9.996,-39.107 -79.119,-82.439 -70.478,-158.366c-0,0 -9.822,-100.696 16.843,-196.983c26.666,-96.287 -243.11,-281.99 -268.271,-225.991c-0,0 -194.099,83.015 40.38,464.102c-0,-0 99.507,85.8 103.333,158.652c3.827,72.852 -56.043,267.67 -12.213,381.397Z" style="fill:#87af35;stroke:#000;stroke-width:6.25px;"/><path d="M2745.79,5166.76c0,-0 -100.402,1.129 -119.845,-45.16c0,-0 9.945,-77.272 -13.487,-111.796c-23.432,-34.525 -95.166,21.073 -132.244,-45.794c-37.078,-66.867 22.783,-128.145 -14.381,-158.528c-37.164,-30.384 -155.248,10.044 -211.074,-51.284c-55.826,-61.328 14.228,-111.105 50.546,-104.376c36.318,6.73 128.463,-5.98 161.754,-43.3c33.29,-37.32 128.702,44.944 120.36,92.794c-8.341,47.849 100.912,95.556 155.654,110.492c54.741,14.937 10.416,71.476 -1.49,174.284c-11.906,102.809 -16.165,131.586 4.207,182.668Z" style="fill:#87af35;stroke:#000;stroke-width:6.25px;"/></g><g id="Pflanze-vorne-rechts1" serif:id="Pflanze-vorne-rechts"><path d="M3697.04,5280.69c-0,-0 56.303,35.485 97.88,-78.792c41.577,-114.278 13.321,-2.876 89.449,-36.255c76.128,-33.38 -6.117,-21.37 -0.48,-86.109c5.638,-64.739 12.555,-79.44 56.676,-64.053c44.121,15.386 118.418,-78.414 21.123,-138.988c-97.295,-60.573 -116.184,34.415 -120.573,76.361c-4.389,41.946 40.558,88.902 0,92.136c-40.558,3.234 -87.968,-9.917 -101.242,46.251c-13.274,56.168 60.607,82.859 0,110.657c-60.607,27.797 -117.443,-29.617 -80.39,78.792l37.557,-0Z" style="fill:#658947;stroke:#000;stroke-width:6.25px;"/><path d="M3690.9,5201.89c-0,-0 12.681,-170.915 93.873,-191.997c81.191,-21.081 18.182,-61.351 25.763,-129.582c7.581,-68.232 60.774,-62.126 70.77,-101.232c9.996,-39.107 -79.119,-82.439 -70.479,-158.366c0,0 -9.821,-100.696 16.844,-196.983c26.666,-96.287 -243.11,-281.99 -268.271,-225.991c-0,0 -194.099,83.015 40.38,464.101c-0,0 99.507,85.801 103.333,158.653c3.827,72.852 -56.043,267.67 -12.213,381.397Z" style="fill:#658947;stroke:#000;stroke-width:6.25px;"/><path d="M3662.1,5182.08c0,-0 -100.402,1.129 -119.845,-45.16c0,-0 9.945,-77.273 -13.487,-111.797c-23.432,-34.524 -95.166,21.074 -132.244,-45.793c-37.078,-66.867 22.782,-128.145 -14.381,-158.528c-37.164,-30.384 -155.248,10.044 -211.074,-51.284c-55.826,-61.328 14.228,-111.106 50.546,-104.376c36.318,6.73 128.463,-5.98 161.754,-43.301c33.29,-37.32 128.702,44.945 120.36,92.794c-8.341,47.85 100.912,95.557 155.654,110.493c54.741,14.937 10.416,71.475 -1.49,174.284c-11.906,102.808 -16.165,131.586 4.207,182.668Z" style="fill:#658947;stroke:#000;stroke-width:6.25px;"/></g></g></g><g id="water"><path d="M3286.33,2464.94c-0,-0 -839.395,-118.583 -1283.23,902.814" style="fill:none;stroke:#0433ff;stroke-width:9.37px;stroke-dasharray:37.5,56.25,0,0,0,0;"/><path d="M3327.8,2661.99c0,0 -390.149,234.667 -391.706,750.267" style="fill:none;stroke:#0433ff;stroke-width:9.37px;stroke-dasharray:37.5,56.25,0,0,0,0;"/><path d="M3327.8,2608.04c0,0 -404.892,196.064 -515.466,759.716" style="fill:none;stroke:#0433ff;stroke-width:9.37px;stroke-dasharray:37.5,56.25,0,0,0,0;"/><path d="M3327.8,2562.31c0,0 -468.619,192.222 -657.378,849.947" style="fill:none;stroke:#0433ff;stroke-width:9.37px;stroke-dasharray:37.5,56.25,0,0,0,0;"/><path d="M3327.8,2525.79c0,-0 -776.38,-222.551 -1262.26,1009.4" style="fill:none;stroke:#0433ff;stroke-width:9.37px;stroke-dasharray:37.5,56.25,0,0,0,0;"/><path d="M3270.7,2562.31c-0,0 -525.409,-155.627 -948.598,849.947" style="fill:none;stroke:#0433ff;stroke-width:9.37px;stroke-dasharray:37.5,56.25,0,0,0,0;"/><path d="M3275.3,2568.25c0,0 -513.812,65.348 -864.097,943.812" style="fill:none;stroke:#0433ff;stroke-width:9.37px;stroke-dasharray:37.5,56.25,0,0,0,0;"/></g></g><g id="watercan"><g id="Ausgiesser"><path d="M4885.3,886.571c30.177,-44.145 64.3,-109.116 113.144,-141.275c18.433,-12.136 47.837,-23.184 66.731,-3.875c36.419,32.384 -12.151,90.739 -29.151,117.337c-11.421,17.87 -23.405,35.406 -34.009,53.774c-2.236,3.871 -14.388,23.619 -15.436,27.965c-34.575,68.171 -62.983,94.2 -62.983,94.2c-33.391,30.708 -62.582,10.563 -62.582,10.563c-34.058,-33.117 -15.19,-73.905 -15.19,-73.905c24.198,-73.637 40.597,-83.136 39.476,-84.784Z" style="fill:#aa7942;stroke:#000;stroke-width:3.13px;"/><path d="M5036.34,794.207c5.179,2.99 7.032,9.492 4.135,14.51c-2.897,5.018 -9.454,6.664 -14.633,3.674c-5.179,-2.99 -7.032,-9.492 -4.135,-14.51c2.897,-5.018 9.454,-6.664 14.633,-3.674Z" style="fill:none;stroke:#000;stroke-width:3.13px;"/><path d="M5035.24,744.928c5.179,2.99 7.032,9.492 4.135,14.509c-2.897,5.018 -9.454,6.665 -14.633,3.674c-5.179,-2.99 -7.032,-9.491 -4.135,-14.509c2.897,-5.018 9.454,-6.664 14.633,-3.674Z" style="fill:none;stroke:#000;stroke-width:3.13px;"/><path d="M4997.15,773.884c5.179,2.99 7.032,9.492 4.135,14.51c-2.897,5.018 -9.454,6.664 -14.633,3.674c-5.179,-2.99 -7.032,-9.492 -4.135,-14.51c2.897,-5.018 9.454,-6.664 14.633,-3.674Z" style="fill:none;stroke:#000;stroke-width:3.13px;"/><path d="M4991.95,811.087c5.179,2.99 7.032,9.491 4.134,14.509c-2.897,5.018 -9.453,6.664 -14.632,3.674c-5.18,-2.99 -7.032,-9.491 -4.135,-14.509c2.897,-5.018 9.454,-6.664 14.633,-3.674Z" style="fill:none;stroke:#000;stroke-width:3.13px;"/><path d="M5019.96,839.383c5.179,2.99 7.032,9.492 4.135,14.51c-2.897,5.018 -9.454,6.664 -14.633,3.674c-5.179,-2.99 -7.032,-9.492 -4.135,-14.51c2.897,-5.018 9.454,-6.664 14.633,-3.674Z" style="fill:none;stroke:#000;stroke-width:3.13px;"/><path d="M4996.37,876.523c5.179,2.991 7.031,9.492 4.134,14.51c-2.897,5.018 -9.454,6.664 -14.633,3.674c-5.179,-2.99 -7.031,-9.492 -4.134,-14.51c2.897,-5.017 9.454,-6.664 14.633,-3.674Z" style="fill:none;stroke:#000;stroke-width:3.13px;"/><path d="M4971.68,853.568c5.179,2.99 7.032,9.492 4.134,14.509c-2.897,5.018 -9.453,6.665 -14.633,3.674c-5.179,-2.99 -7.031,-9.491 -4.134,-14.509c2.897,-5.018 9.454,-6.664 14.633,-3.674Z" style="fill:none;stroke:#000;stroke-width:3.13px;"/><path d="M4947.76,819.173c5.179,2.99 7.032,9.492 4.135,14.51c-2.898,5.018 -9.454,6.664 -14.633,3.674c-5.179,-2.99 -7.032,-9.492 -4.135,-14.51c2.897,-5.018 9.454,-6.664 14.633,-3.674Z" style="fill:none;stroke:#000;stroke-width:3.13px;"/><path d="M4922.38,867.078c5.179,2.99 7.031,9.491 4.134,14.509c-2.897,5.018 -9.454,6.664 -14.633,3.674c-5.179,-2.99 -7.031,-9.491 -4.134,-14.509c2.897,-5.018 9.454,-6.664 14.633,-3.674Z" style="fill:none;stroke:#000;stroke-width:3.13px;"/><path d="M4946.93,893.374c5.179,2.99 7.032,9.491 4.135,14.509c-2.898,5.018 -9.454,6.664 -14.633,3.674c-5.179,-2.99 -7.032,-9.492 -4.135,-14.509c2.897,-5.018 9.454,-6.665 14.633,-3.674Z" style="fill:none;stroke:#000;stroke-width:3.13px;"/><path d="M4975.36,916.213c5.179,2.991 7.032,9.492 4.135,14.51c-2.898,5.018 -9.454,6.664 -14.633,3.674c-5.179,-2.99 -7.032,-9.492 -4.135,-14.509c2.897,-5.018 9.454,-6.665 14.633,-3.675Z" style="fill:none;stroke:#000;stroke-width:3.13px;"/><path d="M4953.05,950.508c5.179,2.991 7.032,9.492 4.135,14.51c-2.897,5.018 -9.454,6.664 -14.633,3.674c-5.179,-2.99 -7.032,-9.492 -4.135,-14.51c2.897,-5.017 9.454,-6.664 14.633,-3.674Z" style="fill:none;stroke:#000;stroke-width:3.13px;"/><path d="M4921.6,937.26c5.179,2.99 7.032,9.491 4.135,14.509c-2.897,5.018 -9.454,6.664 -14.633,3.674c-5.179,-2.99 -7.032,-9.491 -4.135,-14.509c2.897,-5.018 9.454,-6.664 14.633,-3.674Z" style="fill:none;stroke:#000;stroke-width:3.13px;"/><path d="M4894.47,912.333c5.179,2.99 7.032,9.491 4.135,14.509c-2.897,5.018 -9.454,6.664 -14.633,3.674c-5.179,-2.99 -7.032,-9.491 -4.135,-14.509c2.897,-5.018 9.454,-6.665 14.633,-3.674Z" style="fill:none;stroke:#000;stroke-width:3.13px;"/><path d="M4873.94,969.557c5.179,2.99 7.032,9.492 4.135,14.51c-2.897,5.017 -9.454,6.664 -14.633,3.674c-5.179,-2.991 -7.032,-9.492 -4.135,-14.51c2.898,-5.018 9.454,-6.664 14.633,-3.674Z" style="fill:none;stroke:#000;stroke-width:3.13px;"/><path d="M4924.34,978.576c5.179,2.99 7.032,9.491 4.134,14.509c-2.897,5.018 -9.453,6.664 -14.632,3.674c-5.18,-2.99 -7.032,-9.492 -4.135,-14.509c2.897,-5.018 9.454,-6.665 14.633,-3.674Z" style="fill:none;stroke:#000;stroke-width:3.13px;"/><path d="M4892.78,1001.74c5.179,2.99 7.031,9.492 4.134,14.51c-2.897,5.018 -9.454,6.664 -14.633,3.674c-5.179,-2.99 -7.032,-9.492 -4.134,-14.51c2.897,-5.018 9.453,-6.664 14.633,-3.674Z" style="fill:none;stroke:#000;stroke-width:3.13px;"/></g><g id="Ausgiesser-hinten" serif:id="Ausgiesser hinten"><path d="M5095.11,798.289c0,-0 -34.03,113.299 -151.884,244.705c0,0 37.756,-1.65 77.222,-61.431c39.466,-59.78 9.885,-15.614 50.916,-75.173c-0,-0 44.886,-63.99 23.746,-108.101Z" style="fill:#91aba6;stroke:#000;stroke-width:3.13px;"/><path d="M5097.04,888.245c0,-0 19.494,22.555 -4.743,66.574c-24.237,44.02 -55.89,36.392 -61.049,34.066l65.792,-100.64Z" style="fill:#91aba6;stroke:#000;stroke-width:3.13px;"/><path d="M5134.56,950.02c-0,-0 -2.135,31.919 -30.631,59.893" style="fill:none;stroke:#000;stroke-width:3.13px;"/><path d="M5114.25,933.689c0,-0 -11.994,37.677 -45.5,61.97c-0,0 3.18,18.294 17.597,13.067c14.417,-5.227 34.132,-41.432 37.228,-55.334m0,0c0,0 3.961,-10.636 1.093,-16.596c0,0 -4.728,-10.286 -10.31,-3.045" style="fill:#91aba6;stroke:#000;stroke-width:3.13px;"/></g><g id="Steg"><path d="M5103.93,1009.91l363.186,239.431c-0,-0 88.702,1.642 68.286,-94.248l-400.841,-205.076" style="fill:#a5bbb3;stroke:#000;stroke-width:3.13px;"/><path d="M5566.47,1144.35c-0,0 -7.78,6.67 -16.976,4.497c0,0 2.892,-9.171 10.111,-11.346c0,0 5.556,1.696 6.865,6.849Z" style="fill:#91aba6;stroke:#000;stroke-width:3.13px;"/><path d="M5569.14,1157.08c-0,-0 21.599,44.57 -12.315,84.752c-33.914,40.181 -89.285,31.273 -87.186,24.166c0,-0 99.095,9.847 86.713,-104.115l12.788,-4.803Z" style="fill:#91aba6;stroke:#000;stroke-width:3.13px;"/><path d="M5586.49,1176.79c0,0 298.749,166.276 323.105,167.856c0,0 40.694,49.609 27.606,191.304c-0,0 -179.127,-89.695 -418.569,-252.528c-0,-0 79.146,-26.158 67.858,-106.632Z" style="fill:#a5bbb3;stroke:#000;stroke-width:3.13px;"/><path d="M6121.53,1199.6c0,0 110.808,-11.045 95.188,25.754c-15.619,36.799 -53.27,-4.082 -92.02,-7.917c0,-0 -93.629,-12.867 -125.346,-16.176l-416.072,-51.752l-3.203,-8.492l541.453,58.583Z" style="fill:#91aba6;stroke:#000;stroke-width:3.13px;"/><path d="M5868.28,1012.32l1.724,14.525c0,-0 -24.225,10.765 -58.533,25.352c-67.665,28.771 -174.55,72.412 -212.16,77.668l-11.928,-1.472c-0,0 255.075,-94.912 280.897,-116.073Z" style="fill:#91aba6;stroke:#000;stroke-width:3.13px;"/></g><g id="Kanne"><path d="M6605.63,1548.59c0,-0 -46.254,149.053 -214.888,176.199c-168.634,27.146 -198.141,16.78 -262.882,6.264c-64.741,-10.517 -185.475,-59.064 -210.79,-118.328c0,-0 34.054,126.752 270.448,154.75m0,-0c0,-0 142.627,17.647 209.409,-1.607c66.782,-19.254 119.661,-44.935 159.614,-83.94c39.954,-39.005 59.268,-94.307 49.774,-132.943" style="fill:#99aba1;stroke:#000;stroke-width:3.13px;"/><path d="M6328.72,1704.75c-0,-0 -156.34,20.98 -263.522,-28.262c-107.182,-49.241 -124.378,-71.886 -149.158,-121.937c0,0 17.954,11.03 32.772,-6.294c14.819,-17.325 16.738,-43.471 18.464,-64.387c1.727,-20.916 -6.134,-80.666 -12.001,-102.776c-5.867,-22.109 -20.936,-55.208 -55.319,-51.91c-0,0 -11.237,-111.348 -7.471,-133.557c-0,0 165.538,14.711 208.446,33.141c42.907,18.431 92.034,26.808 109.235,19.873c17.201,-6.936 30.715,-8.633 31.218,-33.247c0.503,-24.614 -21.484,-33.058 -41.027,-36.704c-19.543,-3.646 -33.974,0.255 -59.069,3.782c-25.095,3.528 -78.067,-7.443 -90.976,-5.583c-12.909,1.86 -149.22,-14.809 -157.681,-15.762c0,-0 -12.205,-223.473 -17.072,-249.752c0,0 44.442,53.748 160.499,79.362c116.058,25.614 176.38,18.819 205.647,17.809c29.266,-1.01 118.586,-8.386 130.712,-12.362c-0,-0 -10.413,64.004 2.803,81.308c13.216,17.305 13.908,21.145 45.901,20.151c31.993,-0.994 44.466,-25.679 52.917,-43.562c8.451,-17.882 14.041,-63.602 10.226,-76.291c-0,0 21.314,7.991 24.378,-12.504c0,0 106.414,-54.614 114.279,-75.972l-46.77,642.245c-0,-0 -76.166,158.815 -247.431,173.191Z" style="fill:#91aba6;stroke:#000;stroke-width:3.13px;"/><path d="M6436.21,718.548c-0,0 2.561,73.302 -10.211,120.124c-0,-0 -80.326,-96.387 -191.92,-140.854c0,-0 195.487,13.719 202.131,20.73Z" style="fill:#617a69;stroke:#000;stroke-width:3.13px;"/><path d="M6551.03,750.288l-28.302,169.557c0,0 67.29,-28.397 86.219,-66.604c18.929,-38.208 11.265,-73.858 -57.917,-102.953" style="fill:#617a69;stroke:#000;stroke-width:3.13px;"/><path d="M6165.56,696.945l35.019,-2.113c0,0 212.701,131.273 225.542,159.9l-6.239,38.065c0,0 -69.422,-76.718 -254.322,-195.852Z" style="fill:#a5bbb3;stroke:#000;stroke-width:3.13px;"/><path d="M6149.03,704.563c0,-0 204.622,123.381 268.471,205.736l-11.505,33.539c0,0 -200.672,11.774 -218.573,6.84c0,0 -237.48,-3.364 -277.48,-74.16c-39.999,-70.796 51.954,-117.787 79.344,-125.757c-0,-0 95.734,-37.313 159.743,-46.198Z" style="fill:#a5bbb3;stroke:#000;stroke-width:3.13px;"/><path d="M6043.65,718.457c0,0 -115.935,20.48 -153.88,91.569m0,-0c0,-0 -21.328,37.919 5.024,68.029c26.353,30.111 24.393,45.477 121.758,68.792c97.364,23.314 143.689,9.953 215.564,19.645c71.876,9.692 101.96,-5.362 169.076,-8.057l-8.991,15.572c0,0 -12.708,-4.061 -16,9.654c0,-0 -74.576,5.681 -115.974,6.746c-0,0 -117.382,-0.471 -153.666,-6.564c0,0 -99.414,-12.447 -156.1,-40.74c-56.685,-28.293 -62.38,-43.131 -74.125,-58.153c-0,0 -33.841,-43.527 -4.691,-85.389c-0,0 27.74,-55.278 172.005,-81.104" style="fill:#99aba1;stroke:#000;stroke-width:3.13px;"/><path d="M6629.4,812.012c-0,0 16.252,20.764 -23.686,74.442m0,0c0,0 -12,16.336 -37.788,32.034c-0,0 -37.482,21.754 -50.173,31.016l1.793,-14.937c-0,0 111.698,-39.471 109.854,-122.555" style="fill:#99aba1;stroke:#000;stroke-width:3.13px;"/></g><path d="M6389.35,990.007c0,0 5.783,5.951 19.003,4.454c-0,0 51.09,-16.482 61.862,-16.694c-0,0 0.594,58.102 -15.558,81.012c-16.152,22.911 -19.572,21.982 -30.69,26.459c-11.118,4.476 -24.306,3.823 -34.558,-5.898m-0,0c-0,0 -18.083,-20.533 -0.059,-89.333" style="fill:#a5bbb3;stroke:#000;stroke-width:3.13px;"/><g id="Griff_hinten"><path d="M6728.85,661.492c0,-0 -89.613,-53.798 -173.09,80.002c0,-0 23.08,2.58 50.045,23.219c-0,0 17.771,-101.546 123.045,-103.221Z" style="fill:#a5bbb3;stroke:#000;stroke-width:3.13px;"/><path d="M6707.05,677.508c-0,0 77.625,-23.782 108.319,47.827c0,0 25.644,44.919 2.946,121.148m-0,-0c-0,-0 -19.517,89.35 -170.767,234.457l-0.71,-76.776c0,-0 101.611,-104.186 129.282,-168.421c0,-0 74.34,-143.441 -69.322,-157.799" style="fill:#99aba1;stroke:#000;stroke-width:3.13px;"/></g><g id="Griff-oben" serif:id="Griff oben"><path d="M6075.77,315.034l37.103,19.365c0,-0 -45.546,25.562 -45.505,122.491c0.04,96.929 8.205,187.534 24.578,236.485l-63.546,14.528c-0,-0 3.58,-47.42 -5.971,-96.991c-9.552,-49.571 -9.491,-122.668 -10.427,-138.088c-0.935,-15.421 -0.663,-47.432 2.958,-68.8c3.622,-21.368 15.221,-75.492 60.81,-88.99Z" style="fill:#99aba1;stroke:#000;stroke-width:3.13px;"/><path d="M6098.4,309.441c9.574,2.796 20.951,-9.645 86.54,27.154c0,-0 21.641,8.585 35.446,16.856c-0,-0 97.749,40.538 114.171,69.525c0,-0 -81.007,-59.414 -171.107,-81.503c-0,-0 -19.287,-7.48 -65.05,-32.032Z" style="fill:#99aba1;stroke:#000;stroke-width:3.13px;"/><path d="M6152.78,305.256c0,0 14.734,-16.554 49.155,-6.483c-0,-0 110.813,62.303 171.421,77.885c-0,-0 140.902,123.539 153.329,272.071c-0,-0 6.775,238.913 -32.619,314.471c0,0 -30.133,-3.63 -86.874,14.865c0,0 60.15,-162.975 43.564,-285.674c-0,-0 -22.92,-212.602 -91.244,-265.154c0,0 -53.85,-56.762 -206.732,-121.981Z" style="fill:#a5bbb3;stroke:#000;stroke-width:3.13px;"/></g></g></svg>